%TF.GenerationSoftware,KiCad,Pcbnew,8.0.6*%
%TF.CreationDate,2024-11-03T13:03:28+02:00*%
%TF.ProjectId,Cronus,43726f6e-7573-42e6-9b69-6361645f7063,rev?*%
%TF.SameCoordinates,PX649cd60PY6c7aff0*%
%TF.FileFunction,AssemblyDrawing,Bot*%
%FSLAX46Y46*%
G04 Gerber Fmt 4.6, Leading zero omitted, Abs format (unit mm)*
G04 Created by KiCad (PCBNEW 8.0.6) date 2024-11-03 13:03:28*
%MOMM*%
%LPD*%
G01*
G04 APERTURE LIST*
%ADD10C,0.120000*%
%ADD11C,0.100000*%
G04 APERTURE END LIST*
D10*
X33633332Y14886145D02*
X33899999Y15267098D01*
X34090475Y14886145D02*
X34090475Y15686145D01*
X34090475Y15686145D02*
X33785713Y15686145D01*
X33785713Y15686145D02*
X33709523Y15648050D01*
X33709523Y15648050D02*
X33671428Y15609955D01*
X33671428Y15609955D02*
X33633332Y15533764D01*
X33633332Y15533764D02*
X33633332Y15419479D01*
X33633332Y15419479D02*
X33671428Y15343288D01*
X33671428Y15343288D02*
X33709523Y15305193D01*
X33709523Y15305193D02*
X33785713Y15267098D01*
X33785713Y15267098D02*
X34090475Y15267098D01*
X33328571Y15609955D02*
X33290475Y15648050D01*
X33290475Y15648050D02*
X33214285Y15686145D01*
X33214285Y15686145D02*
X33023809Y15686145D01*
X33023809Y15686145D02*
X32947618Y15648050D01*
X32947618Y15648050D02*
X32909523Y15609955D01*
X32909523Y15609955D02*
X32871428Y15533764D01*
X32871428Y15533764D02*
X32871428Y15457574D01*
X32871428Y15457574D02*
X32909523Y15343288D01*
X32909523Y15343288D02*
X33366666Y14886145D01*
X33366666Y14886145D02*
X32871428Y14886145D01*
X51383332Y12386145D02*
X51649999Y12767098D01*
X51840475Y12386145D02*
X51840475Y13186145D01*
X51840475Y13186145D02*
X51535713Y13186145D01*
X51535713Y13186145D02*
X51459523Y13148050D01*
X51459523Y13148050D02*
X51421428Y13109955D01*
X51421428Y13109955D02*
X51383332Y13033764D01*
X51383332Y13033764D02*
X51383332Y12919479D01*
X51383332Y12919479D02*
X51421428Y12843288D01*
X51421428Y12843288D02*
X51459523Y12805193D01*
X51459523Y12805193D02*
X51535713Y12767098D01*
X51535713Y12767098D02*
X51840475Y12767098D01*
X50621428Y12386145D02*
X51078571Y12386145D01*
X50849999Y12386145D02*
X50849999Y13186145D01*
X50849999Y13186145D02*
X50926190Y13071860D01*
X50926190Y13071860D02*
X51002380Y12995669D01*
X51002380Y12995669D02*
X51078571Y12957574D01*
X57648332Y14949145D02*
X57914999Y15330098D01*
X58105475Y14949145D02*
X58105475Y15749145D01*
X58105475Y15749145D02*
X57800713Y15749145D01*
X57800713Y15749145D02*
X57724523Y15711050D01*
X57724523Y15711050D02*
X57686428Y15672955D01*
X57686428Y15672955D02*
X57648332Y15596764D01*
X57648332Y15596764D02*
X57648332Y15482479D01*
X57648332Y15482479D02*
X57686428Y15406288D01*
X57686428Y15406288D02*
X57724523Y15368193D01*
X57724523Y15368193D02*
X57800713Y15330098D01*
X57800713Y15330098D02*
X58105475Y15330098D01*
X57381666Y15749145D02*
X56886428Y15749145D01*
X56886428Y15749145D02*
X57153094Y15444383D01*
X57153094Y15444383D02*
X57038809Y15444383D01*
X57038809Y15444383D02*
X56962618Y15406288D01*
X56962618Y15406288D02*
X56924523Y15368193D01*
X56924523Y15368193D02*
X56886428Y15292002D01*
X56886428Y15292002D02*
X56886428Y15101526D01*
X56886428Y15101526D02*
X56924523Y15025336D01*
X56924523Y15025336D02*
X56962618Y14987240D01*
X56962618Y14987240D02*
X57038809Y14949145D01*
X57038809Y14949145D02*
X57267380Y14949145D01*
X57267380Y14949145D02*
X57343571Y14987240D01*
X57343571Y14987240D02*
X57381666Y15025336D01*
D11*
%TO.C,R2*%
X31900000Y16050000D02*
X35100000Y16050000D01*
X31900000Y14450000D02*
X31900000Y16050000D01*
X35100000Y16050000D02*
X35100000Y14450000D01*
X35100000Y14450000D02*
X31900000Y14450000D01*
%TO.C,R1*%
X49650000Y13550000D02*
X52850000Y13550000D01*
X49650000Y11950000D02*
X49650000Y13550000D01*
X52850000Y13550000D02*
X52850000Y11950000D01*
X52850000Y11950000D02*
X49650000Y11950000D01*
%TO.C,R3*%
X55915000Y16113000D02*
X59115000Y16113000D01*
X55915000Y14513000D02*
X55915000Y16113000D01*
X59115000Y16113000D02*
X59115000Y14513000D01*
X59115000Y14513000D02*
X55915000Y14513000D01*
%TD*%
M02*
