%TF.GenerationSoftware,KiCad,Pcbnew,9.0.5*%
%TF.CreationDate,2025-11-19T03:22:03+02:00*%
%TF.ProjectId,Cronus,43726f6e-7573-42e6-9b69-6361645f7063,rev?*%
%TF.SameCoordinates,PX649cd60PY6c7aff0*%
%TF.FileFunction,AssemblyDrawing,Top*%
%FSLAX46Y46*%
G04 Gerber Fmt 4.6, Leading zero omitted, Abs format (unit mm)*
G04 Created by KiCad (PCBNEW 9.0.5) date 2025-11-19 03:22:03*
%MOMM*%
%LPD*%
G01*
G04 APERTURE LIST*
%ADD10C,0.150000*%
%ADD11C,0.140000*%
%ADD12C,0.100000*%
G04 APERTURE END LIST*
D10*
X48563819Y11049096D02*
X49373342Y11049096D01*
X49373342Y11049096D02*
X49468580Y11096715D01*
X49468580Y11096715D02*
X49516200Y11144334D01*
X49516200Y11144334D02*
X49563819Y11239572D01*
X49563819Y11239572D02*
X49563819Y11430048D01*
X49563819Y11430048D02*
X49516200Y11525286D01*
X49516200Y11525286D02*
X49468580Y11572905D01*
X49468580Y11572905D02*
X49373342Y11620524D01*
X49373342Y11620524D02*
X48563819Y11620524D01*
X48659057Y12049096D02*
X48611438Y12096715D01*
X48611438Y12096715D02*
X48563819Y12191953D01*
X48563819Y12191953D02*
X48563819Y12430048D01*
X48563819Y12430048D02*
X48611438Y12525286D01*
X48611438Y12525286D02*
X48659057Y12572905D01*
X48659057Y12572905D02*
X48754295Y12620524D01*
X48754295Y12620524D02*
X48849533Y12620524D01*
X48849533Y12620524D02*
X48992390Y12572905D01*
X48992390Y12572905D02*
X49563819Y12001477D01*
X49563819Y12001477D02*
X49563819Y12620524D01*
D11*
X2276190Y48567792D02*
X2276190Y49517792D01*
X2276190Y49065411D02*
X2819047Y49065411D01*
X2819047Y48567792D02*
X2819047Y49517792D01*
X3769047Y48567792D02*
X3226190Y48567792D01*
X3497618Y48567792D02*
X3497618Y49517792D01*
X3497618Y49517792D02*
X3407142Y49382078D01*
X3407142Y49382078D02*
X3316666Y49291602D01*
X3316666Y49291602D02*
X3226190Y49246364D01*
D10*
X68155489Y13896996D02*
X68869774Y13896996D01*
X68869774Y13896996D02*
X69012631Y13849377D01*
X69012631Y13849377D02*
X69107870Y13754139D01*
X69107870Y13754139D02*
X69155489Y13611282D01*
X69155489Y13611282D02*
X69155489Y13516044D01*
X68155489Y14277949D02*
X68155489Y14896996D01*
X68155489Y14896996D02*
X68536441Y14563663D01*
X68536441Y14563663D02*
X68536441Y14706520D01*
X68536441Y14706520D02*
X68584060Y14801758D01*
X68584060Y14801758D02*
X68631679Y14849377D01*
X68631679Y14849377D02*
X68726917Y14896996D01*
X68726917Y14896996D02*
X68965012Y14896996D01*
X68965012Y14896996D02*
X69060250Y14849377D01*
X69060250Y14849377D02*
X69107870Y14801758D01*
X69107870Y14801758D02*
X69155489Y14706520D01*
X69155489Y14706520D02*
X69155489Y14420806D01*
X69155489Y14420806D02*
X69107870Y14325568D01*
X69107870Y14325568D02*
X69060250Y14277949D01*
D11*
X2276190Y2567792D02*
X2276190Y3517792D01*
X2276190Y3065411D02*
X2819047Y3065411D01*
X2819047Y2567792D02*
X2819047Y3517792D01*
X3180952Y3517792D02*
X3769047Y3517792D01*
X3769047Y3517792D02*
X3452380Y3155888D01*
X3452380Y3155888D02*
X3588095Y3155888D01*
X3588095Y3155888D02*
X3678571Y3110650D01*
X3678571Y3110650D02*
X3723809Y3065411D01*
X3723809Y3065411D02*
X3769047Y2974935D01*
X3769047Y2974935D02*
X3769047Y2748745D01*
X3769047Y2748745D02*
X3723809Y2658269D01*
X3723809Y2658269D02*
X3678571Y2613030D01*
X3678571Y2613030D02*
X3588095Y2567792D01*
X3588095Y2567792D02*
X3316666Y2567792D01*
X3316666Y2567792D02*
X3226190Y2613030D01*
X3226190Y2613030D02*
X3180952Y2658269D01*
D10*
X42250819Y35358096D02*
X43060342Y35358096D01*
X43060342Y35358096D02*
X43155580Y35405715D01*
X43155580Y35405715D02*
X43203200Y35453334D01*
X43203200Y35453334D02*
X43250819Y35548572D01*
X43250819Y35548572D02*
X43250819Y35739048D01*
X43250819Y35739048D02*
X43203200Y35834286D01*
X43203200Y35834286D02*
X43155580Y35881905D01*
X43155580Y35881905D02*
X43060342Y35929524D01*
X43060342Y35929524D02*
X42250819Y35929524D01*
X43250819Y36929524D02*
X43250819Y36358096D01*
X43250819Y36643810D02*
X42250819Y36643810D01*
X42250819Y36643810D02*
X42393676Y36548572D01*
X42393676Y36548572D02*
X42488914Y36453334D01*
X42488914Y36453334D02*
X42536533Y36358096D01*
D11*
X68276190Y2567792D02*
X68276190Y3517792D01*
X68276190Y3065411D02*
X68819047Y3065411D01*
X68819047Y2567792D02*
X68819047Y3517792D01*
X69678571Y3201126D02*
X69678571Y2567792D01*
X69452380Y3563030D02*
X69226190Y2884459D01*
X69226190Y2884459D02*
X69814285Y2884459D01*
D10*
X7074819Y31035667D02*
X7789104Y31035667D01*
X7789104Y31035667D02*
X7931961Y30988048D01*
X7931961Y30988048D02*
X8027200Y30892810D01*
X8027200Y30892810D02*
X8074819Y30749953D01*
X8074819Y30749953D02*
X8074819Y30654715D01*
X7503390Y31654715D02*
X7455771Y31559477D01*
X7455771Y31559477D02*
X7408152Y31511858D01*
X7408152Y31511858D02*
X7312914Y31464239D01*
X7312914Y31464239D02*
X7265295Y31464239D01*
X7265295Y31464239D02*
X7170057Y31511858D01*
X7170057Y31511858D02*
X7122438Y31559477D01*
X7122438Y31559477D02*
X7074819Y31654715D01*
X7074819Y31654715D02*
X7074819Y31845191D01*
X7074819Y31845191D02*
X7122438Y31940429D01*
X7122438Y31940429D02*
X7170057Y31988048D01*
X7170057Y31988048D02*
X7265295Y32035667D01*
X7265295Y32035667D02*
X7312914Y32035667D01*
X7312914Y32035667D02*
X7408152Y31988048D01*
X7408152Y31988048D02*
X7455771Y31940429D01*
X7455771Y31940429D02*
X7503390Y31845191D01*
X7503390Y31845191D02*
X7503390Y31654715D01*
X7503390Y31654715D02*
X7551009Y31559477D01*
X7551009Y31559477D02*
X7598628Y31511858D01*
X7598628Y31511858D02*
X7693866Y31464239D01*
X7693866Y31464239D02*
X7884342Y31464239D01*
X7884342Y31464239D02*
X7979580Y31511858D01*
X7979580Y31511858D02*
X8027200Y31559477D01*
X8027200Y31559477D02*
X8074819Y31654715D01*
X8074819Y31654715D02*
X8074819Y31845191D01*
X8074819Y31845191D02*
X8027200Y31940429D01*
X8027200Y31940429D02*
X7979580Y31988048D01*
X7979580Y31988048D02*
X7884342Y32035667D01*
X7884342Y32035667D02*
X7693866Y32035667D01*
X7693866Y32035667D02*
X7598628Y31988048D01*
X7598628Y31988048D02*
X7551009Y31940429D01*
X7551009Y31940429D02*
X7503390Y31845191D01*
X6947819Y43232667D02*
X7662104Y43232667D01*
X7662104Y43232667D02*
X7804961Y43185048D01*
X7804961Y43185048D02*
X7900200Y43089810D01*
X7900200Y43089810D02*
X7947819Y42946953D01*
X7947819Y42946953D02*
X7947819Y42851715D01*
X7281152Y44137429D02*
X7947819Y44137429D01*
X6900200Y43899334D02*
X7614485Y43661239D01*
X7614485Y43661239D02*
X7614485Y44280286D01*
D12*
%TO.C,J3*%
X67430670Y16770329D02*
X69970670Y16770329D01*
X67430670Y11690329D02*
X67430670Y16770329D01*
X69335670Y11690329D02*
X67430670Y11690329D01*
X69970670Y16770329D02*
X69970670Y12325329D01*
X69970670Y12325329D02*
X69335670Y11690329D01*
%TO.C,J8*%
X6350000Y35179000D02*
X8890000Y35179000D01*
X6350000Y27559000D02*
X6350000Y35179000D01*
X8255000Y27559000D02*
X6350000Y27559000D01*
X8890000Y35179000D02*
X8890000Y28194000D01*
X8890000Y28194000D02*
X8255000Y27559000D01*
%TO.C,J4*%
X6223000Y45471000D02*
X6858000Y46106000D01*
X6223000Y41026000D02*
X6223000Y45471000D01*
X6858000Y46106000D02*
X8763000Y46106000D01*
X8763000Y46106000D02*
X8763000Y41026000D01*
X8763000Y41026000D02*
X6223000Y41026000D01*
%TD*%
M02*
