M48
; DRILL file {KiCad 9.0.5} date 2025-11-19T03:22:14+0200
; FORMAT={-:-/ absolute / metric / decimal}
; #@! TF.CreationDate,2025-11-19T03:22:14+02:00
; #@! TF.GenerationSoftware,Kicad,Pcbnew,9.0.5
; #@! TF.FileFunction,Plated,1,2,PTH
FMAT,2
METRIC
; #@! TA.AperFunction,Plated,PTH,ViaDrill
T1C1.000
; #@! TA.AperFunction,Plated,PTH,ComponentDrill
T2C1.000
; #@! TA.AperFunction,Plated,PTH,ComponentDrill
T3C2.200
%
G90
G05
T1
X46.736Y35.941
T2
X7.493Y44.836
X7.493Y42.296
X7.62Y33.909
X7.62Y31.369
X7.62Y28.829
X16.166Y49.234
X16.166Y23.834
X18.706Y49.234
X18.706Y23.834
X21.246Y49.234
X21.246Y23.834
X23.786Y49.234
X23.786Y23.834
X26.326Y49.234
X26.326Y23.834
X28.866Y49.234
X28.866Y23.834
X29.776Y18.084
X29.776Y15.544
X29.776Y13.004
X29.776Y10.464
X29.776Y7.924
X29.776Y5.384
X31.406Y49.234
X31.406Y23.834
X33.946Y49.234
X33.946Y23.834
X36.486Y49.234
X36.486Y23.834
X39.026Y49.234
X39.026Y23.834
X41.566Y49.234
X41.566Y23.834
X44.106Y49.234
X44.106Y23.834
X46.646Y49.234
X46.646Y23.834
X49.186Y49.234
X49.186Y23.834
X51.726Y49.234
X51.726Y23.834
X54.266Y49.234
X54.266Y23.834
X56.806Y49.234
X56.806Y23.834
X59.346Y49.234
X59.346Y23.834
X61.886Y49.234
X61.886Y23.834
X64.426Y49.234
X64.426Y23.834
X65.349Y15.545
X65.349Y13.005
X65.349Y10.465
X65.349Y7.925
X66.966Y49.234
X66.966Y23.834
X68.701Y15.5
X68.701Y12.96
X69.506Y49.234
X69.506Y23.834
T3
X3.0Y49.0
X3.0Y3.0
X69.0Y3.0
M30
