%TF.GenerationSoftware,KiCad,Pcbnew,9.0.4*%
%TF.CreationDate,2025-09-21T16:43:57+03:00*%
%TF.ProjectId,Cronus,43726f6e-7573-42e6-9b69-6361645f7063,rev?*%
%TF.SameCoordinates,PX649cd60PY6c7aff0*%
%TF.FileFunction,AssemblyDrawing,Top*%
%FSLAX46Y46*%
G04 Gerber Fmt 4.6, Leading zero omitted, Abs format (unit mm)*
G04 Created by KiCad (PCBNEW 9.0.4) date 2025-09-21 16:43:57*
%MOMM*%
%LPD*%
G01*
G04 APERTURE LIST*
%ADD10C,0.150000*%
%ADD11C,0.120000*%
G04 APERTURE END LIST*
D10*
X68238095Y2545181D02*
X68238095Y3545181D01*
X68238095Y3068991D02*
X68809523Y3068991D01*
X68809523Y2545181D02*
X68809523Y3545181D01*
X69714285Y3211848D02*
X69714285Y2545181D01*
X69476190Y3592800D02*
X69238095Y2878515D01*
X69238095Y2878515D02*
X69857142Y2878515D01*
X2238095Y2545181D02*
X2238095Y3545181D01*
X2238095Y3068991D02*
X2809523Y3068991D01*
X2809523Y2545181D02*
X2809523Y3545181D01*
X3190476Y3545181D02*
X3809523Y3545181D01*
X3809523Y3545181D02*
X3476190Y3164229D01*
X3476190Y3164229D02*
X3619047Y3164229D01*
X3619047Y3164229D02*
X3714285Y3116610D01*
X3714285Y3116610D02*
X3761904Y3068991D01*
X3761904Y3068991D02*
X3809523Y2973753D01*
X3809523Y2973753D02*
X3809523Y2735658D01*
X3809523Y2735658D02*
X3761904Y2640420D01*
X3761904Y2640420D02*
X3714285Y2592800D01*
X3714285Y2592800D02*
X3619047Y2545181D01*
X3619047Y2545181D02*
X3333333Y2545181D01*
X3333333Y2545181D02*
X3238095Y2592800D01*
X3238095Y2592800D02*
X3190476Y2640420D01*
X2238095Y48545181D02*
X2238095Y49545181D01*
X2238095Y49068991D02*
X2809523Y49068991D01*
X2809523Y48545181D02*
X2809523Y49545181D01*
X3809523Y48545181D02*
X3238095Y48545181D01*
X3523809Y48545181D02*
X3523809Y49545181D01*
X3523809Y49545181D02*
X3428571Y49402324D01*
X3428571Y49402324D02*
X3333333Y49307086D01*
X3333333Y49307086D02*
X3238095Y49259467D01*
X48600819Y10880096D02*
X49410342Y10880096D01*
X49410342Y10880096D02*
X49505580Y10927715D01*
X49505580Y10927715D02*
X49553200Y10975334D01*
X49553200Y10975334D02*
X49600819Y11070572D01*
X49600819Y11070572D02*
X49600819Y11261048D01*
X49600819Y11261048D02*
X49553200Y11356286D01*
X49553200Y11356286D02*
X49505580Y11403905D01*
X49505580Y11403905D02*
X49410342Y11451524D01*
X49410342Y11451524D02*
X48600819Y11451524D01*
X48696057Y11880096D02*
X48648438Y11927715D01*
X48648438Y11927715D02*
X48600819Y12022953D01*
X48600819Y12022953D02*
X48600819Y12261048D01*
X48600819Y12261048D02*
X48648438Y12356286D01*
X48648438Y12356286D02*
X48696057Y12403905D01*
X48696057Y12403905D02*
X48791295Y12451524D01*
X48791295Y12451524D02*
X48886533Y12451524D01*
X48886533Y12451524D02*
X49029390Y12403905D01*
X49029390Y12403905D02*
X49600819Y11832477D01*
X49600819Y11832477D02*
X49600819Y12451524D01*
X10498666Y40889181D02*
X10498666Y40174896D01*
X10498666Y40174896D02*
X10451047Y40032039D01*
X10451047Y40032039D02*
X10355809Y39936800D01*
X10355809Y39936800D02*
X10212952Y39889181D01*
X10212952Y39889181D02*
X10117714Y39889181D01*
X10879619Y40889181D02*
X11498666Y40889181D01*
X11498666Y40889181D02*
X11165333Y40508229D01*
X11165333Y40508229D02*
X11308190Y40508229D01*
X11308190Y40508229D02*
X11403428Y40460610D01*
X11403428Y40460610D02*
X11451047Y40412991D01*
X11451047Y40412991D02*
X11498666Y40317753D01*
X11498666Y40317753D02*
X11498666Y40079658D01*
X11498666Y40079658D02*
X11451047Y39984420D01*
X11451047Y39984420D02*
X11403428Y39936800D01*
X11403428Y39936800D02*
X11308190Y39889181D01*
X11308190Y39889181D02*
X11022476Y39889181D01*
X11022476Y39889181D02*
X10927238Y39936800D01*
X10927238Y39936800D02*
X10879619Y39984420D01*
X42250819Y35358096D02*
X43060342Y35358096D01*
X43060342Y35358096D02*
X43155580Y35405715D01*
X43155580Y35405715D02*
X43203200Y35453334D01*
X43203200Y35453334D02*
X43250819Y35548572D01*
X43250819Y35548572D02*
X43250819Y35739048D01*
X43250819Y35739048D02*
X43203200Y35834286D01*
X43203200Y35834286D02*
X43155580Y35881905D01*
X43155580Y35881905D02*
X43060342Y35929524D01*
X43060342Y35929524D02*
X42250819Y35929524D01*
X43250819Y36929524D02*
X43250819Y36358096D01*
X43250819Y36643810D02*
X42250819Y36643810D01*
X42250819Y36643810D02*
X42393676Y36548572D01*
X42393676Y36548572D02*
X42488914Y36453334D01*
X42488914Y36453334D02*
X42536533Y36358096D01*
X68410666Y13203181D02*
X68410666Y12488896D01*
X68410666Y12488896D02*
X68363047Y12346039D01*
X68363047Y12346039D02*
X68267809Y12250800D01*
X68267809Y12250800D02*
X68124952Y12203181D01*
X68124952Y12203181D02*
X68029714Y12203181D01*
X68791619Y13203181D02*
X69458285Y13203181D01*
X69458285Y13203181D02*
X69029714Y12203181D01*
X68410666Y16251181D02*
X68410666Y15536896D01*
X68410666Y15536896D02*
X68363047Y15394039D01*
X68363047Y15394039D02*
X68267809Y15298800D01*
X68267809Y15298800D02*
X68124952Y15251181D01*
X68124952Y15251181D02*
X68029714Y15251181D01*
X69315428Y16251181D02*
X69124952Y16251181D01*
X69124952Y16251181D02*
X69029714Y16203562D01*
X69029714Y16203562D02*
X68982095Y16155943D01*
X68982095Y16155943D02*
X68886857Y16013086D01*
X68886857Y16013086D02*
X68839238Y15822610D01*
X68839238Y15822610D02*
X68839238Y15441658D01*
X68839238Y15441658D02*
X68886857Y15346420D01*
X68886857Y15346420D02*
X68934476Y15298800D01*
X68934476Y15298800D02*
X69029714Y15251181D01*
X69029714Y15251181D02*
X69220190Y15251181D01*
X69220190Y15251181D02*
X69315428Y15298800D01*
X69315428Y15298800D02*
X69363047Y15346420D01*
X69363047Y15346420D02*
X69410666Y15441658D01*
X69410666Y15441658D02*
X69410666Y15679753D01*
X69410666Y15679753D02*
X69363047Y15774991D01*
X69363047Y15774991D02*
X69315428Y15822610D01*
X69315428Y15822610D02*
X69220190Y15870229D01*
X69220190Y15870229D02*
X69029714Y15870229D01*
X69029714Y15870229D02*
X68934476Y15822610D01*
X68934476Y15822610D02*
X68886857Y15774991D01*
X68886857Y15774991D02*
X68839238Y15679753D01*
X6942666Y49779181D02*
X6942666Y49064896D01*
X6942666Y49064896D02*
X6895047Y48922039D01*
X6895047Y48922039D02*
X6799809Y48826800D01*
X6799809Y48826800D02*
X6656952Y48779181D01*
X6656952Y48779181D02*
X6561714Y48779181D01*
X7942666Y48779181D02*
X7371238Y48779181D01*
X7656952Y48779181D02*
X7656952Y49779181D01*
X7656952Y49779181D02*
X7561714Y49636324D01*
X7561714Y49636324D02*
X7466476Y49541086D01*
X7466476Y49541086D02*
X7371238Y49493467D01*
X10498666Y49779181D02*
X10498666Y49064896D01*
X10498666Y49064896D02*
X10451047Y48922039D01*
X10451047Y48922039D02*
X10355809Y48826800D01*
X10355809Y48826800D02*
X10212952Y48779181D01*
X10212952Y48779181D02*
X10117714Y48779181D01*
X10927238Y49683943D02*
X10974857Y49731562D01*
X10974857Y49731562D02*
X11070095Y49779181D01*
X11070095Y49779181D02*
X11308190Y49779181D01*
X11308190Y49779181D02*
X11403428Y49731562D01*
X11403428Y49731562D02*
X11451047Y49683943D01*
X11451047Y49683943D02*
X11498666Y49588705D01*
X11498666Y49588705D02*
X11498666Y49493467D01*
X11498666Y49493467D02*
X11451047Y49350610D01*
X11451047Y49350610D02*
X10879619Y48779181D01*
X10879619Y48779181D02*
X11498666Y48779181D01*
X6688666Y42667181D02*
X6688666Y41952896D01*
X6688666Y41952896D02*
X6641047Y41810039D01*
X6641047Y41810039D02*
X6545809Y41714800D01*
X6545809Y41714800D02*
X6402952Y41667181D01*
X6402952Y41667181D02*
X6307714Y41667181D01*
X7593428Y42333848D02*
X7593428Y41667181D01*
X7355333Y42714800D02*
X7117238Y42000515D01*
X7117238Y42000515D02*
X7736285Y42000515D01*
X10498666Y44445181D02*
X10498666Y43730896D01*
X10498666Y43730896D02*
X10451047Y43588039D01*
X10451047Y43588039D02*
X10355809Y43492800D01*
X10355809Y43492800D02*
X10212952Y43445181D01*
X10212952Y43445181D02*
X10117714Y43445181D01*
X11451047Y44445181D02*
X10974857Y44445181D01*
X10974857Y44445181D02*
X10927238Y43968991D01*
X10927238Y43968991D02*
X10974857Y44016610D01*
X10974857Y44016610D02*
X11070095Y44064229D01*
X11070095Y44064229D02*
X11308190Y44064229D01*
X11308190Y44064229D02*
X11403428Y44016610D01*
X11403428Y44016610D02*
X11451047Y43968991D01*
X11451047Y43968991D02*
X11498666Y43873753D01*
X11498666Y43873753D02*
X11498666Y43635658D01*
X11498666Y43635658D02*
X11451047Y43540420D01*
X11451047Y43540420D02*
X11403428Y43492800D01*
X11403428Y43492800D02*
X11308190Y43445181D01*
X11308190Y43445181D02*
X11070095Y43445181D01*
X11070095Y43445181D02*
X10974857Y43492800D01*
X10974857Y43492800D02*
X10927238Y43540420D01*
D11*
%TO.C,J3*%
X9632000Y40594000D02*
X9632000Y40094000D01*
X9632000Y40094000D02*
X12032000Y40094000D01*
X12032000Y40594000D02*
X9632000Y40594000D01*
X12032000Y40094000D02*
X12032000Y40594000D01*
%TO.C,J7*%
X67544000Y13162000D02*
X67544000Y12662000D01*
X67544000Y12662000D02*
X69944000Y12662000D01*
X69944000Y13162000D02*
X67544000Y13162000D01*
X69944000Y12662000D02*
X69944000Y13162000D01*
%TO.C,J6*%
X67544000Y15956000D02*
X67544000Y15456000D01*
X67544000Y15456000D02*
X69944000Y15456000D01*
X69944000Y15956000D02*
X67544000Y15956000D01*
X69944000Y15456000D02*
X69944000Y15956000D01*
%TO.C,J1*%
X6076000Y49484000D02*
X6076000Y48984000D01*
X6076000Y48984000D02*
X8476000Y48984000D01*
X8476000Y49484000D02*
X6076000Y49484000D01*
X8476000Y48984000D02*
X8476000Y49484000D01*
%TO.C,J2*%
X9632000Y49484000D02*
X9632000Y48984000D01*
X9632000Y48984000D02*
X12032000Y48984000D01*
X12032000Y49484000D02*
X9632000Y49484000D01*
X12032000Y48984000D02*
X12032000Y49484000D01*
%TO.C,J4*%
X6076000Y42372000D02*
X6076000Y41872000D01*
X6076000Y41872000D02*
X8476000Y41872000D01*
X8476000Y42372000D02*
X6076000Y42372000D01*
X8476000Y41872000D02*
X8476000Y42372000D01*
%TO.C,J5*%
X9632000Y44150000D02*
X9632000Y43650000D01*
X9632000Y43650000D02*
X12032000Y43650000D01*
X12032000Y44150000D02*
X9632000Y44150000D01*
X12032000Y43650000D02*
X12032000Y44150000D01*
%TD*%
M02*
