%TF.GenerationSoftware,KiCad,Pcbnew,8.0.5*%
%TF.CreationDate,2024-10-24T20:43:21+03:00*%
%TF.ProjectId,Cronus,43726f6e-7573-42e6-9b69-6361645f7063,rev?*%
%TF.SameCoordinates,PX649cd60PY6c7aff0*%
%TF.FileFunction,AssemblyDrawing,Bot*%
%FSLAX46Y46*%
G04 Gerber Fmt 4.6, Leading zero omitted, Abs format (unit mm)*
G04 Created by KiCad (PCBNEW 8.0.5) date 2024-10-24 20:43:21*
%MOMM*%
%LPD*%
G01*
G04 APERTURE LIST*
%ADD10C,0.150000*%
%ADD11C,0.120000*%
%ADD12C,0.100000*%
G04 APERTURE END LIST*
D10*
X34190476Y12795181D02*
X34761904Y12795181D01*
X34476190Y12795181D02*
X34476190Y13795181D01*
X34476190Y13795181D02*
X34571428Y13652324D01*
X34571428Y13652324D02*
X34666666Y13557086D01*
X34666666Y13557086D02*
X34761904Y13509467D01*
X33571428Y13795181D02*
X33476190Y13795181D01*
X33476190Y13795181D02*
X33380952Y13747562D01*
X33380952Y13747562D02*
X33333333Y13699943D01*
X33333333Y13699943D02*
X33285714Y13604705D01*
X33285714Y13604705D02*
X33238095Y13414229D01*
X33238095Y13414229D02*
X33238095Y13176134D01*
X33238095Y13176134D02*
X33285714Y12985658D01*
X33285714Y12985658D02*
X33333333Y12890420D01*
X33333333Y12890420D02*
X33380952Y12842800D01*
X33380952Y12842800D02*
X33476190Y12795181D01*
X33476190Y12795181D02*
X33571428Y12795181D01*
X33571428Y12795181D02*
X33666666Y12842800D01*
X33666666Y12842800D02*
X33714285Y12890420D01*
X33714285Y12890420D02*
X33761904Y12985658D01*
X33761904Y12985658D02*
X33809523Y13176134D01*
X33809523Y13176134D02*
X33809523Y13414229D01*
X33809523Y13414229D02*
X33761904Y13604705D01*
X33761904Y13604705D02*
X33714285Y13699943D01*
X33714285Y13699943D02*
X33666666Y13747562D01*
X33666666Y13747562D02*
X33571428Y13795181D01*
X32809523Y12795181D02*
X32809523Y13795181D01*
X32238095Y12795181D02*
X32666666Y13366610D01*
X32238095Y13795181D02*
X32809523Y13223753D01*
D11*
X33633332Y14886145D02*
X33899999Y15267098D01*
X34090475Y14886145D02*
X34090475Y15686145D01*
X34090475Y15686145D02*
X33785713Y15686145D01*
X33785713Y15686145D02*
X33709523Y15648050D01*
X33709523Y15648050D02*
X33671428Y15609955D01*
X33671428Y15609955D02*
X33633332Y15533764D01*
X33633332Y15533764D02*
X33633332Y15419479D01*
X33633332Y15419479D02*
X33671428Y15343288D01*
X33671428Y15343288D02*
X33709523Y15305193D01*
X33709523Y15305193D02*
X33785713Y15267098D01*
X33785713Y15267098D02*
X34090475Y15267098D01*
X33328571Y15609955D02*
X33290475Y15648050D01*
X33290475Y15648050D02*
X33214285Y15686145D01*
X33214285Y15686145D02*
X33023809Y15686145D01*
X33023809Y15686145D02*
X32947618Y15648050D01*
X32947618Y15648050D02*
X32909523Y15609955D01*
X32909523Y15609955D02*
X32871428Y15533764D01*
X32871428Y15533764D02*
X32871428Y15457574D01*
X32871428Y15457574D02*
X32909523Y15343288D01*
X32909523Y15343288D02*
X33366666Y14886145D01*
X33366666Y14886145D02*
X32871428Y14886145D01*
D10*
X51940476Y10475181D02*
X52511904Y10475181D01*
X52226190Y10475181D02*
X52226190Y11475181D01*
X52226190Y11475181D02*
X52321428Y11332324D01*
X52321428Y11332324D02*
X52416666Y11237086D01*
X52416666Y11237086D02*
X52511904Y11189467D01*
X51321428Y11475181D02*
X51226190Y11475181D01*
X51226190Y11475181D02*
X51130952Y11427562D01*
X51130952Y11427562D02*
X51083333Y11379943D01*
X51083333Y11379943D02*
X51035714Y11284705D01*
X51035714Y11284705D02*
X50988095Y11094229D01*
X50988095Y11094229D02*
X50988095Y10856134D01*
X50988095Y10856134D02*
X51035714Y10665658D01*
X51035714Y10665658D02*
X51083333Y10570420D01*
X51083333Y10570420D02*
X51130952Y10522800D01*
X51130952Y10522800D02*
X51226190Y10475181D01*
X51226190Y10475181D02*
X51321428Y10475181D01*
X51321428Y10475181D02*
X51416666Y10522800D01*
X51416666Y10522800D02*
X51464285Y10570420D01*
X51464285Y10570420D02*
X51511904Y10665658D01*
X51511904Y10665658D02*
X51559523Y10856134D01*
X51559523Y10856134D02*
X51559523Y11094229D01*
X51559523Y11094229D02*
X51511904Y11284705D01*
X51511904Y11284705D02*
X51464285Y11379943D01*
X51464285Y11379943D02*
X51416666Y11427562D01*
X51416666Y11427562D02*
X51321428Y11475181D01*
X50559523Y10475181D02*
X50559523Y11475181D01*
X49988095Y10475181D02*
X50416666Y11046610D01*
X49988095Y11475181D02*
X50559523Y10903753D01*
D11*
X51383332Y12386145D02*
X51649999Y12767098D01*
X51840475Y12386145D02*
X51840475Y13186145D01*
X51840475Y13186145D02*
X51535713Y13186145D01*
X51535713Y13186145D02*
X51459523Y13148050D01*
X51459523Y13148050D02*
X51421428Y13109955D01*
X51421428Y13109955D02*
X51383332Y13033764D01*
X51383332Y13033764D02*
X51383332Y12919479D01*
X51383332Y12919479D02*
X51421428Y12843288D01*
X51421428Y12843288D02*
X51459523Y12805193D01*
X51459523Y12805193D02*
X51535713Y12767098D01*
X51535713Y12767098D02*
X51840475Y12767098D01*
X50621428Y12386145D02*
X51078571Y12386145D01*
X50849999Y12386145D02*
X50849999Y13186145D01*
X50849999Y13186145D02*
X50926190Y13071860D01*
X50926190Y13071860D02*
X51002380Y12995669D01*
X51002380Y12995669D02*
X51078571Y12957574D01*
D10*
X57729285Y16678181D02*
X58300713Y16678181D01*
X58014999Y16678181D02*
X58014999Y17678181D01*
X58014999Y17678181D02*
X58110237Y17535324D01*
X58110237Y17535324D02*
X58205475Y17440086D01*
X58205475Y17440086D02*
X58300713Y17392467D01*
X57300713Y16678181D02*
X57300713Y17678181D01*
X56729285Y16678181D02*
X57157856Y17249610D01*
X56729285Y17678181D02*
X57300713Y17106753D01*
D11*
X57648332Y14949145D02*
X57914999Y15330098D01*
X58105475Y14949145D02*
X58105475Y15749145D01*
X58105475Y15749145D02*
X57800713Y15749145D01*
X57800713Y15749145D02*
X57724523Y15711050D01*
X57724523Y15711050D02*
X57686428Y15672955D01*
X57686428Y15672955D02*
X57648332Y15596764D01*
X57648332Y15596764D02*
X57648332Y15482479D01*
X57648332Y15482479D02*
X57686428Y15406288D01*
X57686428Y15406288D02*
X57724523Y15368193D01*
X57724523Y15368193D02*
X57800713Y15330098D01*
X57800713Y15330098D02*
X58105475Y15330098D01*
X57381666Y15749145D02*
X56886428Y15749145D01*
X56886428Y15749145D02*
X57153094Y15444383D01*
X57153094Y15444383D02*
X57038809Y15444383D01*
X57038809Y15444383D02*
X56962618Y15406288D01*
X56962618Y15406288D02*
X56924523Y15368193D01*
X56924523Y15368193D02*
X56886428Y15292002D01*
X56886428Y15292002D02*
X56886428Y15101526D01*
X56886428Y15101526D02*
X56924523Y15025336D01*
X56924523Y15025336D02*
X56962618Y14987240D01*
X56962618Y14987240D02*
X57038809Y14949145D01*
X57038809Y14949145D02*
X57267380Y14949145D01*
X57267380Y14949145D02*
X57343571Y14987240D01*
X57343571Y14987240D02*
X57381666Y15025336D01*
D12*
%TO.C,R2*%
X31900000Y16050000D02*
X35100000Y16050000D01*
X31900000Y14450000D02*
X31900000Y16050000D01*
X35100000Y16050000D02*
X35100000Y14450000D01*
X35100000Y14450000D02*
X31900000Y14450000D01*
%TO.C,R1*%
X49650000Y13550000D02*
X52850000Y13550000D01*
X49650000Y11950000D02*
X49650000Y13550000D01*
X52850000Y13550000D02*
X52850000Y11950000D01*
X52850000Y11950000D02*
X49650000Y11950000D01*
%TO.C,R3*%
X55915000Y16113000D02*
X59115000Y16113000D01*
X55915000Y14513000D02*
X55915000Y16113000D01*
X59115000Y16113000D02*
X59115000Y14513000D01*
X59115000Y14513000D02*
X55915000Y14513000D01*
%TD*%
M02*
