%TF.GenerationSoftware,KiCad,Pcbnew,8.0.5*%
%TF.CreationDate,2024-10-24T20:43:20+03:00*%
%TF.ProjectId,Cronus,43726f6e-7573-42e6-9b69-6361645f7063,rev?*%
%TF.SameCoordinates,PX649cd60PY6c7aff0*%
%TF.FileFunction,Legend,Bot*%
%TF.FilePolarity,Positive*%
%FSLAX46Y46*%
G04 Gerber Fmt 4.6, Leading zero omitted, Abs format (unit mm)*
G04 Created by KiCad (PCBNEW 8.0.5) date 2024-10-24 20:43:20*
%MOMM*%
%LPD*%
G01*
G04 APERTURE LIST*
%ADD10C,0.150000*%
%ADD11C,0.120000*%
G04 APERTURE END LIST*
D10*
X33666666Y16795181D02*
X33999999Y17271372D01*
X34238094Y16795181D02*
X34238094Y17795181D01*
X34238094Y17795181D02*
X33857142Y17795181D01*
X33857142Y17795181D02*
X33761904Y17747562D01*
X33761904Y17747562D02*
X33714285Y17699943D01*
X33714285Y17699943D02*
X33666666Y17604705D01*
X33666666Y17604705D02*
X33666666Y17461848D01*
X33666666Y17461848D02*
X33714285Y17366610D01*
X33714285Y17366610D02*
X33761904Y17318991D01*
X33761904Y17318991D02*
X33857142Y17271372D01*
X33857142Y17271372D02*
X34238094Y17271372D01*
X33285713Y17699943D02*
X33238094Y17747562D01*
X33238094Y17747562D02*
X33142856Y17795181D01*
X33142856Y17795181D02*
X32904761Y17795181D01*
X32904761Y17795181D02*
X32809523Y17747562D01*
X32809523Y17747562D02*
X32761904Y17699943D01*
X32761904Y17699943D02*
X32714285Y17604705D01*
X32714285Y17604705D02*
X32714285Y17509467D01*
X32714285Y17509467D02*
X32761904Y17366610D01*
X32761904Y17366610D02*
X33333332Y16795181D01*
X33333332Y16795181D02*
X32714285Y16795181D01*
X51416666Y14115181D02*
X51749999Y14591372D01*
X51988094Y14115181D02*
X51988094Y15115181D01*
X51988094Y15115181D02*
X51607142Y15115181D01*
X51607142Y15115181D02*
X51511904Y15067562D01*
X51511904Y15067562D02*
X51464285Y15019943D01*
X51464285Y15019943D02*
X51416666Y14924705D01*
X51416666Y14924705D02*
X51416666Y14781848D01*
X51416666Y14781848D02*
X51464285Y14686610D01*
X51464285Y14686610D02*
X51511904Y14638991D01*
X51511904Y14638991D02*
X51607142Y14591372D01*
X51607142Y14591372D02*
X51988094Y14591372D01*
X50464285Y14115181D02*
X51035713Y14115181D01*
X50749999Y14115181D02*
X50749999Y15115181D01*
X50749999Y15115181D02*
X50845237Y14972324D01*
X50845237Y14972324D02*
X50940475Y14877086D01*
X50940475Y14877086D02*
X51035713Y14829467D01*
X57681666Y13038181D02*
X58014999Y13514372D01*
X58253094Y13038181D02*
X58253094Y14038181D01*
X58253094Y14038181D02*
X57872142Y14038181D01*
X57872142Y14038181D02*
X57776904Y13990562D01*
X57776904Y13990562D02*
X57729285Y13942943D01*
X57729285Y13942943D02*
X57681666Y13847705D01*
X57681666Y13847705D02*
X57681666Y13704848D01*
X57681666Y13704848D02*
X57729285Y13609610D01*
X57729285Y13609610D02*
X57776904Y13561991D01*
X57776904Y13561991D02*
X57872142Y13514372D01*
X57872142Y13514372D02*
X58253094Y13514372D01*
X57348332Y14038181D02*
X56729285Y14038181D01*
X56729285Y14038181D02*
X57062618Y13657229D01*
X57062618Y13657229D02*
X56919761Y13657229D01*
X56919761Y13657229D02*
X56824523Y13609610D01*
X56824523Y13609610D02*
X56776904Y13561991D01*
X56776904Y13561991D02*
X56729285Y13466753D01*
X56729285Y13466753D02*
X56729285Y13228658D01*
X56729285Y13228658D02*
X56776904Y13133420D01*
X56776904Y13133420D02*
X56824523Y13085800D01*
X56824523Y13085800D02*
X56919761Y13038181D01*
X56919761Y13038181D02*
X57205475Y13038181D01*
X57205475Y13038181D02*
X57300713Y13085800D01*
X57300713Y13085800D02*
X57348332Y13133420D01*
D11*
%TO.C,R2*%
X34227064Y16160000D02*
X32772936Y16160000D01*
X34227064Y14340000D02*
X32772936Y14340000D01*
%TO.C,R1*%
X50522936Y13660000D02*
X51977064Y13660000D01*
X50522936Y11840000D02*
X51977064Y11840000D01*
%TO.C,R3*%
X58242064Y16223000D02*
X56787936Y16223000D01*
X58242064Y14403000D02*
X56787936Y14403000D01*
%TD*%
M02*
