%TF.GenerationSoftware,KiCad,Pcbnew,9.0.4*%
%TF.CreationDate,2025-09-21T16:43:57+03:00*%
%TF.ProjectId,Cronus,43726f6e-7573-42e6-9b69-6361645f7063,rev?*%
%TF.SameCoordinates,PX649cd60PY6c7aff0*%
%TF.FileFunction,Soldermask,Top*%
%TF.FilePolarity,Negative*%
%FSLAX46Y46*%
G04 Gerber Fmt 4.6, Leading zero omitted, Abs format (unit mm)*
G04 Created by KiCad (PCBNEW 9.0.4) date 2025-09-21 16:43:57*
%MOMM*%
%LPD*%
G01*
G04 APERTURE LIST*
%ADD10C,2.100000*%
%ADD11R,1.600000X1.600000*%
%ADD12C,1.800000*%
G04 APERTURE END LIST*
D10*
%TO.C,H4*%
X69000000Y3000000D03*
%TD*%
%TO.C,H3*%
X3000000Y3000000D03*
%TD*%
%TO.C,H1*%
X3000000Y49000000D03*
%TD*%
D11*
%TO.C,U2*%
X30136000Y17992000D03*
X30136000Y15452000D03*
X30136000Y12912000D03*
X30136000Y10372000D03*
X30136000Y7832000D03*
X30136000Y5292000D03*
X65146000Y7832000D03*
X65146000Y10372000D03*
X65146000Y12912000D03*
X65146000Y15452000D03*
%TD*%
D12*
%TO.C,J3*%
X10832000Y40344000D03*
%TD*%
D11*
%TO.C,U1*%
X69506000Y49234000D03*
X66966000Y49234000D03*
X64426000Y49234000D03*
X61886000Y49234000D03*
X59346000Y49234000D03*
X56806000Y49234000D03*
X54266000Y49234000D03*
X51726000Y49234000D03*
X49186000Y49234000D03*
X46646000Y49234000D03*
X44106000Y49234000D03*
X41566000Y49234000D03*
X39026000Y49234000D03*
X36486000Y49234000D03*
X33946000Y49234000D03*
X31406000Y49234000D03*
X28866000Y49234000D03*
X26326000Y49234000D03*
X23786000Y49234000D03*
X21246000Y49234000D03*
X18706000Y49234000D03*
X16166000Y49234000D03*
X16166000Y23834000D03*
X18706000Y23834000D03*
X21246000Y23834000D03*
X23786000Y23834000D03*
X26326000Y23834000D03*
X28866000Y23834000D03*
X31406000Y23834000D03*
X33946000Y23834000D03*
X36486000Y23834000D03*
X39026000Y23834000D03*
X41566000Y23834000D03*
X44106000Y23834000D03*
X46646000Y23834000D03*
X49186000Y23834000D03*
X51726000Y23834000D03*
X54266000Y23834000D03*
X56806000Y23834000D03*
X59346000Y23834000D03*
X61886000Y23834000D03*
X64426000Y23834000D03*
X66966000Y23834000D03*
X69506000Y23834000D03*
%TD*%
D12*
%TO.C,J7*%
X68744000Y12912000D03*
%TD*%
%TO.C,J6*%
X68744000Y15706000D03*
%TD*%
%TO.C,J1*%
X7276000Y49234000D03*
%TD*%
%TO.C,J2*%
X10832000Y49234000D03*
%TD*%
%TO.C,J4*%
X7276000Y42122000D03*
%TD*%
%TO.C,J5*%
X10832000Y43900000D03*
%TD*%
X59346000Y36026000D03*
M02*
