%TF.GenerationSoftware,KiCad,Pcbnew,9.0.5*%
%TF.CreationDate,2025-11-19T03:22:03+02:00*%
%TF.ProjectId,Cronus,43726f6e-7573-42e6-9b69-6361645f7063,rev?*%
%TF.SameCoordinates,PX649cd60PY6c7aff0*%
%TF.FileFunction,Legend,Top*%
%TF.FilePolarity,Positive*%
%FSLAX46Y46*%
G04 Gerber Fmt 4.6, Leading zero omitted, Abs format (unit mm)*
G04 Created by KiCad (PCBNEW 9.0.5) date 2025-11-19 03:22:03*
%MOMM*%
%LPD*%
G01*
G04 APERTURE LIST*
%ADD10C,0.100000*%
%ADD11C,0.600000*%
%ADD12C,0.125000*%
%ADD13C,0.150000*%
%ADD14C,0.120000*%
G04 APERTURE END LIST*
D10*
X13205619Y2879581D02*
X13205619Y3546248D01*
X13205619Y3355772D02*
X13253238Y3451010D01*
X13253238Y3451010D02*
X13300857Y3498629D01*
X13300857Y3498629D02*
X13396095Y3546248D01*
X13396095Y3546248D02*
X13491333Y3546248D01*
X14205619Y2927200D02*
X14110381Y2879581D01*
X14110381Y2879581D02*
X13919905Y2879581D01*
X13919905Y2879581D02*
X13824667Y2927200D01*
X13824667Y2927200D02*
X13777048Y3022439D01*
X13777048Y3022439D02*
X13777048Y3403391D01*
X13777048Y3403391D02*
X13824667Y3498629D01*
X13824667Y3498629D02*
X13919905Y3546248D01*
X13919905Y3546248D02*
X14110381Y3546248D01*
X14110381Y3546248D02*
X14205619Y3498629D01*
X14205619Y3498629D02*
X14253238Y3403391D01*
X14253238Y3403391D02*
X14253238Y3308153D01*
X14253238Y3308153D02*
X13777048Y3212915D01*
X14586572Y3546248D02*
X14824667Y2879581D01*
X14824667Y2879581D02*
X15062762Y3546248D01*
X16396096Y3879581D02*
X16491334Y3879581D01*
X16491334Y3879581D02*
X16586572Y3831962D01*
X16586572Y3831962D02*
X16634191Y3784343D01*
X16634191Y3784343D02*
X16681810Y3689105D01*
X16681810Y3689105D02*
X16729429Y3498629D01*
X16729429Y3498629D02*
X16729429Y3260534D01*
X16729429Y3260534D02*
X16681810Y3070058D01*
X16681810Y3070058D02*
X16634191Y2974820D01*
X16634191Y2974820D02*
X16586572Y2927200D01*
X16586572Y2927200D02*
X16491334Y2879581D01*
X16491334Y2879581D02*
X16396096Y2879581D01*
X16396096Y2879581D02*
X16300858Y2927200D01*
X16300858Y2927200D02*
X16253239Y2974820D01*
X16253239Y2974820D02*
X16205620Y3070058D01*
X16205620Y3070058D02*
X16158001Y3260534D01*
X16158001Y3260534D02*
X16158001Y3498629D01*
X16158001Y3498629D02*
X16205620Y3689105D01*
X16205620Y3689105D02*
X16253239Y3784343D01*
X16253239Y3784343D02*
X16300858Y3831962D01*
X16300858Y3831962D02*
X16396096Y3879581D01*
X17158001Y2974820D02*
X17205620Y2927200D01*
X17205620Y2927200D02*
X17158001Y2879581D01*
X17158001Y2879581D02*
X17110382Y2927200D01*
X17110382Y2927200D02*
X17158001Y2974820D01*
X17158001Y2974820D02*
X17158001Y2879581D01*
X17586572Y3784343D02*
X17634191Y3831962D01*
X17634191Y3831962D02*
X17729429Y3879581D01*
X17729429Y3879581D02*
X17967524Y3879581D01*
X17967524Y3879581D02*
X18062762Y3831962D01*
X18062762Y3831962D02*
X18110381Y3784343D01*
X18110381Y3784343D02*
X18158000Y3689105D01*
X18158000Y3689105D02*
X18158000Y3593867D01*
X18158000Y3593867D02*
X18110381Y3451010D01*
X18110381Y3451010D02*
X17538953Y2879581D01*
X17538953Y2879581D02*
X18158000Y2879581D01*
D11*
X10118285Y7754058D02*
X9975428Y7611200D01*
X9975428Y7611200D02*
X9546856Y7468343D01*
X9546856Y7468343D02*
X9261142Y7468343D01*
X9261142Y7468343D02*
X8832571Y7611200D01*
X8832571Y7611200D02*
X8546856Y7896915D01*
X8546856Y7896915D02*
X8403999Y8182629D01*
X8403999Y8182629D02*
X8261142Y8754058D01*
X8261142Y8754058D02*
X8261142Y9182629D01*
X8261142Y9182629D02*
X8403999Y9754058D01*
X8403999Y9754058D02*
X8546856Y10039772D01*
X8546856Y10039772D02*
X8832571Y10325486D01*
X8832571Y10325486D02*
X9261142Y10468343D01*
X9261142Y10468343D02*
X9546856Y10468343D01*
X9546856Y10468343D02*
X9975428Y10325486D01*
X9975428Y10325486D02*
X10118285Y10182629D01*
X11403999Y7468343D02*
X11403999Y9468343D01*
X11403999Y8896915D02*
X11546856Y9182629D01*
X11546856Y9182629D02*
X11689714Y9325486D01*
X11689714Y9325486D02*
X11975428Y9468343D01*
X11975428Y9468343D02*
X12261142Y9468343D01*
X13689714Y7468343D02*
X13403999Y7611200D01*
X13403999Y7611200D02*
X13261142Y7754058D01*
X13261142Y7754058D02*
X13118285Y8039772D01*
X13118285Y8039772D02*
X13118285Y8896915D01*
X13118285Y8896915D02*
X13261142Y9182629D01*
X13261142Y9182629D02*
X13403999Y9325486D01*
X13403999Y9325486D02*
X13689714Y9468343D01*
X13689714Y9468343D02*
X14118285Y9468343D01*
X14118285Y9468343D02*
X14403999Y9325486D01*
X14403999Y9325486D02*
X14546857Y9182629D01*
X14546857Y9182629D02*
X14689714Y8896915D01*
X14689714Y8896915D02*
X14689714Y8039772D01*
X14689714Y8039772D02*
X14546857Y7754058D01*
X14546857Y7754058D02*
X14403999Y7611200D01*
X14403999Y7611200D02*
X14118285Y7468343D01*
X14118285Y7468343D02*
X13689714Y7468343D01*
X15975428Y9468343D02*
X15975428Y7468343D01*
X15975428Y9182629D02*
X16118285Y9325486D01*
X16118285Y9325486D02*
X16404000Y9468343D01*
X16404000Y9468343D02*
X16832571Y9468343D01*
X16832571Y9468343D02*
X17118285Y9325486D01*
X17118285Y9325486D02*
X17261143Y9039772D01*
X17261143Y9039772D02*
X17261143Y7468343D01*
X19975429Y9468343D02*
X19975429Y7468343D01*
X18689714Y9468343D02*
X18689714Y7896915D01*
X18689714Y7896915D02*
X18832571Y7611200D01*
X18832571Y7611200D02*
X19118286Y7468343D01*
X19118286Y7468343D02*
X19546857Y7468343D01*
X19546857Y7468343D02*
X19832571Y7611200D01*
X19832571Y7611200D02*
X19975429Y7754058D01*
X21261143Y7611200D02*
X21546857Y7468343D01*
X21546857Y7468343D02*
X22118286Y7468343D01*
X22118286Y7468343D02*
X22404000Y7611200D01*
X22404000Y7611200D02*
X22546857Y7896915D01*
X22546857Y7896915D02*
X22546857Y8039772D01*
X22546857Y8039772D02*
X22404000Y8325486D01*
X22404000Y8325486D02*
X22118286Y8468343D01*
X22118286Y8468343D02*
X21689715Y8468343D01*
X21689715Y8468343D02*
X21404000Y8611200D01*
X21404000Y8611200D02*
X21261143Y8896915D01*
X21261143Y8896915D02*
X21261143Y9039772D01*
X21261143Y9039772D02*
X21404000Y9325486D01*
X21404000Y9325486D02*
X21689715Y9468343D01*
X21689715Y9468343D02*
X22118286Y9468343D01*
X22118286Y9468343D02*
X22404000Y9325486D01*
D12*
X67979521Y9653881D02*
X67503331Y9653881D01*
X67503331Y9653881D02*
X67503331Y10653881D01*
X68265236Y9701500D02*
X68408093Y9653881D01*
X68408093Y9653881D02*
X68646188Y9653881D01*
X68646188Y9653881D02*
X68741426Y9701500D01*
X68741426Y9701500D02*
X68789045Y9749120D01*
X68789045Y9749120D02*
X68836664Y9844358D01*
X68836664Y9844358D02*
X68836664Y9939596D01*
X68836664Y9939596D02*
X68789045Y10034834D01*
X68789045Y10034834D02*
X68741426Y10082453D01*
X68741426Y10082453D02*
X68646188Y10130072D01*
X68646188Y10130072D02*
X68455712Y10177691D01*
X68455712Y10177691D02*
X68360474Y10225310D01*
X68360474Y10225310D02*
X68312855Y10272929D01*
X68312855Y10272929D02*
X68265236Y10368167D01*
X68265236Y10368167D02*
X68265236Y10463405D01*
X68265236Y10463405D02*
X68312855Y10558643D01*
X68312855Y10558643D02*
X68360474Y10606262D01*
X68360474Y10606262D02*
X68455712Y10653881D01*
X68455712Y10653881D02*
X68693807Y10653881D01*
X68693807Y10653881D02*
X68836664Y10606262D01*
X69789045Y9653881D02*
X69217617Y9653881D01*
X69503331Y9653881D02*
X69503331Y10653881D01*
X69503331Y10653881D02*
X69408093Y10511024D01*
X69408093Y10511024D02*
X69312855Y10415786D01*
X69312855Y10415786D02*
X69217617Y10368167D01*
X67979521Y17654881D02*
X67503331Y17654881D01*
X67503331Y17654881D02*
X67503331Y18654881D01*
X68265236Y17702500D02*
X68408093Y17654881D01*
X68408093Y17654881D02*
X68646188Y17654881D01*
X68646188Y17654881D02*
X68741426Y17702500D01*
X68741426Y17702500D02*
X68789045Y17750120D01*
X68789045Y17750120D02*
X68836664Y17845358D01*
X68836664Y17845358D02*
X68836664Y17940596D01*
X68836664Y17940596D02*
X68789045Y18035834D01*
X68789045Y18035834D02*
X68741426Y18083453D01*
X68741426Y18083453D02*
X68646188Y18131072D01*
X68646188Y18131072D02*
X68455712Y18178691D01*
X68455712Y18178691D02*
X68360474Y18226310D01*
X68360474Y18226310D02*
X68312855Y18273929D01*
X68312855Y18273929D02*
X68265236Y18369167D01*
X68265236Y18369167D02*
X68265236Y18464405D01*
X68265236Y18464405D02*
X68312855Y18559643D01*
X68312855Y18559643D02*
X68360474Y18607262D01*
X68360474Y18607262D02*
X68455712Y18654881D01*
X68455712Y18654881D02*
X68693807Y18654881D01*
X68693807Y18654881D02*
X68836664Y18607262D01*
X69217617Y18559643D02*
X69265236Y18607262D01*
X69265236Y18607262D02*
X69360474Y18654881D01*
X69360474Y18654881D02*
X69598569Y18654881D01*
X69598569Y18654881D02*
X69693807Y18607262D01*
X69693807Y18607262D02*
X69741426Y18559643D01*
X69741426Y18559643D02*
X69789045Y18464405D01*
X69789045Y18464405D02*
X69789045Y18369167D01*
X69789045Y18369167D02*
X69741426Y18226310D01*
X69741426Y18226310D02*
X69169998Y17654881D01*
X69169998Y17654881D02*
X69789045Y17654881D01*
D10*
X7071884Y4911581D02*
X7071884Y5911581D01*
X7500455Y4911581D02*
X7500455Y5435391D01*
X7500455Y5435391D02*
X7452836Y5530629D01*
X7452836Y5530629D02*
X7357598Y5578248D01*
X7357598Y5578248D02*
X7214741Y5578248D01*
X7214741Y5578248D02*
X7119503Y5530629D01*
X7119503Y5530629D02*
X7071884Y5483010D01*
X7833789Y5578248D02*
X8214741Y5578248D01*
X7976646Y5911581D02*
X7976646Y5054439D01*
X7976646Y5054439D02*
X8024265Y4959200D01*
X8024265Y4959200D02*
X8119503Y4911581D01*
X8119503Y4911581D02*
X8214741Y4911581D01*
X8405218Y5578248D02*
X8786170Y5578248D01*
X8548075Y5911581D02*
X8548075Y5054439D01*
X8548075Y5054439D02*
X8595694Y4959200D01*
X8595694Y4959200D02*
X8690932Y4911581D01*
X8690932Y4911581D02*
X8786170Y4911581D01*
X9119504Y5578248D02*
X9119504Y4578248D01*
X9119504Y5530629D02*
X9214742Y5578248D01*
X9214742Y5578248D02*
X9405218Y5578248D01*
X9405218Y5578248D02*
X9500456Y5530629D01*
X9500456Y5530629D02*
X9548075Y5483010D01*
X9548075Y5483010D02*
X9595694Y5387772D01*
X9595694Y5387772D02*
X9595694Y5102058D01*
X9595694Y5102058D02*
X9548075Y5006820D01*
X9548075Y5006820D02*
X9500456Y4959200D01*
X9500456Y4959200D02*
X9405218Y4911581D01*
X9405218Y4911581D02*
X9214742Y4911581D01*
X9214742Y4911581D02*
X9119504Y4959200D01*
X9976647Y4959200D02*
X10071885Y4911581D01*
X10071885Y4911581D02*
X10262361Y4911581D01*
X10262361Y4911581D02*
X10357599Y4959200D01*
X10357599Y4959200D02*
X10405218Y5054439D01*
X10405218Y5054439D02*
X10405218Y5102058D01*
X10405218Y5102058D02*
X10357599Y5197296D01*
X10357599Y5197296D02*
X10262361Y5244915D01*
X10262361Y5244915D02*
X10119504Y5244915D01*
X10119504Y5244915D02*
X10024266Y5292534D01*
X10024266Y5292534D02*
X9976647Y5387772D01*
X9976647Y5387772D02*
X9976647Y5435391D01*
X9976647Y5435391D02*
X10024266Y5530629D01*
X10024266Y5530629D02*
X10119504Y5578248D01*
X10119504Y5578248D02*
X10262361Y5578248D01*
X10262361Y5578248D02*
X10357599Y5530629D01*
X10833790Y5006820D02*
X10881409Y4959200D01*
X10881409Y4959200D02*
X10833790Y4911581D01*
X10833790Y4911581D02*
X10786171Y4959200D01*
X10786171Y4959200D02*
X10833790Y5006820D01*
X10833790Y5006820D02*
X10833790Y4911581D01*
X10833790Y5530629D02*
X10881409Y5483010D01*
X10881409Y5483010D02*
X10833790Y5435391D01*
X10833790Y5435391D02*
X10786171Y5483010D01*
X10786171Y5483010D02*
X10833790Y5530629D01*
X10833790Y5530629D02*
X10833790Y5435391D01*
X12024265Y5959200D02*
X11167123Y4673486D01*
X13071884Y5959200D02*
X12214742Y4673486D01*
X13833789Y4959200D02*
X13738551Y4911581D01*
X13738551Y4911581D02*
X13548075Y4911581D01*
X13548075Y4911581D02*
X13452837Y4959200D01*
X13452837Y4959200D02*
X13405218Y5006820D01*
X13405218Y5006820D02*
X13357599Y5102058D01*
X13357599Y5102058D02*
X13357599Y5387772D01*
X13357599Y5387772D02*
X13405218Y5483010D01*
X13405218Y5483010D02*
X13452837Y5530629D01*
X13452837Y5530629D02*
X13548075Y5578248D01*
X13548075Y5578248D02*
X13738551Y5578248D01*
X13738551Y5578248D02*
X13833789Y5530629D01*
X14262361Y4911581D02*
X14262361Y5578248D01*
X14262361Y5387772D02*
X14309980Y5483010D01*
X14309980Y5483010D02*
X14357599Y5530629D01*
X14357599Y5530629D02*
X14452837Y5578248D01*
X14452837Y5578248D02*
X14548075Y5578248D01*
X15024266Y4911581D02*
X14929028Y4959200D01*
X14929028Y4959200D02*
X14881409Y5006820D01*
X14881409Y5006820D02*
X14833790Y5102058D01*
X14833790Y5102058D02*
X14833790Y5387772D01*
X14833790Y5387772D02*
X14881409Y5483010D01*
X14881409Y5483010D02*
X14929028Y5530629D01*
X14929028Y5530629D02*
X15024266Y5578248D01*
X15024266Y5578248D02*
X15167123Y5578248D01*
X15167123Y5578248D02*
X15262361Y5530629D01*
X15262361Y5530629D02*
X15309980Y5483010D01*
X15309980Y5483010D02*
X15357599Y5387772D01*
X15357599Y5387772D02*
X15357599Y5102058D01*
X15357599Y5102058D02*
X15309980Y5006820D01*
X15309980Y5006820D02*
X15262361Y4959200D01*
X15262361Y4959200D02*
X15167123Y4911581D01*
X15167123Y4911581D02*
X15024266Y4911581D01*
X15786171Y5578248D02*
X15786171Y4911581D01*
X15786171Y5483010D02*
X15833790Y5530629D01*
X15833790Y5530629D02*
X15929028Y5578248D01*
X15929028Y5578248D02*
X16071885Y5578248D01*
X16071885Y5578248D02*
X16167123Y5530629D01*
X16167123Y5530629D02*
X16214742Y5435391D01*
X16214742Y5435391D02*
X16214742Y4911581D01*
X17119504Y5578248D02*
X17119504Y4911581D01*
X16690933Y5578248D02*
X16690933Y5054439D01*
X16690933Y5054439D02*
X16738552Y4959200D01*
X16738552Y4959200D02*
X16833790Y4911581D01*
X16833790Y4911581D02*
X16976647Y4911581D01*
X16976647Y4911581D02*
X17071885Y4959200D01*
X17071885Y4959200D02*
X17119504Y5006820D01*
X17548076Y4959200D02*
X17643314Y4911581D01*
X17643314Y4911581D02*
X17833790Y4911581D01*
X17833790Y4911581D02*
X17929028Y4959200D01*
X17929028Y4959200D02*
X17976647Y5054439D01*
X17976647Y5054439D02*
X17976647Y5102058D01*
X17976647Y5102058D02*
X17929028Y5197296D01*
X17929028Y5197296D02*
X17833790Y5244915D01*
X17833790Y5244915D02*
X17690933Y5244915D01*
X17690933Y5244915D02*
X17595695Y5292534D01*
X17595695Y5292534D02*
X17548076Y5387772D01*
X17548076Y5387772D02*
X17548076Y5435391D01*
X17548076Y5435391D02*
X17595695Y5530629D01*
X17595695Y5530629D02*
X17690933Y5578248D01*
X17690933Y5578248D02*
X17833790Y5578248D01*
X17833790Y5578248D02*
X17929028Y5530629D01*
X18405219Y5006820D02*
X18452838Y4959200D01*
X18452838Y4959200D02*
X18405219Y4911581D01*
X18405219Y4911581D02*
X18357600Y4959200D01*
X18357600Y4959200D02*
X18405219Y5006820D01*
X18405219Y5006820D02*
X18405219Y4911581D01*
X19309980Y4911581D02*
X19309980Y5911581D01*
X19309980Y4959200D02*
X19214742Y4911581D01*
X19214742Y4911581D02*
X19024266Y4911581D01*
X19024266Y4911581D02*
X18929028Y4959200D01*
X18929028Y4959200D02*
X18881409Y5006820D01*
X18881409Y5006820D02*
X18833790Y5102058D01*
X18833790Y5102058D02*
X18833790Y5387772D01*
X18833790Y5387772D02*
X18881409Y5483010D01*
X18881409Y5483010D02*
X18929028Y5530629D01*
X18929028Y5530629D02*
X19024266Y5578248D01*
X19024266Y5578248D02*
X19214742Y5578248D01*
X19214742Y5578248D02*
X19309980Y5530629D01*
X20262361Y5911581D02*
X19786171Y5911581D01*
X19786171Y5911581D02*
X19738552Y5435391D01*
X19738552Y5435391D02*
X19786171Y5483010D01*
X19786171Y5483010D02*
X19881409Y5530629D01*
X19881409Y5530629D02*
X20119504Y5530629D01*
X20119504Y5530629D02*
X20214742Y5483010D01*
X20214742Y5483010D02*
X20262361Y5435391D01*
X20262361Y5435391D02*
X20309980Y5340153D01*
X20309980Y5340153D02*
X20309980Y5102058D01*
X20309980Y5102058D02*
X20262361Y5006820D01*
X20262361Y5006820D02*
X20214742Y4959200D01*
X20214742Y4959200D02*
X20119504Y4911581D01*
X20119504Y4911581D02*
X19881409Y4911581D01*
X19881409Y4911581D02*
X19786171Y4959200D01*
X19786171Y4959200D02*
X19738552Y5006820D01*
X20643314Y5578248D02*
X20881409Y4911581D01*
X21119504Y5578248D02*
X20881409Y4911581D01*
X20881409Y4911581D02*
X20786171Y4673486D01*
X20786171Y4673486D02*
X20738552Y4625867D01*
X20738552Y4625867D02*
X20643314Y4578248D01*
X21500457Y5006820D02*
X21548076Y4959200D01*
X21548076Y4959200D02*
X21500457Y4911581D01*
X21500457Y4911581D02*
X21452838Y4959200D01*
X21452838Y4959200D02*
X21500457Y5006820D01*
X21500457Y5006820D02*
X21500457Y4911581D01*
X21881409Y4911581D02*
X22405218Y5578248D01*
X21881409Y5578248D02*
X22405218Y4911581D01*
X22690933Y5578248D02*
X22929028Y4911581D01*
X23167123Y5578248D02*
X22929028Y4911581D01*
X22929028Y4911581D02*
X22833790Y4673486D01*
X22833790Y4673486D02*
X22786171Y4625867D01*
X22786171Y4625867D02*
X22690933Y4578248D01*
X23452838Y5578248D02*
X23976647Y5578248D01*
X23976647Y5578248D02*
X23452838Y4911581D01*
X23452838Y4911581D02*
X23976647Y4911581D01*
D12*
X2781093Y44832834D02*
X3542998Y44832834D01*
X3162045Y44451881D02*
X3162045Y45213786D01*
X4495378Y45451881D02*
X4019188Y45451881D01*
X4019188Y45451881D02*
X3971569Y44975691D01*
X3971569Y44975691D02*
X4019188Y45023310D01*
X4019188Y45023310D02*
X4114426Y45070929D01*
X4114426Y45070929D02*
X4352521Y45070929D01*
X4352521Y45070929D02*
X4447759Y45023310D01*
X4447759Y45023310D02*
X4495378Y44975691D01*
X4495378Y44975691D02*
X4542997Y44880453D01*
X4542997Y44880453D02*
X4542997Y44642358D01*
X4542997Y44642358D02*
X4495378Y44547120D01*
X4495378Y44547120D02*
X4447759Y44499500D01*
X4447759Y44499500D02*
X4352521Y44451881D01*
X4352521Y44451881D02*
X4114426Y44451881D01*
X4114426Y44451881D02*
X4019188Y44499500D01*
X4019188Y44499500D02*
X3971569Y44547120D01*
X4828712Y45451881D02*
X5162045Y44451881D01*
X5162045Y44451881D02*
X5495378Y45451881D01*
X4447759Y31085120D02*
X4400140Y31037500D01*
X4400140Y31037500D02*
X4257283Y30989881D01*
X4257283Y30989881D02*
X4162045Y30989881D01*
X4162045Y30989881D02*
X4019188Y31037500D01*
X4019188Y31037500D02*
X3923950Y31132739D01*
X3923950Y31132739D02*
X3876331Y31227977D01*
X3876331Y31227977D02*
X3828712Y31418453D01*
X3828712Y31418453D02*
X3828712Y31561310D01*
X3828712Y31561310D02*
X3876331Y31751786D01*
X3876331Y31751786D02*
X3923950Y31847024D01*
X3923950Y31847024D02*
X4019188Y31942262D01*
X4019188Y31942262D02*
X4162045Y31989881D01*
X4162045Y31989881D02*
X4257283Y31989881D01*
X4257283Y31989881D02*
X4400140Y31942262D01*
X4400140Y31942262D02*
X4447759Y31894643D01*
X4828712Y31037500D02*
X4971569Y30989881D01*
X4971569Y30989881D02*
X5209664Y30989881D01*
X5209664Y30989881D02*
X5304902Y31037500D01*
X5304902Y31037500D02*
X5352521Y31085120D01*
X5352521Y31085120D02*
X5400140Y31180358D01*
X5400140Y31180358D02*
X5400140Y31275596D01*
X5400140Y31275596D02*
X5352521Y31370834D01*
X5352521Y31370834D02*
X5304902Y31418453D01*
X5304902Y31418453D02*
X5209664Y31466072D01*
X5209664Y31466072D02*
X5019188Y31513691D01*
X5019188Y31513691D02*
X4923950Y31561310D01*
X4923950Y31561310D02*
X4876331Y31608929D01*
X4876331Y31608929D02*
X4828712Y31704167D01*
X4828712Y31704167D02*
X4828712Y31799405D01*
X4828712Y31799405D02*
X4876331Y31894643D01*
X4876331Y31894643D02*
X4923950Y31942262D01*
X4923950Y31942262D02*
X5019188Y31989881D01*
X5019188Y31989881D02*
X5257283Y31989881D01*
X5257283Y31989881D02*
X5400140Y31942262D01*
X4590616Y28418120D02*
X4542997Y28370500D01*
X4542997Y28370500D02*
X4400140Y28322881D01*
X4400140Y28322881D02*
X4304902Y28322881D01*
X4304902Y28322881D02*
X4162045Y28370500D01*
X4162045Y28370500D02*
X4066807Y28465739D01*
X4066807Y28465739D02*
X4019188Y28560977D01*
X4019188Y28560977D02*
X3971569Y28751453D01*
X3971569Y28751453D02*
X3971569Y28894310D01*
X3971569Y28894310D02*
X4019188Y29084786D01*
X4019188Y29084786D02*
X4066807Y29180024D01*
X4066807Y29180024D02*
X4162045Y29275262D01*
X4162045Y29275262D02*
X4304902Y29322881D01*
X4304902Y29322881D02*
X4400140Y29322881D01*
X4400140Y29322881D02*
X4542997Y29275262D01*
X4542997Y29275262D02*
X4590616Y29227643D01*
X5495378Y28322881D02*
X5019188Y28322881D01*
X5019188Y28322881D02*
X5019188Y29322881D01*
X3304902Y42864262D02*
X3209664Y42911881D01*
X3209664Y42911881D02*
X3066807Y42911881D01*
X3066807Y42911881D02*
X2923950Y42864262D01*
X2923950Y42864262D02*
X2828712Y42769024D01*
X2828712Y42769024D02*
X2781093Y42673786D01*
X2781093Y42673786D02*
X2733474Y42483310D01*
X2733474Y42483310D02*
X2733474Y42340453D01*
X2733474Y42340453D02*
X2781093Y42149977D01*
X2781093Y42149977D02*
X2828712Y42054739D01*
X2828712Y42054739D02*
X2923950Y41959500D01*
X2923950Y41959500D02*
X3066807Y41911881D01*
X3066807Y41911881D02*
X3162045Y41911881D01*
X3162045Y41911881D02*
X3304902Y41959500D01*
X3304902Y41959500D02*
X3352521Y42007120D01*
X3352521Y42007120D02*
X3352521Y42340453D01*
X3352521Y42340453D02*
X3162045Y42340453D01*
X3781093Y41911881D02*
X3781093Y42911881D01*
X3781093Y42911881D02*
X4352521Y41911881D01*
X4352521Y41911881D02*
X4352521Y42911881D01*
X4828712Y41911881D02*
X4828712Y42911881D01*
X4828712Y42911881D02*
X5066807Y42911881D01*
X5066807Y42911881D02*
X5209664Y42864262D01*
X5209664Y42864262D02*
X5304902Y42769024D01*
X5304902Y42769024D02*
X5352521Y42673786D01*
X5352521Y42673786D02*
X5400140Y42483310D01*
X5400140Y42483310D02*
X5400140Y42340453D01*
X5400140Y42340453D02*
X5352521Y42149977D01*
X5352521Y42149977D02*
X5304902Y42054739D01*
X5304902Y42054739D02*
X5209664Y41959500D01*
X5209664Y41959500D02*
X5066807Y41911881D01*
X5066807Y41911881D02*
X4828712Y41911881D01*
X3876331Y33402881D02*
X3876331Y34402881D01*
X3876331Y34402881D02*
X4114426Y34402881D01*
X4114426Y34402881D02*
X4257283Y34355262D01*
X4257283Y34355262D02*
X4352521Y34260024D01*
X4352521Y34260024D02*
X4400140Y34164786D01*
X4400140Y34164786D02*
X4447759Y33974310D01*
X4447759Y33974310D02*
X4447759Y33831453D01*
X4447759Y33831453D02*
X4400140Y33640977D01*
X4400140Y33640977D02*
X4352521Y33545739D01*
X4352521Y33545739D02*
X4257283Y33450500D01*
X4257283Y33450500D02*
X4114426Y33402881D01*
X4114426Y33402881D02*
X3876331Y33402881D01*
X5066807Y34402881D02*
X5162045Y34402881D01*
X5162045Y34402881D02*
X5257283Y34355262D01*
X5257283Y34355262D02*
X5304902Y34307643D01*
X5304902Y34307643D02*
X5352521Y34212405D01*
X5352521Y34212405D02*
X5400140Y34021929D01*
X5400140Y34021929D02*
X5400140Y33783834D01*
X5400140Y33783834D02*
X5352521Y33593358D01*
X5352521Y33593358D02*
X5304902Y33498120D01*
X5304902Y33498120D02*
X5257283Y33450500D01*
X5257283Y33450500D02*
X5162045Y33402881D01*
X5162045Y33402881D02*
X5066807Y33402881D01*
X5066807Y33402881D02*
X4971569Y33450500D01*
X4971569Y33450500D02*
X4923950Y33498120D01*
X4923950Y33498120D02*
X4876331Y33593358D01*
X4876331Y33593358D02*
X4828712Y33783834D01*
X4828712Y33783834D02*
X4828712Y34021929D01*
X4828712Y34021929D02*
X4876331Y34212405D01*
X4876331Y34212405D02*
X4923950Y34307643D01*
X4923950Y34307643D02*
X4971569Y34355262D01*
X4971569Y34355262D02*
X5066807Y34402881D01*
D10*
X45566419Y11049096D02*
X46375942Y11049096D01*
X46375942Y11049096D02*
X46471180Y11096715D01*
X46471180Y11096715D02*
X46518800Y11144334D01*
X46518800Y11144334D02*
X46566419Y11239572D01*
X46566419Y11239572D02*
X46566419Y11430048D01*
X46566419Y11430048D02*
X46518800Y11525286D01*
X46518800Y11525286D02*
X46471180Y11572905D01*
X46471180Y11572905D02*
X46375942Y11620524D01*
X46375942Y11620524D02*
X45566419Y11620524D01*
X45661657Y12049096D02*
X45614038Y12096715D01*
X45614038Y12096715D02*
X45566419Y12191953D01*
X45566419Y12191953D02*
X45566419Y12430048D01*
X45566419Y12430048D02*
X45614038Y12525286D01*
X45614038Y12525286D02*
X45661657Y12572905D01*
X45661657Y12572905D02*
X45756895Y12620524D01*
X45756895Y12620524D02*
X45852133Y12620524D01*
X45852133Y12620524D02*
X45994990Y12572905D01*
X45994990Y12572905D02*
X46566419Y12001477D01*
X46566419Y12001477D02*
X46566419Y12620524D01*
D13*
X48063819Y9168144D02*
X47063819Y9168144D01*
X47063819Y9168144D02*
X47063819Y9406239D01*
X47063819Y9406239D02*
X47111438Y9549096D01*
X47111438Y9549096D02*
X47206676Y9644334D01*
X47206676Y9644334D02*
X47301914Y9691953D01*
X47301914Y9691953D02*
X47492390Y9739572D01*
X47492390Y9739572D02*
X47635247Y9739572D01*
X47635247Y9739572D02*
X47825723Y9691953D01*
X47825723Y9691953D02*
X47920961Y9644334D01*
X47920961Y9644334D02*
X48016200Y9549096D01*
X48016200Y9549096D02*
X48063819Y9406239D01*
X48063819Y9406239D02*
X48063819Y9168144D01*
X48016200Y10120525D02*
X48063819Y10263382D01*
X48063819Y10263382D02*
X48063819Y10501477D01*
X48063819Y10501477D02*
X48016200Y10596715D01*
X48016200Y10596715D02*
X47968580Y10644334D01*
X47968580Y10644334D02*
X47873342Y10691953D01*
X47873342Y10691953D02*
X47778104Y10691953D01*
X47778104Y10691953D02*
X47682866Y10644334D01*
X47682866Y10644334D02*
X47635247Y10596715D01*
X47635247Y10596715D02*
X47587628Y10501477D01*
X47587628Y10501477D02*
X47540009Y10311001D01*
X47540009Y10311001D02*
X47492390Y10215763D01*
X47492390Y10215763D02*
X47444771Y10168144D01*
X47444771Y10168144D02*
X47349533Y10120525D01*
X47349533Y10120525D02*
X47254295Y10120525D01*
X47254295Y10120525D02*
X47159057Y10168144D01*
X47159057Y10168144D02*
X47111438Y10215763D01*
X47111438Y10215763D02*
X47063819Y10311001D01*
X47063819Y10311001D02*
X47063819Y10549096D01*
X47063819Y10549096D02*
X47111438Y10691953D01*
X47063819Y11025287D02*
X47063819Y11644334D01*
X47063819Y11644334D02*
X47444771Y11311001D01*
X47444771Y11311001D02*
X47444771Y11453858D01*
X47444771Y11453858D02*
X47492390Y11549096D01*
X47492390Y11549096D02*
X47540009Y11596715D01*
X47540009Y11596715D02*
X47635247Y11644334D01*
X47635247Y11644334D02*
X47873342Y11644334D01*
X47873342Y11644334D02*
X47968580Y11596715D01*
X47968580Y11596715D02*
X48016200Y11549096D01*
X48016200Y11549096D02*
X48063819Y11453858D01*
X48063819Y11453858D02*
X48063819Y11168144D01*
X48063819Y11168144D02*
X48016200Y11072906D01*
X48016200Y11072906D02*
X47968580Y11025287D01*
X47159057Y12025287D02*
X47111438Y12072906D01*
X47111438Y12072906D02*
X47063819Y12168144D01*
X47063819Y12168144D02*
X47063819Y12406239D01*
X47063819Y12406239D02*
X47111438Y12501477D01*
X47111438Y12501477D02*
X47159057Y12549096D01*
X47159057Y12549096D02*
X47254295Y12596715D01*
X47254295Y12596715D02*
X47349533Y12596715D01*
X47349533Y12596715D02*
X47492390Y12549096D01*
X47492390Y12549096D02*
X48063819Y11977668D01*
X48063819Y11977668D02*
X48063819Y12596715D01*
X47063819Y12930049D02*
X47063819Y13549096D01*
X47063819Y13549096D02*
X47444771Y13215763D01*
X47444771Y13215763D02*
X47444771Y13358620D01*
X47444771Y13358620D02*
X47492390Y13453858D01*
X47492390Y13453858D02*
X47540009Y13501477D01*
X47540009Y13501477D02*
X47635247Y13549096D01*
X47635247Y13549096D02*
X47873342Y13549096D01*
X47873342Y13549096D02*
X47968580Y13501477D01*
X47968580Y13501477D02*
X48016200Y13453858D01*
X48016200Y13453858D02*
X48063819Y13358620D01*
X48063819Y13358620D02*
X48063819Y13072906D01*
X48063819Y13072906D02*
X48016200Y12977668D01*
X48016200Y12977668D02*
X47968580Y12930049D01*
X48063819Y14501477D02*
X48063819Y13930049D01*
X48063819Y14215763D02*
X47063819Y14215763D01*
X47063819Y14215763D02*
X47206676Y14120525D01*
X47206676Y14120525D02*
X47301914Y14025287D01*
X47301914Y14025287D02*
X47349533Y13930049D01*
D10*
X38323419Y35398096D02*
X39132942Y35398096D01*
X39132942Y35398096D02*
X39228180Y35445715D01*
X39228180Y35445715D02*
X39275800Y35493334D01*
X39275800Y35493334D02*
X39323419Y35588572D01*
X39323419Y35588572D02*
X39323419Y35779048D01*
X39323419Y35779048D02*
X39275800Y35874286D01*
X39275800Y35874286D02*
X39228180Y35921905D01*
X39228180Y35921905D02*
X39132942Y35969524D01*
X39132942Y35969524D02*
X38323419Y35969524D01*
X39323419Y36969524D02*
X39323419Y36398096D01*
X39323419Y36683810D02*
X38323419Y36683810D01*
X38323419Y36683810D02*
X38466276Y36588572D01*
X38466276Y36588572D02*
X38561514Y36493334D01*
X38561514Y36493334D02*
X38609133Y36398096D01*
D13*
X40949009Y32445715D02*
X40949009Y32779048D01*
X41472819Y32921905D02*
X41472819Y32445715D01*
X41472819Y32445715D02*
X40472819Y32445715D01*
X40472819Y32445715D02*
X40472819Y32921905D01*
X41425200Y33302858D02*
X41472819Y33445715D01*
X41472819Y33445715D02*
X41472819Y33683810D01*
X41472819Y33683810D02*
X41425200Y33779048D01*
X41425200Y33779048D02*
X41377580Y33826667D01*
X41377580Y33826667D02*
X41282342Y33874286D01*
X41282342Y33874286D02*
X41187104Y33874286D01*
X41187104Y33874286D02*
X41091866Y33826667D01*
X41091866Y33826667D02*
X41044247Y33779048D01*
X41044247Y33779048D02*
X40996628Y33683810D01*
X40996628Y33683810D02*
X40949009Y33493334D01*
X40949009Y33493334D02*
X40901390Y33398096D01*
X40901390Y33398096D02*
X40853771Y33350477D01*
X40853771Y33350477D02*
X40758533Y33302858D01*
X40758533Y33302858D02*
X40663295Y33302858D01*
X40663295Y33302858D02*
X40568057Y33350477D01*
X40568057Y33350477D02*
X40520438Y33398096D01*
X40520438Y33398096D02*
X40472819Y33493334D01*
X40472819Y33493334D02*
X40472819Y33731429D01*
X40472819Y33731429D02*
X40520438Y33874286D01*
X41472819Y34302858D02*
X40472819Y34302858D01*
X40472819Y34302858D02*
X40472819Y34683810D01*
X40472819Y34683810D02*
X40520438Y34779048D01*
X40520438Y34779048D02*
X40568057Y34826667D01*
X40568057Y34826667D02*
X40663295Y34874286D01*
X40663295Y34874286D02*
X40806152Y34874286D01*
X40806152Y34874286D02*
X40901390Y34826667D01*
X40901390Y34826667D02*
X40949009Y34779048D01*
X40949009Y34779048D02*
X40996628Y34683810D01*
X40996628Y34683810D02*
X40996628Y34302858D01*
X40472819Y35207620D02*
X40472819Y35826667D01*
X40472819Y35826667D02*
X40853771Y35493334D01*
X40853771Y35493334D02*
X40853771Y35636191D01*
X40853771Y35636191D02*
X40901390Y35731429D01*
X40901390Y35731429D02*
X40949009Y35779048D01*
X40949009Y35779048D02*
X41044247Y35826667D01*
X41044247Y35826667D02*
X41282342Y35826667D01*
X41282342Y35826667D02*
X41377580Y35779048D01*
X41377580Y35779048D02*
X41425200Y35731429D01*
X41425200Y35731429D02*
X41472819Y35636191D01*
X41472819Y35636191D02*
X41472819Y35350477D01*
X41472819Y35350477D02*
X41425200Y35255239D01*
X41425200Y35255239D02*
X41377580Y35207620D01*
X40568057Y36207620D02*
X40520438Y36255239D01*
X40520438Y36255239D02*
X40472819Y36350477D01*
X40472819Y36350477D02*
X40472819Y36588572D01*
X40472819Y36588572D02*
X40520438Y36683810D01*
X40520438Y36683810D02*
X40568057Y36731429D01*
X40568057Y36731429D02*
X40663295Y36779048D01*
X40663295Y36779048D02*
X40758533Y36779048D01*
X40758533Y36779048D02*
X40901390Y36731429D01*
X40901390Y36731429D02*
X41472819Y36160001D01*
X41472819Y36160001D02*
X41472819Y36779048D01*
X41091866Y37207620D02*
X41091866Y37969524D01*
X41425200Y38398096D02*
X41472819Y38540953D01*
X41472819Y38540953D02*
X41472819Y38779048D01*
X41472819Y38779048D02*
X41425200Y38874286D01*
X41425200Y38874286D02*
X41377580Y38921905D01*
X41377580Y38921905D02*
X41282342Y38969524D01*
X41282342Y38969524D02*
X41187104Y38969524D01*
X41187104Y38969524D02*
X41091866Y38921905D01*
X41091866Y38921905D02*
X41044247Y38874286D01*
X41044247Y38874286D02*
X40996628Y38779048D01*
X40996628Y38779048D02*
X40949009Y38588572D01*
X40949009Y38588572D02*
X40901390Y38493334D01*
X40901390Y38493334D02*
X40853771Y38445715D01*
X40853771Y38445715D02*
X40758533Y38398096D01*
X40758533Y38398096D02*
X40663295Y38398096D01*
X40663295Y38398096D02*
X40568057Y38445715D01*
X40568057Y38445715D02*
X40520438Y38493334D01*
X40520438Y38493334D02*
X40472819Y38588572D01*
X40472819Y38588572D02*
X40472819Y38826667D01*
X40472819Y38826667D02*
X40520438Y38969524D01*
X40472819Y39302858D02*
X40472819Y39921905D01*
X40472819Y39921905D02*
X40853771Y39588572D01*
X40853771Y39588572D02*
X40853771Y39731429D01*
X40853771Y39731429D02*
X40901390Y39826667D01*
X40901390Y39826667D02*
X40949009Y39874286D01*
X40949009Y39874286D02*
X41044247Y39921905D01*
X41044247Y39921905D02*
X41282342Y39921905D01*
X41282342Y39921905D02*
X41377580Y39874286D01*
X41377580Y39874286D02*
X41425200Y39826667D01*
X41425200Y39826667D02*
X41472819Y39731429D01*
X41472819Y39731429D02*
X41472819Y39445715D01*
X41472819Y39445715D02*
X41425200Y39350477D01*
X41425200Y39350477D02*
X41377580Y39302858D01*
D10*
%TO.C,U2*%
X28312288Y1123105D02*
X66929000Y1123105D01*
X28260851Y1143000D02*
X28260851Y22479000D01*
X66882605Y1143000D02*
X66882605Y22525707D01*
X66882605Y22525707D02*
X28321000Y22525707D01*
D14*
%TO.C,J3*%
X67320670Y14230329D02*
X67320670Y16880329D01*
X70080670Y16880329D02*
X67320670Y16880329D01*
X70080670Y14230329D02*
X67320670Y14230329D01*
X70080670Y14230329D02*
X70080670Y16880329D01*
X70080670Y12960329D02*
X70080670Y11580329D01*
X70080670Y11580329D02*
X68700670Y11580329D01*
D10*
%TO.C,U1*%
X14896000Y50504000D02*
X70776000Y50504000D01*
X14896000Y22564000D02*
X14896000Y50504000D01*
X70776000Y50504000D02*
X70776000Y22564000D01*
X70776000Y44154000D02*
X76566000Y44154000D01*
X70776000Y22564000D02*
X14896000Y22564000D01*
X76566000Y44154000D02*
X76566000Y28914000D01*
X76566000Y28914000D02*
X70776000Y28914000D01*
D14*
%TO.C,J8*%
X6240000Y30099000D02*
X6240000Y35289000D01*
X9000000Y35289000D02*
X6240000Y35289000D01*
X9000000Y30099000D02*
X6240000Y30099000D01*
X9000000Y30099000D02*
X9000000Y35289000D01*
X9000000Y28829000D02*
X9000000Y27449000D01*
X9000000Y27449000D02*
X7620000Y27449000D01*
%TO.C,J4*%
X6113000Y46216000D02*
X7493000Y46216000D01*
X6113000Y44836000D02*
X6113000Y46216000D01*
X6113000Y43566000D02*
X6113000Y40916000D01*
X6113000Y43566000D02*
X8873000Y43566000D01*
X6113000Y40916000D02*
X8873000Y40916000D01*
X8873000Y43566000D02*
X8873000Y40916000D01*
%TD*%
M02*
