%TF.GenerationSoftware,KiCad,Pcbnew,9.0.4*%
%TF.CreationDate,2025-09-21T16:43:57+03:00*%
%TF.ProjectId,Cronus,43726f6e-7573-42e6-9b69-6361645f7063,rev?*%
%TF.SameCoordinates,PX649cd60PY6c7aff0*%
%TF.FileFunction,Copper,L1,Top*%
%TF.FilePolarity,Positive*%
%FSLAX46Y46*%
G04 Gerber Fmt 4.6, Leading zero omitted, Abs format (unit mm)*
G04 Created by KiCad (PCBNEW 9.0.4) date 2025-09-21 16:43:57*
%MOMM*%
%LPD*%
G01*
G04 APERTURE LIST*
%TA.AperFunction,ComponentPad*%
%ADD10R,1.600000X1.600000*%
%TD*%
%TA.AperFunction,ComponentPad*%
%ADD11C,1.800000*%
%TD*%
%TA.AperFunction,ViaPad*%
%ADD12C,1.800000*%
%TD*%
%TA.AperFunction,Conductor*%
%ADD13C,0.500000*%
%TD*%
G04 APERTURE END LIST*
D10*
%TO.P,U2,1,GND1*%
%TO.N,GND*%
X30136000Y17992000D03*
%TO.P,U2,2,VCC1*%
%TO.N,Net-(J7-Pin_1)*%
X30136000Y15452000D03*
%TO.P,U2,3,SDA*%
%TO.N,Net-(U1-GPIO38)*%
X30136000Y12912000D03*
%TO.P,U2,4,SCL*%
%TO.N,Net-(U1-GPIO39)*%
X30136000Y10372000D03*
%TO.P,U2,5,SQW*%
%TO.N,unconnected-(U2-SQW-Pad5)*%
X30136000Y7832000D03*
%TO.P,U2,6,32K*%
%TO.N,unconnected-(U2-32K-Pad6)*%
X30136000Y5292000D03*
%TO.P,U2,7,SCL*%
%TO.N,unconnected-(U2-SCL-Pad7)*%
X65146000Y7832000D03*
%TO.P,U2,8,SDA*%
%TO.N,unconnected-(U2-SDA-Pad8)*%
X65146000Y10372000D03*
%TO.P,U2,9,VCC2*%
%TO.N,Net-(J7-Pin_1)*%
X65146000Y12912000D03*
%TO.P,U2,10,GND2*%
%TO.N,GND*%
X65146000Y15452000D03*
%TD*%
D11*
%TO.P,J3,1,Pin_1*%
%TO.N,Net-(J3-Pin_1)*%
X10832000Y40344000D03*
%TD*%
D10*
%TO.P,U1,1,3V3_Out*%
%TO.N,Net-(J7-Pin_1)*%
X69506000Y49234000D03*
%TO.P,U1,2,3V3_Out*%
X66966000Y49234000D03*
%TO.P,U1,3,RST*%
%TO.N,unconnected-(U1-RST-Pad3)*%
X64426000Y49234000D03*
%TO.P,U1,4,GPIO4*%
%TO.N,unconnected-(U1-GPIO4-Pad4)*%
X61886000Y49234000D03*
%TO.P,U1,5,GPIO5*%
%TO.N,unconnected-(U1-GPIO5-Pad5)*%
X59346000Y49234000D03*
%TO.P,U1,6,GPIO6*%
%TO.N,unconnected-(U1-GPIO6-Pad6)*%
X56806000Y49234000D03*
%TO.P,U1,7,GPIO7*%
%TO.N,unconnected-(U1-GPIO7-Pad7)*%
X54266000Y49234000D03*
%TO.P,U1,8,GPIO15*%
%TO.N,unconnected-(U1-GPIO15-Pad8)*%
X51726000Y49234000D03*
%TO.P,U1,9,GPIO16*%
%TO.N,Net-(J3-Pin_1)*%
X49186000Y49234000D03*
%TO.P,U1,10,GPIO17*%
%TO.N,Net-(J4-Pin_1)*%
X46646000Y49234000D03*
%TO.P,U1,11,GPIO18*%
%TO.N,Net-(J5-Pin_1)*%
X44106000Y49234000D03*
%TO.P,U1,12,GPIO8*%
%TO.N,unconnected-(U1-GPIO8-Pad12)*%
X41566000Y49234000D03*
%TO.P,U1,13,GPIO3*%
%TO.N,unconnected-(U1-GPIO3-Pad13)*%
X39026000Y49234000D03*
%TO.P,U1,14,GPIO46*%
%TO.N,unconnected-(U1-GPIO46-Pad14)*%
X36486000Y49234000D03*
%TO.P,U1,15,GPIO9*%
%TO.N,unconnected-(U1-GPIO9-Pad15)*%
X33946000Y49234000D03*
%TO.P,U1,16,GPIO10*%
%TO.N,unconnected-(U1-GPIO10-Pad16)*%
X31406000Y49234000D03*
%TO.P,U1,17,GPIO11*%
%TO.N,unconnected-(U1-GPIO11-Pad17)*%
X28866000Y49234000D03*
%TO.P,U1,18,GPIO12*%
%TO.N,unconnected-(U1-GPIO12-Pad18)*%
X26326000Y49234000D03*
%TO.P,U1,19,GPIO13*%
%TO.N,unconnected-(U1-GPIO13-Pad19)*%
X23786000Y49234000D03*
%TO.P,U1,20,GPIO14*%
%TO.N,unconnected-(U1-GPIO14-Pad20)*%
X21246000Y49234000D03*
%TO.P,U1,21,5V_In*%
%TO.N,+5V*%
X18706000Y49234000D03*
%TO.P,U1,22,GND*%
%TO.N,GND*%
X16166000Y49234000D03*
%TO.P,U1,23,GND*%
X16166000Y23834000D03*
%TO.P,U1,24,GND*%
X18706000Y23834000D03*
%TO.P,U1,25,GPIO19*%
%TO.N,unconnected-(U1-GPIO19-Pad25)*%
X21246000Y23834000D03*
%TO.P,U1,26,GPIO20*%
%TO.N,unconnected-(U1-GPIO20-Pad26)*%
X23786000Y23834000D03*
%TO.P,U1,27,GPIO21*%
%TO.N,unconnected-(U1-GPIO21-Pad27)*%
X26326000Y23834000D03*
%TO.P,U1,28,GPIO47*%
%TO.N,unconnected-(U1-GPIO47-Pad28)*%
X28866000Y23834000D03*
%TO.P,U1,29,GPIO48*%
%TO.N,unconnected-(U1-GPIO48-Pad29)*%
X31406000Y23834000D03*
%TO.P,U1,30,GPIO45*%
%TO.N,unconnected-(U1-GPIO45-Pad30)*%
X33946000Y23834000D03*
%TO.P,U1,31,GPIO0*%
%TO.N,unconnected-(U1-GPIO0-Pad31)*%
X36486000Y23834000D03*
%TO.P,U1,32,GPIO35*%
%TO.N,unconnected-(U1-GPIO35-Pad32)*%
X39026000Y23834000D03*
%TO.P,U1,33,GPIO36*%
%TO.N,unconnected-(U1-GPIO36-Pad33)*%
X41566000Y23834000D03*
%TO.P,U1,34,GPIO37*%
%TO.N,unconnected-(U1-GPIO37-Pad34)*%
X44106000Y23834000D03*
%TO.P,U1,35,GPIO38*%
%TO.N,Net-(U1-GPIO38)*%
X46646000Y23834000D03*
%TO.P,U1,36,GPIO39*%
%TO.N,Net-(U1-GPIO39)*%
X49186000Y23834000D03*
%TO.P,U1,37,GPIO40*%
%TO.N,unconnected-(U1-GPIO40-Pad37)*%
X51726000Y23834000D03*
%TO.P,U1,38,GPIO41*%
%TO.N,unconnected-(U1-GPIO41-Pad38)*%
X54266000Y23834000D03*
%TO.P,U1,39,GPIO42*%
%TO.N,unconnected-(U1-GPIO42-Pad39)*%
X56806000Y23834000D03*
%TO.P,U1,40,GPIO2*%
%TO.N,unconnected-(U1-GPIO2-Pad40)*%
X59346000Y23834000D03*
%TO.P,U1,41,GPIO1*%
%TO.N,Net-(J6-Pin_1)*%
X61886000Y23834000D03*
%TO.P,U1,42,RX*%
%TO.N,unconnected-(U1-RX-Pad42)*%
X64426000Y23834000D03*
%TO.P,U1,43,TX*%
%TO.N,unconnected-(U1-TX-Pad43)*%
X66966000Y23834000D03*
%TO.P,U1,44,GND*%
%TO.N,GND*%
X69506000Y23834000D03*
%TD*%
D11*
%TO.P,J7,1,Pin_1*%
%TO.N,Net-(J7-Pin_1)*%
X68744000Y12912000D03*
%TD*%
%TO.P,J6,1,Pin_1*%
%TO.N,Net-(J6-Pin_1)*%
X68744000Y15706000D03*
%TD*%
%TO.P,J1,1,Pin_1*%
%TO.N,GND*%
X7276000Y49234000D03*
%TD*%
%TO.P,J2,1,Pin_1*%
%TO.N,+5V*%
X10832000Y49234000D03*
%TD*%
%TO.P,J4,1,Pin_1*%
%TO.N,Net-(J4-Pin_1)*%
X7276000Y42122000D03*
%TD*%
%TO.P,J5,1,Pin_1*%
%TO.N,Net-(J5-Pin_1)*%
X10832000Y43900000D03*
%TD*%
D12*
%TO.N,Net-(J7-Pin_1)*%
X59346000Y36026000D03*
%TD*%
D13*
%TO.N,Net-(J7-Pin_1)*%
X13880000Y25104000D02*
X13880000Y16468000D01*
X59346000Y26882000D02*
X58584000Y26120000D01*
X58584000Y26120000D02*
X14896000Y26120000D01*
X14896000Y26120000D02*
X13880000Y25104000D01*
X59346000Y36026000D02*
X59346000Y26882000D01*
X13880000Y16468000D02*
X14896000Y15452000D01*
X14896000Y15452000D02*
X30136000Y15452000D01*
X59346000Y36026000D02*
X66966000Y46186000D01*
X66966000Y46186000D02*
X66966000Y49234000D01*
%TO.N,Net-(U1-GPIO38)*%
X30136000Y12912000D02*
X40296000Y12912000D01*
X40296000Y12912000D02*
X46646000Y19262000D01*
X46646000Y19262000D02*
X46646000Y23834000D01*
%TO.N,Net-(U1-GPIO39)*%
X30136000Y10372000D02*
X40296000Y10372000D01*
X40296000Y10372000D02*
X49186000Y19262000D01*
X49186000Y19262000D02*
X49186000Y23834000D01*
%TO.N,Net-(J4-Pin_1)*%
X40834000Y42122000D02*
X46646000Y47934000D01*
X46646000Y47934000D02*
X46646000Y49234000D01*
X7276000Y42122000D02*
X40834000Y42122000D01*
%TO.N,Net-(J3-Pin_1)*%
X41342000Y40090000D02*
X49186000Y47934000D01*
X49186000Y47934000D02*
X49186000Y49234000D01*
X13880000Y40344000D02*
X41342000Y40090000D01*
X10832000Y40344000D02*
X13880000Y40344000D01*
%TO.N,Net-(J5-Pin_1)*%
X40072000Y43900000D02*
X44106000Y47934000D01*
X10832000Y43900000D02*
X40072000Y43900000D01*
X44106000Y47934000D02*
X44106000Y49234000D01*
%TO.N,+5V*%
X18706000Y47934000D02*
X18706000Y49234000D01*
X10832000Y47964000D02*
X11594000Y47202000D01*
X10832000Y49234000D02*
X10832000Y47964000D01*
X17974000Y47202000D02*
X18706000Y47934000D01*
X11594000Y47202000D02*
X17974000Y47202000D01*
%TO.N,Net-(J6-Pin_1)*%
X68744000Y20278000D02*
X68744000Y15706000D01*
X61886000Y23834000D02*
X61886000Y22310000D01*
X67728000Y21294000D02*
X68744000Y20278000D01*
X62902000Y21294000D02*
X67728000Y21294000D01*
X61886000Y22310000D02*
X62902000Y21294000D01*
%TO.N,Net-(J7-Pin_1)*%
X66966000Y49234000D02*
X69506000Y49234000D01*
%TD*%
M02*
