M48
; DRILL file {KiCad 9.0.4} date 2025-09-21T14:35:17+0300
; FORMAT={-:-/ absolute / metric / decimal}
; #@! TF.CreationDate,2025-09-21T14:35:17+03:00
; #@! TF.GenerationSoftware,Kicad,Pcbnew,9.0.4
; #@! TF.FileFunction,Plated,1,2,PTH
FMAT,2
METRIC
; #@! TA.AperFunction,Plated,PTH,ViaDrill
T1C0.900
; #@! TA.AperFunction,Plated,PTH,ComponentDrill
T2C0.900
; #@! TA.AperFunction,Plated,PTH,ComponentDrill
T3C1.000
; #@! TA.AperFunction,Plated,PTH,ComponentDrill
T4C2.200
%
G90
G05
T1
X59.346Y36.026
T2
X7.276Y49.234
X7.276Y42.122
X10.832Y49.234
X10.832Y43.9
X10.832Y40.344
X68.744Y15.706
X68.744Y12.912
T3
X16.166Y49.234
X16.166Y23.834
X18.706Y49.234
X18.706Y23.834
X21.246Y49.234
X21.246Y23.834
X23.786Y49.234
X23.786Y23.834
X26.326Y49.234
X26.326Y23.834
X28.866Y49.234
X28.866Y23.834
X30.136Y17.992
X30.136Y15.452
X30.136Y12.912
X30.136Y10.372
X30.136Y7.832
X30.136Y5.292
X31.406Y49.234
X31.406Y23.834
X33.946Y49.234
X33.946Y23.834
X36.486Y49.234
X36.486Y23.834
X39.026Y49.234
X39.026Y23.834
X41.566Y49.234
X41.566Y23.834
X44.106Y49.234
X44.106Y23.834
X46.646Y49.234
X46.646Y23.834
X49.186Y49.234
X49.186Y23.834
X51.726Y49.234
X51.726Y23.834
X54.266Y49.234
X54.266Y23.834
X56.806Y49.234
X56.806Y23.834
X59.346Y49.234
X59.346Y23.834
X61.886Y49.234
X61.886Y23.834
X64.426Y49.234
X64.426Y23.834
X65.146Y15.452
X65.146Y12.912
X65.146Y10.372
X65.146Y7.832
X66.966Y49.234
X66.966Y23.834
X69.506Y49.234
X69.506Y23.834
T4
X3.0Y49.0
X3.0Y3.0
X69.0Y3.0
M30
