%TF.GenerationSoftware,KiCad,Pcbnew,9.0.4*%
%TF.CreationDate,2025-09-21T16:43:57+03:00*%
%TF.ProjectId,Cronus,43726f6e-7573-42e6-9b69-6361645f7063,rev?*%
%TF.SameCoordinates,PX649cd60PY6c7aff0*%
%TF.FileFunction,AssemblyDrawing,Bot*%
%FSLAX46Y46*%
G04 Gerber Fmt 4.6, Leading zero omitted, Abs format (unit mm)*
G04 Created by KiCad (PCBNEW 9.0.4) date 2025-09-21 16:43:57*
%MOMM*%
%LPD*%
G01*
G04 APERTURE LIST*
%ADD10C,0.120000*%
%ADD11C,0.100000*%
G04 APERTURE END LIST*
D10*
X47009855Y29047333D02*
X46628902Y29314000D01*
X47009855Y29504476D02*
X46209855Y29504476D01*
X46209855Y29504476D02*
X46209855Y29199714D01*
X46209855Y29199714D02*
X46247950Y29123524D01*
X46247950Y29123524D02*
X46286045Y29085429D01*
X46286045Y29085429D02*
X46362236Y29047333D01*
X46362236Y29047333D02*
X46476521Y29047333D01*
X46476521Y29047333D02*
X46552712Y29085429D01*
X46552712Y29085429D02*
X46590807Y29123524D01*
X46590807Y29123524D02*
X46628902Y29199714D01*
X46628902Y29199714D02*
X46628902Y29504476D01*
X46286045Y28742572D02*
X46247950Y28704476D01*
X46247950Y28704476D02*
X46209855Y28628286D01*
X46209855Y28628286D02*
X46209855Y28437810D01*
X46209855Y28437810D02*
X46247950Y28361619D01*
X46247950Y28361619D02*
X46286045Y28323524D01*
X46286045Y28323524D02*
X46362236Y28285429D01*
X46362236Y28285429D02*
X46438426Y28285429D01*
X46438426Y28285429D02*
X46552712Y28323524D01*
X46552712Y28323524D02*
X47009855Y28780667D01*
X47009855Y28780667D02*
X47009855Y28285429D01*
X49549855Y29047333D02*
X49168902Y29314000D01*
X49549855Y29504476D02*
X48749855Y29504476D01*
X48749855Y29504476D02*
X48749855Y29199714D01*
X48749855Y29199714D02*
X48787950Y29123524D01*
X48787950Y29123524D02*
X48826045Y29085429D01*
X48826045Y29085429D02*
X48902236Y29047333D01*
X48902236Y29047333D02*
X49016521Y29047333D01*
X49016521Y29047333D02*
X49092712Y29085429D01*
X49092712Y29085429D02*
X49130807Y29123524D01*
X49130807Y29123524D02*
X49168902Y29199714D01*
X49168902Y29199714D02*
X49168902Y29504476D01*
X49549855Y28285429D02*
X49549855Y28742572D01*
X49549855Y28514000D02*
X48749855Y28514000D01*
X48749855Y28514000D02*
X48864140Y28590191D01*
X48864140Y28590191D02*
X48940331Y28666381D01*
X48940331Y28666381D02*
X48978426Y28742572D01*
X62249855Y29047333D02*
X61868902Y29314000D01*
X62249855Y29504476D02*
X61449855Y29504476D01*
X61449855Y29504476D02*
X61449855Y29199714D01*
X61449855Y29199714D02*
X61487950Y29123524D01*
X61487950Y29123524D02*
X61526045Y29085429D01*
X61526045Y29085429D02*
X61602236Y29047333D01*
X61602236Y29047333D02*
X61716521Y29047333D01*
X61716521Y29047333D02*
X61792712Y29085429D01*
X61792712Y29085429D02*
X61830807Y29123524D01*
X61830807Y29123524D02*
X61868902Y29199714D01*
X61868902Y29199714D02*
X61868902Y29504476D01*
X61449855Y28780667D02*
X61449855Y28285429D01*
X61449855Y28285429D02*
X61754617Y28552095D01*
X61754617Y28552095D02*
X61754617Y28437810D01*
X61754617Y28437810D02*
X61792712Y28361619D01*
X61792712Y28361619D02*
X61830807Y28323524D01*
X61830807Y28323524D02*
X61906998Y28285429D01*
X61906998Y28285429D02*
X62097474Y28285429D01*
X62097474Y28285429D02*
X62173664Y28323524D01*
X62173664Y28323524D02*
X62211760Y28361619D01*
X62211760Y28361619D02*
X62249855Y28437810D01*
X62249855Y28437810D02*
X62249855Y28666381D01*
X62249855Y28666381D02*
X62211760Y28742572D01*
X62211760Y28742572D02*
X62173664Y28780667D01*
D11*
%TO.C,R2*%
X45846000Y30514000D02*
X45846000Y27314000D01*
X45846000Y27314000D02*
X47446000Y27314000D01*
X47446000Y30514000D02*
X45846000Y30514000D01*
X47446000Y27314000D02*
X47446000Y30514000D01*
%TO.C,R1*%
X48386000Y30514000D02*
X48386000Y27314000D01*
X48386000Y27314000D02*
X49986000Y27314000D01*
X49986000Y30514000D02*
X48386000Y30514000D01*
X49986000Y27314000D02*
X49986000Y30514000D01*
%TO.C,R3*%
X61086000Y30514000D02*
X61086000Y27314000D01*
X61086000Y27314000D02*
X62686000Y27314000D01*
X62686000Y30514000D02*
X61086000Y30514000D01*
X62686000Y27314000D02*
X62686000Y30514000D01*
%TD*%
M02*
