%TF.GenerationSoftware,KiCad,Pcbnew,9.0.1*%
%TF.CreationDate,2025-08-21T23:06:14+03:00*%
%TF.ProjectId,Cronus,43726f6e-7573-42e6-9b69-6361645f7063,rev?*%
%TF.SameCoordinates,PX649cd60PY6c7aff0*%
%TF.FileFunction,Drillmap*%
%TF.FilePolarity,Positive*%
%FSLAX45Y45*%
G04 Gerber Fmt 4.5, Leading zero omitted, Abs format (unit mm)*
G04 Created by KiCad (PCBNEW 9.0.1) date 2025-08-21 23:06:14*
%MOMM*%
%LPD*%
G01*
G04 APERTURE LIST*
%ADD10C,0.200000*%
%ADD11C,0.220000*%
G04 APERTURE END LIST*
D10*
X100000Y5100000D02*
X7100000Y5100000D01*
X7100000Y100000D01*
X100000Y100000D01*
X100000Y5100000D01*
D11*
X190000Y5010000D02*
X410000Y4790000D01*
X410000Y5010000D02*
X190000Y4790000D01*
X190000Y410000D02*
X410000Y190000D01*
X410000Y410000D02*
X190000Y190000D01*
X6790000Y5010000D02*
X7010000Y4790000D01*
X7010000Y5010000D02*
X6790000Y4790000D01*
X6790000Y410000D02*
X7010000Y190000D01*
X7010000Y410000D02*
X6790000Y190000D01*
D10*
X350777Y-221484D02*
X350777Y-21484D01*
X350777Y-21484D02*
X398396Y-21484D01*
X398396Y-21484D02*
X426967Y-31008D01*
X426967Y-31008D02*
X446015Y-50055D01*
X446015Y-50055D02*
X455539Y-69103D01*
X455539Y-69103D02*
X465062Y-107198D01*
X465062Y-107198D02*
X465062Y-135770D01*
X465062Y-135770D02*
X455539Y-173865D01*
X455539Y-173865D02*
X446015Y-192912D01*
X446015Y-192912D02*
X426967Y-211960D01*
X426967Y-211960D02*
X398396Y-221484D01*
X398396Y-221484D02*
X350777Y-221484D01*
X550777Y-221484D02*
X550777Y-88150D01*
X550777Y-126246D02*
X560301Y-107198D01*
X560301Y-107198D02*
X569824Y-97674D01*
X569824Y-97674D02*
X588872Y-88150D01*
X588872Y-88150D02*
X607920Y-88150D01*
X674586Y-221484D02*
X674586Y-88150D01*
X674586Y-21484D02*
X665063Y-31008D01*
X665063Y-31008D02*
X674586Y-40531D01*
X674586Y-40531D02*
X684110Y-31008D01*
X684110Y-31008D02*
X674586Y-21484D01*
X674586Y-21484D02*
X674586Y-40531D01*
X798396Y-221484D02*
X779348Y-211960D01*
X779348Y-211960D02*
X769824Y-192912D01*
X769824Y-192912D02*
X769824Y-21484D01*
X903158Y-221484D02*
X884110Y-211960D01*
X884110Y-211960D02*
X874586Y-192912D01*
X874586Y-192912D02*
X874586Y-21484D01*
X1131729Y-221484D02*
X1131729Y-21484D01*
X1131729Y-21484D02*
X1198396Y-164341D01*
X1198396Y-164341D02*
X1265063Y-21484D01*
X1265063Y-21484D02*
X1265063Y-221484D01*
X1446015Y-221484D02*
X1446015Y-116722D01*
X1446015Y-116722D02*
X1436491Y-97674D01*
X1436491Y-97674D02*
X1417443Y-88150D01*
X1417443Y-88150D02*
X1379348Y-88150D01*
X1379348Y-88150D02*
X1360301Y-97674D01*
X1446015Y-211960D02*
X1426967Y-221484D01*
X1426967Y-221484D02*
X1379348Y-221484D01*
X1379348Y-221484D02*
X1360301Y-211960D01*
X1360301Y-211960D02*
X1350777Y-192912D01*
X1350777Y-192912D02*
X1350777Y-173865D01*
X1350777Y-173865D02*
X1360301Y-154817D01*
X1360301Y-154817D02*
X1379348Y-145293D01*
X1379348Y-145293D02*
X1426967Y-145293D01*
X1426967Y-145293D02*
X1446015Y-135770D01*
X1541253Y-88150D02*
X1541253Y-288150D01*
X1541253Y-97674D02*
X1560301Y-88150D01*
X1560301Y-88150D02*
X1598396Y-88150D01*
X1598396Y-88150D02*
X1617443Y-97674D01*
X1617443Y-97674D02*
X1626967Y-107198D01*
X1626967Y-107198D02*
X1636491Y-126246D01*
X1636491Y-126246D02*
X1636491Y-183388D01*
X1636491Y-183388D02*
X1626967Y-202436D01*
X1626967Y-202436D02*
X1617443Y-211960D01*
X1617443Y-211960D02*
X1598396Y-221484D01*
X1598396Y-221484D02*
X1560301Y-221484D01*
X1560301Y-221484D02*
X1541253Y-211960D01*
X1722205Y-202436D02*
X1731729Y-211960D01*
X1731729Y-211960D02*
X1722205Y-221484D01*
X1722205Y-221484D02*
X1712682Y-211960D01*
X1712682Y-211960D02*
X1722205Y-202436D01*
X1722205Y-202436D02*
X1722205Y-221484D01*
X1722205Y-97674D02*
X1731729Y-107198D01*
X1731729Y-107198D02*
X1722205Y-116722D01*
X1722205Y-116722D02*
X1712682Y-107198D01*
X1712682Y-107198D02*
X1722205Y-97674D01*
X1722205Y-97674D02*
X1722205Y-116722D01*
X-110000Y-450000D02*
X90000Y-650000D01*
X90000Y-450000D02*
X-110000Y-650000D01*
X341253Y-460531D02*
X350777Y-451008D01*
X350777Y-451008D02*
X369824Y-441484D01*
X369824Y-441484D02*
X417443Y-441484D01*
X417443Y-441484D02*
X436491Y-451008D01*
X436491Y-451008D02*
X446015Y-460531D01*
X446015Y-460531D02*
X455539Y-479579D01*
X455539Y-479579D02*
X455539Y-498627D01*
X455539Y-498627D02*
X446015Y-527198D01*
X446015Y-527198D02*
X331729Y-641484D01*
X331729Y-641484D02*
X455539Y-641484D01*
X541253Y-622436D02*
X550777Y-631960D01*
X550777Y-631960D02*
X541253Y-641484D01*
X541253Y-641484D02*
X531729Y-631960D01*
X531729Y-631960D02*
X541253Y-622436D01*
X541253Y-622436D02*
X541253Y-641484D01*
X626967Y-460531D02*
X636491Y-451008D01*
X636491Y-451008D02*
X655539Y-441484D01*
X655539Y-441484D02*
X703158Y-441484D01*
X703158Y-441484D02*
X722205Y-451008D01*
X722205Y-451008D02*
X731729Y-460531D01*
X731729Y-460531D02*
X741253Y-479579D01*
X741253Y-479579D02*
X741253Y-498627D01*
X741253Y-498627D02*
X731729Y-527198D01*
X731729Y-527198D02*
X617444Y-641484D01*
X617444Y-641484D02*
X741253Y-641484D01*
X865062Y-441484D02*
X884110Y-441484D01*
X884110Y-441484D02*
X903158Y-451008D01*
X903158Y-451008D02*
X912682Y-460531D01*
X912682Y-460531D02*
X922205Y-479579D01*
X922205Y-479579D02*
X931729Y-517674D01*
X931729Y-517674D02*
X931729Y-565293D01*
X931729Y-565293D02*
X922205Y-603389D01*
X922205Y-603389D02*
X912682Y-622436D01*
X912682Y-622436D02*
X903158Y-631960D01*
X903158Y-631960D02*
X884110Y-641484D01*
X884110Y-641484D02*
X865062Y-641484D01*
X865062Y-641484D02*
X846015Y-631960D01*
X846015Y-631960D02*
X836491Y-622436D01*
X836491Y-622436D02*
X826967Y-603389D01*
X826967Y-603389D02*
X817443Y-565293D01*
X817443Y-565293D02*
X817443Y-517674D01*
X817443Y-517674D02*
X826967Y-479579D01*
X826967Y-479579D02*
X836491Y-460531D01*
X836491Y-460531D02*
X846015Y-451008D01*
X846015Y-451008D02*
X865062Y-441484D01*
X1055539Y-441484D02*
X1074586Y-441484D01*
X1074586Y-441484D02*
X1093634Y-451008D01*
X1093634Y-451008D02*
X1103158Y-460531D01*
X1103158Y-460531D02*
X1112682Y-479579D01*
X1112682Y-479579D02*
X1122205Y-517674D01*
X1122205Y-517674D02*
X1122205Y-565293D01*
X1122205Y-565293D02*
X1112682Y-603389D01*
X1112682Y-603389D02*
X1103158Y-622436D01*
X1103158Y-622436D02*
X1093634Y-631960D01*
X1093634Y-631960D02*
X1074586Y-641484D01*
X1074586Y-641484D02*
X1055539Y-641484D01*
X1055539Y-641484D02*
X1036491Y-631960D01*
X1036491Y-631960D02*
X1026967Y-622436D01*
X1026967Y-622436D02*
X1017443Y-603389D01*
X1017443Y-603389D02*
X1007920Y-565293D01*
X1007920Y-565293D02*
X1007920Y-517674D01*
X1007920Y-517674D02*
X1017443Y-479579D01*
X1017443Y-479579D02*
X1026967Y-460531D01*
X1026967Y-460531D02*
X1036491Y-451008D01*
X1036491Y-451008D02*
X1055539Y-441484D01*
X1207920Y-641484D02*
X1207920Y-508150D01*
X1207920Y-527198D02*
X1217444Y-517674D01*
X1217444Y-517674D02*
X1236491Y-508150D01*
X1236491Y-508150D02*
X1265063Y-508150D01*
X1265063Y-508150D02*
X1284110Y-517674D01*
X1284110Y-517674D02*
X1293634Y-536722D01*
X1293634Y-536722D02*
X1293634Y-641484D01*
X1293634Y-536722D02*
X1303158Y-517674D01*
X1303158Y-517674D02*
X1322205Y-508150D01*
X1322205Y-508150D02*
X1350777Y-508150D01*
X1350777Y-508150D02*
X1369825Y-517674D01*
X1369825Y-517674D02*
X1379348Y-536722D01*
X1379348Y-536722D02*
X1379348Y-641484D01*
X1474586Y-641484D02*
X1474586Y-508150D01*
X1474586Y-527198D02*
X1484110Y-517674D01*
X1484110Y-517674D02*
X1503158Y-508150D01*
X1503158Y-508150D02*
X1531729Y-508150D01*
X1531729Y-508150D02*
X1550777Y-517674D01*
X1550777Y-517674D02*
X1560301Y-536722D01*
X1560301Y-536722D02*
X1560301Y-641484D01*
X1560301Y-536722D02*
X1569824Y-517674D01*
X1569824Y-517674D02*
X1588872Y-508150D01*
X1588872Y-508150D02*
X1617443Y-508150D01*
X1617443Y-508150D02*
X1636491Y-517674D01*
X1636491Y-517674D02*
X1646015Y-536722D01*
X1646015Y-536722D02*
X1646015Y-641484D01*
X2036491Y-431960D02*
X1865063Y-689103D01*
X2293634Y-441484D02*
X2312682Y-441484D01*
X2312682Y-441484D02*
X2331729Y-451008D01*
X2331729Y-451008D02*
X2341253Y-460531D01*
X2341253Y-460531D02*
X2350777Y-479579D01*
X2350777Y-479579D02*
X2360301Y-517674D01*
X2360301Y-517674D02*
X2360301Y-565293D01*
X2360301Y-565293D02*
X2350777Y-603389D01*
X2350777Y-603389D02*
X2341253Y-622436D01*
X2341253Y-622436D02*
X2331729Y-631960D01*
X2331729Y-631960D02*
X2312682Y-641484D01*
X2312682Y-641484D02*
X2293634Y-641484D01*
X2293634Y-641484D02*
X2274587Y-631960D01*
X2274587Y-631960D02*
X2265063Y-622436D01*
X2265063Y-622436D02*
X2255539Y-603389D01*
X2255539Y-603389D02*
X2246015Y-565293D01*
X2246015Y-565293D02*
X2246015Y-517674D01*
X2246015Y-517674D02*
X2255539Y-479579D01*
X2255539Y-479579D02*
X2265063Y-460531D01*
X2265063Y-460531D02*
X2274587Y-451008D01*
X2274587Y-451008D02*
X2293634Y-441484D01*
X2446015Y-622436D02*
X2455539Y-631960D01*
X2455539Y-631960D02*
X2446015Y-641484D01*
X2446015Y-641484D02*
X2436491Y-631960D01*
X2436491Y-631960D02*
X2446015Y-622436D01*
X2446015Y-622436D02*
X2446015Y-641484D01*
X2579348Y-441484D02*
X2598396Y-441484D01*
X2598396Y-441484D02*
X2617444Y-451008D01*
X2617444Y-451008D02*
X2626968Y-460531D01*
X2626968Y-460531D02*
X2636491Y-479579D01*
X2636491Y-479579D02*
X2646015Y-517674D01*
X2646015Y-517674D02*
X2646015Y-565293D01*
X2646015Y-565293D02*
X2636491Y-603389D01*
X2636491Y-603389D02*
X2626968Y-622436D01*
X2626968Y-622436D02*
X2617444Y-631960D01*
X2617444Y-631960D02*
X2598396Y-641484D01*
X2598396Y-641484D02*
X2579348Y-641484D01*
X2579348Y-641484D02*
X2560301Y-631960D01*
X2560301Y-631960D02*
X2550777Y-622436D01*
X2550777Y-622436D02*
X2541253Y-603389D01*
X2541253Y-603389D02*
X2531729Y-565293D01*
X2531729Y-565293D02*
X2531729Y-517674D01*
X2531729Y-517674D02*
X2541253Y-479579D01*
X2541253Y-479579D02*
X2550777Y-460531D01*
X2550777Y-460531D02*
X2560301Y-451008D01*
X2560301Y-451008D02*
X2579348Y-441484D01*
X2760301Y-527198D02*
X2741253Y-517674D01*
X2741253Y-517674D02*
X2731729Y-508150D01*
X2731729Y-508150D02*
X2722206Y-489103D01*
X2722206Y-489103D02*
X2722206Y-479579D01*
X2722206Y-479579D02*
X2731729Y-460531D01*
X2731729Y-460531D02*
X2741253Y-451008D01*
X2741253Y-451008D02*
X2760301Y-441484D01*
X2760301Y-441484D02*
X2798396Y-441484D01*
X2798396Y-441484D02*
X2817444Y-451008D01*
X2817444Y-451008D02*
X2826967Y-460531D01*
X2826967Y-460531D02*
X2836491Y-479579D01*
X2836491Y-479579D02*
X2836491Y-489103D01*
X2836491Y-489103D02*
X2826967Y-508150D01*
X2826967Y-508150D02*
X2817444Y-517674D01*
X2817444Y-517674D02*
X2798396Y-527198D01*
X2798396Y-527198D02*
X2760301Y-527198D01*
X2760301Y-527198D02*
X2741253Y-536722D01*
X2741253Y-536722D02*
X2731729Y-546246D01*
X2731729Y-546246D02*
X2722206Y-565293D01*
X2722206Y-565293D02*
X2722206Y-603389D01*
X2722206Y-603389D02*
X2731729Y-622436D01*
X2731729Y-622436D02*
X2741253Y-631960D01*
X2741253Y-631960D02*
X2760301Y-641484D01*
X2760301Y-641484D02*
X2798396Y-641484D01*
X2798396Y-641484D02*
X2817444Y-631960D01*
X2817444Y-631960D02*
X2826967Y-622436D01*
X2826967Y-622436D02*
X2836491Y-603389D01*
X2836491Y-603389D02*
X2836491Y-565293D01*
X2836491Y-565293D02*
X2826967Y-546246D01*
X2826967Y-546246D02*
X2817444Y-536722D01*
X2817444Y-536722D02*
X2798396Y-527198D01*
X3007920Y-441484D02*
X2969825Y-441484D01*
X2969825Y-441484D02*
X2950777Y-451008D01*
X2950777Y-451008D02*
X2941253Y-460531D01*
X2941253Y-460531D02*
X2922206Y-489103D01*
X2922206Y-489103D02*
X2912682Y-527198D01*
X2912682Y-527198D02*
X2912682Y-603389D01*
X2912682Y-603389D02*
X2922206Y-622436D01*
X2922206Y-622436D02*
X2931729Y-631960D01*
X2931729Y-631960D02*
X2950777Y-641484D01*
X2950777Y-641484D02*
X2988872Y-641484D01*
X2988872Y-641484D02*
X3007920Y-631960D01*
X3007920Y-631960D02*
X3017444Y-622436D01*
X3017444Y-622436D02*
X3026967Y-603389D01*
X3026967Y-603389D02*
X3026967Y-555770D01*
X3026967Y-555770D02*
X3017444Y-536722D01*
X3017444Y-536722D02*
X3007920Y-527198D01*
X3007920Y-527198D02*
X2988872Y-517674D01*
X2988872Y-517674D02*
X2950777Y-517674D01*
X2950777Y-517674D02*
X2931729Y-527198D01*
X2931729Y-527198D02*
X2922206Y-536722D01*
X2922206Y-536722D02*
X2912682Y-555770D01*
X3198396Y-441484D02*
X3160301Y-441484D01*
X3160301Y-441484D02*
X3141253Y-451008D01*
X3141253Y-451008D02*
X3131729Y-460531D01*
X3131729Y-460531D02*
X3112682Y-489103D01*
X3112682Y-489103D02*
X3103158Y-527198D01*
X3103158Y-527198D02*
X3103158Y-603389D01*
X3103158Y-603389D02*
X3112682Y-622436D01*
X3112682Y-622436D02*
X3122206Y-631960D01*
X3122206Y-631960D02*
X3141253Y-641484D01*
X3141253Y-641484D02*
X3179348Y-641484D01*
X3179348Y-641484D02*
X3198396Y-631960D01*
X3198396Y-631960D02*
X3207920Y-622436D01*
X3207920Y-622436D02*
X3217444Y-603389D01*
X3217444Y-603389D02*
X3217444Y-555770D01*
X3217444Y-555770D02*
X3207920Y-536722D01*
X3207920Y-536722D02*
X3198396Y-527198D01*
X3198396Y-527198D02*
X3179348Y-517674D01*
X3179348Y-517674D02*
X3141253Y-517674D01*
X3141253Y-517674D02*
X3122206Y-527198D01*
X3122206Y-527198D02*
X3112682Y-536722D01*
X3112682Y-536722D02*
X3103158Y-555770D01*
X3293634Y-441484D02*
X3293634Y-479579D01*
X3369825Y-441484D02*
X3369825Y-479579D01*
X3665063Y-717674D02*
X3655539Y-708150D01*
X3655539Y-708150D02*
X3636491Y-679579D01*
X3636491Y-679579D02*
X3626968Y-660531D01*
X3626968Y-660531D02*
X3617444Y-631960D01*
X3617444Y-631960D02*
X3607920Y-584341D01*
X3607920Y-584341D02*
X3607920Y-546246D01*
X3607920Y-546246D02*
X3617444Y-498627D01*
X3617444Y-498627D02*
X3626968Y-470055D01*
X3626968Y-470055D02*
X3636491Y-451008D01*
X3636491Y-451008D02*
X3655539Y-422436D01*
X3655539Y-422436D02*
X3665063Y-412912D01*
X3826968Y-508150D02*
X3826968Y-641484D01*
X3779348Y-431960D02*
X3731729Y-574817D01*
X3731729Y-574817D02*
X3855539Y-574817D01*
X4084110Y-641484D02*
X4084110Y-441484D01*
X4169825Y-641484D02*
X4169825Y-536722D01*
X4169825Y-536722D02*
X4160301Y-517674D01*
X4160301Y-517674D02*
X4141253Y-508150D01*
X4141253Y-508150D02*
X4112682Y-508150D01*
X4112682Y-508150D02*
X4093634Y-517674D01*
X4093634Y-517674D02*
X4084110Y-527198D01*
X4293634Y-641484D02*
X4274587Y-631960D01*
X4274587Y-631960D02*
X4265063Y-622436D01*
X4265063Y-622436D02*
X4255539Y-603389D01*
X4255539Y-603389D02*
X4255539Y-546246D01*
X4255539Y-546246D02*
X4265063Y-527198D01*
X4265063Y-527198D02*
X4274587Y-517674D01*
X4274587Y-517674D02*
X4293634Y-508150D01*
X4293634Y-508150D02*
X4322206Y-508150D01*
X4322206Y-508150D02*
X4341253Y-517674D01*
X4341253Y-517674D02*
X4350777Y-527198D01*
X4350777Y-527198D02*
X4360301Y-546246D01*
X4360301Y-546246D02*
X4360301Y-603389D01*
X4360301Y-603389D02*
X4350777Y-622436D01*
X4350777Y-622436D02*
X4341253Y-631960D01*
X4341253Y-631960D02*
X4322206Y-641484D01*
X4322206Y-641484D02*
X4293634Y-641484D01*
X4474587Y-641484D02*
X4455539Y-631960D01*
X4455539Y-631960D02*
X4446015Y-612912D01*
X4446015Y-612912D02*
X4446015Y-441484D01*
X4626968Y-631960D02*
X4607920Y-641484D01*
X4607920Y-641484D02*
X4569825Y-641484D01*
X4569825Y-641484D02*
X4550777Y-631960D01*
X4550777Y-631960D02*
X4541253Y-612912D01*
X4541253Y-612912D02*
X4541253Y-536722D01*
X4541253Y-536722D02*
X4550777Y-517674D01*
X4550777Y-517674D02*
X4569825Y-508150D01*
X4569825Y-508150D02*
X4607920Y-508150D01*
X4607920Y-508150D02*
X4626968Y-517674D01*
X4626968Y-517674D02*
X4636492Y-536722D01*
X4636492Y-536722D02*
X4636492Y-555770D01*
X4636492Y-555770D02*
X4541253Y-574817D01*
X4712682Y-631960D02*
X4731730Y-641484D01*
X4731730Y-641484D02*
X4769825Y-641484D01*
X4769825Y-641484D02*
X4788873Y-631960D01*
X4788873Y-631960D02*
X4798396Y-612912D01*
X4798396Y-612912D02*
X4798396Y-603389D01*
X4798396Y-603389D02*
X4788873Y-584341D01*
X4788873Y-584341D02*
X4769825Y-574817D01*
X4769825Y-574817D02*
X4741253Y-574817D01*
X4741253Y-574817D02*
X4722206Y-565293D01*
X4722206Y-565293D02*
X4712682Y-546246D01*
X4712682Y-546246D02*
X4712682Y-536722D01*
X4712682Y-536722D02*
X4722206Y-517674D01*
X4722206Y-517674D02*
X4741253Y-508150D01*
X4741253Y-508150D02*
X4769825Y-508150D01*
X4769825Y-508150D02*
X4788873Y-517674D01*
X4865063Y-717674D02*
X4874587Y-708150D01*
X4874587Y-708150D02*
X4893634Y-679579D01*
X4893634Y-679579D02*
X4903158Y-660531D01*
X4903158Y-660531D02*
X4912682Y-631960D01*
X4912682Y-631960D02*
X4922206Y-584341D01*
X4922206Y-584341D02*
X4922206Y-546246D01*
X4922206Y-546246D02*
X4912682Y-498627D01*
X4912682Y-498627D02*
X4903158Y-470055D01*
X4903158Y-470055D02*
X4893634Y-451008D01*
X4893634Y-451008D02*
X4874587Y-422436D01*
X4874587Y-422436D02*
X4865063Y-412912D01*
X5226968Y-717674D02*
X5217444Y-708150D01*
X5217444Y-708150D02*
X5198396Y-679579D01*
X5198396Y-679579D02*
X5188873Y-660531D01*
X5188873Y-660531D02*
X5179349Y-631960D01*
X5179349Y-631960D02*
X5169825Y-584341D01*
X5169825Y-584341D02*
X5169825Y-546246D01*
X5169825Y-546246D02*
X5179349Y-498627D01*
X5179349Y-498627D02*
X5188873Y-470055D01*
X5188873Y-470055D02*
X5198396Y-451008D01*
X5198396Y-451008D02*
X5217444Y-422436D01*
X5217444Y-422436D02*
X5226968Y-412912D01*
X5303158Y-508150D02*
X5303158Y-641484D01*
X5303158Y-527198D02*
X5312682Y-517674D01*
X5312682Y-517674D02*
X5331730Y-508150D01*
X5331730Y-508150D02*
X5360301Y-508150D01*
X5360301Y-508150D02*
X5379349Y-517674D01*
X5379349Y-517674D02*
X5388873Y-536722D01*
X5388873Y-536722D02*
X5388873Y-641484D01*
X5512682Y-641484D02*
X5493634Y-631960D01*
X5493634Y-631960D02*
X5484111Y-622436D01*
X5484111Y-622436D02*
X5474587Y-603389D01*
X5474587Y-603389D02*
X5474587Y-546246D01*
X5474587Y-546246D02*
X5484111Y-527198D01*
X5484111Y-527198D02*
X5493634Y-517674D01*
X5493634Y-517674D02*
X5512682Y-508150D01*
X5512682Y-508150D02*
X5541254Y-508150D01*
X5541254Y-508150D02*
X5560301Y-517674D01*
X5560301Y-517674D02*
X5569825Y-527198D01*
X5569825Y-527198D02*
X5579349Y-546246D01*
X5579349Y-546246D02*
X5579349Y-603389D01*
X5579349Y-603389D02*
X5569825Y-622436D01*
X5569825Y-622436D02*
X5560301Y-631960D01*
X5560301Y-631960D02*
X5541254Y-641484D01*
X5541254Y-641484D02*
X5512682Y-641484D01*
X5636492Y-508150D02*
X5712682Y-508150D01*
X5665063Y-441484D02*
X5665063Y-612912D01*
X5665063Y-612912D02*
X5674587Y-631960D01*
X5674587Y-631960D02*
X5693634Y-641484D01*
X5693634Y-641484D02*
X5712682Y-641484D01*
X5931730Y-508150D02*
X5931730Y-708150D01*
X5931730Y-517674D02*
X5950777Y-508150D01*
X5950777Y-508150D02*
X5988873Y-508150D01*
X5988873Y-508150D02*
X6007920Y-517674D01*
X6007920Y-517674D02*
X6017444Y-527198D01*
X6017444Y-527198D02*
X6026968Y-546246D01*
X6026968Y-546246D02*
X6026968Y-603389D01*
X6026968Y-603389D02*
X6017444Y-622436D01*
X6017444Y-622436D02*
X6007920Y-631960D01*
X6007920Y-631960D02*
X5988873Y-641484D01*
X5988873Y-641484D02*
X5950777Y-641484D01*
X5950777Y-641484D02*
X5931730Y-631960D01*
X6141253Y-641484D02*
X6122206Y-631960D01*
X6122206Y-631960D02*
X6112682Y-612912D01*
X6112682Y-612912D02*
X6112682Y-441484D01*
X6303158Y-641484D02*
X6303158Y-536722D01*
X6303158Y-536722D02*
X6293634Y-517674D01*
X6293634Y-517674D02*
X6274587Y-508150D01*
X6274587Y-508150D02*
X6236492Y-508150D01*
X6236492Y-508150D02*
X6217444Y-517674D01*
X6303158Y-631960D02*
X6284111Y-641484D01*
X6284111Y-641484D02*
X6236492Y-641484D01*
X6236492Y-641484D02*
X6217444Y-631960D01*
X6217444Y-631960D02*
X6207920Y-612912D01*
X6207920Y-612912D02*
X6207920Y-593865D01*
X6207920Y-593865D02*
X6217444Y-574817D01*
X6217444Y-574817D02*
X6236492Y-565293D01*
X6236492Y-565293D02*
X6284111Y-565293D01*
X6284111Y-565293D02*
X6303158Y-555770D01*
X6369825Y-508150D02*
X6446015Y-508150D01*
X6398396Y-441484D02*
X6398396Y-612912D01*
X6398396Y-612912D02*
X6407920Y-631960D01*
X6407920Y-631960D02*
X6426968Y-641484D01*
X6426968Y-641484D02*
X6446015Y-641484D01*
X6588873Y-631960D02*
X6569825Y-641484D01*
X6569825Y-641484D02*
X6531730Y-641484D01*
X6531730Y-641484D02*
X6512682Y-631960D01*
X6512682Y-631960D02*
X6503158Y-612912D01*
X6503158Y-612912D02*
X6503158Y-536722D01*
X6503158Y-536722D02*
X6512682Y-517674D01*
X6512682Y-517674D02*
X6531730Y-508150D01*
X6531730Y-508150D02*
X6569825Y-508150D01*
X6569825Y-508150D02*
X6588873Y-517674D01*
X6588873Y-517674D02*
X6598396Y-536722D01*
X6598396Y-536722D02*
X6598396Y-555770D01*
X6598396Y-555770D02*
X6503158Y-574817D01*
X6769825Y-641484D02*
X6769825Y-441484D01*
X6769825Y-631960D02*
X6750777Y-641484D01*
X6750777Y-641484D02*
X6712682Y-641484D01*
X6712682Y-641484D02*
X6693634Y-631960D01*
X6693634Y-631960D02*
X6684111Y-622436D01*
X6684111Y-622436D02*
X6674587Y-603389D01*
X6674587Y-603389D02*
X6674587Y-546246D01*
X6674587Y-546246D02*
X6684111Y-527198D01*
X6684111Y-527198D02*
X6693634Y-517674D01*
X6693634Y-517674D02*
X6712682Y-508150D01*
X6712682Y-508150D02*
X6750777Y-508150D01*
X6750777Y-508150D02*
X6769825Y-517674D01*
X6846015Y-717674D02*
X6855539Y-708150D01*
X6855539Y-708150D02*
X6874587Y-679579D01*
X6874587Y-679579D02*
X6884111Y-660531D01*
X6884111Y-660531D02*
X6893634Y-631960D01*
X6893634Y-631960D02*
X6903158Y-584341D01*
X6903158Y-584341D02*
X6903158Y-546246D01*
X6903158Y-546246D02*
X6893634Y-498627D01*
X6893634Y-498627D02*
X6884111Y-470055D01*
X6884111Y-470055D02*
X6874587Y-451008D01*
X6874587Y-451008D02*
X6855539Y-422436D01*
X6855539Y-422436D02*
X6846015Y-412912D01*
M02*
