M48
; DRILL file {KiCad 8.0.5} date 2024-10-24T20:43:25+0300
; FORMAT={-:-/ absolute / metric / decimal}
; #@! TF.CreationDate,2024-10-24T20:43:25+03:00
; #@! TF.GenerationSoftware,Kicad,Pcbnew,8.0.5
; #@! TF.FileFunction,Plated,1,2,PTH
FMAT,2
METRIC
; #@! TA.AperFunction,Plated,PTH,ComponentDrill
T1C0.900
; #@! TA.AperFunction,Plated,PTH,ComponentDrill
T2C1.000
%
G90
G05
T1
X5.08Y43.18
X5.08Y40.64
X5.08Y33.02
X5.08Y30.48
X5.08Y27.94
X67.167Y12.7
X67.183Y15.24
T2
X10.2Y49.65
X10.2Y24.25
X12.74Y49.65
X12.74Y24.25
X15.28Y49.65
X15.28Y24.25
X17.82Y49.65
X17.82Y24.25
X20.36Y49.65
X20.36Y24.25
X22.9Y49.65
X22.9Y24.25
X25.44Y49.65
X25.44Y24.25
X27.94Y17.83
X27.94Y15.29
X27.94Y12.75
X27.94Y10.21
X27.94Y7.67
X27.94Y5.13
X27.98Y49.65
X27.98Y24.25
X30.52Y49.65
X30.52Y24.25
X33.06Y49.65
X33.06Y24.25
X35.6Y49.65
X35.6Y24.25
X38.14Y49.65
X38.14Y24.25
X40.68Y49.65
X40.68Y24.25
X43.22Y49.65
X43.22Y24.25
X45.76Y49.65
X45.76Y24.25
X48.3Y49.65
X48.3Y24.25
X50.84Y49.65
X50.84Y24.25
X53.38Y49.65
X53.38Y24.25
X55.92Y49.65
X55.92Y24.25
X58.46Y49.65
X58.46Y24.25
X61.0Y49.65
X61.0Y24.25
X63.5Y15.29
X63.5Y12.75
X63.5Y10.21
X63.5Y7.67
X63.54Y49.65
X63.54Y24.25
M30
