%TF.GenerationSoftware,KiCad,Pcbnew,9.0.1*%
%TF.CreationDate,2025-08-21T23:06:14+03:00*%
%TF.ProjectId,Cronus,43726f6e-7573-42e6-9b69-6361645f7063,rev?*%
%TF.SameCoordinates,PX649cd60PY6c7aff0*%
%TF.FileFunction,Drillmap*%
%TF.FilePolarity,Positive*%
%FSLAX45Y45*%
G04 Gerber Fmt 4.5, Leading zero omitted, Abs format (unit mm)*
G04 Created by KiCad (PCBNEW 9.0.1) date 2025-08-21 23:06:14*
%MOMM*%
%LPD*%
G01*
G04 APERTURE LIST*
%ADD10C,0.200000*%
%ADD11C,0.100000*%
G04 APERTURE END LIST*
D10*
X100000Y5100000D02*
X7100000Y5100000D01*
X7100000Y100000D01*
X100000Y100000D01*
X100000Y5100000D01*
D11*
X463000Y4363000D02*
X553000Y4273000D01*
X553000Y4363000D02*
X463000Y4273000D01*
X463000Y4109000D02*
X553000Y4019000D01*
X553000Y4109000D02*
X463000Y4019000D01*
X463000Y3347000D02*
X553000Y3257000D01*
X553000Y3347000D02*
X463000Y3257000D01*
X463000Y3093000D02*
X553000Y3003000D01*
X553000Y3093000D02*
X463000Y3003000D01*
X463000Y2839000D02*
X553000Y2749000D01*
X553000Y2839000D02*
X463000Y2749000D01*
X6671700Y1315000D02*
X6761700Y1225000D01*
X6761700Y1315000D02*
X6671700Y1225000D01*
X6673300Y1569000D02*
X6763300Y1479000D01*
X6763300Y1569000D02*
X6673300Y1479000D01*
X1070000Y4965000D02*
G75*
G02*
X970000Y4965000I-50000J0D01*
G01*
X970000Y4965000D02*
G75*
G02*
X1070000Y4965000I50000J0D01*
G01*
X1070000Y2425000D02*
G75*
G02*
X970000Y2425000I-50000J0D01*
G01*
X970000Y2425000D02*
G75*
G02*
X1070000Y2425000I50000J0D01*
G01*
X1324000Y4965000D02*
G75*
G02*
X1224000Y4965000I-50000J0D01*
G01*
X1224000Y4965000D02*
G75*
G02*
X1324000Y4965000I50000J0D01*
G01*
X1324000Y2425000D02*
G75*
G02*
X1224000Y2425000I-50000J0D01*
G01*
X1224000Y2425000D02*
G75*
G02*
X1324000Y2425000I50000J0D01*
G01*
X1578000Y4965000D02*
G75*
G02*
X1478000Y4965000I-50000J0D01*
G01*
X1478000Y4965000D02*
G75*
G02*
X1578000Y4965000I50000J0D01*
G01*
X1578000Y2425000D02*
G75*
G02*
X1478000Y2425000I-50000J0D01*
G01*
X1478000Y2425000D02*
G75*
G02*
X1578000Y2425000I50000J0D01*
G01*
X1832000Y4965000D02*
G75*
G02*
X1732000Y4965000I-50000J0D01*
G01*
X1732000Y4965000D02*
G75*
G02*
X1832000Y4965000I50000J0D01*
G01*
X1832000Y2425000D02*
G75*
G02*
X1732000Y2425000I-50000J0D01*
G01*
X1732000Y2425000D02*
G75*
G02*
X1832000Y2425000I50000J0D01*
G01*
X2086000Y4965000D02*
G75*
G02*
X1986000Y4965000I-50000J0D01*
G01*
X1986000Y4965000D02*
G75*
G02*
X2086000Y4965000I50000J0D01*
G01*
X2086000Y2425000D02*
G75*
G02*
X1986000Y2425000I-50000J0D01*
G01*
X1986000Y2425000D02*
G75*
G02*
X2086000Y2425000I50000J0D01*
G01*
X2340000Y4965000D02*
G75*
G02*
X2240000Y4965000I-50000J0D01*
G01*
X2240000Y4965000D02*
G75*
G02*
X2340000Y4965000I50000J0D01*
G01*
X2340000Y2425000D02*
G75*
G02*
X2240000Y2425000I-50000J0D01*
G01*
X2240000Y2425000D02*
G75*
G02*
X2340000Y2425000I50000J0D01*
G01*
X2594000Y4965000D02*
G75*
G02*
X2494000Y4965000I-50000J0D01*
G01*
X2494000Y4965000D02*
G75*
G02*
X2594000Y4965000I50000J0D01*
G01*
X2594000Y2425000D02*
G75*
G02*
X2494000Y2425000I-50000J0D01*
G01*
X2494000Y2425000D02*
G75*
G02*
X2594000Y2425000I50000J0D01*
G01*
X2844000Y1783000D02*
G75*
G02*
X2744000Y1783000I-50000J0D01*
G01*
X2744000Y1783000D02*
G75*
G02*
X2844000Y1783000I50000J0D01*
G01*
X2844000Y1529000D02*
G75*
G02*
X2744000Y1529000I-50000J0D01*
G01*
X2744000Y1529000D02*
G75*
G02*
X2844000Y1529000I50000J0D01*
G01*
X2844000Y1275000D02*
G75*
G02*
X2744000Y1275000I-50000J0D01*
G01*
X2744000Y1275000D02*
G75*
G02*
X2844000Y1275000I50000J0D01*
G01*
X2844000Y1021000D02*
G75*
G02*
X2744000Y1021000I-50000J0D01*
G01*
X2744000Y1021000D02*
G75*
G02*
X2844000Y1021000I50000J0D01*
G01*
X2844000Y767000D02*
G75*
G02*
X2744000Y767000I-50000J0D01*
G01*
X2744000Y767000D02*
G75*
G02*
X2844000Y767000I50000J0D01*
G01*
X2844000Y513000D02*
G75*
G02*
X2744000Y513000I-50000J0D01*
G01*
X2744000Y513000D02*
G75*
G02*
X2844000Y513000I50000J0D01*
G01*
X2848000Y4965000D02*
G75*
G02*
X2748000Y4965000I-50000J0D01*
G01*
X2748000Y4965000D02*
G75*
G02*
X2848000Y4965000I50000J0D01*
G01*
X2848000Y2425000D02*
G75*
G02*
X2748000Y2425000I-50000J0D01*
G01*
X2748000Y2425000D02*
G75*
G02*
X2848000Y2425000I50000J0D01*
G01*
X3102000Y4965000D02*
G75*
G02*
X3002000Y4965000I-50000J0D01*
G01*
X3002000Y4965000D02*
G75*
G02*
X3102000Y4965000I50000J0D01*
G01*
X3102000Y2425000D02*
G75*
G02*
X3002000Y2425000I-50000J0D01*
G01*
X3002000Y2425000D02*
G75*
G02*
X3102000Y2425000I50000J0D01*
G01*
X3356000Y4965000D02*
G75*
G02*
X3256000Y4965000I-50000J0D01*
G01*
X3256000Y4965000D02*
G75*
G02*
X3356000Y4965000I50000J0D01*
G01*
X3356000Y2425000D02*
G75*
G02*
X3256000Y2425000I-50000J0D01*
G01*
X3256000Y2425000D02*
G75*
G02*
X3356000Y2425000I50000J0D01*
G01*
X3610000Y4965000D02*
G75*
G02*
X3510000Y4965000I-50000J0D01*
G01*
X3510000Y4965000D02*
G75*
G02*
X3610000Y4965000I50000J0D01*
G01*
X3610000Y2425000D02*
G75*
G02*
X3510000Y2425000I-50000J0D01*
G01*
X3510000Y2425000D02*
G75*
G02*
X3610000Y2425000I50000J0D01*
G01*
X3864000Y4965000D02*
G75*
G02*
X3764000Y4965000I-50000J0D01*
G01*
X3764000Y4965000D02*
G75*
G02*
X3864000Y4965000I50000J0D01*
G01*
X3864000Y2425000D02*
G75*
G02*
X3764000Y2425000I-50000J0D01*
G01*
X3764000Y2425000D02*
G75*
G02*
X3864000Y2425000I50000J0D01*
G01*
X4118000Y4965000D02*
G75*
G02*
X4018000Y4965000I-50000J0D01*
G01*
X4018000Y4965000D02*
G75*
G02*
X4118000Y4965000I50000J0D01*
G01*
X4118000Y2425000D02*
G75*
G02*
X4018000Y2425000I-50000J0D01*
G01*
X4018000Y2425000D02*
G75*
G02*
X4118000Y2425000I50000J0D01*
G01*
X4372000Y4965000D02*
G75*
G02*
X4272000Y4965000I-50000J0D01*
G01*
X4272000Y4965000D02*
G75*
G02*
X4372000Y4965000I50000J0D01*
G01*
X4372000Y2425000D02*
G75*
G02*
X4272000Y2425000I-50000J0D01*
G01*
X4272000Y2425000D02*
G75*
G02*
X4372000Y2425000I50000J0D01*
G01*
X4626000Y4965000D02*
G75*
G02*
X4526000Y4965000I-50000J0D01*
G01*
X4526000Y4965000D02*
G75*
G02*
X4626000Y4965000I50000J0D01*
G01*
X4626000Y2425000D02*
G75*
G02*
X4526000Y2425000I-50000J0D01*
G01*
X4526000Y2425000D02*
G75*
G02*
X4626000Y2425000I50000J0D01*
G01*
X4880000Y4965000D02*
G75*
G02*
X4780000Y4965000I-50000J0D01*
G01*
X4780000Y4965000D02*
G75*
G02*
X4880000Y4965000I50000J0D01*
G01*
X4880000Y2425000D02*
G75*
G02*
X4780000Y2425000I-50000J0D01*
G01*
X4780000Y2425000D02*
G75*
G02*
X4880000Y2425000I50000J0D01*
G01*
X5134000Y4965000D02*
G75*
G02*
X5034000Y4965000I-50000J0D01*
G01*
X5034000Y4965000D02*
G75*
G02*
X5134000Y4965000I50000J0D01*
G01*
X5134000Y2425000D02*
G75*
G02*
X5034000Y2425000I-50000J0D01*
G01*
X5034000Y2425000D02*
G75*
G02*
X5134000Y2425000I50000J0D01*
G01*
X5388000Y4965000D02*
G75*
G02*
X5288000Y4965000I-50000J0D01*
G01*
X5288000Y4965000D02*
G75*
G02*
X5388000Y4965000I50000J0D01*
G01*
X5388000Y2425000D02*
G75*
G02*
X5288000Y2425000I-50000J0D01*
G01*
X5288000Y2425000D02*
G75*
G02*
X5388000Y2425000I50000J0D01*
G01*
X5642000Y4965000D02*
G75*
G02*
X5542000Y4965000I-50000J0D01*
G01*
X5542000Y4965000D02*
G75*
G02*
X5642000Y4965000I50000J0D01*
G01*
X5642000Y2425000D02*
G75*
G02*
X5542000Y2425000I-50000J0D01*
G01*
X5542000Y2425000D02*
G75*
G02*
X5642000Y2425000I50000J0D01*
G01*
X5896000Y4965000D02*
G75*
G02*
X5796000Y4965000I-50000J0D01*
G01*
X5796000Y4965000D02*
G75*
G02*
X5896000Y4965000I50000J0D01*
G01*
X5896000Y2425000D02*
G75*
G02*
X5796000Y2425000I-50000J0D01*
G01*
X5796000Y2425000D02*
G75*
G02*
X5896000Y2425000I50000J0D01*
G01*
X6150000Y4965000D02*
G75*
G02*
X6050000Y4965000I-50000J0D01*
G01*
X6050000Y4965000D02*
G75*
G02*
X6150000Y4965000I50000J0D01*
G01*
X6150000Y2425000D02*
G75*
G02*
X6050000Y2425000I-50000J0D01*
G01*
X6050000Y2425000D02*
G75*
G02*
X6150000Y2425000I50000J0D01*
G01*
X6345000Y1529000D02*
G75*
G02*
X6245000Y1529000I-50000J0D01*
G01*
X6245000Y1529000D02*
G75*
G02*
X6345000Y1529000I50000J0D01*
G01*
X6345000Y1275000D02*
G75*
G02*
X6245000Y1275000I-50000J0D01*
G01*
X6245000Y1275000D02*
G75*
G02*
X6345000Y1275000I50000J0D01*
G01*
X6345000Y1021000D02*
G75*
G02*
X6245000Y1021000I-50000J0D01*
G01*
X6245000Y1021000D02*
G75*
G02*
X6345000Y1021000I50000J0D01*
G01*
X6345000Y767000D02*
G75*
G02*
X6245000Y767000I-50000J0D01*
G01*
X6245000Y767000D02*
G75*
G02*
X6345000Y767000I50000J0D01*
G01*
X6404000Y4965000D02*
G75*
G02*
X6304000Y4965000I-50000J0D01*
G01*
X6304000Y4965000D02*
G75*
G02*
X6404000Y4965000I50000J0D01*
G01*
X6404000Y2425000D02*
G75*
G02*
X6304000Y2425000I-50000J0D01*
G01*
X6304000Y2425000D02*
G75*
G02*
X6404000Y2425000I50000J0D01*
G01*
D10*
X350777Y-221484D02*
X350777Y-21484D01*
X350777Y-21484D02*
X398396Y-21484D01*
X398396Y-21484D02*
X426967Y-31008D01*
X426967Y-31008D02*
X446015Y-50055D01*
X446015Y-50055D02*
X455539Y-69103D01*
X455539Y-69103D02*
X465062Y-107198D01*
X465062Y-107198D02*
X465062Y-135770D01*
X465062Y-135770D02*
X455539Y-173865D01*
X455539Y-173865D02*
X446015Y-192912D01*
X446015Y-192912D02*
X426967Y-211960D01*
X426967Y-211960D02*
X398396Y-221484D01*
X398396Y-221484D02*
X350777Y-221484D01*
X550777Y-221484D02*
X550777Y-88150D01*
X550777Y-126246D02*
X560301Y-107198D01*
X560301Y-107198D02*
X569824Y-97674D01*
X569824Y-97674D02*
X588872Y-88150D01*
X588872Y-88150D02*
X607920Y-88150D01*
X674586Y-221484D02*
X674586Y-88150D01*
X674586Y-21484D02*
X665063Y-31008D01*
X665063Y-31008D02*
X674586Y-40531D01*
X674586Y-40531D02*
X684110Y-31008D01*
X684110Y-31008D02*
X674586Y-21484D01*
X674586Y-21484D02*
X674586Y-40531D01*
X798396Y-221484D02*
X779348Y-211960D01*
X779348Y-211960D02*
X769824Y-192912D01*
X769824Y-192912D02*
X769824Y-21484D01*
X903158Y-221484D02*
X884110Y-211960D01*
X884110Y-211960D02*
X874586Y-192912D01*
X874586Y-192912D02*
X874586Y-21484D01*
X1131729Y-221484D02*
X1131729Y-21484D01*
X1131729Y-21484D02*
X1198396Y-164341D01*
X1198396Y-164341D02*
X1265063Y-21484D01*
X1265063Y-21484D02*
X1265063Y-221484D01*
X1446015Y-221484D02*
X1446015Y-116722D01*
X1446015Y-116722D02*
X1436491Y-97674D01*
X1436491Y-97674D02*
X1417443Y-88150D01*
X1417443Y-88150D02*
X1379348Y-88150D01*
X1379348Y-88150D02*
X1360301Y-97674D01*
X1446015Y-211960D02*
X1426967Y-221484D01*
X1426967Y-221484D02*
X1379348Y-221484D01*
X1379348Y-221484D02*
X1360301Y-211960D01*
X1360301Y-211960D02*
X1350777Y-192912D01*
X1350777Y-192912D02*
X1350777Y-173865D01*
X1350777Y-173865D02*
X1360301Y-154817D01*
X1360301Y-154817D02*
X1379348Y-145293D01*
X1379348Y-145293D02*
X1426967Y-145293D01*
X1426967Y-145293D02*
X1446015Y-135770D01*
X1541253Y-88150D02*
X1541253Y-288150D01*
X1541253Y-97674D02*
X1560301Y-88150D01*
X1560301Y-88150D02*
X1598396Y-88150D01*
X1598396Y-88150D02*
X1617443Y-97674D01*
X1617443Y-97674D02*
X1626967Y-107198D01*
X1626967Y-107198D02*
X1636491Y-126246D01*
X1636491Y-126246D02*
X1636491Y-183388D01*
X1636491Y-183388D02*
X1626967Y-202436D01*
X1626967Y-202436D02*
X1617443Y-211960D01*
X1617443Y-211960D02*
X1598396Y-221484D01*
X1598396Y-221484D02*
X1560301Y-221484D01*
X1560301Y-221484D02*
X1541253Y-211960D01*
X1722205Y-202436D02*
X1731729Y-211960D01*
X1731729Y-211960D02*
X1722205Y-221484D01*
X1722205Y-221484D02*
X1712682Y-211960D01*
X1712682Y-211960D02*
X1722205Y-202436D01*
X1722205Y-202436D02*
X1722205Y-221484D01*
X1722205Y-97674D02*
X1731729Y-107198D01*
X1731729Y-107198D02*
X1722205Y-116722D01*
X1722205Y-116722D02*
X1712682Y-107198D01*
X1712682Y-107198D02*
X1722205Y-97674D01*
X1722205Y-97674D02*
X1722205Y-116722D01*
D11*
X0Y-505000D02*
X90000Y-595000D01*
X90000Y-505000D02*
X0Y-595000D01*
D10*
X388872Y-441484D02*
X407920Y-441484D01*
X407920Y-441484D02*
X426967Y-451008D01*
X426967Y-451008D02*
X436491Y-460531D01*
X436491Y-460531D02*
X446015Y-479579D01*
X446015Y-479579D02*
X455539Y-517674D01*
X455539Y-517674D02*
X455539Y-565293D01*
X455539Y-565293D02*
X446015Y-603389D01*
X446015Y-603389D02*
X436491Y-622436D01*
X436491Y-622436D02*
X426967Y-631960D01*
X426967Y-631960D02*
X407920Y-641484D01*
X407920Y-641484D02*
X388872Y-641484D01*
X388872Y-641484D02*
X369824Y-631960D01*
X369824Y-631960D02*
X360301Y-622436D01*
X360301Y-622436D02*
X350777Y-603389D01*
X350777Y-603389D02*
X341253Y-565293D01*
X341253Y-565293D02*
X341253Y-517674D01*
X341253Y-517674D02*
X350777Y-479579D01*
X350777Y-479579D02*
X360301Y-460531D01*
X360301Y-460531D02*
X369824Y-451008D01*
X369824Y-451008D02*
X388872Y-441484D01*
X541253Y-622436D02*
X550777Y-631960D01*
X550777Y-631960D02*
X541253Y-641484D01*
X541253Y-641484D02*
X531729Y-631960D01*
X531729Y-631960D02*
X541253Y-622436D01*
X541253Y-622436D02*
X541253Y-641484D01*
X646015Y-641484D02*
X684110Y-641484D01*
X684110Y-641484D02*
X703158Y-631960D01*
X703158Y-631960D02*
X712682Y-622436D01*
X712682Y-622436D02*
X731729Y-593865D01*
X731729Y-593865D02*
X741253Y-555770D01*
X741253Y-555770D02*
X741253Y-479579D01*
X741253Y-479579D02*
X731729Y-460531D01*
X731729Y-460531D02*
X722205Y-451008D01*
X722205Y-451008D02*
X703158Y-441484D01*
X703158Y-441484D02*
X665063Y-441484D01*
X665063Y-441484D02*
X646015Y-451008D01*
X646015Y-451008D02*
X636491Y-460531D01*
X636491Y-460531D02*
X626967Y-479579D01*
X626967Y-479579D02*
X626967Y-527198D01*
X626967Y-527198D02*
X636491Y-546246D01*
X636491Y-546246D02*
X646015Y-555770D01*
X646015Y-555770D02*
X665063Y-565293D01*
X665063Y-565293D02*
X703158Y-565293D01*
X703158Y-565293D02*
X722205Y-555770D01*
X722205Y-555770D02*
X731729Y-546246D01*
X731729Y-546246D02*
X741253Y-527198D01*
X865062Y-441484D02*
X884110Y-441484D01*
X884110Y-441484D02*
X903158Y-451008D01*
X903158Y-451008D02*
X912682Y-460531D01*
X912682Y-460531D02*
X922205Y-479579D01*
X922205Y-479579D02*
X931729Y-517674D01*
X931729Y-517674D02*
X931729Y-565293D01*
X931729Y-565293D02*
X922205Y-603389D01*
X922205Y-603389D02*
X912682Y-622436D01*
X912682Y-622436D02*
X903158Y-631960D01*
X903158Y-631960D02*
X884110Y-641484D01*
X884110Y-641484D02*
X865062Y-641484D01*
X865062Y-641484D02*
X846015Y-631960D01*
X846015Y-631960D02*
X836491Y-622436D01*
X836491Y-622436D02*
X826967Y-603389D01*
X826967Y-603389D02*
X817443Y-565293D01*
X817443Y-565293D02*
X817443Y-517674D01*
X817443Y-517674D02*
X826967Y-479579D01*
X826967Y-479579D02*
X836491Y-460531D01*
X836491Y-460531D02*
X846015Y-451008D01*
X846015Y-451008D02*
X865062Y-441484D01*
X1055539Y-441484D02*
X1074586Y-441484D01*
X1074586Y-441484D02*
X1093634Y-451008D01*
X1093634Y-451008D02*
X1103158Y-460531D01*
X1103158Y-460531D02*
X1112682Y-479579D01*
X1112682Y-479579D02*
X1122205Y-517674D01*
X1122205Y-517674D02*
X1122205Y-565293D01*
X1122205Y-565293D02*
X1112682Y-603389D01*
X1112682Y-603389D02*
X1103158Y-622436D01*
X1103158Y-622436D02*
X1093634Y-631960D01*
X1093634Y-631960D02*
X1074586Y-641484D01*
X1074586Y-641484D02*
X1055539Y-641484D01*
X1055539Y-641484D02*
X1036491Y-631960D01*
X1036491Y-631960D02*
X1026967Y-622436D01*
X1026967Y-622436D02*
X1017443Y-603389D01*
X1017443Y-603389D02*
X1007920Y-565293D01*
X1007920Y-565293D02*
X1007920Y-517674D01*
X1007920Y-517674D02*
X1017443Y-479579D01*
X1017443Y-479579D02*
X1026967Y-460531D01*
X1026967Y-460531D02*
X1036491Y-451008D01*
X1036491Y-451008D02*
X1055539Y-441484D01*
X1207920Y-641484D02*
X1207920Y-508150D01*
X1207920Y-527198D02*
X1217444Y-517674D01*
X1217444Y-517674D02*
X1236491Y-508150D01*
X1236491Y-508150D02*
X1265063Y-508150D01*
X1265063Y-508150D02*
X1284110Y-517674D01*
X1284110Y-517674D02*
X1293634Y-536722D01*
X1293634Y-536722D02*
X1293634Y-641484D01*
X1293634Y-536722D02*
X1303158Y-517674D01*
X1303158Y-517674D02*
X1322205Y-508150D01*
X1322205Y-508150D02*
X1350777Y-508150D01*
X1350777Y-508150D02*
X1369825Y-517674D01*
X1369825Y-517674D02*
X1379348Y-536722D01*
X1379348Y-536722D02*
X1379348Y-641484D01*
X1474586Y-641484D02*
X1474586Y-508150D01*
X1474586Y-527198D02*
X1484110Y-517674D01*
X1484110Y-517674D02*
X1503158Y-508150D01*
X1503158Y-508150D02*
X1531729Y-508150D01*
X1531729Y-508150D02*
X1550777Y-517674D01*
X1550777Y-517674D02*
X1560301Y-536722D01*
X1560301Y-536722D02*
X1560301Y-641484D01*
X1560301Y-536722D02*
X1569824Y-517674D01*
X1569824Y-517674D02*
X1588872Y-508150D01*
X1588872Y-508150D02*
X1617443Y-508150D01*
X1617443Y-508150D02*
X1636491Y-517674D01*
X1636491Y-517674D02*
X1646015Y-536722D01*
X1646015Y-536722D02*
X1646015Y-641484D01*
X2036491Y-431960D02*
X1865063Y-689103D01*
X2293634Y-441484D02*
X2312682Y-441484D01*
X2312682Y-441484D02*
X2331729Y-451008D01*
X2331729Y-451008D02*
X2341253Y-460531D01*
X2341253Y-460531D02*
X2350777Y-479579D01*
X2350777Y-479579D02*
X2360301Y-517674D01*
X2360301Y-517674D02*
X2360301Y-565293D01*
X2360301Y-565293D02*
X2350777Y-603389D01*
X2350777Y-603389D02*
X2341253Y-622436D01*
X2341253Y-622436D02*
X2331729Y-631960D01*
X2331729Y-631960D02*
X2312682Y-641484D01*
X2312682Y-641484D02*
X2293634Y-641484D01*
X2293634Y-641484D02*
X2274587Y-631960D01*
X2274587Y-631960D02*
X2265063Y-622436D01*
X2265063Y-622436D02*
X2255539Y-603389D01*
X2255539Y-603389D02*
X2246015Y-565293D01*
X2246015Y-565293D02*
X2246015Y-517674D01*
X2246015Y-517674D02*
X2255539Y-479579D01*
X2255539Y-479579D02*
X2265063Y-460531D01*
X2265063Y-460531D02*
X2274587Y-451008D01*
X2274587Y-451008D02*
X2293634Y-441484D01*
X2446015Y-622436D02*
X2455539Y-631960D01*
X2455539Y-631960D02*
X2446015Y-641484D01*
X2446015Y-641484D02*
X2436491Y-631960D01*
X2436491Y-631960D02*
X2446015Y-622436D01*
X2446015Y-622436D02*
X2446015Y-641484D01*
X2579348Y-441484D02*
X2598396Y-441484D01*
X2598396Y-441484D02*
X2617444Y-451008D01*
X2617444Y-451008D02*
X2626968Y-460531D01*
X2626968Y-460531D02*
X2636491Y-479579D01*
X2636491Y-479579D02*
X2646015Y-517674D01*
X2646015Y-517674D02*
X2646015Y-565293D01*
X2646015Y-565293D02*
X2636491Y-603389D01*
X2636491Y-603389D02*
X2626968Y-622436D01*
X2626968Y-622436D02*
X2617444Y-631960D01*
X2617444Y-631960D02*
X2598396Y-641484D01*
X2598396Y-641484D02*
X2579348Y-641484D01*
X2579348Y-641484D02*
X2560301Y-631960D01*
X2560301Y-631960D02*
X2550777Y-622436D01*
X2550777Y-622436D02*
X2541253Y-603389D01*
X2541253Y-603389D02*
X2531729Y-565293D01*
X2531729Y-565293D02*
X2531729Y-517674D01*
X2531729Y-517674D02*
X2541253Y-479579D01*
X2541253Y-479579D02*
X2550777Y-460531D01*
X2550777Y-460531D02*
X2560301Y-451008D01*
X2560301Y-451008D02*
X2579348Y-441484D01*
X2712682Y-441484D02*
X2836491Y-441484D01*
X2836491Y-441484D02*
X2769825Y-517674D01*
X2769825Y-517674D02*
X2798396Y-517674D01*
X2798396Y-517674D02*
X2817444Y-527198D01*
X2817444Y-527198D02*
X2826967Y-536722D01*
X2826967Y-536722D02*
X2836491Y-555770D01*
X2836491Y-555770D02*
X2836491Y-603389D01*
X2836491Y-603389D02*
X2826967Y-622436D01*
X2826967Y-622436D02*
X2817444Y-631960D01*
X2817444Y-631960D02*
X2798396Y-641484D01*
X2798396Y-641484D02*
X2741253Y-641484D01*
X2741253Y-641484D02*
X2722206Y-631960D01*
X2722206Y-631960D02*
X2712682Y-622436D01*
X3017444Y-441484D02*
X2922206Y-441484D01*
X2922206Y-441484D02*
X2912682Y-536722D01*
X2912682Y-536722D02*
X2922206Y-527198D01*
X2922206Y-527198D02*
X2941253Y-517674D01*
X2941253Y-517674D02*
X2988872Y-517674D01*
X2988872Y-517674D02*
X3007920Y-527198D01*
X3007920Y-527198D02*
X3017444Y-536722D01*
X3017444Y-536722D02*
X3026967Y-555770D01*
X3026967Y-555770D02*
X3026967Y-603389D01*
X3026967Y-603389D02*
X3017444Y-622436D01*
X3017444Y-622436D02*
X3007920Y-631960D01*
X3007920Y-631960D02*
X2988872Y-641484D01*
X2988872Y-641484D02*
X2941253Y-641484D01*
X2941253Y-641484D02*
X2922206Y-631960D01*
X2922206Y-631960D02*
X2912682Y-622436D01*
X3198396Y-508150D02*
X3198396Y-641484D01*
X3150777Y-431960D02*
X3103158Y-574817D01*
X3103158Y-574817D02*
X3226967Y-574817D01*
X3293634Y-441484D02*
X3293634Y-479579D01*
X3369825Y-441484D02*
X3369825Y-479579D01*
X3665063Y-717674D02*
X3655539Y-708150D01*
X3655539Y-708150D02*
X3636491Y-679579D01*
X3636491Y-679579D02*
X3626968Y-660531D01*
X3626968Y-660531D02*
X3617444Y-631960D01*
X3617444Y-631960D02*
X3607920Y-584341D01*
X3607920Y-584341D02*
X3607920Y-546246D01*
X3607920Y-546246D02*
X3617444Y-498627D01*
X3617444Y-498627D02*
X3626968Y-470055D01*
X3626968Y-470055D02*
X3636491Y-451008D01*
X3636491Y-451008D02*
X3655539Y-422436D01*
X3655539Y-422436D02*
X3665063Y-412912D01*
X3722206Y-441484D02*
X3855539Y-441484D01*
X3855539Y-441484D02*
X3769825Y-641484D01*
X4084110Y-641484D02*
X4084110Y-441484D01*
X4169825Y-641484D02*
X4169825Y-536722D01*
X4169825Y-536722D02*
X4160301Y-517674D01*
X4160301Y-517674D02*
X4141253Y-508150D01*
X4141253Y-508150D02*
X4112682Y-508150D01*
X4112682Y-508150D02*
X4093634Y-517674D01*
X4093634Y-517674D02*
X4084110Y-527198D01*
X4293634Y-641484D02*
X4274587Y-631960D01*
X4274587Y-631960D02*
X4265063Y-622436D01*
X4265063Y-622436D02*
X4255539Y-603389D01*
X4255539Y-603389D02*
X4255539Y-546246D01*
X4255539Y-546246D02*
X4265063Y-527198D01*
X4265063Y-527198D02*
X4274587Y-517674D01*
X4274587Y-517674D02*
X4293634Y-508150D01*
X4293634Y-508150D02*
X4322206Y-508150D01*
X4322206Y-508150D02*
X4341253Y-517674D01*
X4341253Y-517674D02*
X4350777Y-527198D01*
X4350777Y-527198D02*
X4360301Y-546246D01*
X4360301Y-546246D02*
X4360301Y-603389D01*
X4360301Y-603389D02*
X4350777Y-622436D01*
X4350777Y-622436D02*
X4341253Y-631960D01*
X4341253Y-631960D02*
X4322206Y-641484D01*
X4322206Y-641484D02*
X4293634Y-641484D01*
X4474587Y-641484D02*
X4455539Y-631960D01*
X4455539Y-631960D02*
X4446015Y-612912D01*
X4446015Y-612912D02*
X4446015Y-441484D01*
X4626968Y-631960D02*
X4607920Y-641484D01*
X4607920Y-641484D02*
X4569825Y-641484D01*
X4569825Y-641484D02*
X4550777Y-631960D01*
X4550777Y-631960D02*
X4541253Y-612912D01*
X4541253Y-612912D02*
X4541253Y-536722D01*
X4541253Y-536722D02*
X4550777Y-517674D01*
X4550777Y-517674D02*
X4569825Y-508150D01*
X4569825Y-508150D02*
X4607920Y-508150D01*
X4607920Y-508150D02*
X4626968Y-517674D01*
X4626968Y-517674D02*
X4636492Y-536722D01*
X4636492Y-536722D02*
X4636492Y-555770D01*
X4636492Y-555770D02*
X4541253Y-574817D01*
X4712682Y-631960D02*
X4731730Y-641484D01*
X4731730Y-641484D02*
X4769825Y-641484D01*
X4769825Y-641484D02*
X4788873Y-631960D01*
X4788873Y-631960D02*
X4798396Y-612912D01*
X4798396Y-612912D02*
X4798396Y-603389D01*
X4798396Y-603389D02*
X4788873Y-584341D01*
X4788873Y-584341D02*
X4769825Y-574817D01*
X4769825Y-574817D02*
X4741253Y-574817D01*
X4741253Y-574817D02*
X4722206Y-565293D01*
X4722206Y-565293D02*
X4712682Y-546246D01*
X4712682Y-546246D02*
X4712682Y-536722D01*
X4712682Y-536722D02*
X4722206Y-517674D01*
X4722206Y-517674D02*
X4741253Y-508150D01*
X4741253Y-508150D02*
X4769825Y-508150D01*
X4769825Y-508150D02*
X4788873Y-517674D01*
X4865063Y-717674D02*
X4874587Y-708150D01*
X4874587Y-708150D02*
X4893634Y-679579D01*
X4893634Y-679579D02*
X4903158Y-660531D01*
X4903158Y-660531D02*
X4912682Y-631960D01*
X4912682Y-631960D02*
X4922206Y-584341D01*
X4922206Y-584341D02*
X4922206Y-546246D01*
X4922206Y-546246D02*
X4912682Y-498627D01*
X4912682Y-498627D02*
X4903158Y-470055D01*
X4903158Y-470055D02*
X4893634Y-451008D01*
X4893634Y-451008D02*
X4874587Y-422436D01*
X4874587Y-422436D02*
X4865063Y-412912D01*
D11*
X90000Y-814000D02*
G75*
G02*
X-10000Y-814000I-50000J0D01*
G01*
X-10000Y-814000D02*
G75*
G02*
X90000Y-814000I50000J0D01*
G01*
D10*
X455539Y-905484D02*
X341253Y-905484D01*
X398396Y-905484D02*
X398396Y-705484D01*
X398396Y-705484D02*
X379348Y-734055D01*
X379348Y-734055D02*
X360301Y-753103D01*
X360301Y-753103D02*
X341253Y-762627D01*
X541253Y-886436D02*
X550777Y-895960D01*
X550777Y-895960D02*
X541253Y-905484D01*
X541253Y-905484D02*
X531729Y-895960D01*
X531729Y-895960D02*
X541253Y-886436D01*
X541253Y-886436D02*
X541253Y-905484D01*
X674586Y-705484D02*
X693634Y-705484D01*
X693634Y-705484D02*
X712682Y-715008D01*
X712682Y-715008D02*
X722205Y-724531D01*
X722205Y-724531D02*
X731729Y-743579D01*
X731729Y-743579D02*
X741253Y-781674D01*
X741253Y-781674D02*
X741253Y-829293D01*
X741253Y-829293D02*
X731729Y-867388D01*
X731729Y-867388D02*
X722205Y-886436D01*
X722205Y-886436D02*
X712682Y-895960D01*
X712682Y-895960D02*
X693634Y-905484D01*
X693634Y-905484D02*
X674586Y-905484D01*
X674586Y-905484D02*
X655539Y-895960D01*
X655539Y-895960D02*
X646015Y-886436D01*
X646015Y-886436D02*
X636491Y-867388D01*
X636491Y-867388D02*
X626967Y-829293D01*
X626967Y-829293D02*
X626967Y-781674D01*
X626967Y-781674D02*
X636491Y-743579D01*
X636491Y-743579D02*
X646015Y-724531D01*
X646015Y-724531D02*
X655539Y-715008D01*
X655539Y-715008D02*
X674586Y-705484D01*
X865062Y-705484D02*
X884110Y-705484D01*
X884110Y-705484D02*
X903158Y-715008D01*
X903158Y-715008D02*
X912682Y-724531D01*
X912682Y-724531D02*
X922205Y-743579D01*
X922205Y-743579D02*
X931729Y-781674D01*
X931729Y-781674D02*
X931729Y-829293D01*
X931729Y-829293D02*
X922205Y-867388D01*
X922205Y-867388D02*
X912682Y-886436D01*
X912682Y-886436D02*
X903158Y-895960D01*
X903158Y-895960D02*
X884110Y-905484D01*
X884110Y-905484D02*
X865062Y-905484D01*
X865062Y-905484D02*
X846015Y-895960D01*
X846015Y-895960D02*
X836491Y-886436D01*
X836491Y-886436D02*
X826967Y-867388D01*
X826967Y-867388D02*
X817443Y-829293D01*
X817443Y-829293D02*
X817443Y-781674D01*
X817443Y-781674D02*
X826967Y-743579D01*
X826967Y-743579D02*
X836491Y-724531D01*
X836491Y-724531D02*
X846015Y-715008D01*
X846015Y-715008D02*
X865062Y-705484D01*
X1055539Y-705484D02*
X1074586Y-705484D01*
X1074586Y-705484D02*
X1093634Y-715008D01*
X1093634Y-715008D02*
X1103158Y-724531D01*
X1103158Y-724531D02*
X1112682Y-743579D01*
X1112682Y-743579D02*
X1122205Y-781674D01*
X1122205Y-781674D02*
X1122205Y-829293D01*
X1122205Y-829293D02*
X1112682Y-867388D01*
X1112682Y-867388D02*
X1103158Y-886436D01*
X1103158Y-886436D02*
X1093634Y-895960D01*
X1093634Y-895960D02*
X1074586Y-905484D01*
X1074586Y-905484D02*
X1055539Y-905484D01*
X1055539Y-905484D02*
X1036491Y-895960D01*
X1036491Y-895960D02*
X1026967Y-886436D01*
X1026967Y-886436D02*
X1017443Y-867388D01*
X1017443Y-867388D02*
X1007920Y-829293D01*
X1007920Y-829293D02*
X1007920Y-781674D01*
X1007920Y-781674D02*
X1017443Y-743579D01*
X1017443Y-743579D02*
X1026967Y-724531D01*
X1026967Y-724531D02*
X1036491Y-715008D01*
X1036491Y-715008D02*
X1055539Y-705484D01*
X1207920Y-905484D02*
X1207920Y-772150D01*
X1207920Y-791198D02*
X1217444Y-781674D01*
X1217444Y-781674D02*
X1236491Y-772150D01*
X1236491Y-772150D02*
X1265063Y-772150D01*
X1265063Y-772150D02*
X1284110Y-781674D01*
X1284110Y-781674D02*
X1293634Y-800722D01*
X1293634Y-800722D02*
X1293634Y-905484D01*
X1293634Y-800722D02*
X1303158Y-781674D01*
X1303158Y-781674D02*
X1322205Y-772150D01*
X1322205Y-772150D02*
X1350777Y-772150D01*
X1350777Y-772150D02*
X1369825Y-781674D01*
X1369825Y-781674D02*
X1379348Y-800722D01*
X1379348Y-800722D02*
X1379348Y-905484D01*
X1474586Y-905484D02*
X1474586Y-772150D01*
X1474586Y-791198D02*
X1484110Y-781674D01*
X1484110Y-781674D02*
X1503158Y-772150D01*
X1503158Y-772150D02*
X1531729Y-772150D01*
X1531729Y-772150D02*
X1550777Y-781674D01*
X1550777Y-781674D02*
X1560301Y-800722D01*
X1560301Y-800722D02*
X1560301Y-905484D01*
X1560301Y-800722D02*
X1569824Y-781674D01*
X1569824Y-781674D02*
X1588872Y-772150D01*
X1588872Y-772150D02*
X1617443Y-772150D01*
X1617443Y-772150D02*
X1636491Y-781674D01*
X1636491Y-781674D02*
X1646015Y-800722D01*
X1646015Y-800722D02*
X1646015Y-905484D01*
X2036491Y-695960D02*
X1865063Y-953103D01*
X2293634Y-705484D02*
X2312682Y-705484D01*
X2312682Y-705484D02*
X2331729Y-715008D01*
X2331729Y-715008D02*
X2341253Y-724531D01*
X2341253Y-724531D02*
X2350777Y-743579D01*
X2350777Y-743579D02*
X2360301Y-781674D01*
X2360301Y-781674D02*
X2360301Y-829293D01*
X2360301Y-829293D02*
X2350777Y-867388D01*
X2350777Y-867388D02*
X2341253Y-886436D01*
X2341253Y-886436D02*
X2331729Y-895960D01*
X2331729Y-895960D02*
X2312682Y-905484D01*
X2312682Y-905484D02*
X2293634Y-905484D01*
X2293634Y-905484D02*
X2274587Y-895960D01*
X2274587Y-895960D02*
X2265063Y-886436D01*
X2265063Y-886436D02*
X2255539Y-867388D01*
X2255539Y-867388D02*
X2246015Y-829293D01*
X2246015Y-829293D02*
X2246015Y-781674D01*
X2246015Y-781674D02*
X2255539Y-743579D01*
X2255539Y-743579D02*
X2265063Y-724531D01*
X2265063Y-724531D02*
X2274587Y-715008D01*
X2274587Y-715008D02*
X2293634Y-705484D01*
X2446015Y-886436D02*
X2455539Y-895960D01*
X2455539Y-895960D02*
X2446015Y-905484D01*
X2446015Y-905484D02*
X2436491Y-895960D01*
X2436491Y-895960D02*
X2446015Y-886436D01*
X2446015Y-886436D02*
X2446015Y-905484D01*
X2579348Y-705484D02*
X2598396Y-705484D01*
X2598396Y-705484D02*
X2617444Y-715008D01*
X2617444Y-715008D02*
X2626968Y-724531D01*
X2626968Y-724531D02*
X2636491Y-743579D01*
X2636491Y-743579D02*
X2646015Y-781674D01*
X2646015Y-781674D02*
X2646015Y-829293D01*
X2646015Y-829293D02*
X2636491Y-867388D01*
X2636491Y-867388D02*
X2626968Y-886436D01*
X2626968Y-886436D02*
X2617444Y-895960D01*
X2617444Y-895960D02*
X2598396Y-905484D01*
X2598396Y-905484D02*
X2579348Y-905484D01*
X2579348Y-905484D02*
X2560301Y-895960D01*
X2560301Y-895960D02*
X2550777Y-886436D01*
X2550777Y-886436D02*
X2541253Y-867388D01*
X2541253Y-867388D02*
X2531729Y-829293D01*
X2531729Y-829293D02*
X2531729Y-781674D01*
X2531729Y-781674D02*
X2541253Y-743579D01*
X2541253Y-743579D02*
X2550777Y-724531D01*
X2550777Y-724531D02*
X2560301Y-715008D01*
X2560301Y-715008D02*
X2579348Y-705484D01*
X2712682Y-705484D02*
X2836491Y-705484D01*
X2836491Y-705484D02*
X2769825Y-781674D01*
X2769825Y-781674D02*
X2798396Y-781674D01*
X2798396Y-781674D02*
X2817444Y-791198D01*
X2817444Y-791198D02*
X2826967Y-800722D01*
X2826967Y-800722D02*
X2836491Y-819769D01*
X2836491Y-819769D02*
X2836491Y-867388D01*
X2836491Y-867388D02*
X2826967Y-886436D01*
X2826967Y-886436D02*
X2817444Y-895960D01*
X2817444Y-895960D02*
X2798396Y-905484D01*
X2798396Y-905484D02*
X2741253Y-905484D01*
X2741253Y-905484D02*
X2722206Y-895960D01*
X2722206Y-895960D02*
X2712682Y-886436D01*
X2931729Y-905484D02*
X2969825Y-905484D01*
X2969825Y-905484D02*
X2988872Y-895960D01*
X2988872Y-895960D02*
X2998396Y-886436D01*
X2998396Y-886436D02*
X3017444Y-857865D01*
X3017444Y-857865D02*
X3026967Y-819769D01*
X3026967Y-819769D02*
X3026967Y-743579D01*
X3026967Y-743579D02*
X3017444Y-724531D01*
X3017444Y-724531D02*
X3007920Y-715008D01*
X3007920Y-715008D02*
X2988872Y-705484D01*
X2988872Y-705484D02*
X2950777Y-705484D01*
X2950777Y-705484D02*
X2931729Y-715008D01*
X2931729Y-715008D02*
X2922206Y-724531D01*
X2922206Y-724531D02*
X2912682Y-743579D01*
X2912682Y-743579D02*
X2912682Y-791198D01*
X2912682Y-791198D02*
X2922206Y-810246D01*
X2922206Y-810246D02*
X2931729Y-819769D01*
X2931729Y-819769D02*
X2950777Y-829293D01*
X2950777Y-829293D02*
X2988872Y-829293D01*
X2988872Y-829293D02*
X3007920Y-819769D01*
X3007920Y-819769D02*
X3017444Y-810246D01*
X3017444Y-810246D02*
X3026967Y-791198D01*
X3198396Y-772150D02*
X3198396Y-905484D01*
X3150777Y-695960D02*
X3103158Y-838817D01*
X3103158Y-838817D02*
X3226967Y-838817D01*
X3293634Y-705484D02*
X3293634Y-743579D01*
X3369825Y-705484D02*
X3369825Y-743579D01*
X3665063Y-981674D02*
X3655539Y-972150D01*
X3655539Y-972150D02*
X3636491Y-943579D01*
X3636491Y-943579D02*
X3626968Y-924531D01*
X3626968Y-924531D02*
X3617444Y-895960D01*
X3617444Y-895960D02*
X3607920Y-848341D01*
X3607920Y-848341D02*
X3607920Y-810246D01*
X3607920Y-810246D02*
X3617444Y-762627D01*
X3617444Y-762627D02*
X3626968Y-734055D01*
X3626968Y-734055D02*
X3636491Y-715008D01*
X3636491Y-715008D02*
X3655539Y-686436D01*
X3655539Y-686436D02*
X3665063Y-676912D01*
X3836491Y-705484D02*
X3741253Y-705484D01*
X3741253Y-705484D02*
X3731729Y-800722D01*
X3731729Y-800722D02*
X3741253Y-791198D01*
X3741253Y-791198D02*
X3760301Y-781674D01*
X3760301Y-781674D02*
X3807920Y-781674D01*
X3807920Y-781674D02*
X3826968Y-791198D01*
X3826968Y-791198D02*
X3836491Y-800722D01*
X3836491Y-800722D02*
X3846015Y-819769D01*
X3846015Y-819769D02*
X3846015Y-867388D01*
X3846015Y-867388D02*
X3836491Y-886436D01*
X3836491Y-886436D02*
X3826968Y-895960D01*
X3826968Y-895960D02*
X3807920Y-905484D01*
X3807920Y-905484D02*
X3760301Y-905484D01*
X3760301Y-905484D02*
X3741253Y-895960D01*
X3741253Y-895960D02*
X3731729Y-886436D01*
X4017444Y-772150D02*
X4017444Y-905484D01*
X3969825Y-695960D02*
X3922206Y-838817D01*
X3922206Y-838817D02*
X4046015Y-838817D01*
X4274587Y-905484D02*
X4274587Y-705484D01*
X4360301Y-905484D02*
X4360301Y-800722D01*
X4360301Y-800722D02*
X4350777Y-781674D01*
X4350777Y-781674D02*
X4331730Y-772150D01*
X4331730Y-772150D02*
X4303158Y-772150D01*
X4303158Y-772150D02*
X4284111Y-781674D01*
X4284111Y-781674D02*
X4274587Y-791198D01*
X4484111Y-905484D02*
X4465063Y-895960D01*
X4465063Y-895960D02*
X4455539Y-886436D01*
X4455539Y-886436D02*
X4446015Y-867388D01*
X4446015Y-867388D02*
X4446015Y-810246D01*
X4446015Y-810246D02*
X4455539Y-791198D01*
X4455539Y-791198D02*
X4465063Y-781674D01*
X4465063Y-781674D02*
X4484111Y-772150D01*
X4484111Y-772150D02*
X4512682Y-772150D01*
X4512682Y-772150D02*
X4531730Y-781674D01*
X4531730Y-781674D02*
X4541253Y-791198D01*
X4541253Y-791198D02*
X4550777Y-810246D01*
X4550777Y-810246D02*
X4550777Y-867388D01*
X4550777Y-867388D02*
X4541253Y-886436D01*
X4541253Y-886436D02*
X4531730Y-895960D01*
X4531730Y-895960D02*
X4512682Y-905484D01*
X4512682Y-905484D02*
X4484111Y-905484D01*
X4665063Y-905484D02*
X4646015Y-895960D01*
X4646015Y-895960D02*
X4636492Y-876912D01*
X4636492Y-876912D02*
X4636492Y-705484D01*
X4817444Y-895960D02*
X4798396Y-905484D01*
X4798396Y-905484D02*
X4760301Y-905484D01*
X4760301Y-905484D02*
X4741253Y-895960D01*
X4741253Y-895960D02*
X4731730Y-876912D01*
X4731730Y-876912D02*
X4731730Y-800722D01*
X4731730Y-800722D02*
X4741253Y-781674D01*
X4741253Y-781674D02*
X4760301Y-772150D01*
X4760301Y-772150D02*
X4798396Y-772150D01*
X4798396Y-772150D02*
X4817444Y-781674D01*
X4817444Y-781674D02*
X4826968Y-800722D01*
X4826968Y-800722D02*
X4826968Y-819769D01*
X4826968Y-819769D02*
X4731730Y-838817D01*
X4903158Y-895960D02*
X4922206Y-905484D01*
X4922206Y-905484D02*
X4960301Y-905484D01*
X4960301Y-905484D02*
X4979349Y-895960D01*
X4979349Y-895960D02*
X4988873Y-876912D01*
X4988873Y-876912D02*
X4988873Y-867388D01*
X4988873Y-867388D02*
X4979349Y-848341D01*
X4979349Y-848341D02*
X4960301Y-838817D01*
X4960301Y-838817D02*
X4931730Y-838817D01*
X4931730Y-838817D02*
X4912682Y-829293D01*
X4912682Y-829293D02*
X4903158Y-810246D01*
X4903158Y-810246D02*
X4903158Y-800722D01*
X4903158Y-800722D02*
X4912682Y-781674D01*
X4912682Y-781674D02*
X4931730Y-772150D01*
X4931730Y-772150D02*
X4960301Y-772150D01*
X4960301Y-772150D02*
X4979349Y-781674D01*
X5055539Y-981674D02*
X5065063Y-972150D01*
X5065063Y-972150D02*
X5084111Y-943579D01*
X5084111Y-943579D02*
X5093634Y-924531D01*
X5093634Y-924531D02*
X5103158Y-895960D01*
X5103158Y-895960D02*
X5112682Y-848341D01*
X5112682Y-848341D02*
X5112682Y-810246D01*
X5112682Y-810246D02*
X5103158Y-762627D01*
X5103158Y-762627D02*
X5093634Y-734055D01*
X5093634Y-734055D02*
X5084111Y-715008D01*
X5084111Y-715008D02*
X5065063Y-686436D01*
X5065063Y-686436D02*
X5055539Y-676912D01*
M02*
