%TF.GenerationSoftware,KiCad,Pcbnew,8.0.6*%
%TF.CreationDate,2024-11-03T13:03:28+02:00*%
%TF.ProjectId,Cronus,43726f6e-7573-42e6-9b69-6361645f7063,rev?*%
%TF.SameCoordinates,PX649cd60PY6c7aff0*%
%TF.FileFunction,AssemblyDrawing,Top*%
%FSLAX46Y46*%
G04 Gerber Fmt 4.6, Leading zero omitted, Abs format (unit mm)*
G04 Created by KiCad (PCBNEW 8.0.6) date 2024-11-03 13:03:28*
%MOMM*%
%LPD*%
G01*
G04 APERTURE LIST*
%ADD10C,0.150000*%
%ADD11C,0.120000*%
G04 APERTURE END LIST*
D10*
X46404819Y10718096D02*
X47214342Y10718096D01*
X47214342Y10718096D02*
X47309580Y10765715D01*
X47309580Y10765715D02*
X47357200Y10813334D01*
X47357200Y10813334D02*
X47404819Y10908572D01*
X47404819Y10908572D02*
X47404819Y11099048D01*
X47404819Y11099048D02*
X47357200Y11194286D01*
X47357200Y11194286D02*
X47309580Y11241905D01*
X47309580Y11241905D02*
X47214342Y11289524D01*
X47214342Y11289524D02*
X46404819Y11289524D01*
X46500057Y11718096D02*
X46452438Y11765715D01*
X46452438Y11765715D02*
X46404819Y11860953D01*
X46404819Y11860953D02*
X46404819Y12099048D01*
X46404819Y12099048D02*
X46452438Y12194286D01*
X46452438Y12194286D02*
X46500057Y12241905D01*
X46500057Y12241905D02*
X46595295Y12289524D01*
X46595295Y12289524D02*
X46690533Y12289524D01*
X46690533Y12289524D02*
X46833390Y12241905D01*
X46833390Y12241905D02*
X47404819Y11670477D01*
X47404819Y11670477D02*
X47404819Y12289524D01*
X2238095Y48545181D02*
X2238095Y49545181D01*
X2238095Y49068991D02*
X2809523Y49068991D01*
X2809523Y48545181D02*
X2809523Y49545181D01*
X3809523Y48545181D02*
X3238095Y48545181D01*
X3523809Y48545181D02*
X3523809Y49545181D01*
X3523809Y49545181D02*
X3428571Y49402324D01*
X3428571Y49402324D02*
X3333333Y49307086D01*
X3333333Y49307086D02*
X3238095Y49259467D01*
X2238095Y2545181D02*
X2238095Y3545181D01*
X2238095Y3068991D02*
X2809523Y3068991D01*
X2809523Y2545181D02*
X2809523Y3545181D01*
X3190476Y3545181D02*
X3809523Y3545181D01*
X3809523Y3545181D02*
X3476190Y3164229D01*
X3476190Y3164229D02*
X3619047Y3164229D01*
X3619047Y3164229D02*
X3714285Y3116610D01*
X3714285Y3116610D02*
X3761904Y3068991D01*
X3761904Y3068991D02*
X3809523Y2973753D01*
X3809523Y2973753D02*
X3809523Y2735658D01*
X3809523Y2735658D02*
X3761904Y2640420D01*
X3761904Y2640420D02*
X3714285Y2592800D01*
X3714285Y2592800D02*
X3619047Y2545181D01*
X3619047Y2545181D02*
X3333333Y2545181D01*
X3333333Y2545181D02*
X3238095Y2592800D01*
X3238095Y2592800D02*
X3190476Y2640420D01*
X33645180Y37711905D02*
X32835657Y37711905D01*
X32835657Y37711905D02*
X32740419Y37664286D01*
X32740419Y37664286D02*
X32692800Y37616667D01*
X32692800Y37616667D02*
X32645180Y37521429D01*
X32645180Y37521429D02*
X32645180Y37330953D01*
X32645180Y37330953D02*
X32692800Y37235715D01*
X32692800Y37235715D02*
X32740419Y37188096D01*
X32740419Y37188096D02*
X32835657Y37140477D01*
X32835657Y37140477D02*
X33645180Y37140477D01*
X32645180Y36140477D02*
X32645180Y36711905D01*
X32645180Y36426191D02*
X33645180Y36426191D01*
X33645180Y36426191D02*
X33502323Y36521429D01*
X33502323Y36521429D02*
X33407085Y36616667D01*
X33407085Y36616667D02*
X33359466Y36711905D01*
X68238095Y2545181D02*
X68238095Y3545181D01*
X68238095Y3068991D02*
X68809523Y3068991D01*
X68809523Y2545181D02*
X68809523Y3545181D01*
X69714285Y3211848D02*
X69714285Y2545181D01*
X69476190Y3592800D02*
X69238095Y2878515D01*
X69238095Y2878515D02*
X69857142Y2878515D01*
X68238095Y48545181D02*
X68238095Y49545181D01*
X68238095Y49068991D02*
X68809523Y49068991D01*
X68809523Y48545181D02*
X68809523Y49545181D01*
X69238095Y49449943D02*
X69285714Y49497562D01*
X69285714Y49497562D02*
X69380952Y49545181D01*
X69380952Y49545181D02*
X69619047Y49545181D01*
X69619047Y49545181D02*
X69714285Y49497562D01*
X69714285Y49497562D02*
X69761904Y49449943D01*
X69761904Y49449943D02*
X69809523Y49354705D01*
X69809523Y49354705D02*
X69809523Y49259467D01*
X69809523Y49259467D02*
X69761904Y49116610D01*
X69761904Y49116610D02*
X69190476Y48545181D01*
X69190476Y48545181D02*
X69809523Y48545181D01*
D11*
%TO.C,J3*%
X3880000Y28190000D02*
X3880000Y27690000D01*
X3880000Y27690000D02*
X6280000Y27690000D01*
X6280000Y28190000D02*
X3880000Y28190000D01*
X6280000Y27690000D02*
X6280000Y28190000D01*
%TO.C,J7*%
X65967000Y12950000D02*
X65967000Y12450000D01*
X65967000Y12450000D02*
X68367000Y12450000D01*
X68367000Y12950000D02*
X65967000Y12950000D01*
X68367000Y12450000D02*
X68367000Y12950000D01*
%TO.C,J6*%
X65983000Y15490000D02*
X65983000Y14990000D01*
X65983000Y14990000D02*
X68383000Y14990000D01*
X68383000Y15490000D02*
X65983000Y15490000D01*
X68383000Y14990000D02*
X68383000Y15490000D01*
%TO.C,J1*%
X3880000Y43430000D02*
X3880000Y42930000D01*
X3880000Y42930000D02*
X6280000Y42930000D01*
X6280000Y43430000D02*
X3880000Y43430000D01*
X6280000Y42930000D02*
X6280000Y43430000D01*
%TO.C,J2*%
X3880000Y40890000D02*
X3880000Y40390000D01*
X3880000Y40390000D02*
X6280000Y40390000D01*
X6280000Y40890000D02*
X3880000Y40890000D01*
X6280000Y40390000D02*
X6280000Y40890000D01*
%TO.C,J4*%
X3880000Y30730000D02*
X3880000Y30230000D01*
X3880000Y30230000D02*
X6280000Y30230000D01*
X6280000Y30730000D02*
X3880000Y30730000D01*
X6280000Y30230000D02*
X6280000Y30730000D01*
%TO.C,J5*%
X3880000Y33270000D02*
X3880000Y32770000D01*
X3880000Y32770000D02*
X6280000Y32770000D01*
X6280000Y33270000D02*
X3880000Y33270000D01*
X6280000Y32770000D02*
X6280000Y33270000D01*
%TD*%
M02*
