%TF.GenerationSoftware,KiCad,Pcbnew,9.0.1*%
%TF.CreationDate,2025-08-21T23:06:16+03:00*%
%TF.ProjectId,Cronus,43726f6e-7573-42e6-9b69-6361645f7063,rev?*%
%TF.SameCoordinates,PX649cd60PY6c7aff0*%
%TF.FileFunction,AssemblyDrawing,Top*%
%FSLAX46Y46*%
G04 Gerber Fmt 4.6, Leading zero omitted, Abs format (unit mm)*
G04 Created by KiCad (PCBNEW 9.0.1) date 2025-08-21 23:06:16*
%MOMM*%
%LPD*%
G01*
G04 APERTURE LIST*
%ADD10C,0.150000*%
%ADD11C,0.120000*%
G04 APERTURE END LIST*
D10*
X2238095Y48545181D02*
X2238095Y49545181D01*
X2238095Y49068991D02*
X2809523Y49068991D01*
X2809523Y48545181D02*
X2809523Y49545181D01*
X3809523Y48545181D02*
X3238095Y48545181D01*
X3523809Y48545181D02*
X3523809Y49545181D01*
X3523809Y49545181D02*
X3428571Y49402324D01*
X3428571Y49402324D02*
X3333333Y49307086D01*
X3333333Y49307086D02*
X3238095Y49259467D01*
X4746666Y26535181D02*
X4746666Y25820896D01*
X4746666Y25820896D02*
X4699047Y25678039D01*
X4699047Y25678039D02*
X4603809Y25582800D01*
X4603809Y25582800D02*
X4460952Y25535181D01*
X4460952Y25535181D02*
X4365714Y25535181D01*
X5127619Y26535181D02*
X5746666Y26535181D01*
X5746666Y26535181D02*
X5413333Y26154229D01*
X5413333Y26154229D02*
X5556190Y26154229D01*
X5556190Y26154229D02*
X5651428Y26106610D01*
X5651428Y26106610D02*
X5699047Y26058991D01*
X5699047Y26058991D02*
X5746666Y25963753D01*
X5746666Y25963753D02*
X5746666Y25725658D01*
X5746666Y25725658D02*
X5699047Y25630420D01*
X5699047Y25630420D02*
X5651428Y25582800D01*
X5651428Y25582800D02*
X5556190Y25535181D01*
X5556190Y25535181D02*
X5270476Y25535181D01*
X5270476Y25535181D02*
X5175238Y25582800D01*
X5175238Y25582800D02*
X5127619Y25630420D01*
X2238095Y2545181D02*
X2238095Y3545181D01*
X2238095Y3068991D02*
X2809523Y3068991D01*
X2809523Y2545181D02*
X2809523Y3545181D01*
X3190476Y3545181D02*
X3809523Y3545181D01*
X3809523Y3545181D02*
X3476190Y3164229D01*
X3476190Y3164229D02*
X3619047Y3164229D01*
X3619047Y3164229D02*
X3714285Y3116610D01*
X3714285Y3116610D02*
X3761904Y3068991D01*
X3761904Y3068991D02*
X3809523Y2973753D01*
X3809523Y2973753D02*
X3809523Y2735658D01*
X3809523Y2735658D02*
X3761904Y2640420D01*
X3761904Y2640420D02*
X3714285Y2592800D01*
X3714285Y2592800D02*
X3619047Y2545181D01*
X3619047Y2545181D02*
X3333333Y2545181D01*
X3333333Y2545181D02*
X3238095Y2592800D01*
X3238095Y2592800D02*
X3190476Y2640420D01*
X36284819Y35774096D02*
X37094342Y35774096D01*
X37094342Y35774096D02*
X37189580Y35821715D01*
X37189580Y35821715D02*
X37237200Y35869334D01*
X37237200Y35869334D02*
X37284819Y35964572D01*
X37284819Y35964572D02*
X37284819Y36155048D01*
X37284819Y36155048D02*
X37237200Y36250286D01*
X37237200Y36250286D02*
X37189580Y36297905D01*
X37189580Y36297905D02*
X37094342Y36345524D01*
X37094342Y36345524D02*
X36284819Y36345524D01*
X37284819Y37345524D02*
X37284819Y36774096D01*
X37284819Y37059810D02*
X36284819Y37059810D01*
X36284819Y37059810D02*
X36427676Y36964572D01*
X36427676Y36964572D02*
X36522914Y36869334D01*
X36522914Y36869334D02*
X36570533Y36774096D01*
X66833666Y11295181D02*
X66833666Y10580896D01*
X66833666Y10580896D02*
X66786047Y10438039D01*
X66786047Y10438039D02*
X66690809Y10342800D01*
X66690809Y10342800D02*
X66547952Y10295181D01*
X66547952Y10295181D02*
X66452714Y10295181D01*
X67214619Y11295181D02*
X67881285Y11295181D01*
X67881285Y11295181D02*
X67452714Y10295181D01*
X46404819Y10718096D02*
X47214342Y10718096D01*
X47214342Y10718096D02*
X47309580Y10765715D01*
X47309580Y10765715D02*
X47357200Y10813334D01*
X47357200Y10813334D02*
X47404819Y10908572D01*
X47404819Y10908572D02*
X47404819Y11099048D01*
X47404819Y11099048D02*
X47357200Y11194286D01*
X47357200Y11194286D02*
X47309580Y11241905D01*
X47309580Y11241905D02*
X47214342Y11289524D01*
X47214342Y11289524D02*
X46404819Y11289524D01*
X46500057Y11718096D02*
X46452438Y11765715D01*
X46452438Y11765715D02*
X46404819Y11860953D01*
X46404819Y11860953D02*
X46404819Y12099048D01*
X46404819Y12099048D02*
X46452438Y12194286D01*
X46452438Y12194286D02*
X46500057Y12241905D01*
X46500057Y12241905D02*
X46595295Y12289524D01*
X46595295Y12289524D02*
X46690533Y12289524D01*
X46690533Y12289524D02*
X46833390Y12241905D01*
X46833390Y12241905D02*
X47404819Y11670477D01*
X47404819Y11670477D02*
X47404819Y12289524D01*
X68238095Y2545181D02*
X68238095Y3545181D01*
X68238095Y3068991D02*
X68809523Y3068991D01*
X68809523Y2545181D02*
X68809523Y3545181D01*
X69714285Y3211848D02*
X69714285Y2545181D01*
X69476190Y3592800D02*
X69238095Y2878515D01*
X69238095Y2878515D02*
X69857142Y2878515D01*
X66849666Y13835181D02*
X66849666Y13120896D01*
X66849666Y13120896D02*
X66802047Y12978039D01*
X66802047Y12978039D02*
X66706809Y12882800D01*
X66706809Y12882800D02*
X66563952Y12835181D01*
X66563952Y12835181D02*
X66468714Y12835181D01*
X67754428Y13835181D02*
X67563952Y13835181D01*
X67563952Y13835181D02*
X67468714Y13787562D01*
X67468714Y13787562D02*
X67421095Y13739943D01*
X67421095Y13739943D02*
X67325857Y13597086D01*
X67325857Y13597086D02*
X67278238Y13406610D01*
X67278238Y13406610D02*
X67278238Y13025658D01*
X67278238Y13025658D02*
X67325857Y12930420D01*
X67325857Y12930420D02*
X67373476Y12882800D01*
X67373476Y12882800D02*
X67468714Y12835181D01*
X67468714Y12835181D02*
X67659190Y12835181D01*
X67659190Y12835181D02*
X67754428Y12882800D01*
X67754428Y12882800D02*
X67802047Y12930420D01*
X67802047Y12930420D02*
X67849666Y13025658D01*
X67849666Y13025658D02*
X67849666Y13263753D01*
X67849666Y13263753D02*
X67802047Y13358991D01*
X67802047Y13358991D02*
X67754428Y13406610D01*
X67754428Y13406610D02*
X67659190Y13454229D01*
X67659190Y13454229D02*
X67468714Y13454229D01*
X67468714Y13454229D02*
X67373476Y13406610D01*
X67373476Y13406610D02*
X67325857Y13358991D01*
X67325857Y13358991D02*
X67278238Y13263753D01*
X4746666Y41775181D02*
X4746666Y41060896D01*
X4746666Y41060896D02*
X4699047Y40918039D01*
X4699047Y40918039D02*
X4603809Y40822800D01*
X4603809Y40822800D02*
X4460952Y40775181D01*
X4460952Y40775181D02*
X4365714Y40775181D01*
X5746666Y40775181D02*
X5175238Y40775181D01*
X5460952Y40775181D02*
X5460952Y41775181D01*
X5460952Y41775181D02*
X5365714Y41632324D01*
X5365714Y41632324D02*
X5270476Y41537086D01*
X5270476Y41537086D02*
X5175238Y41489467D01*
X4746666Y39235181D02*
X4746666Y38520896D01*
X4746666Y38520896D02*
X4699047Y38378039D01*
X4699047Y38378039D02*
X4603809Y38282800D01*
X4603809Y38282800D02*
X4460952Y38235181D01*
X4460952Y38235181D02*
X4365714Y38235181D01*
X5175238Y39139943D02*
X5222857Y39187562D01*
X5222857Y39187562D02*
X5318095Y39235181D01*
X5318095Y39235181D02*
X5556190Y39235181D01*
X5556190Y39235181D02*
X5651428Y39187562D01*
X5651428Y39187562D02*
X5699047Y39139943D01*
X5699047Y39139943D02*
X5746666Y39044705D01*
X5746666Y39044705D02*
X5746666Y38949467D01*
X5746666Y38949467D02*
X5699047Y38806610D01*
X5699047Y38806610D02*
X5127619Y38235181D01*
X5127619Y38235181D02*
X5746666Y38235181D01*
X4746666Y29075181D02*
X4746666Y28360896D01*
X4746666Y28360896D02*
X4699047Y28218039D01*
X4699047Y28218039D02*
X4603809Y28122800D01*
X4603809Y28122800D02*
X4460952Y28075181D01*
X4460952Y28075181D02*
X4365714Y28075181D01*
X5651428Y28741848D02*
X5651428Y28075181D01*
X5413333Y29122800D02*
X5175238Y28408515D01*
X5175238Y28408515D02*
X5794285Y28408515D01*
X4746666Y31615181D02*
X4746666Y30900896D01*
X4746666Y30900896D02*
X4699047Y30758039D01*
X4699047Y30758039D02*
X4603809Y30662800D01*
X4603809Y30662800D02*
X4460952Y30615181D01*
X4460952Y30615181D02*
X4365714Y30615181D01*
X5699047Y31615181D02*
X5222857Y31615181D01*
X5222857Y31615181D02*
X5175238Y31138991D01*
X5175238Y31138991D02*
X5222857Y31186610D01*
X5222857Y31186610D02*
X5318095Y31234229D01*
X5318095Y31234229D02*
X5556190Y31234229D01*
X5556190Y31234229D02*
X5651428Y31186610D01*
X5651428Y31186610D02*
X5699047Y31138991D01*
X5699047Y31138991D02*
X5746666Y31043753D01*
X5746666Y31043753D02*
X5746666Y30805658D01*
X5746666Y30805658D02*
X5699047Y30710420D01*
X5699047Y30710420D02*
X5651428Y30662800D01*
X5651428Y30662800D02*
X5556190Y30615181D01*
X5556190Y30615181D02*
X5318095Y30615181D01*
X5318095Y30615181D02*
X5222857Y30662800D01*
X5222857Y30662800D02*
X5175238Y30710420D01*
X68238095Y48545181D02*
X68238095Y49545181D01*
X68238095Y49068991D02*
X68809523Y49068991D01*
X68809523Y48545181D02*
X68809523Y49545181D01*
X69238095Y49449943D02*
X69285714Y49497562D01*
X69285714Y49497562D02*
X69380952Y49545181D01*
X69380952Y49545181D02*
X69619047Y49545181D01*
X69619047Y49545181D02*
X69714285Y49497562D01*
X69714285Y49497562D02*
X69761904Y49449943D01*
X69761904Y49449943D02*
X69809523Y49354705D01*
X69809523Y49354705D02*
X69809523Y49259467D01*
X69809523Y49259467D02*
X69761904Y49116610D01*
X69761904Y49116610D02*
X69190476Y48545181D01*
X69190476Y48545181D02*
X69809523Y48545181D01*
D11*
%TO.C,J3*%
X3880000Y28190000D02*
X3880000Y27690000D01*
X3880000Y27690000D02*
X6280000Y27690000D01*
X6280000Y28190000D02*
X3880000Y28190000D01*
X6280000Y27690000D02*
X6280000Y28190000D01*
%TO.C,J7*%
X65967000Y12950000D02*
X65967000Y12450000D01*
X65967000Y12450000D02*
X68367000Y12450000D01*
X68367000Y12950000D02*
X65967000Y12950000D01*
X68367000Y12450000D02*
X68367000Y12950000D01*
%TO.C,J6*%
X65983000Y15490000D02*
X65983000Y14990000D01*
X65983000Y14990000D02*
X68383000Y14990000D01*
X68383000Y15490000D02*
X65983000Y15490000D01*
X68383000Y14990000D02*
X68383000Y15490000D01*
%TO.C,J1*%
X3880000Y43430000D02*
X3880000Y42930000D01*
X3880000Y42930000D02*
X6280000Y42930000D01*
X6280000Y43430000D02*
X3880000Y43430000D01*
X6280000Y42930000D02*
X6280000Y43430000D01*
%TO.C,J2*%
X3880000Y40890000D02*
X3880000Y40390000D01*
X3880000Y40390000D02*
X6280000Y40390000D01*
X6280000Y40890000D02*
X3880000Y40890000D01*
X6280000Y40390000D02*
X6280000Y40890000D01*
%TO.C,J4*%
X3880000Y30730000D02*
X3880000Y30230000D01*
X3880000Y30230000D02*
X6280000Y30230000D01*
X6280000Y30730000D02*
X3880000Y30730000D01*
X6280000Y30230000D02*
X6280000Y30730000D01*
%TO.C,J5*%
X3880000Y33270000D02*
X3880000Y32770000D01*
X3880000Y32770000D02*
X6280000Y32770000D01*
X6280000Y33270000D02*
X3880000Y33270000D01*
X6280000Y32770000D02*
X6280000Y33270000D01*
%TD*%
M02*
