%TF.GenerationSoftware,KiCad,Pcbnew,8.0.5*%
%TF.CreationDate,2024-10-13T13:53:05+03:00*%
%TF.ProjectId,Cronus,43726f6e-7573-42e6-9b69-6361645f7063,rev?*%
%TF.SameCoordinates,PX649cd60PY6c7aff0*%
%TF.FileFunction,Copper,L2,Bot*%
%TF.FilePolarity,Positive*%
%FSLAX46Y46*%
G04 Gerber Fmt 4.6, Leading zero omitted, Abs format (unit mm)*
G04 Created by KiCad (PCBNEW 8.0.5) date 2024-10-13 13:53:05*
%MOMM*%
%LPD*%
G01*
G04 APERTURE LIST*
G04 Aperture macros list*
%AMRoundRect*
0 Rectangle with rounded corners*
0 $1 Rounding radius*
0 $2 $3 $4 $5 $6 $7 $8 $9 X,Y pos of 4 corners*
0 Add a 4 corners polygon primitive as box body*
4,1,4,$2,$3,$4,$5,$6,$7,$8,$9,$2,$3,0*
0 Add four circle primitives for the rounded corners*
1,1,$1+$1,$2,$3*
1,1,$1+$1,$4,$5*
1,1,$1+$1,$6,$7*
1,1,$1+$1,$8,$9*
0 Add four rect primitives between the rounded corners*
20,1,$1+$1,$2,$3,$4,$5,0*
20,1,$1+$1,$4,$5,$6,$7,0*
20,1,$1+$1,$6,$7,$8,$9,0*
20,1,$1+$1,$8,$9,$2,$3,0*%
G04 Aperture macros list end*
%TA.AperFunction,ComponentPad*%
%ADD10R,1.600000X1.600000*%
%TD*%
%TA.AperFunction,SMDPad,CuDef*%
%ADD11RoundRect,0.250000X-0.400000X-0.625000X0.400000X-0.625000X0.400000X0.625000X-0.400000X0.625000X0*%
%TD*%
%TA.AperFunction,SMDPad,CuDef*%
%ADD12RoundRect,0.250000X0.400000X0.625000X-0.400000X0.625000X-0.400000X-0.625000X0.400000X-0.625000X0*%
%TD*%
%TA.AperFunction,Conductor*%
%ADD13C,0.500000*%
%TD*%
G04 APERTURE END LIST*
D10*
%TO.P,J7,1,Pin_1*%
%TO.N,GND*%
X4750000Y23250000D03*
%TD*%
%TO.P,U1,1,3V3_Out*%
%TO.N,Net-(J6-Pin_1)*%
X62540000Y48650000D03*
X60000000Y48650000D03*
%TO.P,U1,3,RST*%
%TO.N,unconnected-(U1-RST-Pad3)*%
X57460000Y48650000D03*
%TO.P,U1,4,GPIO4*%
%TO.N,unconnected-(U1-GPIO4-Pad4)*%
X54920000Y48650000D03*
%TO.P,U1,5,GPIO5*%
%TO.N,unconnected-(U1-GPIO5-Pad5)*%
X52380000Y48650000D03*
%TO.P,U1,6,GPIO6*%
%TO.N,unconnected-(U1-GPIO6-Pad6)*%
X49840000Y48650000D03*
%TO.P,U1,7,GPIO7*%
%TO.N,unconnected-(U1-GPIO7-Pad7)*%
X47300000Y48650000D03*
%TO.P,U1,8,GPIO15*%
%TO.N,unconnected-(U1-GPIO15-Pad8)*%
X44760000Y48650000D03*
%TO.P,U1,9,GPIO16*%
%TO.N,Net-(J2-Pin_1)*%
X42220000Y48650000D03*
%TO.P,U1,10,GPIO17*%
%TO.N,Net-(J3-Pin_1)*%
X39680000Y48650000D03*
%TO.P,U1,11,GPIO18*%
%TO.N,Net-(J4-Pin_1)*%
X37140000Y48650000D03*
%TO.P,U1,12,GPIO8*%
%TO.N,unconnected-(U1-GPIO8-Pad12)*%
X34600000Y48650000D03*
%TO.P,U1,13,GPIO3*%
%TO.N,unconnected-(U1-GPIO3-Pad13)*%
X32060000Y48650000D03*
%TO.P,U1,14,GPIO46*%
%TO.N,unconnected-(U1-GPIO46-Pad14)*%
X29520000Y48650000D03*
%TO.P,U1,15,GPIO9*%
%TO.N,unconnected-(U1-GPIO9-Pad15)*%
X26980000Y48650000D03*
%TO.P,U1,16,GPIO10*%
%TO.N,unconnected-(U1-GPIO10-Pad16)*%
X24440000Y48650000D03*
%TO.P,U1,17,GPIO11*%
%TO.N,unconnected-(U1-GPIO11-Pad17)*%
X21900000Y48650000D03*
%TO.P,U1,18,GPIO12*%
%TO.N,unconnected-(U1-GPIO12-Pad18)*%
X19360000Y48650000D03*
%TO.P,U1,19,GPIO13*%
%TO.N,unconnected-(U1-GPIO13-Pad19)*%
X16820000Y48650000D03*
%TO.P,U1,20,GPIO14*%
%TO.N,unconnected-(U1-GPIO14-Pad20)*%
X14280000Y48650000D03*
%TO.P,U1,21,5V_In*%
%TO.N,+5V*%
X11740000Y48650000D03*
%TO.P,U1,22,GND*%
%TO.N,GND*%
X9200000Y48650000D03*
X62540000Y23250000D03*
X11740000Y23250000D03*
X9200000Y23250000D03*
%TO.P,U1,25,GPIO19*%
%TO.N,unconnected-(U1-GPIO19-Pad25)*%
X14280000Y23250000D03*
%TO.P,U1,26,GPIO20*%
%TO.N,unconnected-(U1-GPIO20-Pad26)*%
X16820000Y23250000D03*
%TO.P,U1,27,GPIO21*%
%TO.N,unconnected-(U1-GPIO21-Pad27)*%
X19360000Y23250000D03*
%TO.P,U1,28,GPIO47*%
%TO.N,unconnected-(U1-GPIO47-Pad28)*%
X21900000Y23250000D03*
%TO.P,U1,29,GPIO48*%
%TO.N,unconnected-(U1-GPIO48-Pad29)*%
X24440000Y23250000D03*
%TO.P,U1,30,GPIO15*%
%TO.N,unconnected-(U1-GPIO15-Pad30)*%
X26980000Y23250000D03*
%TO.P,U1,31,GPIO0*%
%TO.N,unconnected-(U1-GPIO0-Pad31)*%
X29520000Y23250000D03*
%TO.P,U1,32,GPIO35*%
%TO.N,unconnected-(U1-GPIO35-Pad32)*%
X32060000Y23250000D03*
%TO.P,U1,33,GPIO36*%
%TO.N,unconnected-(U1-GPIO36-Pad33)*%
X34600000Y23250000D03*
%TO.P,U1,34,GPIO37*%
%TO.N,unconnected-(U1-GPIO37-Pad34)*%
X37140000Y23250000D03*
%TO.P,U1,35,GPIO38*%
%TO.N,Net-(U1-GPIO38)*%
X39680000Y23250000D03*
%TO.P,U1,36,GPIO39*%
%TO.N,Net-(U1-GPIO39)*%
X42220000Y23250000D03*
%TO.P,U1,37,GPIO40*%
%TO.N,unconnected-(U1-GPIO40-Pad37)*%
X44760000Y23250000D03*
%TO.P,U1,38,GPIO41*%
%TO.N,unconnected-(U1-GPIO41-Pad38)*%
X47300000Y23250000D03*
%TO.P,U1,39,GPIO42*%
%TO.N,unconnected-(U1-GPIO42-Pad39)*%
X49840000Y23250000D03*
%TO.P,U1,40,GPIO2*%
%TO.N,unconnected-(U1-GPIO2-Pad40)*%
X52380000Y23250000D03*
%TO.P,U1,41,GPIO1*%
%TO.N,Net-(J5-Pin_1)*%
X54920000Y23250000D03*
%TO.P,U1,42,RX*%
%TO.N,unconnected-(U1-RX-Pad42)*%
X57460000Y23250000D03*
%TO.P,U1,43,TX*%
%TO.N,unconnected-(U1-TX-Pad43)*%
X60000000Y23250000D03*
%TD*%
%TO.P,U2,1,GND*%
%TO.N,GND*%
X62500000Y14290000D03*
X26940000Y16830000D03*
%TO.P,U2,2,VCC*%
%TO.N,Net-(J6-Pin_1)*%
X62500000Y11750000D03*
X26940000Y14290000D03*
%TO.P,U2,3,RTC_SDA*%
%TO.N,Net-(U1-GPIO38)*%
X26940000Y11750000D03*
%TO.P,U2,4,RTC_SCL*%
%TO.N,Net-(U1-GPIO39)*%
X26940000Y9210000D03*
%TO.P,U2,5,SQW*%
%TO.N,unconnected-(U2-SQW-Pad5)*%
X26940000Y6670000D03*
%TO.P,U2,6,32K*%
%TO.N,unconnected-(U2-32K-Pad6)*%
X26940000Y4130000D03*
%TO.P,U2,7,ROM_SCL*%
%TO.N,unconnected-(U2-ROM_SCL-Pad7)*%
X62500000Y6670000D03*
%TO.P,U2,8,ROM_SDA*%
%TO.N,unconnected-(U2-ROM_SDA-Pad8)*%
X62500000Y9210000D03*
%TD*%
%TO.P,J1,1,Pin_1*%
%TO.N,+5V*%
X4750000Y43750000D03*
%TD*%
%TO.P,J6,1,Pin_1*%
%TO.N,Net-(J6-Pin_1)*%
X66204000Y11750000D03*
%TD*%
%TO.P,J3,1,Pin_1*%
%TO.N,Net-(J3-Pin_1)*%
X4750000Y35010000D03*
%TD*%
%TO.P,J4,1,Pin_1*%
%TO.N,Net-(J4-Pin_1)*%
X4749974Y37550000D03*
%TD*%
%TO.P,J5,1,Pin_1*%
%TO.N,Net-(J5-Pin_1)*%
X66204000Y14309000D03*
%TD*%
%TO.P,J2,1,Pin_1*%
%TO.N,Net-(J2-Pin_1)*%
X4750000Y32470000D03*
%TD*%
D11*
%TO.P,R2,1*%
%TO.N,Net-(J6-Pin_1)*%
X30950000Y14250000D03*
%TO.P,R2,2*%
%TO.N,Net-(U1-GPIO38)*%
X34050000Y14250000D03*
%TD*%
D12*
%TO.P,R1,1*%
%TO.N,Net-(J6-Pin_1)*%
X51800000Y11750000D03*
%TO.P,R1,2*%
%TO.N,Net-(U1-GPIO39)*%
X48700000Y11750000D03*
%TD*%
D11*
%TO.P,R3,1*%
%TO.N,Net-(J5-Pin_1)*%
X54965000Y14313000D03*
%TO.P,R3,2*%
%TO.N,GND*%
X58065000Y14313000D03*
%TD*%
D13*
%TO.N,Net-(J4-Pin_1)*%
X37140000Y48750000D02*
X37140000Y40140000D01*
X34550000Y37550000D02*
X4749974Y37550000D01*
X37140000Y40140000D02*
X34550000Y37550000D01*
%TO.N,Net-(J2-Pin_1)*%
X34327000Y32470000D02*
X42220000Y40363000D01*
X4750000Y32470000D02*
X34327000Y32470000D01*
X42220000Y40363000D02*
X42220000Y48750000D01*
%TO.N,Net-(J3-Pin_1)*%
X34445500Y35010000D02*
X39680000Y40244500D01*
X39680000Y40244500D02*
X39680000Y48750000D01*
X4750000Y35010000D02*
X34445500Y35010000D01*
%TO.N,Net-(J5-Pin_1)*%
X54950000Y14250000D02*
X54950000Y23220000D01*
X54920000Y23250000D02*
X54920000Y24550000D01*
X66204000Y22686000D02*
X66204000Y14309000D01*
X54920000Y24550000D02*
X55170000Y24800000D01*
X55170000Y24800000D02*
X64090000Y24800000D01*
X64090000Y24800000D02*
X66204000Y22686000D01*
%TO.N,Net-(U1-GPIO39)*%
X26940000Y9210000D02*
X35763858Y9210000D01*
X35763858Y9210000D02*
X42220000Y15666142D01*
X48700000Y11750000D02*
X46136142Y11750000D01*
X42220000Y15666142D02*
X42220000Y23350000D01*
X46136142Y11750000D02*
X42220000Y15666142D01*
%TO.N,Net-(U1-GPIO38)*%
X38672000Y14250000D02*
X39680000Y15258000D01*
X39680000Y15258000D02*
X39680000Y23250000D01*
X26940000Y11750000D02*
X33124000Y11750000D01*
X33124000Y11750000D02*
X34050000Y12676000D01*
X34050000Y14250000D02*
X38672000Y14250000D01*
X34050000Y12676000D02*
X34050000Y14250000D01*
%TO.N,+5V*%
X9750000Y43750000D02*
X11740000Y45740000D01*
X4750000Y43750000D02*
X9750000Y43750000D01*
X11740000Y45740000D02*
X11740000Y48750000D01*
%TO.N,GND*%
X4750000Y23250000D02*
X9200000Y23250000D01*
X11740000Y23350000D02*
X11740000Y19260000D01*
X58050000Y14250000D02*
X62460000Y14250000D01*
X9200000Y23350000D02*
X11740000Y23350000D01*
X11740000Y19260000D02*
X14170000Y16830000D01*
X62540000Y14330000D02*
X62500000Y14290000D01*
X14170000Y16830000D02*
X26940000Y16830000D01*
X62540000Y23350000D02*
X62540000Y14330000D01*
%TO.N,Net-(J6-Pin_1)*%
X69000000Y42290000D02*
X69000000Y12750000D01*
X68000000Y11750000D02*
X62500000Y11750000D01*
X30910000Y14290000D02*
X30950000Y14250000D01*
X26940000Y14290000D02*
X30910000Y14290000D01*
X62540000Y48750000D02*
X69000000Y42290000D01*
X60000000Y48750000D02*
X62540000Y48750000D01*
X51800000Y11750000D02*
X62500000Y11750000D01*
X69000000Y12750000D02*
X68000000Y11750000D01*
%TD*%
M02*
