%TF.GenerationSoftware,KiCad,Pcbnew,9.0.4*%
%TF.CreationDate,2025-09-21T16:43:57+03:00*%
%TF.ProjectId,Cronus,43726f6e-7573-42e6-9b69-6361645f7063,rev?*%
%TF.SameCoordinates,PX649cd60PY6c7aff0*%
%TF.FileFunction,Copper,L2,Bot*%
%TF.FilePolarity,Positive*%
%FSLAX46Y46*%
G04 Gerber Fmt 4.6, Leading zero omitted, Abs format (unit mm)*
G04 Created by KiCad (PCBNEW 9.0.4) date 2025-09-21 16:43:57*
%MOMM*%
%LPD*%
G01*
G04 APERTURE LIST*
G04 Aperture macros list*
%AMRoundRect*
0 Rectangle with rounded corners*
0 $1 Rounding radius*
0 $2 $3 $4 $5 $6 $7 $8 $9 X,Y pos of 4 corners*
0 Add a 4 corners polygon primitive as box body*
4,1,4,$2,$3,$4,$5,$6,$7,$8,$9,$2,$3,0*
0 Add four circle primitives for the rounded corners*
1,1,$1+$1,$2,$3*
1,1,$1+$1,$4,$5*
1,1,$1+$1,$6,$7*
1,1,$1+$1,$8,$9*
0 Add four rect primitives between the rounded corners*
20,1,$1+$1,$2,$3,$4,$5,0*
20,1,$1+$1,$4,$5,$6,$7,0*
20,1,$1+$1,$6,$7,$8,$9,0*
20,1,$1+$1,$8,$9,$2,$3,0*%
G04 Aperture macros list end*
%TA.AperFunction,ComponentPad*%
%ADD10R,1.600000X1.600000*%
%TD*%
%TA.AperFunction,ComponentPad*%
%ADD11C,1.800000*%
%TD*%
%TA.AperFunction,SMDPad,CuDef*%
%ADD12RoundRect,0.250000X-0.625000X0.400000X-0.625000X-0.400000X0.625000X-0.400000X0.625000X0.400000X0*%
%TD*%
%TA.AperFunction,SMDPad,CuDef*%
%ADD13RoundRect,0.250000X0.625000X-0.400000X0.625000X0.400000X-0.625000X0.400000X-0.625000X-0.400000X0*%
%TD*%
%TA.AperFunction,ViaPad*%
%ADD14C,1.800000*%
%TD*%
%TA.AperFunction,Conductor*%
%ADD15C,0.500000*%
%TD*%
G04 APERTURE END LIST*
D10*
%TO.P,U2,1,GND1*%
%TO.N,GND*%
X30136000Y17992000D03*
%TO.P,U2,2,VCC1*%
%TO.N,Net-(J7-Pin_1)*%
X30136000Y15452000D03*
%TO.P,U2,3,SDA*%
%TO.N,Net-(U1-GPIO38)*%
X30136000Y12912000D03*
%TO.P,U2,4,SCL*%
%TO.N,Net-(U1-GPIO39)*%
X30136000Y10372000D03*
%TO.P,U2,5,SQW*%
%TO.N,unconnected-(U2-SQW-Pad5)*%
X30136000Y7832000D03*
%TO.P,U2,6,32K*%
%TO.N,unconnected-(U2-32K-Pad6)*%
X30136000Y5292000D03*
%TO.P,U2,7,SCL*%
%TO.N,unconnected-(U2-SCL-Pad7)*%
X65146000Y7832000D03*
%TO.P,U2,8,SDA*%
%TO.N,unconnected-(U2-SDA-Pad8)*%
X65146000Y10372000D03*
%TO.P,U2,9,VCC2*%
%TO.N,Net-(J7-Pin_1)*%
X65146000Y12912000D03*
%TO.P,U2,10,GND2*%
%TO.N,GND*%
X65146000Y15452000D03*
%TD*%
D11*
%TO.P,J3,1,Pin_1*%
%TO.N,Net-(J3-Pin_1)*%
X10832000Y40344000D03*
%TD*%
D10*
%TO.P,U1,1,3V3_Out*%
%TO.N,Net-(J7-Pin_1)*%
X69506000Y49234000D03*
%TO.P,U1,2,3V3_Out*%
X66966000Y49234000D03*
%TO.P,U1,3,RST*%
%TO.N,unconnected-(U1-RST-Pad3)*%
X64426000Y49234000D03*
%TO.P,U1,4,GPIO4*%
%TO.N,unconnected-(U1-GPIO4-Pad4)*%
X61886000Y49234000D03*
%TO.P,U1,5,GPIO5*%
%TO.N,unconnected-(U1-GPIO5-Pad5)*%
X59346000Y49234000D03*
%TO.P,U1,6,GPIO6*%
%TO.N,unconnected-(U1-GPIO6-Pad6)*%
X56806000Y49234000D03*
%TO.P,U1,7,GPIO7*%
%TO.N,unconnected-(U1-GPIO7-Pad7)*%
X54266000Y49234000D03*
%TO.P,U1,8,GPIO15*%
%TO.N,unconnected-(U1-GPIO15-Pad8)*%
X51726000Y49234000D03*
%TO.P,U1,9,GPIO16*%
%TO.N,Net-(J3-Pin_1)*%
X49186000Y49234000D03*
%TO.P,U1,10,GPIO17*%
%TO.N,Net-(J4-Pin_1)*%
X46646000Y49234000D03*
%TO.P,U1,11,GPIO18*%
%TO.N,Net-(J5-Pin_1)*%
X44106000Y49234000D03*
%TO.P,U1,12,GPIO8*%
%TO.N,unconnected-(U1-GPIO8-Pad12)*%
X41566000Y49234000D03*
%TO.P,U1,13,GPIO3*%
%TO.N,unconnected-(U1-GPIO3-Pad13)*%
X39026000Y49234000D03*
%TO.P,U1,14,GPIO46*%
%TO.N,unconnected-(U1-GPIO46-Pad14)*%
X36486000Y49234000D03*
%TO.P,U1,15,GPIO9*%
%TO.N,unconnected-(U1-GPIO9-Pad15)*%
X33946000Y49234000D03*
%TO.P,U1,16,GPIO10*%
%TO.N,unconnected-(U1-GPIO10-Pad16)*%
X31406000Y49234000D03*
%TO.P,U1,17,GPIO11*%
%TO.N,unconnected-(U1-GPIO11-Pad17)*%
X28866000Y49234000D03*
%TO.P,U1,18,GPIO12*%
%TO.N,unconnected-(U1-GPIO12-Pad18)*%
X26326000Y49234000D03*
%TO.P,U1,19,GPIO13*%
%TO.N,unconnected-(U1-GPIO13-Pad19)*%
X23786000Y49234000D03*
%TO.P,U1,20,GPIO14*%
%TO.N,unconnected-(U1-GPIO14-Pad20)*%
X21246000Y49234000D03*
%TO.P,U1,21,5V_In*%
%TO.N,+5V*%
X18706000Y49234000D03*
%TO.P,U1,22,GND*%
%TO.N,GND*%
X16166000Y49234000D03*
%TO.P,U1,23,GND*%
X16166000Y23834000D03*
%TO.P,U1,24,GND*%
X18706000Y23834000D03*
%TO.P,U1,25,GPIO19*%
%TO.N,unconnected-(U1-GPIO19-Pad25)*%
X21246000Y23834000D03*
%TO.P,U1,26,GPIO20*%
%TO.N,unconnected-(U1-GPIO20-Pad26)*%
X23786000Y23834000D03*
%TO.P,U1,27,GPIO21*%
%TO.N,unconnected-(U1-GPIO21-Pad27)*%
X26326000Y23834000D03*
%TO.P,U1,28,GPIO47*%
%TO.N,unconnected-(U1-GPIO47-Pad28)*%
X28866000Y23834000D03*
%TO.P,U1,29,GPIO48*%
%TO.N,unconnected-(U1-GPIO48-Pad29)*%
X31406000Y23834000D03*
%TO.P,U1,30,GPIO45*%
%TO.N,unconnected-(U1-GPIO45-Pad30)*%
X33946000Y23834000D03*
%TO.P,U1,31,GPIO0*%
%TO.N,unconnected-(U1-GPIO0-Pad31)*%
X36486000Y23834000D03*
%TO.P,U1,32,GPIO35*%
%TO.N,unconnected-(U1-GPIO35-Pad32)*%
X39026000Y23834000D03*
%TO.P,U1,33,GPIO36*%
%TO.N,unconnected-(U1-GPIO36-Pad33)*%
X41566000Y23834000D03*
%TO.P,U1,34,GPIO37*%
%TO.N,unconnected-(U1-GPIO37-Pad34)*%
X44106000Y23834000D03*
%TO.P,U1,35,GPIO38*%
%TO.N,Net-(U1-GPIO38)*%
X46646000Y23834000D03*
%TO.P,U1,36,GPIO39*%
%TO.N,Net-(U1-GPIO39)*%
X49186000Y23834000D03*
%TO.P,U1,37,GPIO40*%
%TO.N,unconnected-(U1-GPIO40-Pad37)*%
X51726000Y23834000D03*
%TO.P,U1,38,GPIO41*%
%TO.N,unconnected-(U1-GPIO41-Pad38)*%
X54266000Y23834000D03*
%TO.P,U1,39,GPIO42*%
%TO.N,unconnected-(U1-GPIO42-Pad39)*%
X56806000Y23834000D03*
%TO.P,U1,40,GPIO2*%
%TO.N,unconnected-(U1-GPIO2-Pad40)*%
X59346000Y23834000D03*
%TO.P,U1,41,GPIO1*%
%TO.N,Net-(J6-Pin_1)*%
X61886000Y23834000D03*
%TO.P,U1,42,RX*%
%TO.N,unconnected-(U1-RX-Pad42)*%
X64426000Y23834000D03*
%TO.P,U1,43,TX*%
%TO.N,unconnected-(U1-TX-Pad43)*%
X66966000Y23834000D03*
%TO.P,U1,44,GND*%
%TO.N,GND*%
X69506000Y23834000D03*
%TD*%
D11*
%TO.P,J7,1,Pin_1*%
%TO.N,Net-(J7-Pin_1)*%
X68744000Y12912000D03*
%TD*%
%TO.P,J6,1,Pin_1*%
%TO.N,Net-(J6-Pin_1)*%
X68744000Y15706000D03*
%TD*%
%TO.P,J1,1,Pin_1*%
%TO.N,GND*%
X7276000Y49234000D03*
%TD*%
%TO.P,J2,1,Pin_1*%
%TO.N,+5V*%
X10832000Y49234000D03*
%TD*%
%TO.P,J4,1,Pin_1*%
%TO.N,Net-(J4-Pin_1)*%
X7276000Y42122000D03*
%TD*%
%TO.P,J5,1,Pin_1*%
%TO.N,Net-(J5-Pin_1)*%
X10832000Y43900000D03*
%TD*%
D12*
%TO.P,R2,1*%
%TO.N,Net-(J7-Pin_1)*%
X46646000Y30464000D03*
%TO.P,R2,2*%
%TO.N,Net-(U1-GPIO38)*%
X46646000Y27364000D03*
%TD*%
%TO.P,R1,1*%
%TO.N,Net-(J7-Pin_1)*%
X49186000Y30464000D03*
%TO.P,R1,2*%
%TO.N,Net-(U1-GPIO39)*%
X49186000Y27364000D03*
%TD*%
D13*
%TO.P,R3,1*%
%TO.N,Net-(J6-Pin_1)*%
X61886000Y27364000D03*
%TO.P,R3,2*%
%TO.N,GND*%
X61886000Y30464000D03*
%TD*%
D14*
%TO.N,Net-(J7-Pin_1)*%
X59346000Y36026000D03*
%TD*%
D15*
%TO.N,Net-(J7-Pin_1)*%
X59346000Y36026000D02*
X59346000Y31454000D01*
X58356000Y30464000D02*
X49186000Y30464000D01*
X59346000Y31454000D02*
X58356000Y30464000D01*
%TO.N,Net-(U1-GPIO39)*%
X49186000Y27364000D02*
X49186000Y23834000D01*
%TO.N,Net-(U1-GPIO38)*%
X46646000Y27364000D02*
X46646000Y23834000D01*
%TO.N,Net-(J6-Pin_1)*%
X61886000Y27364000D02*
X61886000Y23834000D01*
%TO.N,Net-(J7-Pin_1)*%
X48678000Y12912000D02*
X46138000Y15452000D01*
X65146000Y12912000D02*
X68744000Y12912000D01*
X46138000Y15452000D02*
X30136000Y15452000D01*
X46646000Y30464000D02*
X49186000Y30464000D01*
X65146000Y12912000D02*
X48678000Y12912000D01*
%TD*%
%TA.AperFunction,Conductor*%
%TO.N,GND*%
G36*
X9626924Y50480546D02*
G01*
X9707706Y50426570D01*
X9761682Y50345788D01*
X9780636Y50250500D01*
X9761682Y50155212D01*
X9733084Y50104146D01*
X9664389Y50009596D01*
X9634184Y49968021D01*
X9634179Y49968014D01*
X9534109Y49771617D01*
X9534105Y49771608D01*
X9534105Y49771606D01*
X9465985Y49561951D01*
X9465984Y49561948D01*
X9465984Y49561946D01*
X9465982Y49561939D01*
X9431501Y49344233D01*
X9431500Y49344218D01*
X9431500Y49123783D01*
X9431501Y49123768D01*
X9465982Y48906062D01*
X9465984Y48906055D01*
X9465985Y48906049D01*
X9534105Y48696394D01*
X9534106Y48696393D01*
X9534109Y48696384D01*
X9634179Y48499987D01*
X9634183Y48499981D01*
X9634185Y48499978D01*
X9763758Y48321635D01*
X9919635Y48165758D01*
X10097978Y48036185D01*
X10097981Y48036184D01*
X10097986Y48036180D01*
X10294383Y47936110D01*
X10294386Y47936109D01*
X10294394Y47936105D01*
X10504049Y47867985D01*
X10504060Y47867984D01*
X10504061Y47867983D01*
X10550859Y47860571D01*
X10721778Y47833500D01*
X10721782Y47833500D01*
X10942218Y47833500D01*
X10942222Y47833500D01*
X11159951Y47867985D01*
X11369606Y47936105D01*
X11378043Y47940404D01*
X11566013Y48036180D01*
X11566015Y48036182D01*
X11566022Y48036185D01*
X11744365Y48165758D01*
X11900242Y48321635D01*
X12029815Y48499978D01*
X12129895Y48696394D01*
X12198015Y48906049D01*
X12232500Y49123778D01*
X12232500Y49344222D01*
X12198015Y49561951D01*
X12129895Y49771606D01*
X12129891Y49771614D01*
X12129890Y49771617D01*
X12029820Y49968014D01*
X12029816Y49968019D01*
X12029815Y49968022D01*
X11930916Y50104145D01*
X11890244Y50192373D01*
X11886430Y50289453D01*
X11920057Y50380603D01*
X11986006Y50451946D01*
X12074237Y50492620D01*
X12132364Y50499500D01*
X14647347Y50499500D01*
X14742635Y50480546D01*
X14823417Y50426570D01*
X14877393Y50345788D01*
X14896347Y50250500D01*
X14880648Y50163484D01*
X14872403Y50141379D01*
X14872401Y50141372D01*
X14866000Y50081833D01*
X14866000Y49484001D01*
X14866001Y49484000D01*
X15732988Y49484000D01*
X15700075Y49426993D01*
X15666000Y49299826D01*
X15666000Y49168174D01*
X15700075Y49041007D01*
X15732988Y48984000D01*
X14866001Y48984000D01*
X14866000Y48983999D01*
X14866000Y48386168D01*
X14872401Y48326629D01*
X14872403Y48326622D01*
X14922646Y48191913D01*
X15008810Y48076813D01*
X15008812Y48076811D01*
X15123912Y47990647D01*
X15258621Y47940404D01*
X15258628Y47940402D01*
X15318167Y47934001D01*
X15318175Y47934000D01*
X15915999Y47934000D01*
X15916000Y47934001D01*
X15916000Y48800988D01*
X15973007Y48768075D01*
X16100174Y48734000D01*
X16231826Y48734000D01*
X16358993Y48768075D01*
X16416000Y48800988D01*
X16416000Y47934001D01*
X16416001Y47934000D01*
X17013825Y47934000D01*
X17013832Y47934001D01*
X17073371Y47940402D01*
X17073378Y47940404D01*
X17208088Y47990647D01*
X17286360Y48049242D01*
X17374000Y48091174D01*
X17471016Y48096375D01*
X17562637Y48064054D01*
X17584792Y48049252D01*
X17663669Y47990204D01*
X17798517Y47939909D01*
X17858127Y47933500D01*
X19553872Y47933501D01*
X19613483Y47939909D01*
X19748331Y47990204D01*
X19826781Y48048933D01*
X19914418Y48090862D01*
X20011433Y48096063D01*
X20103054Y48063742D01*
X20125206Y48048941D01*
X20203669Y47990204D01*
X20338517Y47939909D01*
X20398127Y47933500D01*
X22093872Y47933501D01*
X22153483Y47939909D01*
X22288331Y47990204D01*
X22366781Y48048933D01*
X22454418Y48090862D01*
X22551433Y48096063D01*
X22643054Y48063742D01*
X22665206Y48048941D01*
X22743669Y47990204D01*
X22878517Y47939909D01*
X22938127Y47933500D01*
X24633872Y47933501D01*
X24693483Y47939909D01*
X24828331Y47990204D01*
X24906781Y48048933D01*
X24994418Y48090862D01*
X25091433Y48096063D01*
X25183054Y48063742D01*
X25205206Y48048941D01*
X25283669Y47990204D01*
X25418517Y47939909D01*
X25478127Y47933500D01*
X27173872Y47933501D01*
X27233483Y47939909D01*
X27368331Y47990204D01*
X27446781Y48048933D01*
X27534418Y48090862D01*
X27631433Y48096063D01*
X27723054Y48063742D01*
X27745206Y48048941D01*
X27823669Y47990204D01*
X27958517Y47939909D01*
X28018127Y47933500D01*
X29713872Y47933501D01*
X29773483Y47939909D01*
X29908331Y47990204D01*
X29986781Y48048933D01*
X30074418Y48090862D01*
X30171433Y48096063D01*
X30263054Y48063742D01*
X30285206Y48048941D01*
X30363669Y47990204D01*
X30498517Y47939909D01*
X30558127Y47933500D01*
X32253872Y47933501D01*
X32313483Y47939909D01*
X32448331Y47990204D01*
X32526781Y48048933D01*
X32614418Y48090862D01*
X32711433Y48096063D01*
X32803054Y48063742D01*
X32825206Y48048941D01*
X32903669Y47990204D01*
X33038517Y47939909D01*
X33098127Y47933500D01*
X34793872Y47933501D01*
X34853483Y47939909D01*
X34988331Y47990204D01*
X35066781Y48048933D01*
X35154418Y48090862D01*
X35251433Y48096063D01*
X35343054Y48063742D01*
X35365206Y48048941D01*
X35443669Y47990204D01*
X35578517Y47939909D01*
X35638127Y47933500D01*
X37333872Y47933501D01*
X37393483Y47939909D01*
X37528331Y47990204D01*
X37606781Y48048933D01*
X37694418Y48090862D01*
X37791433Y48096063D01*
X37883054Y48063742D01*
X37905206Y48048941D01*
X37983669Y47990204D01*
X38118517Y47939909D01*
X38178127Y47933500D01*
X39873872Y47933501D01*
X39933483Y47939909D01*
X40068331Y47990204D01*
X40146781Y48048933D01*
X40234418Y48090862D01*
X40331433Y48096063D01*
X40423054Y48063742D01*
X40445206Y48048941D01*
X40523669Y47990204D01*
X40658517Y47939909D01*
X40718127Y47933500D01*
X42413872Y47933501D01*
X42473483Y47939909D01*
X42608331Y47990204D01*
X42686781Y48048933D01*
X42774418Y48090862D01*
X42871433Y48096063D01*
X42963054Y48063742D01*
X42985206Y48048941D01*
X43063669Y47990204D01*
X43198517Y47939909D01*
X43258127Y47933500D01*
X44953872Y47933501D01*
X45013483Y47939909D01*
X45148331Y47990204D01*
X45226781Y48048933D01*
X45314418Y48090862D01*
X45411433Y48096063D01*
X45503054Y48063742D01*
X45525206Y48048941D01*
X45603669Y47990204D01*
X45738517Y47939909D01*
X45798127Y47933500D01*
X47493872Y47933501D01*
X47553483Y47939909D01*
X47688331Y47990204D01*
X47766781Y48048933D01*
X47854418Y48090862D01*
X47951433Y48096063D01*
X48043054Y48063742D01*
X48065206Y48048941D01*
X48143669Y47990204D01*
X48278517Y47939909D01*
X48338127Y47933500D01*
X50033872Y47933501D01*
X50093483Y47939909D01*
X50228331Y47990204D01*
X50306781Y48048933D01*
X50394418Y48090862D01*
X50491433Y48096063D01*
X50583054Y48063742D01*
X50605206Y48048941D01*
X50683669Y47990204D01*
X50818517Y47939909D01*
X50878127Y47933500D01*
X52573872Y47933501D01*
X52633483Y47939909D01*
X52768331Y47990204D01*
X52846781Y48048933D01*
X52934418Y48090862D01*
X53031433Y48096063D01*
X53123054Y48063742D01*
X53145206Y48048941D01*
X53223669Y47990204D01*
X53358517Y47939909D01*
X53418127Y47933500D01*
X55113872Y47933501D01*
X55173483Y47939909D01*
X55308331Y47990204D01*
X55386781Y48048933D01*
X55474418Y48090862D01*
X55571433Y48096063D01*
X55663054Y48063742D01*
X55685206Y48048941D01*
X55763669Y47990204D01*
X55898517Y47939909D01*
X55958127Y47933500D01*
X57653872Y47933501D01*
X57713483Y47939909D01*
X57848331Y47990204D01*
X57926781Y48048933D01*
X58014418Y48090862D01*
X58111433Y48096063D01*
X58203054Y48063742D01*
X58225206Y48048941D01*
X58303669Y47990204D01*
X58438517Y47939909D01*
X58498127Y47933500D01*
X60193872Y47933501D01*
X60253483Y47939909D01*
X60388331Y47990204D01*
X60466781Y48048933D01*
X60554418Y48090862D01*
X60651433Y48096063D01*
X60743054Y48063742D01*
X60765206Y48048941D01*
X60843669Y47990204D01*
X60978517Y47939909D01*
X61038127Y47933500D01*
X62733872Y47933501D01*
X62793483Y47939909D01*
X62928331Y47990204D01*
X63006781Y48048933D01*
X63094418Y48090862D01*
X63191433Y48096063D01*
X63283054Y48063742D01*
X63305206Y48048941D01*
X63383669Y47990204D01*
X63518517Y47939909D01*
X63578127Y47933500D01*
X65273872Y47933501D01*
X65333483Y47939909D01*
X65468331Y47990204D01*
X65546781Y48048933D01*
X65634418Y48090862D01*
X65731433Y48096063D01*
X65823054Y48063742D01*
X65845206Y48048941D01*
X65923669Y47990204D01*
X66058517Y47939909D01*
X66118127Y47933500D01*
X67813872Y47933501D01*
X67873483Y47939909D01*
X68008331Y47990204D01*
X68086781Y48048933D01*
X68174418Y48090862D01*
X68271433Y48096063D01*
X68363054Y48063742D01*
X68385206Y48048941D01*
X68463669Y47990204D01*
X68598517Y47939909D01*
X68658127Y47933500D01*
X70250500Y47933501D01*
X70345788Y47914547D01*
X70426569Y47860571D01*
X70480546Y47779789D01*
X70499500Y47684501D01*
X70499500Y25383000D01*
X70480546Y25287712D01*
X70426570Y25206930D01*
X70345788Y25152954D01*
X70250500Y25134000D01*
X69756001Y25134000D01*
X69756000Y25133999D01*
X69756000Y24267012D01*
X69698993Y24299925D01*
X69571826Y24334000D01*
X69440174Y24334000D01*
X69313007Y24299925D01*
X69256000Y24267012D01*
X69256000Y25133999D01*
X69255999Y25134000D01*
X68658167Y25134000D01*
X68598628Y25127599D01*
X68598621Y25127597D01*
X68463910Y25077353D01*
X68385636Y25018757D01*
X68297996Y24976827D01*
X68200980Y24971626D01*
X68109359Y25003948D01*
X68087195Y25018758D01*
X68008923Y25077353D01*
X68008333Y25077795D01*
X68008331Y25077796D01*
X67878481Y25126227D01*
X67873481Y25128092D01*
X67813873Y25134500D01*
X66118134Y25134500D01*
X66118130Y25134500D01*
X66118128Y25134499D01*
X66105314Y25133122D01*
X66058519Y25128092D01*
X66058515Y25128091D01*
X65923668Y25077796D01*
X65845221Y25019070D01*
X65757581Y24977139D01*
X65660565Y24971938D01*
X65568944Y25004260D01*
X65546779Y25019070D01*
X65511305Y25045626D01*
X65468331Y25077796D01*
X65338481Y25126227D01*
X65333481Y25128092D01*
X65273873Y25134500D01*
X63578134Y25134500D01*
X63578130Y25134500D01*
X63578128Y25134499D01*
X63565314Y25133122D01*
X63518519Y25128092D01*
X63518515Y25128091D01*
X63383668Y25077796D01*
X63305221Y25019070D01*
X63217581Y24977139D01*
X63120565Y24971938D01*
X63040826Y24997642D01*
X63022932Y25006978D01*
X62928331Y25077796D01*
X62793483Y25128091D01*
X62790085Y25128457D01*
X62770326Y25138765D01*
X62744272Y25159714D01*
X62715827Y25177285D01*
X62706730Y25189901D01*
X62694611Y25199645D01*
X62678555Y25228973D01*
X62659002Y25256089D01*
X62655426Y25271222D01*
X62647957Y25284865D01*
X62644346Y25318108D01*
X62636659Y25350640D01*
X62636500Y25359527D01*
X62636500Y26035152D01*
X62655454Y26130440D01*
X62709430Y26211222D01*
X62790212Y26265198D01*
X62807161Y26271508D01*
X62830334Y26279186D01*
X62979656Y26371288D01*
X63103712Y26495344D01*
X63195814Y26644666D01*
X63250999Y26811203D01*
X63261500Y26913991D01*
X63261499Y27814008D01*
X63250999Y27916797D01*
X63195814Y28083334D01*
X63103712Y28232656D01*
X62979656Y28356712D01*
X62830334Y28448814D01*
X62830332Y28448815D01*
X62830330Y28448816D01*
X62830332Y28448816D01*
X62663802Y28503998D01*
X62663798Y28503999D01*
X62663797Y28503999D01*
X62561009Y28514500D01*
X62561005Y28514500D01*
X61210993Y28514500D01*
X61108199Y28503999D01*
X60941667Y28448815D01*
X60792346Y28356714D01*
X60668286Y28232654D01*
X60576184Y28083332D01*
X60521002Y27916803D01*
X60521001Y27916796D01*
X60510500Y27814012D01*
X60510500Y26914003D01*
X60510501Y26913986D01*
X60521001Y26811200D01*
X60576185Y26644669D01*
X60576186Y26644666D01*
X60668288Y26495344D01*
X60792344Y26371288D01*
X60941666Y26279186D01*
X60964821Y26271514D01*
X61049309Y26223552D01*
X61109013Y26146906D01*
X61134842Y26053248D01*
X61135500Y26035152D01*
X61135500Y25359527D01*
X61128125Y25322451D01*
X61124043Y25284865D01*
X61118711Y25275127D01*
X61116546Y25264239D01*
X61095541Y25232804D01*
X61077389Y25199645D01*
X61069804Y25194285D01*
X61062570Y25183457D01*
X61001674Y25138765D01*
X60981914Y25128457D01*
X60978517Y25128091D01*
X60843669Y25077796D01*
X60749067Y25006978D01*
X60731174Y24997642D01*
X60703547Y24989563D01*
X60677581Y24977139D01*
X60657360Y24976055D01*
X60637925Y24970371D01*
X60609308Y24973479D01*
X60580565Y24971938D01*
X60561469Y24978675D01*
X60541338Y24980861D01*
X60516088Y24994685D01*
X60488944Y25004260D01*
X60466779Y25019070D01*
X60431305Y25045626D01*
X60388331Y25077796D01*
X60258481Y25126227D01*
X60253481Y25128092D01*
X60193873Y25134500D01*
X58498134Y25134500D01*
X58498130Y25134500D01*
X58498128Y25134499D01*
X58485314Y25133122D01*
X58438519Y25128092D01*
X58438515Y25128091D01*
X58303668Y25077796D01*
X58225221Y25019070D01*
X58137581Y24977139D01*
X58040565Y24971938D01*
X57948944Y25004260D01*
X57926779Y25019070D01*
X57891305Y25045626D01*
X57848331Y25077796D01*
X57718481Y25126227D01*
X57713481Y25128092D01*
X57653873Y25134500D01*
X55958134Y25134500D01*
X55958130Y25134500D01*
X55958128Y25134499D01*
X55945314Y25133122D01*
X55898519Y25128092D01*
X55898515Y25128091D01*
X55763668Y25077796D01*
X55685221Y25019070D01*
X55597581Y24977139D01*
X55500565Y24971938D01*
X55408944Y25004260D01*
X55386779Y25019070D01*
X55351305Y25045626D01*
X55308331Y25077796D01*
X55178481Y25126227D01*
X55173481Y25128092D01*
X55113873Y25134500D01*
X53418134Y25134500D01*
X53418130Y25134500D01*
X53418128Y25134499D01*
X53405314Y25133122D01*
X53358519Y25128092D01*
X53358515Y25128091D01*
X53223668Y25077796D01*
X53145221Y25019070D01*
X53057581Y24977139D01*
X52960565Y24971938D01*
X52868944Y25004260D01*
X52846779Y25019070D01*
X52811305Y25045626D01*
X52768331Y25077796D01*
X52638481Y25126227D01*
X52633481Y25128092D01*
X52573873Y25134500D01*
X50878134Y25134500D01*
X50878130Y25134500D01*
X50878128Y25134499D01*
X50865314Y25133122D01*
X50818519Y25128092D01*
X50818515Y25128091D01*
X50683668Y25077796D01*
X50605221Y25019070D01*
X50517581Y24977139D01*
X50420565Y24971938D01*
X50340826Y24997642D01*
X50322932Y25006978D01*
X50228331Y25077796D01*
X50093483Y25128091D01*
X50090085Y25128457D01*
X50070326Y25138765D01*
X50044272Y25159714D01*
X50015827Y25177285D01*
X50006730Y25189901D01*
X49994611Y25199645D01*
X49978555Y25228973D01*
X49959002Y25256089D01*
X49955426Y25271222D01*
X49947957Y25284865D01*
X49944346Y25318108D01*
X49936659Y25350640D01*
X49936500Y25359527D01*
X49936500Y26035152D01*
X49955454Y26130440D01*
X50009430Y26211222D01*
X50090212Y26265198D01*
X50107161Y26271508D01*
X50130334Y26279186D01*
X50279656Y26371288D01*
X50403712Y26495344D01*
X50495814Y26644666D01*
X50550999Y26811203D01*
X50561500Y26913991D01*
X50561499Y27814008D01*
X50550999Y27916797D01*
X50495814Y28083334D01*
X50403712Y28232656D01*
X50279656Y28356712D01*
X50130334Y28448814D01*
X50130332Y28448815D01*
X50130330Y28448816D01*
X50130332Y28448816D01*
X49963802Y28503998D01*
X49963798Y28503999D01*
X49963797Y28503999D01*
X49861009Y28514500D01*
X49861005Y28514500D01*
X48510993Y28514500D01*
X48408199Y28503999D01*
X48241667Y28448815D01*
X48092341Y28356711D01*
X48092340Y28356710D01*
X48092061Y28356430D01*
X48091584Y28356112D01*
X48080969Y28347718D01*
X48080295Y28348570D01*
X48011277Y28302457D01*
X47915988Y28283508D01*
X47820701Y28302467D01*
X47751703Y28348570D01*
X47751031Y28347718D01*
X47740415Y28356112D01*
X47739939Y28356430D01*
X47739658Y28356711D01*
X47689882Y28387413D01*
X47590334Y28448814D01*
X47590332Y28448815D01*
X47590330Y28448816D01*
X47590332Y28448816D01*
X47423802Y28503998D01*
X47423798Y28503999D01*
X47423797Y28503999D01*
X47321009Y28514500D01*
X47321005Y28514500D01*
X45970993Y28514500D01*
X45868199Y28503999D01*
X45701667Y28448815D01*
X45552346Y28356714D01*
X45428286Y28232654D01*
X45336184Y28083332D01*
X45281002Y27916803D01*
X45281001Y27916796D01*
X45270500Y27814012D01*
X45270500Y26914003D01*
X45270501Y26913986D01*
X45281001Y26811200D01*
X45336185Y26644669D01*
X45336186Y26644666D01*
X45428288Y26495344D01*
X45552344Y26371288D01*
X45701666Y26279186D01*
X45724821Y26271514D01*
X45809309Y26223552D01*
X45869013Y26146906D01*
X45894842Y26053248D01*
X45895500Y26035152D01*
X45895500Y25359527D01*
X45888125Y25322451D01*
X45884043Y25284865D01*
X45878711Y25275127D01*
X45876546Y25264239D01*
X45855541Y25232804D01*
X45837389Y25199645D01*
X45829804Y25194285D01*
X45822570Y25183457D01*
X45761674Y25138765D01*
X45741914Y25128457D01*
X45738517Y25128091D01*
X45603669Y25077796D01*
X45509067Y25006978D01*
X45491174Y24997642D01*
X45463547Y24989563D01*
X45437581Y24977139D01*
X45417360Y24976055D01*
X45397925Y24970371D01*
X45369308Y24973479D01*
X45340565Y24971938D01*
X45321469Y24978675D01*
X45301338Y24980861D01*
X45276088Y24994685D01*
X45248944Y25004260D01*
X45226779Y25019070D01*
X45191305Y25045626D01*
X45148331Y25077796D01*
X45018481Y25126227D01*
X45013481Y25128092D01*
X44953873Y25134500D01*
X43258134Y25134500D01*
X43258130Y25134500D01*
X43258128Y25134499D01*
X43245314Y25133122D01*
X43198519Y25128092D01*
X43198515Y25128091D01*
X43063668Y25077796D01*
X42985221Y25019070D01*
X42897581Y24977139D01*
X42800565Y24971938D01*
X42708944Y25004260D01*
X42686779Y25019070D01*
X42651305Y25045626D01*
X42608331Y25077796D01*
X42478481Y25126227D01*
X42473481Y25128092D01*
X42413873Y25134500D01*
X40718134Y25134500D01*
X40718130Y25134500D01*
X40718128Y25134499D01*
X40705314Y25133122D01*
X40658519Y25128092D01*
X40658515Y25128091D01*
X40523668Y25077796D01*
X40445221Y25019070D01*
X40357581Y24977139D01*
X40260565Y24971938D01*
X40168944Y25004260D01*
X40146779Y25019070D01*
X40111305Y25045626D01*
X40068331Y25077796D01*
X39938481Y25126227D01*
X39933481Y25128092D01*
X39873873Y25134500D01*
X38178134Y25134500D01*
X38178130Y25134500D01*
X38178128Y25134499D01*
X38165314Y25133122D01*
X38118519Y25128092D01*
X38118515Y25128091D01*
X37983668Y25077796D01*
X37905221Y25019070D01*
X37817581Y24977139D01*
X37720565Y24971938D01*
X37628944Y25004260D01*
X37606779Y25019070D01*
X37571305Y25045626D01*
X37528331Y25077796D01*
X37398481Y25126227D01*
X37393481Y25128092D01*
X37333873Y25134500D01*
X35638134Y25134500D01*
X35638130Y25134500D01*
X35638128Y25134499D01*
X35625314Y25133122D01*
X35578519Y25128092D01*
X35578515Y25128091D01*
X35443668Y25077796D01*
X35365221Y25019070D01*
X35277581Y24977139D01*
X35180565Y24971938D01*
X35088944Y25004260D01*
X35066779Y25019070D01*
X35031305Y25045626D01*
X34988331Y25077796D01*
X34858481Y25126227D01*
X34853481Y25128092D01*
X34793873Y25134500D01*
X33098134Y25134500D01*
X33098130Y25134500D01*
X33098128Y25134499D01*
X33085314Y25133122D01*
X33038519Y25128092D01*
X33038515Y25128091D01*
X32903668Y25077796D01*
X32825221Y25019070D01*
X32737581Y24977139D01*
X32640565Y24971938D01*
X32548944Y25004260D01*
X32526779Y25019070D01*
X32491305Y25045626D01*
X32448331Y25077796D01*
X32318481Y25126227D01*
X32313481Y25128092D01*
X32253873Y25134500D01*
X30558134Y25134500D01*
X30558130Y25134500D01*
X30558128Y25134499D01*
X30545314Y25133122D01*
X30498519Y25128092D01*
X30498515Y25128091D01*
X30363668Y25077796D01*
X30285221Y25019070D01*
X30197581Y24977139D01*
X30100565Y24971938D01*
X30008944Y25004260D01*
X29986779Y25019070D01*
X29951305Y25045626D01*
X29908331Y25077796D01*
X29778481Y25126227D01*
X29773481Y25128092D01*
X29713873Y25134500D01*
X28018134Y25134500D01*
X28018130Y25134500D01*
X28018128Y25134499D01*
X28005314Y25133122D01*
X27958519Y25128092D01*
X27958515Y25128091D01*
X27823668Y25077796D01*
X27745221Y25019070D01*
X27657581Y24977139D01*
X27560565Y24971938D01*
X27468944Y25004260D01*
X27446779Y25019070D01*
X27411305Y25045626D01*
X27368331Y25077796D01*
X27238481Y25126227D01*
X27233481Y25128092D01*
X27173873Y25134500D01*
X25478134Y25134500D01*
X25478130Y25134500D01*
X25478128Y25134499D01*
X25465314Y25133122D01*
X25418519Y25128092D01*
X25418515Y25128091D01*
X25283668Y25077796D01*
X25205221Y25019070D01*
X25117581Y24977139D01*
X25020565Y24971938D01*
X24928944Y25004260D01*
X24906779Y25019070D01*
X24871305Y25045626D01*
X24828331Y25077796D01*
X24698481Y25126227D01*
X24693481Y25128092D01*
X24633873Y25134500D01*
X22938134Y25134500D01*
X22938130Y25134500D01*
X22938128Y25134499D01*
X22925314Y25133122D01*
X22878519Y25128092D01*
X22878515Y25128091D01*
X22743668Y25077796D01*
X22665221Y25019070D01*
X22577581Y24977139D01*
X22480565Y24971938D01*
X22388944Y25004260D01*
X22366779Y25019070D01*
X22331305Y25045626D01*
X22288331Y25077796D01*
X22158481Y25126227D01*
X22153481Y25128092D01*
X22093873Y25134500D01*
X20398134Y25134500D01*
X20398130Y25134500D01*
X20398128Y25134499D01*
X20385314Y25133122D01*
X20338519Y25128092D01*
X20338515Y25128091D01*
X20203667Y25077796D01*
X20124804Y25018758D01*
X20037164Y24976827D01*
X19940148Y24971626D01*
X19848527Y25003948D01*
X19826362Y25018758D01*
X19748089Y25077353D01*
X19613378Y25127597D01*
X19613371Y25127599D01*
X19553832Y25134000D01*
X18956001Y25134000D01*
X18956000Y25133999D01*
X18956000Y24267012D01*
X18898993Y24299925D01*
X18771826Y24334000D01*
X18640174Y24334000D01*
X18513007Y24299925D01*
X18456000Y24267012D01*
X18456000Y25133999D01*
X18455999Y25134000D01*
X17858167Y25134000D01*
X17798628Y25127599D01*
X17798621Y25127597D01*
X17663910Y25077353D01*
X17585221Y25018446D01*
X17497581Y24976515D01*
X17400565Y24971314D01*
X17308944Y25003636D01*
X17286779Y25018446D01*
X17208089Y25077353D01*
X17073378Y25127597D01*
X17073371Y25127599D01*
X17013832Y25134000D01*
X16416001Y25134000D01*
X16416000Y25133999D01*
X16416000Y24267012D01*
X16358993Y24299925D01*
X16231826Y24334000D01*
X16100174Y24334000D01*
X15973007Y24299925D01*
X15916000Y24267012D01*
X15916000Y25133999D01*
X15915999Y25134000D01*
X15318167Y25134000D01*
X15258628Y25127599D01*
X15258621Y25127597D01*
X15123912Y25077354D01*
X15008812Y24991190D01*
X15008810Y24991188D01*
X14922646Y24876088D01*
X14872403Y24741379D01*
X14872401Y24741372D01*
X14866000Y24681833D01*
X14866000Y24084001D01*
X14866001Y24084000D01*
X15732988Y24084000D01*
X15700075Y24026993D01*
X15666000Y23899826D01*
X15666000Y23768174D01*
X15700075Y23641007D01*
X15732988Y23584000D01*
X14866001Y23584000D01*
X14866000Y23583999D01*
X14866000Y22986168D01*
X14872401Y22926629D01*
X14872403Y22926622D01*
X14922646Y22791913D01*
X15008810Y22676813D01*
X15008812Y22676811D01*
X15123912Y22590647D01*
X15258621Y22540404D01*
X15258628Y22540402D01*
X15318167Y22534001D01*
X15318175Y22534000D01*
X15915999Y22534000D01*
X15916000Y22534001D01*
X15916000Y23400988D01*
X15973007Y23368075D01*
X16100174Y23334000D01*
X16231826Y23334000D01*
X16358993Y23368075D01*
X16416000Y23400988D01*
X16416000Y22534001D01*
X16416001Y22534000D01*
X17013825Y22534000D01*
X17013832Y22534001D01*
X17073371Y22540402D01*
X17073378Y22540404D01*
X17208088Y22590647D01*
X17286777Y22649554D01*
X17374418Y22691486D01*
X17471433Y22696687D01*
X17563055Y22664366D01*
X17585223Y22649554D01*
X17663911Y22590647D01*
X17798621Y22540404D01*
X17798628Y22540402D01*
X17858167Y22534001D01*
X17858175Y22534000D01*
X18455999Y22534000D01*
X18456000Y22534001D01*
X18456000Y23400988D01*
X18513007Y23368075D01*
X18640174Y23334000D01*
X18771826Y23334000D01*
X18898993Y23368075D01*
X18956000Y23400988D01*
X18956000Y22534001D01*
X18956001Y22534000D01*
X19553825Y22534000D01*
X19553832Y22534001D01*
X19613371Y22540402D01*
X19613378Y22540404D01*
X19748088Y22590647D01*
X19826360Y22649242D01*
X19914000Y22691174D01*
X20011016Y22696375D01*
X20102637Y22664054D01*
X20124792Y22649252D01*
X20203669Y22590204D01*
X20338517Y22539909D01*
X20398127Y22533500D01*
X22093872Y22533501D01*
X22153483Y22539909D01*
X22288331Y22590204D01*
X22366781Y22648933D01*
X22454418Y22690862D01*
X22551433Y22696063D01*
X22643054Y22663742D01*
X22665206Y22648941D01*
X22743669Y22590204D01*
X22878517Y22539909D01*
X22938127Y22533500D01*
X24633872Y22533501D01*
X24693483Y22539909D01*
X24828331Y22590204D01*
X24906781Y22648933D01*
X24994418Y22690862D01*
X25091433Y22696063D01*
X25183054Y22663742D01*
X25205206Y22648941D01*
X25283669Y22590204D01*
X25418517Y22539909D01*
X25478127Y22533500D01*
X27173872Y22533501D01*
X27233483Y22539909D01*
X27368331Y22590204D01*
X27446781Y22648933D01*
X27534418Y22690862D01*
X27631433Y22696063D01*
X27723054Y22663742D01*
X27745206Y22648941D01*
X27823669Y22590204D01*
X27958517Y22539909D01*
X28018127Y22533500D01*
X29713872Y22533501D01*
X29773483Y22539909D01*
X29908331Y22590204D01*
X29986781Y22648933D01*
X30074418Y22690862D01*
X30171433Y22696063D01*
X30263054Y22663742D01*
X30285206Y22648941D01*
X30363669Y22590204D01*
X30498517Y22539909D01*
X30558127Y22533500D01*
X32253872Y22533501D01*
X32313483Y22539909D01*
X32448331Y22590204D01*
X32526781Y22648933D01*
X32614418Y22690862D01*
X32711433Y22696063D01*
X32803054Y22663742D01*
X32825206Y22648941D01*
X32903669Y22590204D01*
X33038517Y22539909D01*
X33098127Y22533500D01*
X34793872Y22533501D01*
X34853483Y22539909D01*
X34988331Y22590204D01*
X35066781Y22648933D01*
X35154418Y22690862D01*
X35251433Y22696063D01*
X35343054Y22663742D01*
X35365206Y22648941D01*
X35443669Y22590204D01*
X35578517Y22539909D01*
X35638127Y22533500D01*
X37333872Y22533501D01*
X37393483Y22539909D01*
X37528331Y22590204D01*
X37606781Y22648933D01*
X37694418Y22690862D01*
X37791433Y22696063D01*
X37883054Y22663742D01*
X37905206Y22648941D01*
X37983669Y22590204D01*
X38118517Y22539909D01*
X38178127Y22533500D01*
X39873872Y22533501D01*
X39933483Y22539909D01*
X40068331Y22590204D01*
X40146781Y22648933D01*
X40234418Y22690862D01*
X40331433Y22696063D01*
X40423054Y22663742D01*
X40445206Y22648941D01*
X40523669Y22590204D01*
X40658517Y22539909D01*
X40718127Y22533500D01*
X42413872Y22533501D01*
X42473483Y22539909D01*
X42608331Y22590204D01*
X42686781Y22648933D01*
X42774418Y22690862D01*
X42871433Y22696063D01*
X42963054Y22663742D01*
X42985206Y22648941D01*
X43063669Y22590204D01*
X43198517Y22539909D01*
X43258127Y22533500D01*
X44953872Y22533501D01*
X45013483Y22539909D01*
X45148331Y22590204D01*
X45226781Y22648933D01*
X45314418Y22690862D01*
X45411433Y22696063D01*
X45503054Y22663742D01*
X45525206Y22648941D01*
X45603669Y22590204D01*
X45738517Y22539909D01*
X45798127Y22533500D01*
X47493872Y22533501D01*
X47553483Y22539909D01*
X47688331Y22590204D01*
X47766781Y22648933D01*
X47854418Y22690862D01*
X47951433Y22696063D01*
X48043054Y22663742D01*
X48065206Y22648941D01*
X48143669Y22590204D01*
X48278517Y22539909D01*
X48338127Y22533500D01*
X50033872Y22533501D01*
X50093483Y22539909D01*
X50228331Y22590204D01*
X50306781Y22648933D01*
X50394418Y22690862D01*
X50491433Y22696063D01*
X50583054Y22663742D01*
X50605206Y22648941D01*
X50683669Y22590204D01*
X50818517Y22539909D01*
X50878127Y22533500D01*
X52573872Y22533501D01*
X52633483Y22539909D01*
X52768331Y22590204D01*
X52846781Y22648933D01*
X52934418Y22690862D01*
X53031433Y22696063D01*
X53123054Y22663742D01*
X53145206Y22648941D01*
X53223669Y22590204D01*
X53358517Y22539909D01*
X53418127Y22533500D01*
X55113872Y22533501D01*
X55173483Y22539909D01*
X55308331Y22590204D01*
X55386781Y22648933D01*
X55474418Y22690862D01*
X55571433Y22696063D01*
X55663054Y22663742D01*
X55685206Y22648941D01*
X55763669Y22590204D01*
X55898517Y22539909D01*
X55958127Y22533500D01*
X57653872Y22533501D01*
X57713483Y22539909D01*
X57848331Y22590204D01*
X57926781Y22648933D01*
X58014418Y22690862D01*
X58111433Y22696063D01*
X58203054Y22663742D01*
X58225206Y22648941D01*
X58303669Y22590204D01*
X58438517Y22539909D01*
X58498127Y22533500D01*
X60193872Y22533501D01*
X60253483Y22539909D01*
X60388331Y22590204D01*
X60466781Y22648933D01*
X60554418Y22690862D01*
X60651433Y22696063D01*
X60743054Y22663742D01*
X60765206Y22648941D01*
X60843669Y22590204D01*
X60978517Y22539909D01*
X61038127Y22533500D01*
X62733872Y22533501D01*
X62793483Y22539909D01*
X62928331Y22590204D01*
X63006781Y22648933D01*
X63094418Y22690862D01*
X63191433Y22696063D01*
X63283054Y22663742D01*
X63305206Y22648941D01*
X63383669Y22590204D01*
X63518517Y22539909D01*
X63578127Y22533500D01*
X65273872Y22533501D01*
X65333483Y22539909D01*
X65468331Y22590204D01*
X65546781Y22648933D01*
X65634418Y22690862D01*
X65731433Y22696063D01*
X65823054Y22663742D01*
X65845206Y22648941D01*
X65923669Y22590204D01*
X66058517Y22539909D01*
X66118127Y22533500D01*
X67813872Y22533501D01*
X67873483Y22539909D01*
X68008331Y22590204D01*
X68087197Y22649244D01*
X68174833Y22691173D01*
X68271848Y22696375D01*
X68363470Y22664055D01*
X68385638Y22649243D01*
X68463912Y22590647D01*
X68598621Y22540404D01*
X68598628Y22540402D01*
X68658167Y22534001D01*
X68658175Y22534000D01*
X69255999Y22534000D01*
X69256000Y22534001D01*
X69256000Y23400988D01*
X69313007Y23368075D01*
X69440174Y23334000D01*
X69571826Y23334000D01*
X69698993Y23368075D01*
X69756000Y23400988D01*
X69756000Y22534001D01*
X69756001Y22534000D01*
X70250500Y22534000D01*
X70345788Y22515046D01*
X70426570Y22461070D01*
X70480546Y22380288D01*
X70499500Y22285000D01*
X70499500Y16382666D01*
X70480546Y16287378D01*
X70426570Y16206596D01*
X70345788Y16152620D01*
X70250500Y16133666D01*
X70155212Y16152620D01*
X70074430Y16206596D01*
X70028640Y16269621D01*
X69941817Y16440018D01*
X69941815Y16440022D01*
X69812242Y16618365D01*
X69656365Y16774242D01*
X69478022Y16903815D01*
X69478019Y16903817D01*
X69478013Y16903821D01*
X69281616Y17003891D01*
X69281609Y17003894D01*
X69281606Y17003895D01*
X69071951Y17072015D01*
X69071945Y17072016D01*
X69071938Y17072018D01*
X68854232Y17106499D01*
X68854225Y17106500D01*
X68854222Y17106500D01*
X68633778Y17106500D01*
X68633775Y17106500D01*
X68633767Y17106499D01*
X68416061Y17072018D01*
X68416054Y17072016D01*
X68416052Y17072016D01*
X68416049Y17072015D01*
X68206394Y17003895D01*
X68206392Y17003895D01*
X68206392Y17003894D01*
X68206383Y17003891D01*
X68009986Y16903821D01*
X68009979Y16903816D01*
X67831633Y16774241D01*
X67675759Y16618367D01*
X67546184Y16440021D01*
X67546179Y16440014D01*
X67446109Y16243617D01*
X67446105Y16243608D01*
X67446105Y16243606D01*
X67377985Y16033951D01*
X67377984Y16033948D01*
X67377984Y16033946D01*
X67377982Y16033939D01*
X67343501Y15816233D01*
X67343500Y15816218D01*
X67343500Y15595783D01*
X67343501Y15595768D01*
X67377982Y15378062D01*
X67377984Y15378055D01*
X67377985Y15378049D01*
X67446105Y15168394D01*
X67446106Y15168393D01*
X67446109Y15168384D01*
X67546179Y14971987D01*
X67546184Y14971980D01*
X67675759Y14793634D01*
X67831635Y14637758D01*
X67831639Y14637755D01*
X68006866Y14510445D01*
X68072815Y14439102D01*
X68106442Y14347952D01*
X68102628Y14250872D01*
X68061953Y14162642D01*
X68006866Y14107555D01*
X67831639Y13980246D01*
X67831635Y13980243D01*
X67675756Y13824364D01*
X67632731Y13765143D01*
X67561388Y13699193D01*
X67470239Y13665566D01*
X67431285Y13662500D01*
X66671526Y13662500D01*
X66634479Y13669869D01*
X66596929Y13673937D01*
X66587160Y13679282D01*
X66576238Y13681454D01*
X66544830Y13702440D01*
X66511696Y13720567D01*
X66506319Y13728172D01*
X66495456Y13735430D01*
X66450795Y13796265D01*
X66440458Y13816065D01*
X66440091Y13819483D01*
X66389796Y13954331D01*
X66318680Y14049330D01*
X66309360Y14067182D01*
X66301263Y14094841D01*
X66288826Y14120835D01*
X66287743Y14141023D01*
X66282064Y14160424D01*
X66285167Y14189074D01*
X66283625Y14217850D01*
X66290350Y14236916D01*
X66292528Y14257014D01*
X66306358Y14282295D01*
X66315946Y14309472D01*
X66330758Y14331640D01*
X66389353Y14409912D01*
X66439596Y14544622D01*
X66439598Y14544629D01*
X66445999Y14604168D01*
X66446000Y14604175D01*
X66446000Y15201999D01*
X66445999Y15202000D01*
X65579012Y15202000D01*
X65611925Y15259007D01*
X65646000Y15386174D01*
X65646000Y15517826D01*
X65611925Y15644993D01*
X65579012Y15702000D01*
X66445999Y15702000D01*
X66446000Y15702001D01*
X66446000Y16299825D01*
X66445999Y16299833D01*
X66439598Y16359372D01*
X66439596Y16359379D01*
X66389353Y16494088D01*
X66303189Y16609188D01*
X66303187Y16609190D01*
X66188087Y16695354D01*
X66053378Y16745597D01*
X66053371Y16745599D01*
X65993832Y16752000D01*
X65396001Y16752000D01*
X65396000Y16751999D01*
X65396000Y15885012D01*
X65338993Y15917925D01*
X65211826Y15952000D01*
X65080174Y15952000D01*
X64953007Y15917925D01*
X64896000Y15885012D01*
X64896000Y16751999D01*
X64895999Y16752000D01*
X64298167Y16752000D01*
X64238628Y16745599D01*
X64238621Y16745597D01*
X64103912Y16695354D01*
X63988812Y16609190D01*
X63988810Y16609188D01*
X63902646Y16494088D01*
X63852403Y16359379D01*
X63852401Y16359372D01*
X63846000Y16299833D01*
X63846000Y15702001D01*
X63846001Y15702000D01*
X64712988Y15702000D01*
X64680075Y15644993D01*
X64646000Y15517826D01*
X64646000Y15386174D01*
X64680075Y15259007D01*
X64712988Y15202000D01*
X63846001Y15202000D01*
X63846000Y15201999D01*
X63846000Y14604168D01*
X63852401Y14544629D01*
X63852403Y14544622D01*
X63902647Y14409911D01*
X63961242Y14331638D01*
X64003173Y14243998D01*
X64008374Y14146982D01*
X63982639Y14067182D01*
X63973316Y14049326D01*
X63902204Y13954331D01*
X63851909Y13819483D01*
X63851541Y13816067D01*
X63841204Y13796265D01*
X63820266Y13770240D01*
X63802715Y13741827D01*
X63790073Y13732712D01*
X63780303Y13720567D01*
X63750999Y13704536D01*
X63723911Y13685002D01*
X63708744Y13681418D01*
X63695070Y13673937D01*
X63661862Y13670340D01*
X63629360Y13662659D01*
X63620473Y13662500D01*
X49092007Y13662500D01*
X48996719Y13681454D01*
X48915937Y13735430D01*
X47857732Y14793635D01*
X46616416Y16034952D01*
X46616412Y16034955D01*
X46534355Y16089783D01*
X46534351Y16089785D01*
X46519870Y16099461D01*
X46519868Y16099462D01*
X46493495Y16117084D01*
X46493490Y16117087D01*
X46356914Y16173658D01*
X46356911Y16173659D01*
X46211920Y16202500D01*
X46211918Y16202500D01*
X31661526Y16202500D01*
X31624479Y16209869D01*
X31586929Y16213937D01*
X31577160Y16219282D01*
X31566238Y16221454D01*
X31534830Y16242440D01*
X31501696Y16260567D01*
X31496319Y16268172D01*
X31485456Y16275430D01*
X31440795Y16336265D01*
X31430458Y16356065D01*
X31430091Y16359483D01*
X31379796Y16494331D01*
X31308680Y16589330D01*
X31299360Y16607182D01*
X31291263Y16634841D01*
X31278826Y16660835D01*
X31277743Y16681023D01*
X31272064Y16700424D01*
X31275167Y16729074D01*
X31273625Y16757850D01*
X31280350Y16776916D01*
X31282528Y16797014D01*
X31296358Y16822295D01*
X31305946Y16849472D01*
X31320758Y16871640D01*
X31379353Y16949912D01*
X31429596Y17084622D01*
X31429598Y17084629D01*
X31435999Y17144168D01*
X31436000Y17144175D01*
X31436000Y17741999D01*
X31435999Y17742000D01*
X30569012Y17742000D01*
X30601925Y17799007D01*
X30636000Y17926174D01*
X30636000Y18057826D01*
X30601925Y18184993D01*
X30569012Y18242000D01*
X31435999Y18242000D01*
X31436000Y18242001D01*
X31436000Y18839825D01*
X31435999Y18839833D01*
X31429598Y18899372D01*
X31429596Y18899379D01*
X31379353Y19034088D01*
X31293189Y19149188D01*
X31293187Y19149190D01*
X31178087Y19235354D01*
X31043378Y19285597D01*
X31043371Y19285599D01*
X30983832Y19292000D01*
X30386001Y19292000D01*
X30386000Y19291999D01*
X30386000Y18425012D01*
X30328993Y18457925D01*
X30201826Y18492000D01*
X30070174Y18492000D01*
X29943007Y18457925D01*
X29886000Y18425012D01*
X29886000Y19291999D01*
X29885999Y19292000D01*
X29288167Y19292000D01*
X29228628Y19285599D01*
X29228621Y19285597D01*
X29093912Y19235354D01*
X28978812Y19149190D01*
X28978810Y19149188D01*
X28892646Y19034088D01*
X28842403Y18899379D01*
X28842401Y18899372D01*
X28836000Y18839833D01*
X28836000Y18242001D01*
X28836001Y18242000D01*
X29702988Y18242000D01*
X29670075Y18184993D01*
X29636000Y18057826D01*
X29636000Y17926174D01*
X29670075Y17799007D01*
X29702988Y17742000D01*
X28836001Y17742000D01*
X28836000Y17741999D01*
X28836000Y17144168D01*
X28842401Y17084629D01*
X28842403Y17084622D01*
X28892647Y16949911D01*
X28951242Y16871638D01*
X28993173Y16783998D01*
X28998374Y16686982D01*
X28966052Y16595361D01*
X28951242Y16573196D01*
X28892204Y16494331D01*
X28877702Y16455451D01*
X28841908Y16359482D01*
X28835500Y16299877D01*
X28835500Y14604135D01*
X28835501Y14604131D01*
X28841908Y14544520D01*
X28841909Y14544516D01*
X28892204Y14409669D01*
X28950930Y14331221D01*
X28992861Y14243581D01*
X28998062Y14146565D01*
X28965740Y14054944D01*
X28950930Y14032779D01*
X28892205Y13954333D01*
X28841908Y13819482D01*
X28835500Y13759877D01*
X28835500Y12064135D01*
X28835500Y12064132D01*
X28835501Y12064128D01*
X28836068Y12058857D01*
X28841908Y12004520D01*
X28841909Y12004516D01*
X28892204Y11869669D01*
X28950930Y11791221D01*
X28992861Y11703581D01*
X28998062Y11606565D01*
X28965740Y11514944D01*
X28950930Y11492779D01*
X28892205Y11414333D01*
X28841908Y11279482D01*
X28835500Y11219877D01*
X28835500Y9524135D01*
X28835500Y9524132D01*
X28835501Y9524128D01*
X28837567Y9504907D01*
X28841908Y9464520D01*
X28841909Y9464516D01*
X28892204Y9329669D01*
X28950930Y9251221D01*
X28992861Y9163581D01*
X28998062Y9066565D01*
X28965740Y8974944D01*
X28950930Y8952779D01*
X28892205Y8874333D01*
X28841908Y8739482D01*
X28835500Y8679877D01*
X28835500Y6984135D01*
X28835500Y6984132D01*
X28835501Y6984128D01*
X28837567Y6964907D01*
X28841908Y6924520D01*
X28841909Y6924516D01*
X28892204Y6789669D01*
X28950930Y6711221D01*
X28992861Y6623581D01*
X28998062Y6526565D01*
X28965740Y6434944D01*
X28950930Y6412779D01*
X28892205Y6334333D01*
X28841908Y6199482D01*
X28835500Y6139877D01*
X28835500Y4444135D01*
X28835500Y4444132D01*
X28835501Y4444128D01*
X28837567Y4424907D01*
X28841908Y4384520D01*
X28841909Y4384517D01*
X28892204Y4249669D01*
X28978454Y4134454D01*
X29093669Y4048204D01*
X29228517Y3997909D01*
X29288127Y3991500D01*
X30983872Y3991501D01*
X31043483Y3997909D01*
X31178331Y4048204D01*
X31293546Y4134454D01*
X31379796Y4249669D01*
X31430091Y4384517D01*
X31436500Y4444127D01*
X31436499Y6139872D01*
X31430091Y6199483D01*
X31379796Y6334331D01*
X31321067Y6412782D01*
X31279138Y6500418D01*
X31273937Y6597433D01*
X31306258Y6689054D01*
X31321059Y6711207D01*
X31379796Y6789669D01*
X31430091Y6924517D01*
X31436500Y6984127D01*
X31436499Y8679872D01*
X31430091Y8739483D01*
X31379796Y8874331D01*
X31321067Y8952782D01*
X31279138Y9040418D01*
X31273937Y9137433D01*
X31306258Y9229054D01*
X31321059Y9251207D01*
X31379796Y9329669D01*
X31430091Y9464517D01*
X31436500Y9524127D01*
X31436499Y11219872D01*
X31430091Y11279483D01*
X31379796Y11414331D01*
X31321067Y11492782D01*
X31279138Y11580418D01*
X31273937Y11677433D01*
X31306258Y11769054D01*
X31321059Y11791207D01*
X31379796Y11869669D01*
X31430091Y12004517D01*
X31436500Y12064127D01*
X31436499Y13759872D01*
X31430091Y13819483D01*
X31379796Y13954331D01*
X31321067Y14032782D01*
X31279138Y14120418D01*
X31273937Y14217433D01*
X31299641Y14297175D01*
X31308972Y14315061D01*
X31379796Y14409669D01*
X31430091Y14544517D01*
X31430456Y14547917D01*
X31440765Y14567675D01*
X31461716Y14593732D01*
X31479285Y14622173D01*
X31491898Y14631269D01*
X31501645Y14643390D01*
X31530974Y14659447D01*
X31558089Y14678998D01*
X31573222Y14682575D01*
X31586866Y14690043D01*
X31620106Y14693654D01*
X31652640Y14701341D01*
X31661527Y14701500D01*
X45723992Y14701500D01*
X45819280Y14682546D01*
X45900062Y14628570D01*
X48095048Y12433585D01*
X48095049Y12433584D01*
X48095048Y12433584D01*
X48154239Y12374394D01*
X48199584Y12329049D01*
X48322505Y12246916D01*
X48459087Y12190342D01*
X48604080Y12161501D01*
X48604081Y12161500D01*
X48604082Y12161500D01*
X63620474Y12161500D01*
X63657548Y12154126D01*
X63695137Y12150043D01*
X63704875Y12144712D01*
X63715762Y12142546D01*
X63747193Y12121545D01*
X63780357Y12103389D01*
X63785718Y12095804D01*
X63796544Y12088570D01*
X63841236Y12027674D01*
X63851543Y12007917D01*
X63851909Y12004517D01*
X63902204Y11869669D01*
X63973023Y11775068D01*
X63982358Y11757174D01*
X63990437Y11729548D01*
X64002861Y11703581D01*
X64003945Y11683360D01*
X64009629Y11663924D01*
X64006521Y11635308D01*
X64008062Y11606565D01*
X64001325Y11587470D01*
X63999139Y11567337D01*
X63985314Y11542086D01*
X63975740Y11514944D01*
X63960930Y11492779D01*
X63902205Y11414333D01*
X63851908Y11279482D01*
X63845500Y11219877D01*
X63845500Y9524135D01*
X63845500Y9524132D01*
X63845501Y9524128D01*
X63847567Y9504907D01*
X63851908Y9464520D01*
X63851909Y9464516D01*
X63902204Y9329669D01*
X63960930Y9251221D01*
X64002861Y9163581D01*
X64008062Y9066565D01*
X63975740Y8974944D01*
X63960930Y8952779D01*
X63902205Y8874333D01*
X63851908Y8739482D01*
X63845500Y8679877D01*
X63845500Y6984135D01*
X63845500Y6984132D01*
X63845501Y6984128D01*
X63847567Y6964907D01*
X63851908Y6924520D01*
X63851909Y6924517D01*
X63902204Y6789669D01*
X63988454Y6674454D01*
X64103669Y6588204D01*
X64238517Y6537909D01*
X64298127Y6531500D01*
X65993872Y6531501D01*
X66053483Y6537909D01*
X66188331Y6588204D01*
X66303546Y6674454D01*
X66389796Y6789669D01*
X66440091Y6924517D01*
X66446500Y6984127D01*
X66446499Y8679872D01*
X66440091Y8739483D01*
X66389796Y8874331D01*
X66331067Y8952782D01*
X66289138Y9040418D01*
X66283937Y9137433D01*
X66316258Y9229054D01*
X66331059Y9251207D01*
X66389796Y9329669D01*
X66440091Y9464517D01*
X66446500Y9524127D01*
X66446499Y11219872D01*
X66440091Y11279483D01*
X66389796Y11414331D01*
X66331067Y11492782D01*
X66289138Y11580418D01*
X66283937Y11677433D01*
X66309641Y11757175D01*
X66318972Y11775061D01*
X66389796Y11869669D01*
X66440091Y12004517D01*
X66440456Y12007917D01*
X66450765Y12027675D01*
X66471716Y12053732D01*
X66489285Y12082173D01*
X66501898Y12091269D01*
X66511645Y12103390D01*
X66540974Y12119447D01*
X66568089Y12138998D01*
X66583222Y12142575D01*
X66596866Y12150043D01*
X66630106Y12153654D01*
X66662640Y12161341D01*
X66671527Y12161500D01*
X67431285Y12161500D01*
X67526573Y12142546D01*
X67607355Y12088570D01*
X67632731Y12058857D01*
X67675756Y11999637D01*
X67675758Y11999635D01*
X67831635Y11843758D01*
X68009978Y11714185D01*
X68009981Y11714184D01*
X68009986Y11714180D01*
X68206383Y11614110D01*
X68206386Y11614109D01*
X68206394Y11614105D01*
X68416049Y11545985D01*
X68416060Y11545984D01*
X68416061Y11545983D01*
X68440666Y11542086D01*
X68633778Y11511500D01*
X68633782Y11511500D01*
X68854218Y11511500D01*
X68854222Y11511500D01*
X69071951Y11545985D01*
X69281606Y11614105D01*
X69323219Y11635308D01*
X69478013Y11714180D01*
X69478015Y11714182D01*
X69478022Y11714185D01*
X69656365Y11843758D01*
X69812242Y11999635D01*
X69941815Y12177978D01*
X69948115Y12190342D01*
X70028640Y12348379D01*
X70088788Y12424677D01*
X70173556Y12472148D01*
X70270037Y12483567D01*
X70363544Y12457195D01*
X70439842Y12397047D01*
X70487313Y12312279D01*
X70499500Y12235335D01*
X70499500Y6049000D01*
X70480546Y5953712D01*
X70426570Y5872930D01*
X70345788Y5818954D01*
X70250500Y5800000D01*
X65950000Y5800000D01*
X65950000Y5799999D01*
X65950000Y1749500D01*
X65931046Y1654212D01*
X65877070Y1573430D01*
X65796288Y1519454D01*
X65701000Y1500500D01*
X6509000Y1500500D01*
X6413712Y1519454D01*
X6332930Y1573430D01*
X6278954Y1654212D01*
X6260000Y1749500D01*
X6260000Y6561999D01*
X6260000Y6562000D01*
X6259999Y6562000D01*
X1749500Y6562000D01*
X1654212Y6580954D01*
X1573430Y6634930D01*
X1519454Y6715712D01*
X1500500Y6811000D01*
X1500500Y30914012D01*
X45270500Y30914012D01*
X45270500Y30014003D01*
X45270501Y30013986D01*
X45281001Y29911200D01*
X45336115Y29744880D01*
X45336186Y29744666D01*
X45428288Y29595344D01*
X45552344Y29471288D01*
X45701666Y29379186D01*
X45701669Y29379185D01*
X45701667Y29379185D01*
X45865310Y29324960D01*
X45868203Y29324001D01*
X45970991Y29313500D01*
X47321008Y29313501D01*
X47423797Y29324001D01*
X47590334Y29379186D01*
X47739656Y29471288D01*
X47739933Y29471566D01*
X47740407Y29471883D01*
X47751031Y29480282D01*
X47751704Y29479431D01*
X47820712Y29525539D01*
X47916000Y29544493D01*
X48011288Y29525539D01*
X48080295Y29479431D01*
X48080969Y29480282D01*
X48091592Y29471883D01*
X48092066Y29471566D01*
X48092344Y29471288D01*
X48241666Y29379186D01*
X48241669Y29379185D01*
X48241667Y29379185D01*
X48405310Y29324960D01*
X48408203Y29324001D01*
X48510991Y29313500D01*
X49861008Y29313501D01*
X49963797Y29324001D01*
X50130334Y29379186D01*
X50279656Y29471288D01*
X50403712Y29595344D01*
X50403715Y29595351D01*
X50412704Y29606717D01*
X50413639Y29605978D01*
X50469789Y29666369D01*
X50558137Y29706788D01*
X50615563Y29713500D01*
X58429919Y29713500D01*
X58429919Y29713501D01*
X58574913Y29742342D01*
X58661039Y29778017D01*
X58711491Y29798914D01*
X58711492Y29798915D01*
X58711495Y29798916D01*
X58760729Y29831814D01*
X58834416Y29881048D01*
X59167367Y30213999D01*
X60511001Y30213999D01*
X60511001Y30014016D01*
X60521494Y29911301D01*
X60521495Y29911298D01*
X60576640Y29744881D01*
X60576641Y29744879D01*
X60668681Y29595659D01*
X60668684Y29595655D01*
X60792654Y29471685D01*
X60792658Y29471682D01*
X60941878Y29379642D01*
X60941879Y29379641D01*
X61108298Y29324496D01*
X61108305Y29324495D01*
X61211023Y29314001D01*
X61636000Y29314001D01*
X61636000Y30213999D01*
X62136000Y30213999D01*
X62136000Y29314002D01*
X62136001Y29314001D01*
X62560968Y29314001D01*
X62560984Y29314002D01*
X62663699Y29324495D01*
X62663702Y29324496D01*
X62830119Y29379641D01*
X62830121Y29379642D01*
X62979341Y29471682D01*
X62979345Y29471685D01*
X63103315Y29595655D01*
X63103318Y29595659D01*
X63195358Y29744879D01*
X63195359Y29744880D01*
X63250504Y29911299D01*
X63250505Y29911306D01*
X63260999Y30014019D01*
X63261000Y30014029D01*
X63261000Y30213999D01*
X63260999Y30214000D01*
X62136001Y30214000D01*
X62136000Y30213999D01*
X61636000Y30213999D01*
X61635999Y30214000D01*
X60511002Y30214000D01*
X60511001Y30213999D01*
X59167367Y30213999D01*
X59867349Y30913982D01*
X60511000Y30913982D01*
X60511000Y30714001D01*
X60511001Y30714000D01*
X61635999Y30714000D01*
X61636000Y30714001D01*
X61636000Y31613999D01*
X62136000Y31613999D01*
X62136000Y30714001D01*
X62136001Y30714000D01*
X63260998Y30714000D01*
X63260999Y30714001D01*
X63260999Y30913968D01*
X63260998Y30913985D01*
X63250505Y31016700D01*
X63250504Y31016703D01*
X63195359Y31183120D01*
X63195358Y31183122D01*
X63103318Y31332342D01*
X63103315Y31332346D01*
X62979345Y31456316D01*
X62979341Y31456319D01*
X62830121Y31548359D01*
X62830120Y31548360D01*
X62663701Y31603505D01*
X62663694Y31603506D01*
X62560981Y31614000D01*
X62136001Y31614000D01*
X62136000Y31613999D01*
X61636000Y31613999D01*
X61635999Y31614000D01*
X61211024Y31614000D01*
X61108300Y31603506D01*
X61108297Y31603505D01*
X60941880Y31548360D01*
X60941878Y31548359D01*
X60792658Y31456319D01*
X60792654Y31456316D01*
X60668684Y31332346D01*
X60668681Y31332342D01*
X60576641Y31183122D01*
X60576640Y31183121D01*
X60521495Y31016702D01*
X60521494Y31016695D01*
X60511000Y30913982D01*
X59867349Y30913982D01*
X59928951Y30975584D01*
X60011084Y31098505D01*
X60067658Y31235087D01*
X60096500Y31380082D01*
X60096500Y31527917D01*
X60096500Y34713285D01*
X60115454Y34808573D01*
X60169430Y34889355D01*
X60199143Y34914731D01*
X60258365Y34957758D01*
X60414242Y35113635D01*
X60543815Y35291978D01*
X60643895Y35488394D01*
X60712015Y35698049D01*
X60746500Y35915778D01*
X60746500Y36136222D01*
X60712015Y36353951D01*
X60643895Y36563606D01*
X60643891Y36563614D01*
X60643890Y36563617D01*
X60543820Y36760014D01*
X60543816Y36760019D01*
X60543815Y36760022D01*
X60414242Y36938365D01*
X60258365Y37094242D01*
X60080022Y37223815D01*
X60080019Y37223817D01*
X60080013Y37223821D01*
X59883616Y37323891D01*
X59883609Y37323894D01*
X59883606Y37323895D01*
X59673951Y37392015D01*
X59673945Y37392016D01*
X59673938Y37392018D01*
X59456232Y37426499D01*
X59456225Y37426500D01*
X59456222Y37426500D01*
X59235778Y37426500D01*
X59235775Y37426500D01*
X59235767Y37426499D01*
X59018061Y37392018D01*
X59018054Y37392016D01*
X59018052Y37392016D01*
X59018049Y37392015D01*
X58808394Y37323895D01*
X58808392Y37323895D01*
X58808392Y37323894D01*
X58808383Y37323891D01*
X58611986Y37223821D01*
X58611979Y37223816D01*
X58433633Y37094241D01*
X58277759Y36938367D01*
X58148184Y36760021D01*
X58148179Y36760014D01*
X58048109Y36563617D01*
X58048105Y36563608D01*
X58048105Y36563606D01*
X57979985Y36353951D01*
X57979984Y36353948D01*
X57979984Y36353946D01*
X57979982Y36353939D01*
X57945501Y36136233D01*
X57945500Y36136218D01*
X57945500Y35915783D01*
X57945501Y35915768D01*
X57979982Y35698062D01*
X57979984Y35698055D01*
X57979985Y35698049D01*
X58048105Y35488394D01*
X58048106Y35488393D01*
X58048109Y35488384D01*
X58148179Y35291987D01*
X58148184Y35291980D01*
X58277759Y35113634D01*
X58433636Y34957757D01*
X58492857Y34914731D01*
X58558807Y34843388D01*
X58592434Y34752239D01*
X58595500Y34713285D01*
X58595500Y31868008D01*
X58576546Y31772720D01*
X58522570Y31691938D01*
X58118062Y31287430D01*
X58037280Y31233454D01*
X57941992Y31214500D01*
X50615563Y31214500D01*
X50520275Y31233454D01*
X50439493Y31287430D01*
X50412717Y31321295D01*
X50412704Y31321283D01*
X50403707Y31332662D01*
X50279656Y31456712D01*
X50279653Y31456714D01*
X50130334Y31548814D01*
X50130332Y31548815D01*
X50130330Y31548816D01*
X50130332Y31548816D01*
X49963802Y31603998D01*
X49963798Y31603999D01*
X49963797Y31603999D01*
X49861009Y31614500D01*
X49861005Y31614500D01*
X48510993Y31614500D01*
X48408199Y31603999D01*
X48241667Y31548815D01*
X48092341Y31456711D01*
X48092340Y31456710D01*
X48092061Y31456430D01*
X48091584Y31456112D01*
X48080969Y31447718D01*
X48080295Y31448570D01*
X48011277Y31402457D01*
X47915988Y31383508D01*
X47820701Y31402467D01*
X47751703Y31448570D01*
X47751031Y31447718D01*
X47740415Y31456112D01*
X47739939Y31456430D01*
X47739658Y31456711D01*
X47689882Y31487413D01*
X47590334Y31548814D01*
X47590332Y31548815D01*
X47590330Y31548816D01*
X47590332Y31548816D01*
X47423802Y31603998D01*
X47423798Y31603999D01*
X47423797Y31603999D01*
X47321009Y31614500D01*
X47321005Y31614500D01*
X45970993Y31614500D01*
X45868199Y31603999D01*
X45701667Y31548815D01*
X45552346Y31456714D01*
X45428286Y31332654D01*
X45336184Y31183332D01*
X45281002Y31016803D01*
X45281001Y31016796D01*
X45270500Y30914012D01*
X1500500Y30914012D01*
X1500500Y40454218D01*
X9431500Y40454218D01*
X9431500Y40233783D01*
X9431501Y40233768D01*
X9465982Y40016062D01*
X9465984Y40016055D01*
X9465985Y40016049D01*
X9534105Y39806394D01*
X9534106Y39806393D01*
X9534109Y39806384D01*
X9634179Y39609987D01*
X9634183Y39609981D01*
X9634185Y39609978D01*
X9763758Y39431635D01*
X9919635Y39275758D01*
X10097978Y39146185D01*
X10097981Y39146184D01*
X10097986Y39146180D01*
X10294383Y39046110D01*
X10294386Y39046109D01*
X10294394Y39046105D01*
X10504049Y38977985D01*
X10504060Y38977984D01*
X10504061Y38977983D01*
X10564640Y38968389D01*
X10721778Y38943500D01*
X10721782Y38943500D01*
X10942218Y38943500D01*
X10942222Y38943500D01*
X11159951Y38977985D01*
X11369606Y39046105D01*
X11369616Y39046110D01*
X11566013Y39146180D01*
X11566015Y39146182D01*
X11566022Y39146185D01*
X11744365Y39275758D01*
X11900242Y39431635D01*
X12029815Y39609978D01*
X12129895Y39806394D01*
X12198015Y40016049D01*
X12232500Y40233778D01*
X12232500Y40454222D01*
X12198015Y40671951D01*
X12129895Y40881606D01*
X12129891Y40881614D01*
X12129890Y40881617D01*
X12029820Y41078014D01*
X12029816Y41078019D01*
X12029815Y41078022D01*
X11900242Y41256365D01*
X11744365Y41412242D01*
X11566022Y41541815D01*
X11566019Y41541817D01*
X11566013Y41541821D01*
X11369616Y41641891D01*
X11369609Y41641894D01*
X11369606Y41641895D01*
X11159951Y41710015D01*
X11159945Y41710016D01*
X11159938Y41710018D01*
X10942232Y41744499D01*
X10942225Y41744500D01*
X10942222Y41744500D01*
X10721778Y41744500D01*
X10721775Y41744500D01*
X10721767Y41744499D01*
X10504061Y41710018D01*
X10504054Y41710016D01*
X10504052Y41710016D01*
X10504049Y41710015D01*
X10294394Y41641895D01*
X10294392Y41641895D01*
X10294392Y41641894D01*
X10294383Y41641891D01*
X10097986Y41541821D01*
X10097979Y41541816D01*
X9919633Y41412241D01*
X9763759Y41256367D01*
X9634184Y41078021D01*
X9634179Y41078014D01*
X9534109Y40881617D01*
X9534105Y40881608D01*
X9534105Y40881606D01*
X9465985Y40671951D01*
X9465984Y40671948D01*
X9465984Y40671946D01*
X9465982Y40671939D01*
X9431501Y40454233D01*
X9431500Y40454218D01*
X1500500Y40454218D01*
X1500500Y42232218D01*
X5875500Y42232218D01*
X5875500Y42011783D01*
X5875501Y42011768D01*
X5909982Y41794062D01*
X5909984Y41794055D01*
X5909985Y41794049D01*
X5978105Y41584394D01*
X5978106Y41584393D01*
X5978109Y41584384D01*
X6078179Y41387987D01*
X6078183Y41387981D01*
X6078185Y41387978D01*
X6207758Y41209635D01*
X6363635Y41053758D01*
X6541978Y40924185D01*
X6541981Y40924184D01*
X6541986Y40924180D01*
X6738383Y40824110D01*
X6738386Y40824109D01*
X6738394Y40824105D01*
X6948049Y40755985D01*
X6948060Y40755984D01*
X6948061Y40755983D01*
X7008640Y40746389D01*
X7165778Y40721500D01*
X7165782Y40721500D01*
X7386218Y40721500D01*
X7386222Y40721500D01*
X7603951Y40755985D01*
X7813606Y40824105D01*
X7926461Y40881608D01*
X8010013Y40924180D01*
X8010015Y40924182D01*
X8010022Y40924185D01*
X8188365Y41053758D01*
X8344242Y41209635D01*
X8473815Y41387978D01*
X8486179Y41412242D01*
X8573890Y41584384D01*
X8573890Y41584385D01*
X8573895Y41584394D01*
X8642015Y41794049D01*
X8676500Y42011778D01*
X8676500Y42232222D01*
X8642015Y42449951D01*
X8573895Y42659606D01*
X8573891Y42659614D01*
X8573890Y42659617D01*
X8473820Y42856014D01*
X8473816Y42856019D01*
X8473815Y42856022D01*
X8344242Y43034365D01*
X8188365Y43190242D01*
X8010022Y43319815D01*
X8010019Y43319817D01*
X8010013Y43319821D01*
X7813616Y43419891D01*
X7813609Y43419894D01*
X7813606Y43419895D01*
X7603951Y43488015D01*
X7603945Y43488016D01*
X7603938Y43488018D01*
X7386232Y43522499D01*
X7386225Y43522500D01*
X7386222Y43522500D01*
X7165778Y43522500D01*
X7165775Y43522500D01*
X7165767Y43522499D01*
X6948061Y43488018D01*
X6948054Y43488016D01*
X6948052Y43488016D01*
X6948049Y43488015D01*
X6738394Y43419895D01*
X6738392Y43419895D01*
X6738392Y43419894D01*
X6738383Y43419891D01*
X6541986Y43319821D01*
X6541979Y43319816D01*
X6363633Y43190241D01*
X6207759Y43034367D01*
X6078184Y42856021D01*
X6078179Y42856014D01*
X5978109Y42659617D01*
X5978105Y42659608D01*
X5978105Y42659606D01*
X5909985Y42449951D01*
X5909984Y42449948D01*
X5909984Y42449946D01*
X5909982Y42449939D01*
X5875501Y42232233D01*
X5875500Y42232218D01*
X1500500Y42232218D01*
X1500500Y44010218D01*
X9431500Y44010218D01*
X9431500Y43789783D01*
X9431501Y43789768D01*
X9465982Y43572062D01*
X9465984Y43572055D01*
X9465985Y43572049D01*
X9534105Y43362394D01*
X9534106Y43362393D01*
X9534109Y43362384D01*
X9634179Y43165987D01*
X9634183Y43165981D01*
X9634185Y43165978D01*
X9763758Y42987635D01*
X9919635Y42831758D01*
X10097978Y42702185D01*
X10097981Y42702184D01*
X10097986Y42702180D01*
X10294383Y42602110D01*
X10294386Y42602109D01*
X10294394Y42602105D01*
X10504049Y42533985D01*
X10504060Y42533984D01*
X10504061Y42533983D01*
X10564640Y42524389D01*
X10721778Y42499500D01*
X10721782Y42499500D01*
X10942218Y42499500D01*
X10942222Y42499500D01*
X11159951Y42533985D01*
X11369606Y42602105D01*
X11482461Y42659608D01*
X11566013Y42702180D01*
X11566015Y42702182D01*
X11566022Y42702185D01*
X11744365Y42831758D01*
X11900242Y42987635D01*
X12029815Y43165978D01*
X12042179Y43190242D01*
X12129890Y43362384D01*
X12129890Y43362385D01*
X12129895Y43362394D01*
X12198015Y43572049D01*
X12232500Y43789778D01*
X12232500Y44010222D01*
X12198015Y44227951D01*
X12129895Y44437606D01*
X12129891Y44437614D01*
X12129890Y44437617D01*
X12029820Y44634014D01*
X12029816Y44634019D01*
X12029815Y44634022D01*
X11900242Y44812365D01*
X11744365Y44968242D01*
X11566022Y45097815D01*
X11566019Y45097817D01*
X11566013Y45097821D01*
X11369616Y45197891D01*
X11369609Y45197894D01*
X11369606Y45197895D01*
X11159951Y45266015D01*
X11159945Y45266016D01*
X11159938Y45266018D01*
X10942232Y45300499D01*
X10942225Y45300500D01*
X10942222Y45300500D01*
X10721778Y45300500D01*
X10721775Y45300500D01*
X10721767Y45300499D01*
X10504061Y45266018D01*
X10504054Y45266016D01*
X10504052Y45266016D01*
X10504049Y45266015D01*
X10294394Y45197895D01*
X10294392Y45197895D01*
X10294392Y45197894D01*
X10294383Y45197891D01*
X10097986Y45097821D01*
X10097979Y45097816D01*
X9919633Y44968241D01*
X9763759Y44812367D01*
X9634184Y44634021D01*
X9634179Y44634014D01*
X9534109Y44437617D01*
X9534105Y44437608D01*
X9534105Y44437606D01*
X9465985Y44227951D01*
X9465984Y44227948D01*
X9465984Y44227946D01*
X9465982Y44227939D01*
X9431501Y44010233D01*
X9431500Y44010218D01*
X1500500Y44010218D01*
X1500500Y45937000D01*
X1519454Y46032288D01*
X1573430Y46113070D01*
X1654212Y46167046D01*
X1749500Y46186000D01*
X5751999Y46186000D01*
X5752000Y46186000D01*
X5752000Y48196471D01*
X5770954Y48291759D01*
X5824930Y48372541D01*
X5905712Y48426517D01*
X6001000Y48445471D01*
X6020537Y48444703D01*
X6124931Y48436487D01*
X6833861Y49145416D01*
X6856667Y49060306D01*
X6915910Y48957694D01*
X6999694Y48873910D01*
X7102306Y48814667D01*
X7187414Y48791862D01*
X6478486Y48082933D01*
X6542236Y48036616D01*
X6738586Y47936570D01*
X6738593Y47936567D01*
X6948168Y47868473D01*
X7165808Y47834001D01*
X7165821Y47834000D01*
X7386179Y47834000D01*
X7386191Y47834001D01*
X7603831Y47868473D01*
X7813406Y47936567D01*
X7813413Y47936570D01*
X8009763Y48036616D01*
X8073512Y48082933D01*
X8073512Y48082934D01*
X7364584Y48791862D01*
X7449694Y48814667D01*
X7552306Y48873910D01*
X7636090Y48957694D01*
X7695333Y49060306D01*
X7718138Y49145416D01*
X8427066Y48436488D01*
X8427067Y48436488D01*
X8473384Y48500237D01*
X8573430Y48696587D01*
X8573433Y48696594D01*
X8641527Y48906169D01*
X8675999Y49123809D01*
X8676000Y49123821D01*
X8676000Y49344180D01*
X8675999Y49344192D01*
X8641527Y49561832D01*
X8573433Y49771407D01*
X8573430Y49771414D01*
X8473384Y49967764D01*
X8448874Y50001500D01*
X8397054Y50001500D01*
X7718138Y49322585D01*
X7695333Y49407694D01*
X7636090Y49510306D01*
X7552306Y49594090D01*
X7449694Y49653333D01*
X7364584Y49676139D01*
X8115014Y50426569D01*
X8195796Y50480546D01*
X8291084Y50499500D01*
X9531636Y50499500D01*
X9626924Y50480546D01*
G37*
%TD.AperFunction*%
%TA.AperFunction,Conductor*%
G36*
X18240075Y24026993D02*
G01*
X18206000Y23899826D01*
X18206000Y23768174D01*
X18240075Y23641007D01*
X18272988Y23584000D01*
X16599012Y23584000D01*
X16631925Y23641007D01*
X16666000Y23768174D01*
X16666000Y23899826D01*
X16631925Y24026993D01*
X16599012Y24084000D01*
X18272988Y24084000D01*
X18240075Y24026993D01*
G37*
%TD.AperFunction*%
%TD*%
M02*
