%TF.GenerationSoftware,KiCad,Pcbnew,8.0.6*%
%TF.CreationDate,2024-11-07T15:55:19+02:00*%
%TF.ProjectId,Cronus,43726f6e-7573-42e6-9b69-6361645f7063,rev?*%
%TF.SameCoordinates,PX649cd60PY6c7aff0*%
%TF.FileFunction,Soldermask,Bot*%
%TF.FilePolarity,Negative*%
%FSLAX46Y46*%
G04 Gerber Fmt 4.6, Leading zero omitted, Abs format (unit mm)*
G04 Created by KiCad (PCBNEW 8.0.6) date 2024-11-07 15:55:19*
%MOMM*%
%LPD*%
G01*
G04 APERTURE LIST*
G04 Aperture macros list*
%AMRoundRect*
0 Rectangle with rounded corners*
0 $1 Rounding radius*
0 $2 $3 $4 $5 $6 $7 $8 $9 X,Y pos of 4 corners*
0 Add a 4 corners polygon primitive as box body*
4,1,4,$2,$3,$4,$5,$6,$7,$8,$9,$2,$3,0*
0 Add four circle primitives for the rounded corners*
1,1,$1+$1,$2,$3*
1,1,$1+$1,$4,$5*
1,1,$1+$1,$6,$7*
1,1,$1+$1,$8,$9*
0 Add four rect primitives between the rounded corners*
20,1,$1+$1,$2,$3,$4,$5,0*
20,1,$1+$1,$4,$5,$6,$7,0*
20,1,$1+$1,$6,$7,$8,$9,0*
20,1,$1+$1,$8,$9,$2,$3,0*%
G04 Aperture macros list end*
%ADD10C,2.200000*%
%ADD11C,1.800000*%
%ADD12R,1.600000X1.600000*%
%ADD13RoundRect,0.250000X-0.400000X-0.625000X0.400000X-0.625000X0.400000X0.625000X-0.400000X0.625000X0*%
%ADD14RoundRect,0.250000X0.400000X0.625000X-0.400000X0.625000X-0.400000X-0.625000X0.400000X-0.625000X0*%
G04 APERTURE END LIST*
D10*
%TO.C,H1*%
X3000000Y49000000D03*
%TD*%
D11*
%TO.C,J3*%
X5080000Y27940000D03*
%TD*%
D10*
%TO.C,H3*%
X3000000Y3000000D03*
%TD*%
D12*
%TO.C,U1*%
X63540000Y49650000D03*
X61000000Y49650000D03*
X58460000Y49650000D03*
X55920000Y49650000D03*
X53380000Y49650000D03*
X50840000Y49650000D03*
X48300000Y49650000D03*
X45760000Y49650000D03*
X43220000Y49650000D03*
X40680000Y49650000D03*
X38140000Y49650000D03*
X35600000Y49650000D03*
X33060000Y49650000D03*
X30520000Y49650000D03*
X27980000Y49650000D03*
X25440000Y49650000D03*
X22900000Y49650000D03*
X20360000Y49650000D03*
X17820000Y49650000D03*
X15280000Y49650000D03*
X12740000Y49650000D03*
X10200000Y49650000D03*
X10200000Y24250000D03*
X12740000Y24250000D03*
X15280000Y24250000D03*
X17820000Y24250000D03*
X20360000Y24250000D03*
X22900000Y24250000D03*
X25440000Y24250000D03*
X27980000Y24250000D03*
X30520000Y24250000D03*
X33060000Y24250000D03*
X35600000Y24250000D03*
X38140000Y24250000D03*
X40680000Y24250000D03*
X43220000Y24250000D03*
X45760000Y24250000D03*
X48300000Y24250000D03*
X50840000Y24250000D03*
X53380000Y24250000D03*
X55920000Y24250000D03*
X58460000Y24250000D03*
X61000000Y24250000D03*
X63540000Y24250000D03*
%TD*%
D11*
%TO.C,J7*%
X67167000Y12700000D03*
%TD*%
D12*
%TO.C,U2*%
X27940000Y17830000D03*
X27940000Y15290000D03*
X27940000Y12750000D03*
X27940000Y10210000D03*
X27940000Y7670000D03*
X27940000Y5130000D03*
X63500000Y7670000D03*
X63500000Y10210000D03*
X63500000Y12750000D03*
X63500000Y15290000D03*
%TD*%
D10*
%TO.C,H4*%
X69000000Y3000000D03*
%TD*%
D11*
%TO.C,J6*%
X67183000Y15240000D03*
%TD*%
%TO.C,J1*%
X5080000Y43180000D03*
%TD*%
%TO.C,J2*%
X5080000Y40640000D03*
%TD*%
%TO.C,J4*%
X5080000Y30480000D03*
%TD*%
%TO.C,J5*%
X5080000Y33020000D03*
%TD*%
D10*
%TO.C,H2*%
X69000000Y49000000D03*
%TD*%
D13*
%TO.C,R2*%
X31950000Y15250000D03*
X35050000Y15250000D03*
%TD*%
D14*
%TO.C,R1*%
X52800000Y12750000D03*
X49700000Y12750000D03*
%TD*%
D13*
%TO.C,R3*%
X55965000Y15313000D03*
X59065000Y15313000D03*
%TD*%
M02*
