M48
; DRILL file {KiCad 8.0.5} date 2024-10-13T13:53:09+0300
; FORMAT={-:-/ absolute / metric / decimal}
; #@! TF.CreationDate,2024-10-13T13:53:09+03:00
; #@! TF.GenerationSoftware,Kicad,Pcbnew,8.0.5
; #@! TF.FileFunction,Plated,1,2,PTH
FMAT,2
METRIC
; #@! TA.AperFunction,Plated,PTH,ComponentDrill
T1C1.000
%
G90
G05
T1
X4.75Y37.55
X4.75Y43.75
X4.75Y35.01
X4.75Y32.47
X4.75Y23.25
X9.2Y48.65
X9.2Y23.25
X11.74Y48.65
X11.74Y23.25
X14.28Y48.65
X14.28Y23.25
X16.82Y48.65
X16.82Y23.25
X19.36Y48.65
X19.36Y23.25
X21.9Y48.65
X21.9Y23.25
X24.44Y48.65
X24.44Y23.25
X26.94Y16.83
X26.94Y14.29
X26.94Y11.75
X26.94Y9.21
X26.94Y6.67
X26.94Y4.13
X26.98Y48.65
X26.98Y23.25
X29.52Y48.65
X29.52Y23.25
X32.06Y48.65
X32.06Y23.25
X34.6Y48.65
X34.6Y23.25
X37.14Y48.65
X37.14Y23.25
X39.68Y48.65
X39.68Y23.25
X42.22Y48.65
X42.22Y23.25
X44.76Y48.65
X44.76Y23.25
X47.3Y48.65
X47.3Y23.25
X49.84Y48.65
X49.84Y23.25
X52.38Y48.65
X52.38Y23.25
X54.92Y48.65
X54.92Y23.25
X57.46Y48.65
X57.46Y23.25
X60.0Y48.65
X60.0Y23.25
X62.5Y14.29
X62.5Y11.75
X62.5Y9.21
X62.5Y6.67
X62.54Y48.65
X62.54Y23.25
X66.204Y14.309
X66.204Y11.75
M30
