%TF.GenerationSoftware,KiCad,Pcbnew,9.0.4*%
%TF.CreationDate,2025-09-21T14:35:17+03:00*%
%TF.ProjectId,Cronus,43726f6e-7573-42e6-9b69-6361645f7063,rev?*%
%TF.SameCoordinates,PX649cd60PY6c7aff0*%
%TF.FileFunction,Drillmap*%
%TF.FilePolarity,Positive*%
%FSLAX45Y45*%
G04 Gerber Fmt 4.5, Leading zero omitted, Abs format (unit mm)*
G04 Created by KiCad (PCBNEW 9.0.4) date 2025-09-21 14:35:17*
%MOMM*%
%LPD*%
G01*
G04 APERTURE LIST*
%ADD10C,0.200000*%
%ADD11C,0.100000*%
%ADD12C,0.220000*%
G04 APERTURE END LIST*
D10*
X100000Y5100000D02*
X7100000Y5100000D01*
X7100000Y100000D01*
X100000Y100000D01*
X100000Y5100000D01*
D11*
X5889600Y3647600D02*
X5979600Y3557600D01*
X5979600Y3647600D02*
X5889600Y3557600D01*
X772600Y4923400D02*
G75*
G02*
X682600Y4923400I-45000J0D01*
G01*
X682600Y4923400D02*
G75*
G02*
X772600Y4923400I45000J0D01*
G01*
X772600Y4212200D02*
G75*
G02*
X682600Y4212200I-45000J0D01*
G01*
X682600Y4212200D02*
G75*
G02*
X772600Y4212200I45000J0D01*
G01*
X1128200Y4923400D02*
G75*
G02*
X1038200Y4923400I-45000J0D01*
G01*
X1038200Y4923400D02*
G75*
G02*
X1128200Y4923400I45000J0D01*
G01*
X1128200Y4390000D02*
G75*
G02*
X1038200Y4390000I-45000J0D01*
G01*
X1038200Y4390000D02*
G75*
G02*
X1128200Y4390000I45000J0D01*
G01*
X1128200Y4034400D02*
G75*
G02*
X1038200Y4034400I-45000J0D01*
G01*
X1038200Y4034400D02*
G75*
G02*
X1128200Y4034400I45000J0D01*
G01*
X6919400Y1570600D02*
G75*
G02*
X6829400Y1570600I-45000J0D01*
G01*
X6829400Y1570600D02*
G75*
G02*
X6919400Y1570600I45000J0D01*
G01*
X6919400Y1291200D02*
G75*
G02*
X6829400Y1291200I-45000J0D01*
G01*
X6829400Y1291200D02*
G75*
G02*
X6919400Y1291200I45000J0D01*
G01*
X1616600Y4973400D02*
X1616600Y4873400D01*
X1566600Y4923400D02*
X1666600Y4923400D01*
X1616600Y2433400D02*
X1616600Y2333400D01*
X1566600Y2383400D02*
X1666600Y2383400D01*
X1870600Y4973400D02*
X1870600Y4873400D01*
X1820600Y4923400D02*
X1920600Y4923400D01*
X1870600Y2433400D02*
X1870600Y2333400D01*
X1820600Y2383400D02*
X1920600Y2383400D01*
X2124600Y4973400D02*
X2124600Y4873400D01*
X2074600Y4923400D02*
X2174600Y4923400D01*
X2124600Y2433400D02*
X2124600Y2333400D01*
X2074600Y2383400D02*
X2174600Y2383400D01*
X2378600Y4973400D02*
X2378600Y4873400D01*
X2328600Y4923400D02*
X2428600Y4923400D01*
X2378600Y2433400D02*
X2378600Y2333400D01*
X2328600Y2383400D02*
X2428600Y2383400D01*
X2632600Y4973400D02*
X2632600Y4873400D01*
X2582600Y4923400D02*
X2682600Y4923400D01*
X2632600Y2433400D02*
X2632600Y2333400D01*
X2582600Y2383400D02*
X2682600Y2383400D01*
X2886600Y4973400D02*
X2886600Y4873400D01*
X2836600Y4923400D02*
X2936600Y4923400D01*
X2886600Y2433400D02*
X2886600Y2333400D01*
X2836600Y2383400D02*
X2936600Y2383400D01*
X3013600Y1849200D02*
X3013600Y1749200D01*
X2963600Y1799200D02*
X3063600Y1799200D01*
X3013600Y1595200D02*
X3013600Y1495200D01*
X2963600Y1545200D02*
X3063600Y1545200D01*
X3013600Y1341200D02*
X3013600Y1241200D01*
X2963600Y1291200D02*
X3063600Y1291200D01*
X3013600Y1087200D02*
X3013600Y987200D01*
X2963600Y1037200D02*
X3063600Y1037200D01*
X3013600Y833200D02*
X3013600Y733200D01*
X2963600Y783200D02*
X3063600Y783200D01*
X3013600Y579200D02*
X3013600Y479200D01*
X2963600Y529200D02*
X3063600Y529200D01*
X3140600Y4973400D02*
X3140600Y4873400D01*
X3090600Y4923400D02*
X3190600Y4923400D01*
X3140600Y2433400D02*
X3140600Y2333400D01*
X3090600Y2383400D02*
X3190600Y2383400D01*
X3394600Y4973400D02*
X3394600Y4873400D01*
X3344600Y4923400D02*
X3444600Y4923400D01*
X3394600Y2433400D02*
X3394600Y2333400D01*
X3344600Y2383400D02*
X3444600Y2383400D01*
X3648600Y4973400D02*
X3648600Y4873400D01*
X3598600Y4923400D02*
X3698600Y4923400D01*
X3648600Y2433400D02*
X3648600Y2333400D01*
X3598600Y2383400D02*
X3698600Y2383400D01*
X3902600Y4973400D02*
X3902600Y4873400D01*
X3852600Y4923400D02*
X3952600Y4923400D01*
X3902600Y2433400D02*
X3902600Y2333400D01*
X3852600Y2383400D02*
X3952600Y2383400D01*
X4156600Y4973400D02*
X4156600Y4873400D01*
X4106600Y4923400D02*
X4206600Y4923400D01*
X4156600Y2433400D02*
X4156600Y2333400D01*
X4106600Y2383400D02*
X4206600Y2383400D01*
X4410600Y4973400D02*
X4410600Y4873400D01*
X4360600Y4923400D02*
X4460600Y4923400D01*
X4410600Y2433400D02*
X4410600Y2333400D01*
X4360600Y2383400D02*
X4460600Y2383400D01*
X4664600Y4973400D02*
X4664600Y4873400D01*
X4614600Y4923400D02*
X4714600Y4923400D01*
X4664600Y2433400D02*
X4664600Y2333400D01*
X4614600Y2383400D02*
X4714600Y2383400D01*
X4918600Y4973400D02*
X4918600Y4873400D01*
X4868600Y4923400D02*
X4968600Y4923400D01*
X4918600Y2433400D02*
X4918600Y2333400D01*
X4868600Y2383400D02*
X4968600Y2383400D01*
X5172600Y4973400D02*
X5172600Y4873400D01*
X5122600Y4923400D02*
X5222600Y4923400D01*
X5172600Y2433400D02*
X5172600Y2333400D01*
X5122600Y2383400D02*
X5222600Y2383400D01*
X5426600Y4973400D02*
X5426600Y4873400D01*
X5376600Y4923400D02*
X5476600Y4923400D01*
X5426600Y2433400D02*
X5426600Y2333400D01*
X5376600Y2383400D02*
X5476600Y2383400D01*
X5680600Y4973400D02*
X5680600Y4873400D01*
X5630600Y4923400D02*
X5730600Y4923400D01*
X5680600Y2433400D02*
X5680600Y2333400D01*
X5630600Y2383400D02*
X5730600Y2383400D01*
X5934600Y4973400D02*
X5934600Y4873400D01*
X5884600Y4923400D02*
X5984600Y4923400D01*
X5934600Y2433400D02*
X5934600Y2333400D01*
X5884600Y2383400D02*
X5984600Y2383400D01*
X6188600Y4973400D02*
X6188600Y4873400D01*
X6138600Y4923400D02*
X6238600Y4923400D01*
X6188600Y2433400D02*
X6188600Y2333400D01*
X6138600Y2383400D02*
X6238600Y2383400D01*
X6442600Y4973400D02*
X6442600Y4873400D01*
X6392600Y4923400D02*
X6492600Y4923400D01*
X6442600Y2433400D02*
X6442600Y2333400D01*
X6392600Y2383400D02*
X6492600Y2383400D01*
X6514600Y1595200D02*
X6514600Y1495200D01*
X6464600Y1545200D02*
X6564600Y1545200D01*
X6514600Y1341200D02*
X6514600Y1241200D01*
X6464600Y1291200D02*
X6564600Y1291200D01*
X6514600Y1087200D02*
X6514600Y987200D01*
X6464600Y1037200D02*
X6564600Y1037200D01*
X6514600Y833200D02*
X6514600Y733200D01*
X6464600Y783200D02*
X6564600Y783200D01*
X6696600Y4973400D02*
X6696600Y4873400D01*
X6646600Y4923400D02*
X6746600Y4923400D01*
X6696600Y2433400D02*
X6696600Y2333400D01*
X6646600Y2383400D02*
X6746600Y2383400D01*
X6950600Y4973400D02*
X6950600Y4873400D01*
X6900600Y4923400D02*
X7000600Y4923400D01*
X6950600Y2433400D02*
X6950600Y2333400D01*
X6900600Y2383400D02*
X7000600Y2383400D01*
D12*
X377782Y4822218D02*
X377782Y4977783D01*
X222217Y4977783D01*
X222217Y4822218D01*
X377782Y4822218D01*
X377782Y222217D02*
X377782Y377782D01*
X222217Y377782D01*
X222217Y222217D01*
X377782Y222217D01*
X6977782Y222217D02*
X6977782Y377782D01*
X6822217Y377782D01*
X6822217Y222217D01*
X6977782Y222217D01*
D10*
X350777Y-221484D02*
X350777Y-21484D01*
X350777Y-21484D02*
X398396Y-21484D01*
X398396Y-21484D02*
X426967Y-31008D01*
X426967Y-31008D02*
X446015Y-50055D01*
X446015Y-50055D02*
X455539Y-69103D01*
X455539Y-69103D02*
X465062Y-107198D01*
X465062Y-107198D02*
X465062Y-135770D01*
X465062Y-135770D02*
X455539Y-173865D01*
X455539Y-173865D02*
X446015Y-192912D01*
X446015Y-192912D02*
X426967Y-211960D01*
X426967Y-211960D02*
X398396Y-221484D01*
X398396Y-221484D02*
X350777Y-221484D01*
X550777Y-221484D02*
X550777Y-88150D01*
X550777Y-126246D02*
X560301Y-107198D01*
X560301Y-107198D02*
X569824Y-97674D01*
X569824Y-97674D02*
X588872Y-88150D01*
X588872Y-88150D02*
X607920Y-88150D01*
X674586Y-221484D02*
X674586Y-88150D01*
X674586Y-21484D02*
X665063Y-31008D01*
X665063Y-31008D02*
X674586Y-40531D01*
X674586Y-40531D02*
X684110Y-31008D01*
X684110Y-31008D02*
X674586Y-21484D01*
X674586Y-21484D02*
X674586Y-40531D01*
X798396Y-221484D02*
X779348Y-211960D01*
X779348Y-211960D02*
X769824Y-192912D01*
X769824Y-192912D02*
X769824Y-21484D01*
X903158Y-221484D02*
X884110Y-211960D01*
X884110Y-211960D02*
X874586Y-192912D01*
X874586Y-192912D02*
X874586Y-21484D01*
X1131729Y-221484D02*
X1131729Y-21484D01*
X1131729Y-21484D02*
X1198396Y-164341D01*
X1198396Y-164341D02*
X1265063Y-21484D01*
X1265063Y-21484D02*
X1265063Y-221484D01*
X1446015Y-221484D02*
X1446015Y-116722D01*
X1446015Y-116722D02*
X1436491Y-97674D01*
X1436491Y-97674D02*
X1417443Y-88150D01*
X1417443Y-88150D02*
X1379348Y-88150D01*
X1379348Y-88150D02*
X1360301Y-97674D01*
X1446015Y-211960D02*
X1426967Y-221484D01*
X1426967Y-221484D02*
X1379348Y-221484D01*
X1379348Y-221484D02*
X1360301Y-211960D01*
X1360301Y-211960D02*
X1350777Y-192912D01*
X1350777Y-192912D02*
X1350777Y-173865D01*
X1350777Y-173865D02*
X1360301Y-154817D01*
X1360301Y-154817D02*
X1379348Y-145293D01*
X1379348Y-145293D02*
X1426967Y-145293D01*
X1426967Y-145293D02*
X1446015Y-135770D01*
X1541253Y-88150D02*
X1541253Y-288150D01*
X1541253Y-97674D02*
X1560301Y-88150D01*
X1560301Y-88150D02*
X1598396Y-88150D01*
X1598396Y-88150D02*
X1617443Y-97674D01*
X1617443Y-97674D02*
X1626967Y-107198D01*
X1626967Y-107198D02*
X1636491Y-126246D01*
X1636491Y-126246D02*
X1636491Y-183388D01*
X1636491Y-183388D02*
X1626967Y-202436D01*
X1626967Y-202436D02*
X1617443Y-211960D01*
X1617443Y-211960D02*
X1598396Y-221484D01*
X1598396Y-221484D02*
X1560301Y-221484D01*
X1560301Y-221484D02*
X1541253Y-211960D01*
X1722205Y-202436D02*
X1731729Y-211960D01*
X1731729Y-211960D02*
X1722205Y-221484D01*
X1722205Y-221484D02*
X1712682Y-211960D01*
X1712682Y-211960D02*
X1722205Y-202436D01*
X1722205Y-202436D02*
X1722205Y-221484D01*
X1722205Y-97674D02*
X1731729Y-107198D01*
X1731729Y-107198D02*
X1722205Y-116722D01*
X1722205Y-116722D02*
X1712682Y-107198D01*
X1712682Y-107198D02*
X1722205Y-97674D01*
X1722205Y-97674D02*
X1722205Y-116722D01*
D11*
X0Y-505000D02*
X90000Y-595000D01*
X90000Y-505000D02*
X0Y-595000D01*
D10*
X388872Y-441484D02*
X407920Y-441484D01*
X407920Y-441484D02*
X426967Y-451008D01*
X426967Y-451008D02*
X436491Y-460531D01*
X436491Y-460531D02*
X446015Y-479579D01*
X446015Y-479579D02*
X455539Y-517674D01*
X455539Y-517674D02*
X455539Y-565293D01*
X455539Y-565293D02*
X446015Y-603389D01*
X446015Y-603389D02*
X436491Y-622436D01*
X436491Y-622436D02*
X426967Y-631960D01*
X426967Y-631960D02*
X407920Y-641484D01*
X407920Y-641484D02*
X388872Y-641484D01*
X388872Y-641484D02*
X369824Y-631960D01*
X369824Y-631960D02*
X360301Y-622436D01*
X360301Y-622436D02*
X350777Y-603389D01*
X350777Y-603389D02*
X341253Y-565293D01*
X341253Y-565293D02*
X341253Y-517674D01*
X341253Y-517674D02*
X350777Y-479579D01*
X350777Y-479579D02*
X360301Y-460531D01*
X360301Y-460531D02*
X369824Y-451008D01*
X369824Y-451008D02*
X388872Y-441484D01*
X541253Y-622436D02*
X550777Y-631960D01*
X550777Y-631960D02*
X541253Y-641484D01*
X541253Y-641484D02*
X531729Y-631960D01*
X531729Y-631960D02*
X541253Y-622436D01*
X541253Y-622436D02*
X541253Y-641484D01*
X646015Y-641484D02*
X684110Y-641484D01*
X684110Y-641484D02*
X703158Y-631960D01*
X703158Y-631960D02*
X712682Y-622436D01*
X712682Y-622436D02*
X731729Y-593865D01*
X731729Y-593865D02*
X741253Y-555770D01*
X741253Y-555770D02*
X741253Y-479579D01*
X741253Y-479579D02*
X731729Y-460531D01*
X731729Y-460531D02*
X722205Y-451008D01*
X722205Y-451008D02*
X703158Y-441484D01*
X703158Y-441484D02*
X665063Y-441484D01*
X665063Y-441484D02*
X646015Y-451008D01*
X646015Y-451008D02*
X636491Y-460531D01*
X636491Y-460531D02*
X626967Y-479579D01*
X626967Y-479579D02*
X626967Y-527198D01*
X626967Y-527198D02*
X636491Y-546246D01*
X636491Y-546246D02*
X646015Y-555770D01*
X646015Y-555770D02*
X665063Y-565293D01*
X665063Y-565293D02*
X703158Y-565293D01*
X703158Y-565293D02*
X722205Y-555770D01*
X722205Y-555770D02*
X731729Y-546246D01*
X731729Y-546246D02*
X741253Y-527198D01*
X865062Y-441484D02*
X884110Y-441484D01*
X884110Y-441484D02*
X903158Y-451008D01*
X903158Y-451008D02*
X912682Y-460531D01*
X912682Y-460531D02*
X922205Y-479579D01*
X922205Y-479579D02*
X931729Y-517674D01*
X931729Y-517674D02*
X931729Y-565293D01*
X931729Y-565293D02*
X922205Y-603389D01*
X922205Y-603389D02*
X912682Y-622436D01*
X912682Y-622436D02*
X903158Y-631960D01*
X903158Y-631960D02*
X884110Y-641484D01*
X884110Y-641484D02*
X865062Y-641484D01*
X865062Y-641484D02*
X846015Y-631960D01*
X846015Y-631960D02*
X836491Y-622436D01*
X836491Y-622436D02*
X826967Y-603389D01*
X826967Y-603389D02*
X817443Y-565293D01*
X817443Y-565293D02*
X817443Y-517674D01*
X817443Y-517674D02*
X826967Y-479579D01*
X826967Y-479579D02*
X836491Y-460531D01*
X836491Y-460531D02*
X846015Y-451008D01*
X846015Y-451008D02*
X865062Y-441484D01*
X1055539Y-441484D02*
X1074586Y-441484D01*
X1074586Y-441484D02*
X1093634Y-451008D01*
X1093634Y-451008D02*
X1103158Y-460531D01*
X1103158Y-460531D02*
X1112682Y-479579D01*
X1112682Y-479579D02*
X1122205Y-517674D01*
X1122205Y-517674D02*
X1122205Y-565293D01*
X1122205Y-565293D02*
X1112682Y-603389D01*
X1112682Y-603389D02*
X1103158Y-622436D01*
X1103158Y-622436D02*
X1093634Y-631960D01*
X1093634Y-631960D02*
X1074586Y-641484D01*
X1074586Y-641484D02*
X1055539Y-641484D01*
X1055539Y-641484D02*
X1036491Y-631960D01*
X1036491Y-631960D02*
X1026967Y-622436D01*
X1026967Y-622436D02*
X1017443Y-603389D01*
X1017443Y-603389D02*
X1007920Y-565293D01*
X1007920Y-565293D02*
X1007920Y-517674D01*
X1007920Y-517674D02*
X1017443Y-479579D01*
X1017443Y-479579D02*
X1026967Y-460531D01*
X1026967Y-460531D02*
X1036491Y-451008D01*
X1036491Y-451008D02*
X1055539Y-441484D01*
X1207920Y-641484D02*
X1207920Y-508150D01*
X1207920Y-527198D02*
X1217444Y-517674D01*
X1217444Y-517674D02*
X1236491Y-508150D01*
X1236491Y-508150D02*
X1265063Y-508150D01*
X1265063Y-508150D02*
X1284110Y-517674D01*
X1284110Y-517674D02*
X1293634Y-536722D01*
X1293634Y-536722D02*
X1293634Y-641484D01*
X1293634Y-536722D02*
X1303158Y-517674D01*
X1303158Y-517674D02*
X1322205Y-508150D01*
X1322205Y-508150D02*
X1350777Y-508150D01*
X1350777Y-508150D02*
X1369825Y-517674D01*
X1369825Y-517674D02*
X1379348Y-536722D01*
X1379348Y-536722D02*
X1379348Y-641484D01*
X1474586Y-641484D02*
X1474586Y-508150D01*
X1474586Y-527198D02*
X1484110Y-517674D01*
X1484110Y-517674D02*
X1503158Y-508150D01*
X1503158Y-508150D02*
X1531729Y-508150D01*
X1531729Y-508150D02*
X1550777Y-517674D01*
X1550777Y-517674D02*
X1560301Y-536722D01*
X1560301Y-536722D02*
X1560301Y-641484D01*
X1560301Y-536722D02*
X1569824Y-517674D01*
X1569824Y-517674D02*
X1588872Y-508150D01*
X1588872Y-508150D02*
X1617443Y-508150D01*
X1617443Y-508150D02*
X1636491Y-517674D01*
X1636491Y-517674D02*
X1646015Y-536722D01*
X1646015Y-536722D02*
X1646015Y-641484D01*
X2036491Y-431960D02*
X1865063Y-689103D01*
X2293634Y-441484D02*
X2312682Y-441484D01*
X2312682Y-441484D02*
X2331729Y-451008D01*
X2331729Y-451008D02*
X2341253Y-460531D01*
X2341253Y-460531D02*
X2350777Y-479579D01*
X2350777Y-479579D02*
X2360301Y-517674D01*
X2360301Y-517674D02*
X2360301Y-565293D01*
X2360301Y-565293D02*
X2350777Y-603389D01*
X2350777Y-603389D02*
X2341253Y-622436D01*
X2341253Y-622436D02*
X2331729Y-631960D01*
X2331729Y-631960D02*
X2312682Y-641484D01*
X2312682Y-641484D02*
X2293634Y-641484D01*
X2293634Y-641484D02*
X2274587Y-631960D01*
X2274587Y-631960D02*
X2265063Y-622436D01*
X2265063Y-622436D02*
X2255539Y-603389D01*
X2255539Y-603389D02*
X2246015Y-565293D01*
X2246015Y-565293D02*
X2246015Y-517674D01*
X2246015Y-517674D02*
X2255539Y-479579D01*
X2255539Y-479579D02*
X2265063Y-460531D01*
X2265063Y-460531D02*
X2274587Y-451008D01*
X2274587Y-451008D02*
X2293634Y-441484D01*
X2446015Y-622436D02*
X2455539Y-631960D01*
X2455539Y-631960D02*
X2446015Y-641484D01*
X2446015Y-641484D02*
X2436491Y-631960D01*
X2436491Y-631960D02*
X2446015Y-622436D01*
X2446015Y-622436D02*
X2446015Y-641484D01*
X2579348Y-441484D02*
X2598396Y-441484D01*
X2598396Y-441484D02*
X2617444Y-451008D01*
X2617444Y-451008D02*
X2626968Y-460531D01*
X2626968Y-460531D02*
X2636491Y-479579D01*
X2636491Y-479579D02*
X2646015Y-517674D01*
X2646015Y-517674D02*
X2646015Y-565293D01*
X2646015Y-565293D02*
X2636491Y-603389D01*
X2636491Y-603389D02*
X2626968Y-622436D01*
X2626968Y-622436D02*
X2617444Y-631960D01*
X2617444Y-631960D02*
X2598396Y-641484D01*
X2598396Y-641484D02*
X2579348Y-641484D01*
X2579348Y-641484D02*
X2560301Y-631960D01*
X2560301Y-631960D02*
X2550777Y-622436D01*
X2550777Y-622436D02*
X2541253Y-603389D01*
X2541253Y-603389D02*
X2531729Y-565293D01*
X2531729Y-565293D02*
X2531729Y-517674D01*
X2531729Y-517674D02*
X2541253Y-479579D01*
X2541253Y-479579D02*
X2550777Y-460531D01*
X2550777Y-460531D02*
X2560301Y-451008D01*
X2560301Y-451008D02*
X2579348Y-441484D01*
X2712682Y-441484D02*
X2836491Y-441484D01*
X2836491Y-441484D02*
X2769825Y-517674D01*
X2769825Y-517674D02*
X2798396Y-517674D01*
X2798396Y-517674D02*
X2817444Y-527198D01*
X2817444Y-527198D02*
X2826967Y-536722D01*
X2826967Y-536722D02*
X2836491Y-555770D01*
X2836491Y-555770D02*
X2836491Y-603389D01*
X2836491Y-603389D02*
X2826967Y-622436D01*
X2826967Y-622436D02*
X2817444Y-631960D01*
X2817444Y-631960D02*
X2798396Y-641484D01*
X2798396Y-641484D02*
X2741253Y-641484D01*
X2741253Y-641484D02*
X2722206Y-631960D01*
X2722206Y-631960D02*
X2712682Y-622436D01*
X3017444Y-441484D02*
X2922206Y-441484D01*
X2922206Y-441484D02*
X2912682Y-536722D01*
X2912682Y-536722D02*
X2922206Y-527198D01*
X2922206Y-527198D02*
X2941253Y-517674D01*
X2941253Y-517674D02*
X2988872Y-517674D01*
X2988872Y-517674D02*
X3007920Y-527198D01*
X3007920Y-527198D02*
X3017444Y-536722D01*
X3017444Y-536722D02*
X3026967Y-555770D01*
X3026967Y-555770D02*
X3026967Y-603389D01*
X3026967Y-603389D02*
X3017444Y-622436D01*
X3017444Y-622436D02*
X3007920Y-631960D01*
X3007920Y-631960D02*
X2988872Y-641484D01*
X2988872Y-641484D02*
X2941253Y-641484D01*
X2941253Y-641484D02*
X2922206Y-631960D01*
X2922206Y-631960D02*
X2912682Y-622436D01*
X3198396Y-508150D02*
X3198396Y-641484D01*
X3150777Y-431960D02*
X3103158Y-574817D01*
X3103158Y-574817D02*
X3226967Y-574817D01*
X3293634Y-441484D02*
X3293634Y-479579D01*
X3369825Y-441484D02*
X3369825Y-479579D01*
X3665063Y-717674D02*
X3655539Y-708150D01*
X3655539Y-708150D02*
X3636491Y-679579D01*
X3636491Y-679579D02*
X3626968Y-660531D01*
X3626968Y-660531D02*
X3617444Y-631960D01*
X3617444Y-631960D02*
X3607920Y-584341D01*
X3607920Y-584341D02*
X3607920Y-546246D01*
X3607920Y-546246D02*
X3617444Y-498627D01*
X3617444Y-498627D02*
X3626968Y-470055D01*
X3626968Y-470055D02*
X3636491Y-451008D01*
X3636491Y-451008D02*
X3655539Y-422436D01*
X3655539Y-422436D02*
X3665063Y-412912D01*
X3846015Y-641484D02*
X3731729Y-641484D01*
X3788872Y-641484D02*
X3788872Y-441484D01*
X3788872Y-441484D02*
X3769825Y-470055D01*
X3769825Y-470055D02*
X3750777Y-489103D01*
X3750777Y-489103D02*
X3731729Y-498627D01*
X4084110Y-641484D02*
X4084110Y-441484D01*
X4169825Y-641484D02*
X4169825Y-536722D01*
X4169825Y-536722D02*
X4160301Y-517674D01*
X4160301Y-517674D02*
X4141253Y-508150D01*
X4141253Y-508150D02*
X4112682Y-508150D01*
X4112682Y-508150D02*
X4093634Y-517674D01*
X4093634Y-517674D02*
X4084110Y-527198D01*
X4293634Y-641484D02*
X4274587Y-631960D01*
X4274587Y-631960D02*
X4265063Y-622436D01*
X4265063Y-622436D02*
X4255539Y-603389D01*
X4255539Y-603389D02*
X4255539Y-546246D01*
X4255539Y-546246D02*
X4265063Y-527198D01*
X4265063Y-527198D02*
X4274587Y-517674D01*
X4274587Y-517674D02*
X4293634Y-508150D01*
X4293634Y-508150D02*
X4322206Y-508150D01*
X4322206Y-508150D02*
X4341253Y-517674D01*
X4341253Y-517674D02*
X4350777Y-527198D01*
X4350777Y-527198D02*
X4360301Y-546246D01*
X4360301Y-546246D02*
X4360301Y-603389D01*
X4360301Y-603389D02*
X4350777Y-622436D01*
X4350777Y-622436D02*
X4341253Y-631960D01*
X4341253Y-631960D02*
X4322206Y-641484D01*
X4322206Y-641484D02*
X4293634Y-641484D01*
X4474587Y-641484D02*
X4455539Y-631960D01*
X4455539Y-631960D02*
X4446015Y-612912D01*
X4446015Y-612912D02*
X4446015Y-441484D01*
X4626968Y-631960D02*
X4607920Y-641484D01*
X4607920Y-641484D02*
X4569825Y-641484D01*
X4569825Y-641484D02*
X4550777Y-631960D01*
X4550777Y-631960D02*
X4541253Y-612912D01*
X4541253Y-612912D02*
X4541253Y-536722D01*
X4541253Y-536722D02*
X4550777Y-517674D01*
X4550777Y-517674D02*
X4569825Y-508150D01*
X4569825Y-508150D02*
X4607920Y-508150D01*
X4607920Y-508150D02*
X4626968Y-517674D01*
X4626968Y-517674D02*
X4636492Y-536722D01*
X4636492Y-536722D02*
X4636492Y-555770D01*
X4636492Y-555770D02*
X4541253Y-574817D01*
X4703158Y-717674D02*
X4712682Y-708150D01*
X4712682Y-708150D02*
X4731730Y-679579D01*
X4731730Y-679579D02*
X4741253Y-660531D01*
X4741253Y-660531D02*
X4750777Y-631960D01*
X4750777Y-631960D02*
X4760301Y-584341D01*
X4760301Y-584341D02*
X4760301Y-546246D01*
X4760301Y-546246D02*
X4750777Y-498627D01*
X4750777Y-498627D02*
X4741253Y-470055D01*
X4741253Y-470055D02*
X4731730Y-451008D01*
X4731730Y-451008D02*
X4712682Y-422436D01*
X4712682Y-422436D02*
X4703158Y-412912D01*
D11*
X90000Y-814000D02*
G75*
G02*
X0Y-814000I-45000J0D01*
G01*
X0Y-814000D02*
G75*
G02*
X90000Y-814000I45000J0D01*
G01*
D10*
X388872Y-705484D02*
X407920Y-705484D01*
X407920Y-705484D02*
X426967Y-715008D01*
X426967Y-715008D02*
X436491Y-724531D01*
X436491Y-724531D02*
X446015Y-743579D01*
X446015Y-743579D02*
X455539Y-781674D01*
X455539Y-781674D02*
X455539Y-829293D01*
X455539Y-829293D02*
X446015Y-867388D01*
X446015Y-867388D02*
X436491Y-886436D01*
X436491Y-886436D02*
X426967Y-895960D01*
X426967Y-895960D02*
X407920Y-905484D01*
X407920Y-905484D02*
X388872Y-905484D01*
X388872Y-905484D02*
X369824Y-895960D01*
X369824Y-895960D02*
X360301Y-886436D01*
X360301Y-886436D02*
X350777Y-867388D01*
X350777Y-867388D02*
X341253Y-829293D01*
X341253Y-829293D02*
X341253Y-781674D01*
X341253Y-781674D02*
X350777Y-743579D01*
X350777Y-743579D02*
X360301Y-724531D01*
X360301Y-724531D02*
X369824Y-715008D01*
X369824Y-715008D02*
X388872Y-705484D01*
X541253Y-886436D02*
X550777Y-895960D01*
X550777Y-895960D02*
X541253Y-905484D01*
X541253Y-905484D02*
X531729Y-895960D01*
X531729Y-895960D02*
X541253Y-886436D01*
X541253Y-886436D02*
X541253Y-905484D01*
X646015Y-905484D02*
X684110Y-905484D01*
X684110Y-905484D02*
X703158Y-895960D01*
X703158Y-895960D02*
X712682Y-886436D01*
X712682Y-886436D02*
X731729Y-857865D01*
X731729Y-857865D02*
X741253Y-819769D01*
X741253Y-819769D02*
X741253Y-743579D01*
X741253Y-743579D02*
X731729Y-724531D01*
X731729Y-724531D02*
X722205Y-715008D01*
X722205Y-715008D02*
X703158Y-705484D01*
X703158Y-705484D02*
X665063Y-705484D01*
X665063Y-705484D02*
X646015Y-715008D01*
X646015Y-715008D02*
X636491Y-724531D01*
X636491Y-724531D02*
X626967Y-743579D01*
X626967Y-743579D02*
X626967Y-791198D01*
X626967Y-791198D02*
X636491Y-810246D01*
X636491Y-810246D02*
X646015Y-819769D01*
X646015Y-819769D02*
X665063Y-829293D01*
X665063Y-829293D02*
X703158Y-829293D01*
X703158Y-829293D02*
X722205Y-819769D01*
X722205Y-819769D02*
X731729Y-810246D01*
X731729Y-810246D02*
X741253Y-791198D01*
X865062Y-705484D02*
X884110Y-705484D01*
X884110Y-705484D02*
X903158Y-715008D01*
X903158Y-715008D02*
X912682Y-724531D01*
X912682Y-724531D02*
X922205Y-743579D01*
X922205Y-743579D02*
X931729Y-781674D01*
X931729Y-781674D02*
X931729Y-829293D01*
X931729Y-829293D02*
X922205Y-867388D01*
X922205Y-867388D02*
X912682Y-886436D01*
X912682Y-886436D02*
X903158Y-895960D01*
X903158Y-895960D02*
X884110Y-905484D01*
X884110Y-905484D02*
X865062Y-905484D01*
X865062Y-905484D02*
X846015Y-895960D01*
X846015Y-895960D02*
X836491Y-886436D01*
X836491Y-886436D02*
X826967Y-867388D01*
X826967Y-867388D02*
X817443Y-829293D01*
X817443Y-829293D02*
X817443Y-781674D01*
X817443Y-781674D02*
X826967Y-743579D01*
X826967Y-743579D02*
X836491Y-724531D01*
X836491Y-724531D02*
X846015Y-715008D01*
X846015Y-715008D02*
X865062Y-705484D01*
X1055539Y-705484D02*
X1074586Y-705484D01*
X1074586Y-705484D02*
X1093634Y-715008D01*
X1093634Y-715008D02*
X1103158Y-724531D01*
X1103158Y-724531D02*
X1112682Y-743579D01*
X1112682Y-743579D02*
X1122205Y-781674D01*
X1122205Y-781674D02*
X1122205Y-829293D01*
X1122205Y-829293D02*
X1112682Y-867388D01*
X1112682Y-867388D02*
X1103158Y-886436D01*
X1103158Y-886436D02*
X1093634Y-895960D01*
X1093634Y-895960D02*
X1074586Y-905484D01*
X1074586Y-905484D02*
X1055539Y-905484D01*
X1055539Y-905484D02*
X1036491Y-895960D01*
X1036491Y-895960D02*
X1026967Y-886436D01*
X1026967Y-886436D02*
X1017443Y-867388D01*
X1017443Y-867388D02*
X1007920Y-829293D01*
X1007920Y-829293D02*
X1007920Y-781674D01*
X1007920Y-781674D02*
X1017443Y-743579D01*
X1017443Y-743579D02*
X1026967Y-724531D01*
X1026967Y-724531D02*
X1036491Y-715008D01*
X1036491Y-715008D02*
X1055539Y-705484D01*
X1207920Y-905484D02*
X1207920Y-772150D01*
X1207920Y-791198D02*
X1217444Y-781674D01*
X1217444Y-781674D02*
X1236491Y-772150D01*
X1236491Y-772150D02*
X1265063Y-772150D01*
X1265063Y-772150D02*
X1284110Y-781674D01*
X1284110Y-781674D02*
X1293634Y-800722D01*
X1293634Y-800722D02*
X1293634Y-905484D01*
X1293634Y-800722D02*
X1303158Y-781674D01*
X1303158Y-781674D02*
X1322205Y-772150D01*
X1322205Y-772150D02*
X1350777Y-772150D01*
X1350777Y-772150D02*
X1369825Y-781674D01*
X1369825Y-781674D02*
X1379348Y-800722D01*
X1379348Y-800722D02*
X1379348Y-905484D01*
X1474586Y-905484D02*
X1474586Y-772150D01*
X1474586Y-791198D02*
X1484110Y-781674D01*
X1484110Y-781674D02*
X1503158Y-772150D01*
X1503158Y-772150D02*
X1531729Y-772150D01*
X1531729Y-772150D02*
X1550777Y-781674D01*
X1550777Y-781674D02*
X1560301Y-800722D01*
X1560301Y-800722D02*
X1560301Y-905484D01*
X1560301Y-800722D02*
X1569824Y-781674D01*
X1569824Y-781674D02*
X1588872Y-772150D01*
X1588872Y-772150D02*
X1617443Y-772150D01*
X1617443Y-772150D02*
X1636491Y-781674D01*
X1636491Y-781674D02*
X1646015Y-800722D01*
X1646015Y-800722D02*
X1646015Y-905484D01*
X2036491Y-695960D02*
X1865063Y-953103D01*
X2293634Y-705484D02*
X2312682Y-705484D01*
X2312682Y-705484D02*
X2331729Y-715008D01*
X2331729Y-715008D02*
X2341253Y-724531D01*
X2341253Y-724531D02*
X2350777Y-743579D01*
X2350777Y-743579D02*
X2360301Y-781674D01*
X2360301Y-781674D02*
X2360301Y-829293D01*
X2360301Y-829293D02*
X2350777Y-867388D01*
X2350777Y-867388D02*
X2341253Y-886436D01*
X2341253Y-886436D02*
X2331729Y-895960D01*
X2331729Y-895960D02*
X2312682Y-905484D01*
X2312682Y-905484D02*
X2293634Y-905484D01*
X2293634Y-905484D02*
X2274587Y-895960D01*
X2274587Y-895960D02*
X2265063Y-886436D01*
X2265063Y-886436D02*
X2255539Y-867388D01*
X2255539Y-867388D02*
X2246015Y-829293D01*
X2246015Y-829293D02*
X2246015Y-781674D01*
X2246015Y-781674D02*
X2255539Y-743579D01*
X2255539Y-743579D02*
X2265063Y-724531D01*
X2265063Y-724531D02*
X2274587Y-715008D01*
X2274587Y-715008D02*
X2293634Y-705484D01*
X2446015Y-886436D02*
X2455539Y-895960D01*
X2455539Y-895960D02*
X2446015Y-905484D01*
X2446015Y-905484D02*
X2436491Y-895960D01*
X2436491Y-895960D02*
X2446015Y-886436D01*
X2446015Y-886436D02*
X2446015Y-905484D01*
X2579348Y-705484D02*
X2598396Y-705484D01*
X2598396Y-705484D02*
X2617444Y-715008D01*
X2617444Y-715008D02*
X2626968Y-724531D01*
X2626968Y-724531D02*
X2636491Y-743579D01*
X2636491Y-743579D02*
X2646015Y-781674D01*
X2646015Y-781674D02*
X2646015Y-829293D01*
X2646015Y-829293D02*
X2636491Y-867388D01*
X2636491Y-867388D02*
X2626968Y-886436D01*
X2626968Y-886436D02*
X2617444Y-895960D01*
X2617444Y-895960D02*
X2598396Y-905484D01*
X2598396Y-905484D02*
X2579348Y-905484D01*
X2579348Y-905484D02*
X2560301Y-895960D01*
X2560301Y-895960D02*
X2550777Y-886436D01*
X2550777Y-886436D02*
X2541253Y-867388D01*
X2541253Y-867388D02*
X2531729Y-829293D01*
X2531729Y-829293D02*
X2531729Y-781674D01*
X2531729Y-781674D02*
X2541253Y-743579D01*
X2541253Y-743579D02*
X2550777Y-724531D01*
X2550777Y-724531D02*
X2560301Y-715008D01*
X2560301Y-715008D02*
X2579348Y-705484D01*
X2712682Y-705484D02*
X2836491Y-705484D01*
X2836491Y-705484D02*
X2769825Y-781674D01*
X2769825Y-781674D02*
X2798396Y-781674D01*
X2798396Y-781674D02*
X2817444Y-791198D01*
X2817444Y-791198D02*
X2826967Y-800722D01*
X2826967Y-800722D02*
X2836491Y-819769D01*
X2836491Y-819769D02*
X2836491Y-867388D01*
X2836491Y-867388D02*
X2826967Y-886436D01*
X2826967Y-886436D02*
X2817444Y-895960D01*
X2817444Y-895960D02*
X2798396Y-905484D01*
X2798396Y-905484D02*
X2741253Y-905484D01*
X2741253Y-905484D02*
X2722206Y-895960D01*
X2722206Y-895960D02*
X2712682Y-886436D01*
X3017444Y-705484D02*
X2922206Y-705484D01*
X2922206Y-705484D02*
X2912682Y-800722D01*
X2912682Y-800722D02*
X2922206Y-791198D01*
X2922206Y-791198D02*
X2941253Y-781674D01*
X2941253Y-781674D02*
X2988872Y-781674D01*
X2988872Y-781674D02*
X3007920Y-791198D01*
X3007920Y-791198D02*
X3017444Y-800722D01*
X3017444Y-800722D02*
X3026967Y-819769D01*
X3026967Y-819769D02*
X3026967Y-867388D01*
X3026967Y-867388D02*
X3017444Y-886436D01*
X3017444Y-886436D02*
X3007920Y-895960D01*
X3007920Y-895960D02*
X2988872Y-905484D01*
X2988872Y-905484D02*
X2941253Y-905484D01*
X2941253Y-905484D02*
X2922206Y-895960D01*
X2922206Y-895960D02*
X2912682Y-886436D01*
X3198396Y-772150D02*
X3198396Y-905484D01*
X3150777Y-695960D02*
X3103158Y-838817D01*
X3103158Y-838817D02*
X3226967Y-838817D01*
X3293634Y-705484D02*
X3293634Y-743579D01*
X3369825Y-705484D02*
X3369825Y-743579D01*
X3665063Y-981674D02*
X3655539Y-972150D01*
X3655539Y-972150D02*
X3636491Y-943579D01*
X3636491Y-943579D02*
X3626968Y-924531D01*
X3626968Y-924531D02*
X3617444Y-895960D01*
X3617444Y-895960D02*
X3607920Y-848341D01*
X3607920Y-848341D02*
X3607920Y-810246D01*
X3607920Y-810246D02*
X3617444Y-762627D01*
X3617444Y-762627D02*
X3626968Y-734055D01*
X3626968Y-734055D02*
X3636491Y-715008D01*
X3636491Y-715008D02*
X3655539Y-686436D01*
X3655539Y-686436D02*
X3665063Y-676912D01*
X3722206Y-705484D02*
X3855539Y-705484D01*
X3855539Y-705484D02*
X3769825Y-905484D01*
X4084110Y-905484D02*
X4084110Y-705484D01*
X4169825Y-905484D02*
X4169825Y-800722D01*
X4169825Y-800722D02*
X4160301Y-781674D01*
X4160301Y-781674D02*
X4141253Y-772150D01*
X4141253Y-772150D02*
X4112682Y-772150D01*
X4112682Y-772150D02*
X4093634Y-781674D01*
X4093634Y-781674D02*
X4084110Y-791198D01*
X4293634Y-905484D02*
X4274587Y-895960D01*
X4274587Y-895960D02*
X4265063Y-886436D01*
X4265063Y-886436D02*
X4255539Y-867388D01*
X4255539Y-867388D02*
X4255539Y-810246D01*
X4255539Y-810246D02*
X4265063Y-791198D01*
X4265063Y-791198D02*
X4274587Y-781674D01*
X4274587Y-781674D02*
X4293634Y-772150D01*
X4293634Y-772150D02*
X4322206Y-772150D01*
X4322206Y-772150D02*
X4341253Y-781674D01*
X4341253Y-781674D02*
X4350777Y-791198D01*
X4350777Y-791198D02*
X4360301Y-810246D01*
X4360301Y-810246D02*
X4360301Y-867388D01*
X4360301Y-867388D02*
X4350777Y-886436D01*
X4350777Y-886436D02*
X4341253Y-895960D01*
X4341253Y-895960D02*
X4322206Y-905484D01*
X4322206Y-905484D02*
X4293634Y-905484D01*
X4474587Y-905484D02*
X4455539Y-895960D01*
X4455539Y-895960D02*
X4446015Y-876912D01*
X4446015Y-876912D02*
X4446015Y-705484D01*
X4626968Y-895960D02*
X4607920Y-905484D01*
X4607920Y-905484D02*
X4569825Y-905484D01*
X4569825Y-905484D02*
X4550777Y-895960D01*
X4550777Y-895960D02*
X4541253Y-876912D01*
X4541253Y-876912D02*
X4541253Y-800722D01*
X4541253Y-800722D02*
X4550777Y-781674D01*
X4550777Y-781674D02*
X4569825Y-772150D01*
X4569825Y-772150D02*
X4607920Y-772150D01*
X4607920Y-772150D02*
X4626968Y-781674D01*
X4626968Y-781674D02*
X4636492Y-800722D01*
X4636492Y-800722D02*
X4636492Y-819769D01*
X4636492Y-819769D02*
X4541253Y-838817D01*
X4712682Y-895960D02*
X4731730Y-905484D01*
X4731730Y-905484D02*
X4769825Y-905484D01*
X4769825Y-905484D02*
X4788873Y-895960D01*
X4788873Y-895960D02*
X4798396Y-876912D01*
X4798396Y-876912D02*
X4798396Y-867388D01*
X4798396Y-867388D02*
X4788873Y-848341D01*
X4788873Y-848341D02*
X4769825Y-838817D01*
X4769825Y-838817D02*
X4741253Y-838817D01*
X4741253Y-838817D02*
X4722206Y-829293D01*
X4722206Y-829293D02*
X4712682Y-810246D01*
X4712682Y-810246D02*
X4712682Y-800722D01*
X4712682Y-800722D02*
X4722206Y-781674D01*
X4722206Y-781674D02*
X4741253Y-772150D01*
X4741253Y-772150D02*
X4769825Y-772150D01*
X4769825Y-772150D02*
X4788873Y-781674D01*
X4865063Y-981674D02*
X4874587Y-972150D01*
X4874587Y-972150D02*
X4893634Y-943579D01*
X4893634Y-943579D02*
X4903158Y-924531D01*
X4903158Y-924531D02*
X4912682Y-895960D01*
X4912682Y-895960D02*
X4922206Y-848341D01*
X4922206Y-848341D02*
X4922206Y-810246D01*
X4922206Y-810246D02*
X4912682Y-762627D01*
X4912682Y-762627D02*
X4903158Y-734055D01*
X4903158Y-734055D02*
X4893634Y-715008D01*
X4893634Y-715008D02*
X4874587Y-686436D01*
X4874587Y-686436D02*
X4865063Y-676912D01*
D11*
X40000Y-1028000D02*
X40000Y-1128000D01*
X-10000Y-1078000D02*
X90000Y-1078000D01*
D10*
X455539Y-1169484D02*
X341253Y-1169484D01*
X398396Y-1169484D02*
X398396Y-969484D01*
X398396Y-969484D02*
X379348Y-998055D01*
X379348Y-998055D02*
X360301Y-1017103D01*
X360301Y-1017103D02*
X341253Y-1026627D01*
X541253Y-1150436D02*
X550777Y-1159960D01*
X550777Y-1159960D02*
X541253Y-1169484D01*
X541253Y-1169484D02*
X531729Y-1159960D01*
X531729Y-1159960D02*
X541253Y-1150436D01*
X541253Y-1150436D02*
X541253Y-1169484D01*
X674586Y-969484D02*
X693634Y-969484D01*
X693634Y-969484D02*
X712682Y-979008D01*
X712682Y-979008D02*
X722205Y-988531D01*
X722205Y-988531D02*
X731729Y-1007579D01*
X731729Y-1007579D02*
X741253Y-1045674D01*
X741253Y-1045674D02*
X741253Y-1093293D01*
X741253Y-1093293D02*
X731729Y-1131389D01*
X731729Y-1131389D02*
X722205Y-1150436D01*
X722205Y-1150436D02*
X712682Y-1159960D01*
X712682Y-1159960D02*
X693634Y-1169484D01*
X693634Y-1169484D02*
X674586Y-1169484D01*
X674586Y-1169484D02*
X655539Y-1159960D01*
X655539Y-1159960D02*
X646015Y-1150436D01*
X646015Y-1150436D02*
X636491Y-1131389D01*
X636491Y-1131389D02*
X626967Y-1093293D01*
X626967Y-1093293D02*
X626967Y-1045674D01*
X626967Y-1045674D02*
X636491Y-1007579D01*
X636491Y-1007579D02*
X646015Y-988531D01*
X646015Y-988531D02*
X655539Y-979008D01*
X655539Y-979008D02*
X674586Y-969484D01*
X865062Y-969484D02*
X884110Y-969484D01*
X884110Y-969484D02*
X903158Y-979008D01*
X903158Y-979008D02*
X912682Y-988531D01*
X912682Y-988531D02*
X922205Y-1007579D01*
X922205Y-1007579D02*
X931729Y-1045674D01*
X931729Y-1045674D02*
X931729Y-1093293D01*
X931729Y-1093293D02*
X922205Y-1131389D01*
X922205Y-1131389D02*
X912682Y-1150436D01*
X912682Y-1150436D02*
X903158Y-1159960D01*
X903158Y-1159960D02*
X884110Y-1169484D01*
X884110Y-1169484D02*
X865062Y-1169484D01*
X865062Y-1169484D02*
X846015Y-1159960D01*
X846015Y-1159960D02*
X836491Y-1150436D01*
X836491Y-1150436D02*
X826967Y-1131389D01*
X826967Y-1131389D02*
X817443Y-1093293D01*
X817443Y-1093293D02*
X817443Y-1045674D01*
X817443Y-1045674D02*
X826967Y-1007579D01*
X826967Y-1007579D02*
X836491Y-988531D01*
X836491Y-988531D02*
X846015Y-979008D01*
X846015Y-979008D02*
X865062Y-969484D01*
X1055539Y-969484D02*
X1074586Y-969484D01*
X1074586Y-969484D02*
X1093634Y-979008D01*
X1093634Y-979008D02*
X1103158Y-988531D01*
X1103158Y-988531D02*
X1112682Y-1007579D01*
X1112682Y-1007579D02*
X1122205Y-1045674D01*
X1122205Y-1045674D02*
X1122205Y-1093293D01*
X1122205Y-1093293D02*
X1112682Y-1131389D01*
X1112682Y-1131389D02*
X1103158Y-1150436D01*
X1103158Y-1150436D02*
X1093634Y-1159960D01*
X1093634Y-1159960D02*
X1074586Y-1169484D01*
X1074586Y-1169484D02*
X1055539Y-1169484D01*
X1055539Y-1169484D02*
X1036491Y-1159960D01*
X1036491Y-1159960D02*
X1026967Y-1150436D01*
X1026967Y-1150436D02*
X1017443Y-1131389D01*
X1017443Y-1131389D02*
X1007920Y-1093293D01*
X1007920Y-1093293D02*
X1007920Y-1045674D01*
X1007920Y-1045674D02*
X1017443Y-1007579D01*
X1017443Y-1007579D02*
X1026967Y-988531D01*
X1026967Y-988531D02*
X1036491Y-979008D01*
X1036491Y-979008D02*
X1055539Y-969484D01*
X1207920Y-1169484D02*
X1207920Y-1036150D01*
X1207920Y-1055198D02*
X1217444Y-1045674D01*
X1217444Y-1045674D02*
X1236491Y-1036150D01*
X1236491Y-1036150D02*
X1265063Y-1036150D01*
X1265063Y-1036150D02*
X1284110Y-1045674D01*
X1284110Y-1045674D02*
X1293634Y-1064722D01*
X1293634Y-1064722D02*
X1293634Y-1169484D01*
X1293634Y-1064722D02*
X1303158Y-1045674D01*
X1303158Y-1045674D02*
X1322205Y-1036150D01*
X1322205Y-1036150D02*
X1350777Y-1036150D01*
X1350777Y-1036150D02*
X1369825Y-1045674D01*
X1369825Y-1045674D02*
X1379348Y-1064722D01*
X1379348Y-1064722D02*
X1379348Y-1169484D01*
X1474586Y-1169484D02*
X1474586Y-1036150D01*
X1474586Y-1055198D02*
X1484110Y-1045674D01*
X1484110Y-1045674D02*
X1503158Y-1036150D01*
X1503158Y-1036150D02*
X1531729Y-1036150D01*
X1531729Y-1036150D02*
X1550777Y-1045674D01*
X1550777Y-1045674D02*
X1560301Y-1064722D01*
X1560301Y-1064722D02*
X1560301Y-1169484D01*
X1560301Y-1064722D02*
X1569824Y-1045674D01*
X1569824Y-1045674D02*
X1588872Y-1036150D01*
X1588872Y-1036150D02*
X1617443Y-1036150D01*
X1617443Y-1036150D02*
X1636491Y-1045674D01*
X1636491Y-1045674D02*
X1646015Y-1064722D01*
X1646015Y-1064722D02*
X1646015Y-1169484D01*
X2036491Y-959960D02*
X1865063Y-1217103D01*
X2293634Y-969484D02*
X2312682Y-969484D01*
X2312682Y-969484D02*
X2331729Y-979008D01*
X2331729Y-979008D02*
X2341253Y-988531D01*
X2341253Y-988531D02*
X2350777Y-1007579D01*
X2350777Y-1007579D02*
X2360301Y-1045674D01*
X2360301Y-1045674D02*
X2360301Y-1093293D01*
X2360301Y-1093293D02*
X2350777Y-1131389D01*
X2350777Y-1131389D02*
X2341253Y-1150436D01*
X2341253Y-1150436D02*
X2331729Y-1159960D01*
X2331729Y-1159960D02*
X2312682Y-1169484D01*
X2312682Y-1169484D02*
X2293634Y-1169484D01*
X2293634Y-1169484D02*
X2274587Y-1159960D01*
X2274587Y-1159960D02*
X2265063Y-1150436D01*
X2265063Y-1150436D02*
X2255539Y-1131389D01*
X2255539Y-1131389D02*
X2246015Y-1093293D01*
X2246015Y-1093293D02*
X2246015Y-1045674D01*
X2246015Y-1045674D02*
X2255539Y-1007579D01*
X2255539Y-1007579D02*
X2265063Y-988531D01*
X2265063Y-988531D02*
X2274587Y-979008D01*
X2274587Y-979008D02*
X2293634Y-969484D01*
X2446015Y-1150436D02*
X2455539Y-1159960D01*
X2455539Y-1159960D02*
X2446015Y-1169484D01*
X2446015Y-1169484D02*
X2436491Y-1159960D01*
X2436491Y-1159960D02*
X2446015Y-1150436D01*
X2446015Y-1150436D02*
X2446015Y-1169484D01*
X2579348Y-969484D02*
X2598396Y-969484D01*
X2598396Y-969484D02*
X2617444Y-979008D01*
X2617444Y-979008D02*
X2626968Y-988531D01*
X2626968Y-988531D02*
X2636491Y-1007579D01*
X2636491Y-1007579D02*
X2646015Y-1045674D01*
X2646015Y-1045674D02*
X2646015Y-1093293D01*
X2646015Y-1093293D02*
X2636491Y-1131389D01*
X2636491Y-1131389D02*
X2626968Y-1150436D01*
X2626968Y-1150436D02*
X2617444Y-1159960D01*
X2617444Y-1159960D02*
X2598396Y-1169484D01*
X2598396Y-1169484D02*
X2579348Y-1169484D01*
X2579348Y-1169484D02*
X2560301Y-1159960D01*
X2560301Y-1159960D02*
X2550777Y-1150436D01*
X2550777Y-1150436D02*
X2541253Y-1131389D01*
X2541253Y-1131389D02*
X2531729Y-1093293D01*
X2531729Y-1093293D02*
X2531729Y-1045674D01*
X2531729Y-1045674D02*
X2541253Y-1007579D01*
X2541253Y-1007579D02*
X2550777Y-988531D01*
X2550777Y-988531D02*
X2560301Y-979008D01*
X2560301Y-979008D02*
X2579348Y-969484D01*
X2712682Y-969484D02*
X2836491Y-969484D01*
X2836491Y-969484D02*
X2769825Y-1045674D01*
X2769825Y-1045674D02*
X2798396Y-1045674D01*
X2798396Y-1045674D02*
X2817444Y-1055198D01*
X2817444Y-1055198D02*
X2826967Y-1064722D01*
X2826967Y-1064722D02*
X2836491Y-1083770D01*
X2836491Y-1083770D02*
X2836491Y-1131389D01*
X2836491Y-1131389D02*
X2826967Y-1150436D01*
X2826967Y-1150436D02*
X2817444Y-1159960D01*
X2817444Y-1159960D02*
X2798396Y-1169484D01*
X2798396Y-1169484D02*
X2741253Y-1169484D01*
X2741253Y-1169484D02*
X2722206Y-1159960D01*
X2722206Y-1159960D02*
X2712682Y-1150436D01*
X2931729Y-1169484D02*
X2969825Y-1169484D01*
X2969825Y-1169484D02*
X2988872Y-1159960D01*
X2988872Y-1159960D02*
X2998396Y-1150436D01*
X2998396Y-1150436D02*
X3017444Y-1121865D01*
X3017444Y-1121865D02*
X3026967Y-1083770D01*
X3026967Y-1083770D02*
X3026967Y-1007579D01*
X3026967Y-1007579D02*
X3017444Y-988531D01*
X3017444Y-988531D02*
X3007920Y-979008D01*
X3007920Y-979008D02*
X2988872Y-969484D01*
X2988872Y-969484D02*
X2950777Y-969484D01*
X2950777Y-969484D02*
X2931729Y-979008D01*
X2931729Y-979008D02*
X2922206Y-988531D01*
X2922206Y-988531D02*
X2912682Y-1007579D01*
X2912682Y-1007579D02*
X2912682Y-1055198D01*
X2912682Y-1055198D02*
X2922206Y-1074246D01*
X2922206Y-1074246D02*
X2931729Y-1083770D01*
X2931729Y-1083770D02*
X2950777Y-1093293D01*
X2950777Y-1093293D02*
X2988872Y-1093293D01*
X2988872Y-1093293D02*
X3007920Y-1083770D01*
X3007920Y-1083770D02*
X3017444Y-1074246D01*
X3017444Y-1074246D02*
X3026967Y-1055198D01*
X3198396Y-1036150D02*
X3198396Y-1169484D01*
X3150777Y-959960D02*
X3103158Y-1102817D01*
X3103158Y-1102817D02*
X3226967Y-1102817D01*
X3293634Y-969484D02*
X3293634Y-1007579D01*
X3369825Y-969484D02*
X3369825Y-1007579D01*
X3665063Y-1245674D02*
X3655539Y-1236150D01*
X3655539Y-1236150D02*
X3636491Y-1207579D01*
X3636491Y-1207579D02*
X3626968Y-1188531D01*
X3626968Y-1188531D02*
X3617444Y-1159960D01*
X3617444Y-1159960D02*
X3607920Y-1112341D01*
X3607920Y-1112341D02*
X3607920Y-1074246D01*
X3607920Y-1074246D02*
X3617444Y-1026627D01*
X3617444Y-1026627D02*
X3626968Y-998055D01*
X3626968Y-998055D02*
X3636491Y-979008D01*
X3636491Y-979008D02*
X3655539Y-950436D01*
X3655539Y-950436D02*
X3665063Y-940912D01*
X3836491Y-969484D02*
X3741253Y-969484D01*
X3741253Y-969484D02*
X3731729Y-1064722D01*
X3731729Y-1064722D02*
X3741253Y-1055198D01*
X3741253Y-1055198D02*
X3760301Y-1045674D01*
X3760301Y-1045674D02*
X3807920Y-1045674D01*
X3807920Y-1045674D02*
X3826968Y-1055198D01*
X3826968Y-1055198D02*
X3836491Y-1064722D01*
X3836491Y-1064722D02*
X3846015Y-1083770D01*
X3846015Y-1083770D02*
X3846015Y-1131389D01*
X3846015Y-1131389D02*
X3836491Y-1150436D01*
X3836491Y-1150436D02*
X3826968Y-1159960D01*
X3826968Y-1159960D02*
X3807920Y-1169484D01*
X3807920Y-1169484D02*
X3760301Y-1169484D01*
X3760301Y-1169484D02*
X3741253Y-1159960D01*
X3741253Y-1159960D02*
X3731729Y-1150436D01*
X4017444Y-1036150D02*
X4017444Y-1169484D01*
X3969825Y-959960D02*
X3922206Y-1102817D01*
X3922206Y-1102817D02*
X4046015Y-1102817D01*
X4274587Y-1169484D02*
X4274587Y-969484D01*
X4360301Y-1169484D02*
X4360301Y-1064722D01*
X4360301Y-1064722D02*
X4350777Y-1045674D01*
X4350777Y-1045674D02*
X4331730Y-1036150D01*
X4331730Y-1036150D02*
X4303158Y-1036150D01*
X4303158Y-1036150D02*
X4284111Y-1045674D01*
X4284111Y-1045674D02*
X4274587Y-1055198D01*
X4484111Y-1169484D02*
X4465063Y-1159960D01*
X4465063Y-1159960D02*
X4455539Y-1150436D01*
X4455539Y-1150436D02*
X4446015Y-1131389D01*
X4446015Y-1131389D02*
X4446015Y-1074246D01*
X4446015Y-1074246D02*
X4455539Y-1055198D01*
X4455539Y-1055198D02*
X4465063Y-1045674D01*
X4465063Y-1045674D02*
X4484111Y-1036150D01*
X4484111Y-1036150D02*
X4512682Y-1036150D01*
X4512682Y-1036150D02*
X4531730Y-1045674D01*
X4531730Y-1045674D02*
X4541253Y-1055198D01*
X4541253Y-1055198D02*
X4550777Y-1074246D01*
X4550777Y-1074246D02*
X4550777Y-1131389D01*
X4550777Y-1131389D02*
X4541253Y-1150436D01*
X4541253Y-1150436D02*
X4531730Y-1159960D01*
X4531730Y-1159960D02*
X4512682Y-1169484D01*
X4512682Y-1169484D02*
X4484111Y-1169484D01*
X4665063Y-1169484D02*
X4646015Y-1159960D01*
X4646015Y-1159960D02*
X4636492Y-1140912D01*
X4636492Y-1140912D02*
X4636492Y-969484D01*
X4817444Y-1159960D02*
X4798396Y-1169484D01*
X4798396Y-1169484D02*
X4760301Y-1169484D01*
X4760301Y-1169484D02*
X4741253Y-1159960D01*
X4741253Y-1159960D02*
X4731730Y-1140912D01*
X4731730Y-1140912D02*
X4731730Y-1064722D01*
X4731730Y-1064722D02*
X4741253Y-1045674D01*
X4741253Y-1045674D02*
X4760301Y-1036150D01*
X4760301Y-1036150D02*
X4798396Y-1036150D01*
X4798396Y-1036150D02*
X4817444Y-1045674D01*
X4817444Y-1045674D02*
X4826968Y-1064722D01*
X4826968Y-1064722D02*
X4826968Y-1083770D01*
X4826968Y-1083770D02*
X4731730Y-1102817D01*
X4903158Y-1159960D02*
X4922206Y-1169484D01*
X4922206Y-1169484D02*
X4960301Y-1169484D01*
X4960301Y-1169484D02*
X4979349Y-1159960D01*
X4979349Y-1159960D02*
X4988873Y-1140912D01*
X4988873Y-1140912D02*
X4988873Y-1131389D01*
X4988873Y-1131389D02*
X4979349Y-1112341D01*
X4979349Y-1112341D02*
X4960301Y-1102817D01*
X4960301Y-1102817D02*
X4931730Y-1102817D01*
X4931730Y-1102817D02*
X4912682Y-1093293D01*
X4912682Y-1093293D02*
X4903158Y-1074246D01*
X4903158Y-1074246D02*
X4903158Y-1064722D01*
X4903158Y-1064722D02*
X4912682Y-1045674D01*
X4912682Y-1045674D02*
X4931730Y-1036150D01*
X4931730Y-1036150D02*
X4960301Y-1036150D01*
X4960301Y-1036150D02*
X4979349Y-1045674D01*
X5055539Y-1245674D02*
X5065063Y-1236150D01*
X5065063Y-1236150D02*
X5084111Y-1207579D01*
X5084111Y-1207579D02*
X5093634Y-1188531D01*
X5093634Y-1188531D02*
X5103158Y-1159960D01*
X5103158Y-1159960D02*
X5112682Y-1112341D01*
X5112682Y-1112341D02*
X5112682Y-1074246D01*
X5112682Y-1074246D02*
X5103158Y-1026627D01*
X5103158Y-1026627D02*
X5093634Y-998055D01*
X5093634Y-998055D02*
X5084111Y-979008D01*
X5084111Y-979008D02*
X5065063Y-950436D01*
X5065063Y-950436D02*
X5055539Y-940912D01*
X60711Y-1412711D02*
X60711Y-1271289D01*
X-80711Y-1271289D01*
X-80711Y-1412711D01*
X60711Y-1412711D01*
X341253Y-1252531D02*
X350777Y-1243008D01*
X350777Y-1243008D02*
X369824Y-1233484D01*
X369824Y-1233484D02*
X417443Y-1233484D01*
X417443Y-1233484D02*
X436491Y-1243008D01*
X436491Y-1243008D02*
X446015Y-1252531D01*
X446015Y-1252531D02*
X455539Y-1271579D01*
X455539Y-1271579D02*
X455539Y-1290627D01*
X455539Y-1290627D02*
X446015Y-1319198D01*
X446015Y-1319198D02*
X331729Y-1433484D01*
X331729Y-1433484D02*
X455539Y-1433484D01*
X541253Y-1414436D02*
X550777Y-1423960D01*
X550777Y-1423960D02*
X541253Y-1433484D01*
X541253Y-1433484D02*
X531729Y-1423960D01*
X531729Y-1423960D02*
X541253Y-1414436D01*
X541253Y-1414436D02*
X541253Y-1433484D01*
X626967Y-1252531D02*
X636491Y-1243008D01*
X636491Y-1243008D02*
X655539Y-1233484D01*
X655539Y-1233484D02*
X703158Y-1233484D01*
X703158Y-1233484D02*
X722205Y-1243008D01*
X722205Y-1243008D02*
X731729Y-1252531D01*
X731729Y-1252531D02*
X741253Y-1271579D01*
X741253Y-1271579D02*
X741253Y-1290627D01*
X741253Y-1290627D02*
X731729Y-1319198D01*
X731729Y-1319198D02*
X617444Y-1433484D01*
X617444Y-1433484D02*
X741253Y-1433484D01*
X865062Y-1233484D02*
X884110Y-1233484D01*
X884110Y-1233484D02*
X903158Y-1243008D01*
X903158Y-1243008D02*
X912682Y-1252531D01*
X912682Y-1252531D02*
X922205Y-1271579D01*
X922205Y-1271579D02*
X931729Y-1309674D01*
X931729Y-1309674D02*
X931729Y-1357293D01*
X931729Y-1357293D02*
X922205Y-1395389D01*
X922205Y-1395389D02*
X912682Y-1414436D01*
X912682Y-1414436D02*
X903158Y-1423960D01*
X903158Y-1423960D02*
X884110Y-1433484D01*
X884110Y-1433484D02*
X865062Y-1433484D01*
X865062Y-1433484D02*
X846015Y-1423960D01*
X846015Y-1423960D02*
X836491Y-1414436D01*
X836491Y-1414436D02*
X826967Y-1395389D01*
X826967Y-1395389D02*
X817443Y-1357293D01*
X817443Y-1357293D02*
X817443Y-1309674D01*
X817443Y-1309674D02*
X826967Y-1271579D01*
X826967Y-1271579D02*
X836491Y-1252531D01*
X836491Y-1252531D02*
X846015Y-1243008D01*
X846015Y-1243008D02*
X865062Y-1233484D01*
X1055539Y-1233484D02*
X1074586Y-1233484D01*
X1074586Y-1233484D02*
X1093634Y-1243008D01*
X1093634Y-1243008D02*
X1103158Y-1252531D01*
X1103158Y-1252531D02*
X1112682Y-1271579D01*
X1112682Y-1271579D02*
X1122205Y-1309674D01*
X1122205Y-1309674D02*
X1122205Y-1357293D01*
X1122205Y-1357293D02*
X1112682Y-1395389D01*
X1112682Y-1395389D02*
X1103158Y-1414436D01*
X1103158Y-1414436D02*
X1093634Y-1423960D01*
X1093634Y-1423960D02*
X1074586Y-1433484D01*
X1074586Y-1433484D02*
X1055539Y-1433484D01*
X1055539Y-1433484D02*
X1036491Y-1423960D01*
X1036491Y-1423960D02*
X1026967Y-1414436D01*
X1026967Y-1414436D02*
X1017443Y-1395389D01*
X1017443Y-1395389D02*
X1007920Y-1357293D01*
X1007920Y-1357293D02*
X1007920Y-1309674D01*
X1007920Y-1309674D02*
X1017443Y-1271579D01*
X1017443Y-1271579D02*
X1026967Y-1252531D01*
X1026967Y-1252531D02*
X1036491Y-1243008D01*
X1036491Y-1243008D02*
X1055539Y-1233484D01*
X1207920Y-1433484D02*
X1207920Y-1300150D01*
X1207920Y-1319198D02*
X1217444Y-1309674D01*
X1217444Y-1309674D02*
X1236491Y-1300150D01*
X1236491Y-1300150D02*
X1265063Y-1300150D01*
X1265063Y-1300150D02*
X1284110Y-1309674D01*
X1284110Y-1309674D02*
X1293634Y-1328722D01*
X1293634Y-1328722D02*
X1293634Y-1433484D01*
X1293634Y-1328722D02*
X1303158Y-1309674D01*
X1303158Y-1309674D02*
X1322205Y-1300150D01*
X1322205Y-1300150D02*
X1350777Y-1300150D01*
X1350777Y-1300150D02*
X1369825Y-1309674D01*
X1369825Y-1309674D02*
X1379348Y-1328722D01*
X1379348Y-1328722D02*
X1379348Y-1433484D01*
X1474586Y-1433484D02*
X1474586Y-1300150D01*
X1474586Y-1319198D02*
X1484110Y-1309674D01*
X1484110Y-1309674D02*
X1503158Y-1300150D01*
X1503158Y-1300150D02*
X1531729Y-1300150D01*
X1531729Y-1300150D02*
X1550777Y-1309674D01*
X1550777Y-1309674D02*
X1560301Y-1328722D01*
X1560301Y-1328722D02*
X1560301Y-1433484D01*
X1560301Y-1328722D02*
X1569824Y-1309674D01*
X1569824Y-1309674D02*
X1588872Y-1300150D01*
X1588872Y-1300150D02*
X1617443Y-1300150D01*
X1617443Y-1300150D02*
X1636491Y-1309674D01*
X1636491Y-1309674D02*
X1646015Y-1328722D01*
X1646015Y-1328722D02*
X1646015Y-1433484D01*
X2036491Y-1223960D02*
X1865063Y-1481103D01*
X2293634Y-1233484D02*
X2312682Y-1233484D01*
X2312682Y-1233484D02*
X2331729Y-1243008D01*
X2331729Y-1243008D02*
X2341253Y-1252531D01*
X2341253Y-1252531D02*
X2350777Y-1271579D01*
X2350777Y-1271579D02*
X2360301Y-1309674D01*
X2360301Y-1309674D02*
X2360301Y-1357293D01*
X2360301Y-1357293D02*
X2350777Y-1395389D01*
X2350777Y-1395389D02*
X2341253Y-1414436D01*
X2341253Y-1414436D02*
X2331729Y-1423960D01*
X2331729Y-1423960D02*
X2312682Y-1433484D01*
X2312682Y-1433484D02*
X2293634Y-1433484D01*
X2293634Y-1433484D02*
X2274587Y-1423960D01*
X2274587Y-1423960D02*
X2265063Y-1414436D01*
X2265063Y-1414436D02*
X2255539Y-1395389D01*
X2255539Y-1395389D02*
X2246015Y-1357293D01*
X2246015Y-1357293D02*
X2246015Y-1309674D01*
X2246015Y-1309674D02*
X2255539Y-1271579D01*
X2255539Y-1271579D02*
X2265063Y-1252531D01*
X2265063Y-1252531D02*
X2274587Y-1243008D01*
X2274587Y-1243008D02*
X2293634Y-1233484D01*
X2446015Y-1414436D02*
X2455539Y-1423960D01*
X2455539Y-1423960D02*
X2446015Y-1433484D01*
X2446015Y-1433484D02*
X2436491Y-1423960D01*
X2436491Y-1423960D02*
X2446015Y-1414436D01*
X2446015Y-1414436D02*
X2446015Y-1433484D01*
X2579348Y-1233484D02*
X2598396Y-1233484D01*
X2598396Y-1233484D02*
X2617444Y-1243008D01*
X2617444Y-1243008D02*
X2626968Y-1252531D01*
X2626968Y-1252531D02*
X2636491Y-1271579D01*
X2636491Y-1271579D02*
X2646015Y-1309674D01*
X2646015Y-1309674D02*
X2646015Y-1357293D01*
X2646015Y-1357293D02*
X2636491Y-1395389D01*
X2636491Y-1395389D02*
X2626968Y-1414436D01*
X2626968Y-1414436D02*
X2617444Y-1423960D01*
X2617444Y-1423960D02*
X2598396Y-1433484D01*
X2598396Y-1433484D02*
X2579348Y-1433484D01*
X2579348Y-1433484D02*
X2560301Y-1423960D01*
X2560301Y-1423960D02*
X2550777Y-1414436D01*
X2550777Y-1414436D02*
X2541253Y-1395389D01*
X2541253Y-1395389D02*
X2531729Y-1357293D01*
X2531729Y-1357293D02*
X2531729Y-1309674D01*
X2531729Y-1309674D02*
X2541253Y-1271579D01*
X2541253Y-1271579D02*
X2550777Y-1252531D01*
X2550777Y-1252531D02*
X2560301Y-1243008D01*
X2560301Y-1243008D02*
X2579348Y-1233484D01*
X2760301Y-1319198D02*
X2741253Y-1309674D01*
X2741253Y-1309674D02*
X2731729Y-1300150D01*
X2731729Y-1300150D02*
X2722206Y-1281103D01*
X2722206Y-1281103D02*
X2722206Y-1271579D01*
X2722206Y-1271579D02*
X2731729Y-1252531D01*
X2731729Y-1252531D02*
X2741253Y-1243008D01*
X2741253Y-1243008D02*
X2760301Y-1233484D01*
X2760301Y-1233484D02*
X2798396Y-1233484D01*
X2798396Y-1233484D02*
X2817444Y-1243008D01*
X2817444Y-1243008D02*
X2826967Y-1252531D01*
X2826967Y-1252531D02*
X2836491Y-1271579D01*
X2836491Y-1271579D02*
X2836491Y-1281103D01*
X2836491Y-1281103D02*
X2826967Y-1300150D01*
X2826967Y-1300150D02*
X2817444Y-1309674D01*
X2817444Y-1309674D02*
X2798396Y-1319198D01*
X2798396Y-1319198D02*
X2760301Y-1319198D01*
X2760301Y-1319198D02*
X2741253Y-1328722D01*
X2741253Y-1328722D02*
X2731729Y-1338246D01*
X2731729Y-1338246D02*
X2722206Y-1357293D01*
X2722206Y-1357293D02*
X2722206Y-1395389D01*
X2722206Y-1395389D02*
X2731729Y-1414436D01*
X2731729Y-1414436D02*
X2741253Y-1423960D01*
X2741253Y-1423960D02*
X2760301Y-1433484D01*
X2760301Y-1433484D02*
X2798396Y-1433484D01*
X2798396Y-1433484D02*
X2817444Y-1423960D01*
X2817444Y-1423960D02*
X2826967Y-1414436D01*
X2826967Y-1414436D02*
X2836491Y-1395389D01*
X2836491Y-1395389D02*
X2836491Y-1357293D01*
X2836491Y-1357293D02*
X2826967Y-1338246D01*
X2826967Y-1338246D02*
X2817444Y-1328722D01*
X2817444Y-1328722D02*
X2798396Y-1319198D01*
X3007920Y-1233484D02*
X2969825Y-1233484D01*
X2969825Y-1233484D02*
X2950777Y-1243008D01*
X2950777Y-1243008D02*
X2941253Y-1252531D01*
X2941253Y-1252531D02*
X2922206Y-1281103D01*
X2922206Y-1281103D02*
X2912682Y-1319198D01*
X2912682Y-1319198D02*
X2912682Y-1395389D01*
X2912682Y-1395389D02*
X2922206Y-1414436D01*
X2922206Y-1414436D02*
X2931729Y-1423960D01*
X2931729Y-1423960D02*
X2950777Y-1433484D01*
X2950777Y-1433484D02*
X2988872Y-1433484D01*
X2988872Y-1433484D02*
X3007920Y-1423960D01*
X3007920Y-1423960D02*
X3017444Y-1414436D01*
X3017444Y-1414436D02*
X3026967Y-1395389D01*
X3026967Y-1395389D02*
X3026967Y-1347770D01*
X3026967Y-1347770D02*
X3017444Y-1328722D01*
X3017444Y-1328722D02*
X3007920Y-1319198D01*
X3007920Y-1319198D02*
X2988872Y-1309674D01*
X2988872Y-1309674D02*
X2950777Y-1309674D01*
X2950777Y-1309674D02*
X2931729Y-1319198D01*
X2931729Y-1319198D02*
X2922206Y-1328722D01*
X2922206Y-1328722D02*
X2912682Y-1347770D01*
X3198396Y-1233484D02*
X3160301Y-1233484D01*
X3160301Y-1233484D02*
X3141253Y-1243008D01*
X3141253Y-1243008D02*
X3131729Y-1252531D01*
X3131729Y-1252531D02*
X3112682Y-1281103D01*
X3112682Y-1281103D02*
X3103158Y-1319198D01*
X3103158Y-1319198D02*
X3103158Y-1395389D01*
X3103158Y-1395389D02*
X3112682Y-1414436D01*
X3112682Y-1414436D02*
X3122206Y-1423960D01*
X3122206Y-1423960D02*
X3141253Y-1433484D01*
X3141253Y-1433484D02*
X3179348Y-1433484D01*
X3179348Y-1433484D02*
X3198396Y-1423960D01*
X3198396Y-1423960D02*
X3207920Y-1414436D01*
X3207920Y-1414436D02*
X3217444Y-1395389D01*
X3217444Y-1395389D02*
X3217444Y-1347770D01*
X3217444Y-1347770D02*
X3207920Y-1328722D01*
X3207920Y-1328722D02*
X3198396Y-1319198D01*
X3198396Y-1319198D02*
X3179348Y-1309674D01*
X3179348Y-1309674D02*
X3141253Y-1309674D01*
X3141253Y-1309674D02*
X3122206Y-1319198D01*
X3122206Y-1319198D02*
X3112682Y-1328722D01*
X3112682Y-1328722D02*
X3103158Y-1347770D01*
X3293634Y-1233484D02*
X3293634Y-1271579D01*
X3369825Y-1233484D02*
X3369825Y-1271579D01*
X3665063Y-1509674D02*
X3655539Y-1500150D01*
X3655539Y-1500150D02*
X3636491Y-1471579D01*
X3636491Y-1471579D02*
X3626968Y-1452531D01*
X3626968Y-1452531D02*
X3617444Y-1423960D01*
X3617444Y-1423960D02*
X3607920Y-1376341D01*
X3607920Y-1376341D02*
X3607920Y-1338246D01*
X3607920Y-1338246D02*
X3617444Y-1290627D01*
X3617444Y-1290627D02*
X3626968Y-1262055D01*
X3626968Y-1262055D02*
X3636491Y-1243008D01*
X3636491Y-1243008D02*
X3655539Y-1214436D01*
X3655539Y-1214436D02*
X3665063Y-1204912D01*
X3722206Y-1233484D02*
X3846015Y-1233484D01*
X3846015Y-1233484D02*
X3779348Y-1309674D01*
X3779348Y-1309674D02*
X3807920Y-1309674D01*
X3807920Y-1309674D02*
X3826968Y-1319198D01*
X3826968Y-1319198D02*
X3836491Y-1328722D01*
X3836491Y-1328722D02*
X3846015Y-1347770D01*
X3846015Y-1347770D02*
X3846015Y-1395389D01*
X3846015Y-1395389D02*
X3836491Y-1414436D01*
X3836491Y-1414436D02*
X3826968Y-1423960D01*
X3826968Y-1423960D02*
X3807920Y-1433484D01*
X3807920Y-1433484D02*
X3750777Y-1433484D01*
X3750777Y-1433484D02*
X3731729Y-1423960D01*
X3731729Y-1423960D02*
X3722206Y-1414436D01*
X4084110Y-1433484D02*
X4084110Y-1233484D01*
X4169825Y-1433484D02*
X4169825Y-1328722D01*
X4169825Y-1328722D02*
X4160301Y-1309674D01*
X4160301Y-1309674D02*
X4141253Y-1300150D01*
X4141253Y-1300150D02*
X4112682Y-1300150D01*
X4112682Y-1300150D02*
X4093634Y-1309674D01*
X4093634Y-1309674D02*
X4084110Y-1319198D01*
X4293634Y-1433484D02*
X4274587Y-1423960D01*
X4274587Y-1423960D02*
X4265063Y-1414436D01*
X4265063Y-1414436D02*
X4255539Y-1395389D01*
X4255539Y-1395389D02*
X4255539Y-1338246D01*
X4255539Y-1338246D02*
X4265063Y-1319198D01*
X4265063Y-1319198D02*
X4274587Y-1309674D01*
X4274587Y-1309674D02*
X4293634Y-1300150D01*
X4293634Y-1300150D02*
X4322206Y-1300150D01*
X4322206Y-1300150D02*
X4341253Y-1309674D01*
X4341253Y-1309674D02*
X4350777Y-1319198D01*
X4350777Y-1319198D02*
X4360301Y-1338246D01*
X4360301Y-1338246D02*
X4360301Y-1395389D01*
X4360301Y-1395389D02*
X4350777Y-1414436D01*
X4350777Y-1414436D02*
X4341253Y-1423960D01*
X4341253Y-1423960D02*
X4322206Y-1433484D01*
X4322206Y-1433484D02*
X4293634Y-1433484D01*
X4474587Y-1433484D02*
X4455539Y-1423960D01*
X4455539Y-1423960D02*
X4446015Y-1404912D01*
X4446015Y-1404912D02*
X4446015Y-1233484D01*
X4626968Y-1423960D02*
X4607920Y-1433484D01*
X4607920Y-1433484D02*
X4569825Y-1433484D01*
X4569825Y-1433484D02*
X4550777Y-1423960D01*
X4550777Y-1423960D02*
X4541253Y-1404912D01*
X4541253Y-1404912D02*
X4541253Y-1328722D01*
X4541253Y-1328722D02*
X4550777Y-1309674D01*
X4550777Y-1309674D02*
X4569825Y-1300150D01*
X4569825Y-1300150D02*
X4607920Y-1300150D01*
X4607920Y-1300150D02*
X4626968Y-1309674D01*
X4626968Y-1309674D02*
X4636492Y-1328722D01*
X4636492Y-1328722D02*
X4636492Y-1347770D01*
X4636492Y-1347770D02*
X4541253Y-1366817D01*
X4712682Y-1423960D02*
X4731730Y-1433484D01*
X4731730Y-1433484D02*
X4769825Y-1433484D01*
X4769825Y-1433484D02*
X4788873Y-1423960D01*
X4788873Y-1423960D02*
X4798396Y-1404912D01*
X4798396Y-1404912D02*
X4798396Y-1395389D01*
X4798396Y-1395389D02*
X4788873Y-1376341D01*
X4788873Y-1376341D02*
X4769825Y-1366817D01*
X4769825Y-1366817D02*
X4741253Y-1366817D01*
X4741253Y-1366817D02*
X4722206Y-1357293D01*
X4722206Y-1357293D02*
X4712682Y-1338246D01*
X4712682Y-1338246D02*
X4712682Y-1328722D01*
X4712682Y-1328722D02*
X4722206Y-1309674D01*
X4722206Y-1309674D02*
X4741253Y-1300150D01*
X4741253Y-1300150D02*
X4769825Y-1300150D01*
X4769825Y-1300150D02*
X4788873Y-1309674D01*
X4865063Y-1509674D02*
X4874587Y-1500150D01*
X4874587Y-1500150D02*
X4893634Y-1471579D01*
X4893634Y-1471579D02*
X4903158Y-1452531D01*
X4903158Y-1452531D02*
X4912682Y-1423960D01*
X4912682Y-1423960D02*
X4922206Y-1376341D01*
X4922206Y-1376341D02*
X4922206Y-1338246D01*
X4922206Y-1338246D02*
X4912682Y-1290627D01*
X4912682Y-1290627D02*
X4903158Y-1262055D01*
X4903158Y-1262055D02*
X4893634Y-1243008D01*
X4893634Y-1243008D02*
X4874587Y-1214436D01*
X4874587Y-1214436D02*
X4865063Y-1204912D01*
M02*
