M48
METRIC,LZ,000.000
;FILE_FORMAT=3:3
;TYPE=PLATED
;Layer: PTH_Through
;EasyEDA v6.5.46, 2024-09-02 22:14:07
;e88426a38d4c4d1a9789fb718d1c1170,6b50037bb1584808a520f39feb1544fe,10
;Gerber Generator version 0.2
;Holesize 1 = 0.889 mm
T01C0.889
;Holesize 2 = 0.901 mm
T02C0.901
%
G05
G90
T01
X-065827Y032118
X-065827Y034661
X-065827Y037206
X-065826Y019716
X-065826Y017172
X-065826Y047064
X-065826Y044520
X-065826Y041976
X-053975Y019685
X-051435Y019685
X-048895Y019685
T02
X-043180Y009525
X-043180Y012065
X-043180Y014605
X-043180Y017145
X-043180Y019685
X-043180Y006985
X-007620Y009525
X-007620Y012065
X-007620Y014605
X-007620Y017145
X-007671Y050861
X-007671Y025461
X-010211Y050861
X-010211Y025461
X-012751Y050861
X-012751Y025461
X-015291Y050861
X-015291Y025461
X-017831Y050861
X-017831Y025461
X-020371Y050861
X-020371Y025461
X-022911Y050861
X-022911Y025461
X-025451Y050861
X-025451Y025461
X-027991Y050861
X-027991Y025461
X-030531Y050861
X-030531Y025461
X-033071Y050861
X-033071Y025461
X-035611Y050861
X-035611Y025461
X-038151Y050861
X-038151Y025461
X-040691Y050861
X-040691Y025461
X-043231Y050861
X-043231Y025461
X-045771Y050861
X-045771Y025461
X-048311Y050861
X-048311Y025461
X-050851Y050861
X-050851Y025461
X-053391Y050861
X-053391Y025461
X-055931Y050861
X-055931Y025461
X-058471Y050861
X-058471Y025461
X-061011Y050861
X-061011Y025461
M30
