G04 Layer: TopSolderMaskLayer*
G04 EasyEDA v6.5.46, 2024-09-06 20:46:00*
G04 ee909672bfd0416e87b19a6d4beb8481,6b50037bb1584808a520f39feb1544fe,10*
G04 Gerber Generator version 0.2*
G04 Scale: 100 percent, Rotated: No, Reflected: No *
G04 Dimensions in millimeters *
G04 leading zeros omitted , absolute positions ,4 integer and 5 decimal *
%FSLAX45Y45*%
%MOMM*%

%AMMACRO1*4,1,8,-0.8085,-0.8382,-0.8382,-0.8082,-0.8382,0.8085,-0.8085,0.8382,0.8082,0.8382,0.8382,0.8085,0.8382,-0.8082,0.8082,-0.8382,-0.8085,-0.8382,0*%
%AMMACRO2*4,1,8,-0.971,-0.8509,-1.0008,-0.8209,-1.0008,0.8212,-0.971,0.8509,0.9708,0.8509,1.0008,0.8212,1.0008,-0.8209,0.9708,-0.8509,-0.971,-0.8509,0*%
%AMMACRO3*4,1,8,-0.8212,-1.0008,-0.8509,-0.9708,-0.8509,0.971,-0.8212,1.0008,0.8209,1.0008,0.8509,0.971,0.8509,-0.9708,0.8209,-1.0008,-0.8212,-1.0008,0*%
%ADD10MACRO1*%
%ADD11MACRO2*%
%ADD12MACRO3*%

%LPD*%
D10*
G01*
X-6582664Y3211830D03*
G01*
X-6582664Y3466084D03*
G01*
X-6582664Y3720592D03*
D11*
G01*
X-4318000Y952500D03*
G01*
X-4318000Y1206500D03*
G01*
X-4318000Y1460500D03*
G01*
X-4318000Y1714500D03*
G01*
X-4318000Y1968500D03*
G01*
X-4318000Y698500D03*
G01*
X-762000Y952500D03*
G01*
X-762000Y1206500D03*
G01*
X-762000Y1460500D03*
G01*
X-762000Y1714500D03*
D12*
G01*
X-767080Y5086096D03*
G01*
X-767080Y2546096D03*
G01*
X-1021080Y5086096D03*
G01*
X-1021080Y2546096D03*
G01*
X-1275080Y5086096D03*
G01*
X-1275080Y2546096D03*
G01*
X-1529080Y5086096D03*
G01*
X-1529080Y2546096D03*
G01*
X-1783080Y5086096D03*
G01*
X-1783080Y2546096D03*
G01*
X-2037080Y5086096D03*
G01*
X-2037080Y2546096D03*
G01*
X-2291080Y5086096D03*
G01*
X-2291080Y2546096D03*
G01*
X-2545080Y5086096D03*
G01*
X-2545080Y2546096D03*
G01*
X-2799080Y5086096D03*
G01*
X-2799080Y2546096D03*
G01*
X-3053080Y5086096D03*
G01*
X-3053080Y2546096D03*
G01*
X-3307080Y5086096D03*
G01*
X-3307080Y2546096D03*
G01*
X-3561080Y5086096D03*
G01*
X-3561080Y2546096D03*
G01*
X-3815080Y5086096D03*
G01*
X-3815080Y2546096D03*
G01*
X-4069080Y5086096D03*
G01*
X-4069080Y2546096D03*
G01*
X-4323080Y5086096D03*
G01*
X-4323080Y2546096D03*
G01*
X-4577080Y5086096D03*
G01*
X-4577080Y2546096D03*
G01*
X-4831080Y5086096D03*
G01*
X-4831080Y2546096D03*
G01*
X-5085080Y5086096D03*
G01*
X-5085080Y2546096D03*
G01*
X-5339080Y5086096D03*
G01*
X-5339080Y2546096D03*
G01*
X-5593080Y5086096D03*
G01*
X-5593080Y2546096D03*
G01*
X-5847080Y5086096D03*
G01*
X-5847080Y2546096D03*
G01*
X-6101080Y5086096D03*
G01*
X-6101080Y2546096D03*
D10*
G01*
X-476986Y1780793D03*
G01*
X-476986Y1462785D03*
G01*
X-6582587Y4642789D03*
G01*
X-6582587Y4388383D03*
G01*
X-6582587Y4134002D03*
G01*
X-6582587Y2289581D03*
G01*
X-6582587Y2543987D03*
G01*
X-6582587Y2798394D03*
M02*
