G04 Layer: TopLayer*
G04 EasyEDA v6.5.46, 2024-09-02 22:14:07*
G04 e88426a38d4c4d1a9789fb718d1c1170,6b50037bb1584808a520f39feb1544fe,10*
G04 Gerber Generator version 0.2*
G04 Scale: 100 percent, Rotated: No, Reflected: No *
G04 Dimensions in millimeters *
G04 leading zeros omitted , absolute positions ,4 integer and 5 decimal *
%FSLAX45Y45*%
%MOMM*%

%ADD10R,1.9000X1.6000*%
%ADD11R,1.5748X1.5748*%
%ADD12R,1.6000X1.9000*%

%LPD*%
D10*
G01*
X-4318000Y952500D03*
G01*
X-4318000Y1206500D03*
G01*
X-4318000Y1460500D03*
G01*
X-4318000Y1714500D03*
G01*
X-4318000Y1968500D03*
G01*
X-4318000Y698500D03*
G01*
X-762000Y952500D03*
G01*
X-762000Y1206500D03*
G01*
X-762000Y1460500D03*
G01*
X-762000Y1714500D03*
D11*
G01*
X-6582663Y3211829D03*
G01*
X-6582663Y3466084D03*
G01*
X-6582663Y3720592D03*
D12*
G01*
X-767079Y5086095D03*
G01*
X-767079Y2546095D03*
G01*
X-1021079Y5086095D03*
G01*
X-1021079Y2546095D03*
G01*
X-1275079Y5086095D03*
G01*
X-1275079Y2546095D03*
G01*
X-1529079Y5086095D03*
G01*
X-1529079Y2546095D03*
G01*
X-1783079Y5086095D03*
G01*
X-1783079Y2546095D03*
G01*
X-2037079Y5086095D03*
G01*
X-2037079Y2546095D03*
G01*
X-2291079Y5086095D03*
G01*
X-2291079Y2546095D03*
G01*
X-2545079Y5086095D03*
G01*
X-2545079Y2546095D03*
G01*
X-2799079Y5086095D03*
G01*
X-2799079Y2546095D03*
G01*
X-3053079Y5086095D03*
G01*
X-3053079Y2546095D03*
G01*
X-3307079Y5086095D03*
G01*
X-3307079Y2546095D03*
G01*
X-3561079Y5086095D03*
G01*
X-3561079Y2546095D03*
G01*
X-3815079Y5086095D03*
G01*
X-3815079Y2546095D03*
G01*
X-4069079Y5086095D03*
G01*
X-4069079Y2546095D03*
G01*
X-4323079Y5086095D03*
G01*
X-4323079Y2546095D03*
G01*
X-4577079Y5086095D03*
G01*
X-4577079Y2546095D03*
G01*
X-4831079Y5086095D03*
G01*
X-4831079Y2546095D03*
G01*
X-5085079Y5086095D03*
G01*
X-5085079Y2546095D03*
G01*
X-5339079Y5086095D03*
G01*
X-5339079Y2546095D03*
G01*
X-5593079Y5086095D03*
G01*
X-5593079Y2546095D03*
G01*
X-5847079Y5086095D03*
G01*
X-5847079Y2546095D03*
G01*
X-6101079Y5086095D03*
G01*
X-6101079Y2546095D03*
D11*
G01*
X-6582587Y1971598D03*
G01*
X-6582587Y1717192D03*
G01*
X-6582587Y4706391D03*
G01*
X-6582587Y4451985D03*
G01*
X-6582587Y4197578D03*
G01*
X-5397500Y1968500D03*
G01*
X-5143500Y1968500D03*
G01*
X-4889500Y1968500D03*
M02*
