G04 Layer: TopSilkscreenLayer*
G04 EasyEDA v6.5.46, 2024-09-02 22:14:07*
G04 e88426a38d4c4d1a9789fb718d1c1170,6b50037bb1584808a520f39feb1544fe,10*
G04 Gerber Generator version 0.2*
G04 Scale: 100 percent, Rotated: No, Reflected: No *
G04 Dimensions in millimeters *
G04 leading zeros omitted , absolute positions ,4 integer and 5 decimal *
%FSLAX45Y45*%
%MOMM*%

%ADD10C,0.1524*%
%ADD11C,0.2540*%
%ADD12C,0.2032*%
%ADD13C,0.2030*%
%ADD14C,0.1520*%
%ADD15C,0.0187*%

%LPD*%
D10*
X-4191000Y2274315D02*
G01*
X-4191000Y2196337D01*
X-4185920Y2180844D01*
X-4175505Y2170429D01*
X-4159757Y2165350D01*
X-4149344Y2165350D01*
X-4133850Y2170429D01*
X-4123436Y2180844D01*
X-4118355Y2196337D01*
X-4118355Y2274315D01*
X-4078731Y2248407D02*
G01*
X-4078731Y2253487D01*
X-4073652Y2263902D01*
X-4068318Y2269236D01*
X-4057904Y2274315D01*
X-4037329Y2274315D01*
X-4026915Y2269236D01*
X-4021581Y2263902D01*
X-4016502Y2253487D01*
X-4016502Y2243073D01*
X-4021581Y2232660D01*
X-4031995Y2217165D01*
X-4084065Y2165350D01*
X-4011168Y2165350D01*
X-7027671Y3263645D02*
G01*
X-7027671Y3154426D01*
X-7027671Y3263645D02*
G01*
X-6991350Y3263645D01*
X-6975855Y3258312D01*
X-6965442Y3247897D01*
X-6960108Y3237484D01*
X-6955028Y3221989D01*
X-6955028Y3196081D01*
X-6960108Y3180334D01*
X-6965442Y3169920D01*
X-6975855Y3159505D01*
X-6991350Y3154426D01*
X-7027671Y3154426D01*
X-6920737Y3263645D02*
G01*
X-6920737Y3154426D01*
X-6813804Y3247897D02*
G01*
X-6824218Y3258312D01*
X-6839712Y3263645D01*
X-6860539Y3263645D01*
X-6876034Y3258312D01*
X-6886447Y3247897D01*
X-6886447Y3237484D01*
X-6881368Y3227070D01*
X-6876034Y3221989D01*
X-6865620Y3216655D01*
X-6834378Y3206495D01*
X-6824218Y3201162D01*
X-6818884Y3196081D01*
X-6813804Y3185668D01*
X-6813804Y3169920D01*
X-6824218Y3159505D01*
X-6839712Y3154426D01*
X-6860539Y3154426D01*
X-6876034Y3159505D01*
X-6886447Y3169920D01*
X-6779513Y3263645D02*
G01*
X-6779513Y3154426D01*
X-6779513Y3263645D02*
G01*
X-6732778Y3263645D01*
X-6717029Y3258312D01*
X-6711950Y3253231D01*
X-6706615Y3242818D01*
X-6706615Y3227070D01*
X-6711950Y3216655D01*
X-6717029Y3211576D01*
X-6732778Y3206495D01*
X-6779513Y3206495D01*
X-6672326Y3118104D02*
G01*
X-6578854Y3118104D01*
X-6466586Y3237484D02*
G01*
X-6471920Y3247897D01*
X-6482334Y3258312D01*
X-6492747Y3263645D01*
X-6513321Y3263645D01*
X-6523736Y3258312D01*
X-6534150Y3247897D01*
X-6539484Y3237484D01*
X-6544563Y3221989D01*
X-6544563Y3196081D01*
X-6539484Y3180334D01*
X-6534150Y3169920D01*
X-6523736Y3159505D01*
X-6513321Y3154426D01*
X-6492747Y3154426D01*
X-6482334Y3159505D01*
X-6471920Y3169920D01*
X-6466586Y3180334D01*
X-6432295Y3263645D02*
G01*
X-6432295Y3154426D01*
X-6432295Y3154426D02*
G01*
X-6370065Y3154426D01*
X-6335776Y3263645D02*
G01*
X-6335776Y3154426D01*
X-6262878Y3263645D02*
G01*
X-6335776Y3190747D01*
X-6309868Y3216655D02*
G01*
X-6262878Y3154426D01*
X-7059676Y3517900D02*
G01*
X-7059676Y3408934D01*
X-7059676Y3517900D02*
G01*
X-7023100Y3517900D01*
X-7007605Y3512820D01*
X-6997192Y3502405D01*
X-6992112Y3491992D01*
X-6986778Y3476244D01*
X-6986778Y3450336D01*
X-6992112Y3434842D01*
X-6997192Y3424428D01*
X-7007605Y3414013D01*
X-7023100Y3408934D01*
X-7059676Y3408934D01*
X-6952487Y3517900D02*
G01*
X-6952487Y3408934D01*
X-6845554Y3502405D02*
G01*
X-6855968Y3512820D01*
X-6871462Y3517900D01*
X-6892289Y3517900D01*
X-6907784Y3512820D01*
X-6918197Y3502405D01*
X-6918197Y3491992D01*
X-6913118Y3481578D01*
X-6907784Y3476244D01*
X-6897370Y3471163D01*
X-6866381Y3460750D01*
X-6855968Y3455670D01*
X-6850634Y3450336D01*
X-6845554Y3439921D01*
X-6845554Y3424428D01*
X-6855968Y3414013D01*
X-6871462Y3408934D01*
X-6892289Y3408934D01*
X-6907784Y3414013D01*
X-6918197Y3424428D01*
X-6811263Y3517900D02*
G01*
X-6811263Y3408934D01*
X-6811263Y3517900D02*
G01*
X-6764528Y3517900D01*
X-6748779Y3512820D01*
X-6743700Y3507486D01*
X-6738620Y3497071D01*
X-6738620Y3481578D01*
X-6743700Y3471163D01*
X-6748779Y3466084D01*
X-6764528Y3460750D01*
X-6811263Y3460750D01*
X-6704329Y3372357D02*
G01*
X-6610604Y3372357D01*
X-6498589Y3491992D02*
G01*
X-6503670Y3502405D01*
X-6514084Y3512820D01*
X-6524497Y3517900D01*
X-6545326Y3517900D01*
X-6555739Y3512820D01*
X-6565900Y3502405D01*
X-6571234Y3491992D01*
X-6576313Y3476244D01*
X-6576313Y3450336D01*
X-6571234Y3434842D01*
X-6565900Y3424428D01*
X-6555739Y3414013D01*
X-6545326Y3408934D01*
X-6524497Y3408934D01*
X-6514084Y3414013D01*
X-6503670Y3424428D01*
X-6498589Y3434842D01*
X-6391402Y3502405D02*
G01*
X-6401815Y3512820D01*
X-6417310Y3517900D01*
X-6438137Y3517900D01*
X-6453886Y3512820D01*
X-6464300Y3502405D01*
X-6464300Y3491992D01*
X-6458965Y3481578D01*
X-6453886Y3476244D01*
X-6443471Y3471163D01*
X-6412229Y3460750D01*
X-6401815Y3455670D01*
X-6396736Y3450336D01*
X-6391402Y3439921D01*
X-6391402Y3424428D01*
X-6401815Y3414013D01*
X-6417310Y3408934D01*
X-6438137Y3408934D01*
X-6453886Y3414013D01*
X-6464300Y3424428D01*
X-7059676Y3772407D02*
G01*
X-7059676Y3663187D01*
X-7059676Y3772407D02*
G01*
X-7023100Y3772407D01*
X-7007605Y3767073D01*
X-6997192Y3756660D01*
X-6992112Y3746245D01*
X-6986778Y3730752D01*
X-6986778Y3704844D01*
X-6992112Y3689095D01*
X-6997192Y3678936D01*
X-7007605Y3668521D01*
X-7023100Y3663187D01*
X-7059676Y3663187D01*
X-6952487Y3772407D02*
G01*
X-6952487Y3663187D01*
X-6845554Y3756660D02*
G01*
X-6855968Y3767073D01*
X-6871462Y3772407D01*
X-6892289Y3772407D01*
X-6907784Y3767073D01*
X-6918197Y3756660D01*
X-6918197Y3746245D01*
X-6913118Y3736086D01*
X-6907784Y3730752D01*
X-6897370Y3725671D01*
X-6866381Y3715257D01*
X-6855968Y3709923D01*
X-6850634Y3704844D01*
X-6845554Y3694429D01*
X-6845554Y3678936D01*
X-6855968Y3668521D01*
X-6871462Y3663187D01*
X-6892289Y3663187D01*
X-6907784Y3668521D01*
X-6918197Y3678936D01*
X-6811263Y3772407D02*
G01*
X-6811263Y3663187D01*
X-6811263Y3772407D02*
G01*
X-6764528Y3772407D01*
X-6748779Y3767073D01*
X-6743700Y3761994D01*
X-6738620Y3751579D01*
X-6738620Y3736086D01*
X-6743700Y3725671D01*
X-6748779Y3720337D01*
X-6764528Y3715257D01*
X-6811263Y3715257D01*
X-6704329Y3626865D02*
G01*
X-6610604Y3626865D01*
X-6576313Y3772407D02*
G01*
X-6576313Y3663187D01*
X-6576313Y3772407D02*
G01*
X-6539992Y3772407D01*
X-6524497Y3767073D01*
X-6514084Y3756660D01*
X-6508750Y3746245D01*
X-6503670Y3730752D01*
X-6503670Y3704844D01*
X-6508750Y3689095D01*
X-6514084Y3678936D01*
X-6524497Y3668521D01*
X-6539992Y3663187D01*
X-6576313Y3663187D01*
X-6427723Y3772407D02*
G01*
X-6469379Y3663187D01*
X-6427723Y3772407D02*
G01*
X-6386321Y3663187D01*
X-6453886Y3699510D02*
G01*
X-6401815Y3699510D01*
X-513334Y4782312D02*
G01*
X-513334Y4704587D01*
X-508254Y4688839D01*
X-497839Y4678426D01*
X-482345Y4673345D01*
X-471931Y4673345D01*
X-456184Y4678426D01*
X-445770Y4688839D01*
X-440689Y4704587D01*
X-440689Y4782312D01*
X-406400Y4761737D02*
G01*
X-395986Y4766818D01*
X-380492Y4782312D01*
X-380492Y4673345D01*
X-7059599Y2055121D02*
G01*
X-7059599Y1946155D01*
X-7059599Y1946155D02*
G01*
X-6997369Y1946155D01*
X-6890181Y2039627D02*
G01*
X-6900595Y2050041D01*
X-6916089Y2055121D01*
X-6936917Y2055121D01*
X-6952665Y2050041D01*
X-6963079Y2039627D01*
X-6963079Y2029213D01*
X-6957745Y2018799D01*
X-6952665Y2013465D01*
X-6942251Y2008385D01*
X-6911009Y1997971D01*
X-6900595Y1992891D01*
X-6895515Y1987557D01*
X-6890181Y1977143D01*
X-6890181Y1961649D01*
X-6900595Y1951235D01*
X-6916089Y1946155D01*
X-6936917Y1946155D01*
X-6952665Y1951235D01*
X-6963079Y1961649D01*
X-6855891Y1992891D02*
G01*
X-6762419Y1992891D01*
X-7059599Y1768922D02*
G01*
X-7059599Y1659956D01*
X-7059599Y1659956D02*
G01*
X-6997369Y1659956D01*
X-6890181Y1753428D02*
G01*
X-6900595Y1763842D01*
X-6916089Y1768922D01*
X-6936917Y1768922D01*
X-6952665Y1763842D01*
X-6963079Y1753428D01*
X-6963079Y1743014D01*
X-6957745Y1732600D01*
X-6952665Y1727266D01*
X-6942251Y1722186D01*
X-6911009Y1711772D01*
X-6900595Y1706692D01*
X-6895515Y1701358D01*
X-6890181Y1690944D01*
X-6890181Y1675450D01*
X-6900595Y1665036D01*
X-6916089Y1659956D01*
X-6936917Y1659956D01*
X-6952665Y1665036D01*
X-6963079Y1675450D01*
X-6809155Y1753428D02*
G01*
X-6809155Y1659956D01*
X-6855891Y1706692D02*
G01*
X-6762419Y1706692D01*
X-7044664Y4488197D02*
G01*
X-7044664Y4394725D01*
X-7091400Y4441461D02*
G01*
X-6997928Y4441461D01*
X-6901154Y4503691D02*
G01*
X-6953224Y4503691D01*
X-6958304Y4456955D01*
X-6953224Y4462035D01*
X-6937730Y4467369D01*
X-6921982Y4467369D01*
X-6906488Y4462035D01*
X-6896074Y4451875D01*
X-6890740Y4436127D01*
X-6890740Y4425713D01*
X-6896074Y4410219D01*
X-6906488Y4399805D01*
X-6921982Y4394725D01*
X-6937730Y4394725D01*
X-6953224Y4399805D01*
X-6958304Y4404885D01*
X-6963638Y4415299D01*
X-6856450Y4503691D02*
G01*
X-6815048Y4394725D01*
X-6773392Y4503691D02*
G01*
X-6815048Y4394725D01*
X-5200827Y2251821D02*
G01*
X-5206161Y2262235D01*
X-5216575Y2272649D01*
X-5226735Y2277729D01*
X-5247563Y2277729D01*
X-5257977Y2272649D01*
X-5268391Y2262235D01*
X-5273725Y2251821D01*
X-5278805Y2236073D01*
X-5278805Y2210165D01*
X-5273725Y2194671D01*
X-5268391Y2184257D01*
X-5257977Y2173843D01*
X-5247563Y2168763D01*
X-5226735Y2168763D01*
X-5216575Y2173843D01*
X-5206161Y2184257D01*
X-5200827Y2194671D01*
X-5200827Y2210165D01*
X-5226735Y2210165D02*
G01*
X-5200827Y2210165D01*
X-5166537Y2277729D02*
G01*
X-5166537Y2168763D01*
X-5166537Y2277729D02*
G01*
X-5093893Y2168763D01*
X-5093893Y2277729D02*
G01*
X-5093893Y2168763D01*
X-5059603Y2277729D02*
G01*
X-5059603Y2168763D01*
X-5059603Y2277729D02*
G01*
X-5023281Y2277729D01*
X-5007533Y2272649D01*
X-4997119Y2262235D01*
X-4992039Y2251821D01*
X-4986705Y2236073D01*
X-4986705Y2210165D01*
X-4992039Y2194671D01*
X-4997119Y2184257D01*
X-5007533Y2173843D01*
X-5023281Y2168763D01*
X-5059603Y2168763D01*
D11*
X-4439996Y233502D02*
G01*
X-4439996Y2393492D01*
X-640003Y2393492D01*
X-640003Y233502D01*
X-4439996Y233502D01*
D12*
X-6455663Y3084829D02*
G01*
X-6709663Y3084829D01*
X-6709663Y3338829D01*
X-6455663Y3338829D01*
X-6455663Y3148329D01*
D13*
X-6455663Y3084829D02*
G01*
X-6455663Y3148329D01*
D12*
X-6455663Y3339084D02*
G01*
X-6709663Y3339084D01*
X-6709663Y3593084D01*
X-6455663Y3593084D01*
X-6455663Y3402584D01*
D13*
X-6455663Y3339084D02*
G01*
X-6455663Y3402584D01*
D12*
X-6455663Y3593592D02*
G01*
X-6709663Y3593592D01*
X-6709663Y3847592D01*
X-6455663Y3847592D01*
X-6455663Y3657092D01*
D13*
X-6455663Y3593592D02*
G01*
X-6455663Y3657092D01*
D14*
X-513085Y4578093D02*
G01*
X-513079Y4578095D01*
X-132079Y4578095D01*
X-132079Y3054095D01*
X-513079Y3054095D01*
D10*
X-513079Y4578095D02*
G01*
X-640079Y4578095D01*
X-640079Y5213095D01*
X-6228079Y5213095D01*
X-6228079Y2419095D01*
X-640079Y2419095D01*
X-640079Y3054095D01*
X-513079Y3054095D01*
D12*
X-6455587Y1844596D02*
G01*
X-6709587Y1844596D01*
X-6709587Y2098596D01*
X-6455587Y2098596D01*
X-6455587Y1908096D01*
D13*
X-6455587Y1844596D02*
G01*
X-6455587Y1908096D01*
D12*
X-6455587Y1590197D02*
G01*
X-6709587Y1590197D01*
X-6709587Y1844197D01*
X-6455587Y1844197D01*
X-6455587Y1653697D01*
D13*
X-6455587Y1590197D02*
G01*
X-6455587Y1653697D01*
D12*
X-6455587Y4579391D02*
G01*
X-6709587Y4579391D01*
X-6709587Y4833391D01*
X-6455587Y4833391D01*
X-6455587Y4642891D01*
D13*
X-6455587Y4579391D02*
G01*
X-6455587Y4642891D01*
D12*
X-6709587Y4324990D02*
G01*
X-6709587Y4578990D01*
X-6455587Y4578990D01*
X-6455587Y4324990D01*
X-6646087Y4324990D01*
D13*
X-6709587Y4324990D02*
G01*
X-6646087Y4324990D01*
D12*
X-6455587Y4070591D02*
G01*
X-6709587Y4070591D01*
X-6709587Y4324591D01*
X-6455587Y4324591D01*
X-6455587Y4134091D01*
D13*
X-6455587Y4070591D02*
G01*
X-6455587Y4134091D01*
D12*
X-5270489Y2095494D02*
G01*
X-5270489Y1841494D01*
X-5524489Y1841494D01*
X-5524489Y2095494D01*
X-5333989Y2095494D01*
D13*
X-5270489Y2095494D02*
G01*
X-5333989Y2095494D01*
D12*
X-5016489Y2095494D02*
G01*
X-5016489Y1841494D01*
X-5270489Y1841494D01*
X-5270489Y2095494D01*
X-5079989Y2095494D01*
D13*
X-5016489Y2095494D02*
G01*
X-5079989Y2095494D01*
D12*
X-4762489Y2095494D02*
G01*
X-4762489Y1841494D01*
X-5016489Y1841494D01*
X-5016489Y2095494D01*
X-4825989Y2095494D01*
D13*
X-4762489Y2095494D02*
G01*
X-4825989Y2095494D01*
M02*
