G04 Layer: BottomLayer*
G04 EasyEDA v6.5.46, 2024-09-02 22:14:07*
G04 e88426a38d4c4d1a9789fb718d1c1170,6b50037bb1584808a520f39feb1544fe,10*
G04 Gerber Generator version 0.2*
G04 Scale: 100 percent, Rotated: No, Reflected: No *
G04 Dimensions in millimeters *
G04 leading zeros omitted , absolute positions ,4 integer and 5 decimal *
%FSLAX45Y45*%
%MOMM*%

%AMMACRO1*21,1,$1,$2,0,0,$3*%
%ADD10C,0.5000*%
%ADD11R,1.3770X1.1325*%
%ADD12MACRO1,1.377X1.1325X0.0000*%
%ADD13MACRO1,1.377X1.1325X-90.0000*%
%ADD14MACRO1,1.377X1.1325X90.0000*%
%ADD15R,1.9000X1.6000*%
%ADD16R,1.5748X1.5748*%
%ADD17R,1.6000X1.9000*%

%LPD*%
D10*
X-767206Y5085994D02*
G01*
X-767206Y3561206D01*
X-444245Y3238245D01*
X-444245Y1561845D01*
X-545592Y1460500D01*
X-762000Y1460500D01*
X-1526387Y1935200D02*
G01*
X-1305692Y1714505D01*
X-762000Y1714505D01*
X-4889500Y1968500D02*
G01*
X-4318000Y1968500D01*
X-1529181Y2545994D02*
G01*
X-1529181Y2737578D01*
X-1685396Y2893794D01*
X-6296388Y2893794D01*
X-6582587Y2607594D01*
X-6582587Y1971598D01*
X-6582562Y4451982D02*
G01*
X-6582562Y4197604D01*
X-6582562Y4197604D01*
X-6582562Y4706391D02*
G01*
X-6582562Y4706391D01*
X-6582562Y4451982D01*
X-6101181Y2545994D02*
G01*
X-5847181Y2545994D01*
X-5847206Y2545994D02*
G01*
X-5847206Y2138824D01*
X-5676882Y1968500D01*
X-5397500Y1968500D01*
X-5143500Y1968500D02*
G01*
X-5397500Y1968500D01*
X-4889500Y1968500D02*
G01*
X-5143500Y1968500D01*
X-6582562Y3466211D02*
G01*
X-3873972Y3466211D01*
X-3053209Y4286976D01*
X-3053209Y5085996D01*
X-767206Y2545994D02*
G01*
X-767206Y1719706D01*
X-762000Y1714500D01*
X-6582562Y3720592D02*
G01*
X-3962907Y3720592D01*
X-3307209Y4376290D01*
X-3307209Y5085996D01*
X-6582562Y3211804D02*
G01*
X-3773195Y3211804D01*
X-2799209Y4185790D01*
X-2799209Y5085996D01*
X-1021206Y5085994D02*
G01*
X-793369Y5085994D01*
X-761794Y5054419D01*
X-4318000Y1460505D02*
G01*
X-3532088Y1460505D01*
X-3053206Y1939386D01*
X-3053206Y2545994D01*
X-4318000Y1206505D02*
G01*
X-3529794Y1208397D01*
X-2799206Y1938985D01*
X-2799206Y2545994D01*
X-4318000Y1714505D02*
G01*
X-4315310Y1717194D01*
X-3916001Y1717194D01*
X-3715976Y1717194D02*
G01*
X-3711521Y1712739D01*
X-3711521Y1460500D01*
X-1108455Y1462786D02*
G01*
X-762000Y1460500D01*
X-1308354Y1462786D02*
G01*
X-1970786Y1462786D01*
X-2478786Y1970786D01*
X-2767329Y1970786D01*
X-1529209Y2545996D02*
G01*
X-1526387Y2543175D01*
X-1526387Y2135200D01*
X-4318000Y1714505D02*
G01*
X-4858765Y1714500D01*
X-4865370Y1707895D01*
X-4865370Y731520D01*
X-4547362Y413512D01*
X-1399286Y413512D01*
X-1108455Y704087D01*
X-1108455Y1462786D01*
X-6582587Y1717192D02*
G01*
X-6579895Y1714500D01*
X-4858765Y1714500D01*
X-6095974Y4445000D02*
G01*
X-5847209Y4693765D01*
X-5847209Y5085996D01*
X-6582562Y4451982D02*
G01*
X-6582562Y4197604D01*
X-6582562Y4197604D01*
X-6582562Y4706391D02*
G01*
X-6582562Y4706391D01*
X-6582562Y4451982D01*
X-6582562Y4451985D02*
G01*
X-6102959Y4451985D01*
X-6095974Y4445000D01*
D11*
G01*
X-1526387Y2135200D03*
D12*
G01*
X-1526397Y1935190D03*
D13*
G01*
X-1108392Y1462796D03*
G01*
X-1308402Y1462796D03*
D14*
G01*
X-3915996Y1717197D03*
G01*
X-3715986Y1717197D03*
D15*
G01*
X-4318000Y952500D03*
G01*
X-4318000Y1206500D03*
G01*
X-4318000Y1460500D03*
G01*
X-4318000Y1714500D03*
G01*
X-4318000Y1968500D03*
G01*
X-4318000Y698500D03*
G01*
X-762000Y952500D03*
G01*
X-762000Y1206500D03*
G01*
X-762000Y1460500D03*
G01*
X-762000Y1714500D03*
D16*
G01*
X-6582663Y3211829D03*
G01*
X-6582663Y3466084D03*
G01*
X-6582663Y3720592D03*
D17*
G01*
X-767079Y5086095D03*
G01*
X-767079Y2546095D03*
G01*
X-1021079Y5086095D03*
G01*
X-1021079Y2546095D03*
G01*
X-1275079Y5086095D03*
G01*
X-1275079Y2546095D03*
G01*
X-1529079Y5086095D03*
G01*
X-1529079Y2546095D03*
G01*
X-1783079Y5086095D03*
G01*
X-1783079Y2546095D03*
G01*
X-2037079Y5086095D03*
G01*
X-2037079Y2546095D03*
G01*
X-2291079Y5086095D03*
G01*
X-2291079Y2546095D03*
G01*
X-2545079Y5086095D03*
G01*
X-2545079Y2546095D03*
G01*
X-2799079Y5086095D03*
G01*
X-2799079Y2546095D03*
G01*
X-3053079Y5086095D03*
G01*
X-3053079Y2546095D03*
G01*
X-3307079Y5086095D03*
G01*
X-3307079Y2546095D03*
G01*
X-3561079Y5086095D03*
G01*
X-3561079Y2546095D03*
G01*
X-3815079Y5086095D03*
G01*
X-3815079Y2546095D03*
G01*
X-4069079Y5086095D03*
G01*
X-4069079Y2546095D03*
G01*
X-4323079Y5086095D03*
G01*
X-4323079Y2546095D03*
G01*
X-4577079Y5086095D03*
G01*
X-4577079Y2546095D03*
G01*
X-4831079Y5086095D03*
G01*
X-4831079Y2546095D03*
G01*
X-5085079Y5086095D03*
G01*
X-5085079Y2546095D03*
G01*
X-5339079Y5086095D03*
G01*
X-5339079Y2546095D03*
G01*
X-5593079Y5086095D03*
G01*
X-5593079Y2546095D03*
G01*
X-5847079Y5086095D03*
G01*
X-5847079Y2546095D03*
G01*
X-6101079Y5086095D03*
G01*
X-6101079Y2546095D03*
D16*
G01*
X-6582587Y1971598D03*
G01*
X-6582587Y1717192D03*
G01*
X-6582587Y4706391D03*
G01*
X-6582587Y4451985D03*
G01*
X-6582587Y4197578D03*
G01*
X-5397500Y1968500D03*
G01*
X-5143500Y1968500D03*
G01*
X-4889500Y1968500D03*
M02*
