G04 Layer: BottomPasteMaskLayer*
G04 EasyEDA v6.5.46, 2024-09-02 22:14:07*
G04 e88426a38d4c4d1a9789fb718d1c1170,6b50037bb1584808a520f39feb1544fe,10*
G04 Gerber Generator version 0.2*
G04 Scale: 100 percent, Rotated: No, Reflected: No *
G04 Dimensions in millimeters *
G04 leading zeros omitted , absolute positions ,4 integer and 5 decimal *
%FSLAX45Y45*%
%MOMM*%

%ADD10C,0.0001*%

%LPD*%
G36*
X-1503426Y1990699D02*
G01*
X-1503426Y1945690D01*
X-1548384Y1945690D01*
X-1548384Y1989683D01*
X-1590395Y1990191D01*
X-1595424Y1985213D01*
X-1595424Y1870202D01*
X-1590395Y1865172D01*
X-1462379Y1865172D01*
X-1457401Y1870202D01*
X-1457401Y1985213D01*
X-1462379Y1990191D01*
G37*
G36*
X-1590395Y2205177D02*
G01*
X-1595424Y2200198D01*
X-1595424Y2085187D01*
X-1590395Y2080209D01*
X-1548384Y2080209D01*
X-1548384Y2124710D01*
X-1503426Y2124710D01*
X-1503426Y2080717D01*
X-1462379Y2080209D01*
X-1457401Y2085187D01*
X-1457401Y2200198D01*
X-1462379Y2205177D01*
G37*
G36*
X-1373378Y1531772D02*
G01*
X-1378407Y1526794D01*
X-1378407Y1398778D01*
X-1373378Y1393799D01*
X-1258417Y1393799D01*
X-1253388Y1398778D01*
X-1252880Y1439824D01*
X-1297889Y1439824D01*
X-1297889Y1484782D01*
X-1253896Y1484782D01*
X-1253388Y1526794D01*
X-1258417Y1531772D01*
G37*
G36*
X-1158392Y1531772D02*
G01*
X-1163421Y1526794D01*
X-1163370Y1484782D01*
X-1118920Y1484782D01*
X-1118920Y1439824D01*
X-1162913Y1439824D01*
X-1163421Y1398778D01*
X-1158392Y1393799D01*
X-1043381Y1393799D01*
X-1038402Y1398778D01*
X-1038402Y1526794D01*
X-1043381Y1531772D01*
G37*
G36*
X-3766007Y1786178D02*
G01*
X-3770985Y1781200D01*
X-3771493Y1740204D01*
X-3726484Y1740204D01*
X-3726484Y1695196D01*
X-3770477Y1695196D01*
X-3770985Y1653184D01*
X-3766007Y1648206D01*
X-3650996Y1648206D01*
X-3645966Y1653184D01*
X-3645966Y1781200D01*
X-3650996Y1786178D01*
G37*
G36*
X-3980992Y1786178D02*
G01*
X-3985971Y1781200D01*
X-3985971Y1653184D01*
X-3980992Y1648206D01*
X-3865981Y1648206D01*
X-3861003Y1653184D01*
X-3861003Y1695196D01*
X-3905504Y1695196D01*
X-3905504Y1740204D01*
X-3861511Y1740204D01*
X-3861003Y1781200D01*
X-3865981Y1786178D01*
G37*
M02*
