G04 Layer: TopLayer*
G04 EasyEDA v6.5.46, 2024-09-06 20:46:00*
G04 ee909672bfd0416e87b19a6d4beb8481,6b50037bb1584808a520f39feb1544fe,10*
G04 Gerber Generator version 0.2*
G04 Scale: 100 percent, Rotated: No, Reflected: No *
G04 Dimensions in millimeters *
G04 leading zeros omitted , absolute positions ,4 integer and 5 decimal *
%FSLAX45Y45*%
%MOMM*%

%ADD10C,0.2032*%
%ADD11R,1.5748X1.5748*%
%ADD12R,1.9000X1.6000*%
%ADD13R,1.6000X1.9000*%

%LPD*%
D10*
X-6189588Y1589981D02*
G01*
X-6198986Y1608269D01*
X-6217274Y1626811D01*
X-6235816Y1635955D01*
X-6272646Y1635955D01*
X-6291188Y1626811D01*
X-6309730Y1608269D01*
X-6318874Y1589981D01*
X-6328272Y1562041D01*
X-6328272Y1516067D01*
X-6318874Y1488381D01*
X-6309730Y1469839D01*
X-6291188Y1451297D01*
X-6272646Y1442153D01*
X-6235816Y1442153D01*
X-6217274Y1451297D01*
X-6198986Y1469839D01*
X-6189588Y1488381D01*
X-6128628Y1571439D02*
G01*
X-6128628Y1442153D01*
X-6128628Y1516067D02*
G01*
X-6119484Y1543753D01*
X-6100942Y1562041D01*
X-6082400Y1571439D01*
X-6054714Y1571439D01*
X-5947526Y1571439D02*
G01*
X-5966068Y1562041D01*
X-5984610Y1543753D01*
X-5993754Y1516067D01*
X-5993754Y1497525D01*
X-5984610Y1469839D01*
X-5966068Y1451297D01*
X-5947526Y1442153D01*
X-5919840Y1442153D01*
X-5901552Y1451297D01*
X-5883010Y1469839D01*
X-5873866Y1497525D01*
X-5873866Y1516067D01*
X-5883010Y1543753D01*
X-5901552Y1562041D01*
X-5919840Y1571439D01*
X-5947526Y1571439D01*
X-5812906Y1571439D02*
G01*
X-5812906Y1442153D01*
X-5812906Y1534355D02*
G01*
X-5784966Y1562041D01*
X-5766678Y1571439D01*
X-5738992Y1571439D01*
X-5720450Y1562041D01*
X-5711306Y1534355D01*
X-5711306Y1442153D01*
X-5650346Y1571439D02*
G01*
X-5650346Y1478983D01*
X-5640948Y1451297D01*
X-5622406Y1442153D01*
X-5594720Y1442153D01*
X-5576432Y1451297D01*
X-5548746Y1478983D01*
X-5548746Y1571439D02*
G01*
X-5548746Y1442153D01*
X-5386186Y1543753D02*
G01*
X-5395330Y1562041D01*
X-5423016Y1571439D01*
X-5450702Y1571439D01*
X-5478388Y1562041D01*
X-5487786Y1543753D01*
X-5478388Y1525211D01*
X-5459846Y1516067D01*
X-5413872Y1506669D01*
X-5395330Y1497525D01*
X-5386186Y1478983D01*
X-5386186Y1469839D01*
X-5395330Y1451297D01*
X-5423016Y1442153D01*
X-5450702Y1442153D01*
X-5478388Y1451297D01*
X-5487786Y1469839D01*
X-6932475Y926282D02*
G01*
X-6932475Y802076D01*
X-6932475Y861258D02*
G01*
X-6914695Y878784D01*
X-6902757Y884880D01*
X-6885231Y884880D01*
X-6873293Y878784D01*
X-6867451Y861258D01*
X-6867451Y802076D01*
X-6810555Y926282D02*
G01*
X-6810555Y825698D01*
X-6804713Y807918D01*
X-6793029Y802076D01*
X-6781091Y802076D01*
X-6828335Y884880D02*
G01*
X-6786933Y884880D01*
X-6724449Y926282D02*
G01*
X-6724449Y825698D01*
X-6718353Y807918D01*
X-6706669Y802076D01*
X-6694731Y802076D01*
X-6742229Y884880D02*
G01*
X-6700827Y884880D01*
X-6655869Y884880D02*
G01*
X-6655869Y760674D01*
X-6655869Y867100D02*
G01*
X-6643931Y878784D01*
X-6632247Y884880D01*
X-6614467Y884880D01*
X-6602783Y878784D01*
X-6590845Y867100D01*
X-6585003Y849320D01*
X-6585003Y837636D01*
X-6590845Y819856D01*
X-6602783Y807918D01*
X-6614467Y802076D01*
X-6632247Y802076D01*
X-6643931Y807918D01*
X-6655869Y819856D01*
X-6480863Y867100D02*
G01*
X-6486959Y878784D01*
X-6504485Y884880D01*
X-6522265Y884880D01*
X-6540045Y878784D01*
X-6545887Y867100D01*
X-6540045Y855162D01*
X-6528107Y849320D01*
X-6498643Y843478D01*
X-6486959Y837636D01*
X-6480863Y825698D01*
X-6480863Y819856D01*
X-6486959Y807918D01*
X-6504485Y802076D01*
X-6522265Y802076D01*
X-6540045Y807918D01*
X-6545887Y819856D01*
X-6435905Y872942D02*
G01*
X-6442001Y867100D01*
X-6435905Y861258D01*
X-6430063Y867100D01*
X-6435905Y872942D01*
X-6435905Y831540D02*
G01*
X-6442001Y825698D01*
X-6435905Y819856D01*
X-6430063Y825698D01*
X-6435905Y831540D01*
X-6284775Y949904D02*
G01*
X-6391201Y760674D01*
X-6139487Y949904D02*
G01*
X-6245659Y760674D01*
X-6029505Y867100D02*
G01*
X-6041189Y878784D01*
X-6053127Y884880D01*
X-6070907Y884880D01*
X-6082591Y878784D01*
X-6094529Y867100D01*
X-6100371Y849320D01*
X-6100371Y837636D01*
X-6094529Y819856D01*
X-6082591Y807918D01*
X-6070907Y802076D01*
X-6053127Y802076D01*
X-6041189Y807918D01*
X-6029505Y819856D01*
X-5990389Y884880D02*
G01*
X-5990389Y802076D01*
X-5990389Y849320D02*
G01*
X-5984547Y867100D01*
X-5972863Y878784D01*
X-5960925Y884880D01*
X-5943145Y884880D01*
X-5874565Y884880D02*
G01*
X-5886503Y878784D01*
X-5898187Y867100D01*
X-5904283Y849320D01*
X-5904283Y837636D01*
X-5898187Y819856D01*
X-5886503Y807918D01*
X-5874565Y802076D01*
X-5857039Y802076D01*
X-5845101Y807918D01*
X-5833417Y819856D01*
X-5827321Y837636D01*
X-5827321Y849320D01*
X-5833417Y867100D01*
X-5845101Y878784D01*
X-5857039Y884880D01*
X-5874565Y884880D01*
X-5788459Y884880D02*
G01*
X-5788459Y802076D01*
X-5788459Y861258D02*
G01*
X-5770679Y878784D01*
X-5758741Y884880D01*
X-5741215Y884880D01*
X-5729277Y878784D01*
X-5723435Y861258D01*
X-5723435Y802076D01*
X-5684319Y884880D02*
G01*
X-5684319Y825698D01*
X-5678477Y807918D01*
X-5666539Y802076D01*
X-5649013Y802076D01*
X-5637075Y807918D01*
X-5619295Y825698D01*
X-5619295Y884880D02*
G01*
X-5619295Y802076D01*
X-5515409Y867100D02*
G01*
X-5521251Y878784D01*
X-5539031Y884880D01*
X-5556811Y884880D01*
X-5574591Y878784D01*
X-5580433Y867100D01*
X-5574591Y855162D01*
X-5562653Y849320D01*
X-5533189Y843478D01*
X-5521251Y837636D01*
X-5515409Y825698D01*
X-5515409Y819856D01*
X-5521251Y807918D01*
X-5539031Y802076D01*
X-5556811Y802076D01*
X-5574591Y807918D01*
X-5580433Y819856D01*
X-5470451Y831540D02*
G01*
X-5476293Y825698D01*
X-5470451Y819856D01*
X-5464609Y825698D01*
X-5470451Y831540D01*
X-5354627Y926282D02*
G01*
X-5354627Y802076D01*
X-5354627Y867100D02*
G01*
X-5366565Y878784D01*
X-5378249Y884880D01*
X-5396029Y884880D01*
X-5407967Y878784D01*
X-5419651Y867100D01*
X-5425493Y849320D01*
X-5425493Y837636D01*
X-5419651Y819856D01*
X-5407967Y807918D01*
X-5396029Y802076D01*
X-5378249Y802076D01*
X-5366565Y807918D01*
X-5354627Y819856D01*
X-5244645Y926282D02*
G01*
X-5303827Y926282D01*
X-5309669Y872942D01*
X-5303827Y878784D01*
X-5286047Y884880D01*
X-5268267Y884880D01*
X-5250741Y878784D01*
X-5238803Y867100D01*
X-5232961Y849320D01*
X-5232961Y837636D01*
X-5238803Y819856D01*
X-5250741Y807918D01*
X-5268267Y802076D01*
X-5286047Y802076D01*
X-5303827Y807918D01*
X-5309669Y814014D01*
X-5315765Y825698D01*
X-5188003Y884880D02*
G01*
X-5152697Y802076D01*
X-5117137Y884880D02*
G01*
X-5152697Y802076D01*
X-5164381Y778454D01*
X-5176319Y766516D01*
X-5188003Y760674D01*
X-5193845Y760674D01*
X-5072179Y831540D02*
G01*
X-5078021Y825698D01*
X-5072179Y819856D01*
X-5066337Y825698D01*
X-5072179Y831540D01*
X-5027221Y884880D02*
G01*
X-4962197Y802076D01*
X-4962197Y884880D02*
G01*
X-5027221Y802076D01*
X-4917493Y884880D02*
G01*
X-4881933Y802076D01*
X-4846373Y884880D02*
G01*
X-4881933Y802076D01*
X-4893871Y778454D01*
X-4905555Y766516D01*
X-4917493Y760674D01*
X-4923335Y760674D01*
X-4742487Y884880D02*
G01*
X-4807511Y802076D01*
X-4807511Y884880D02*
G01*
X-4742487Y884880D01*
X-4807511Y802076D02*
G01*
X-4742487Y802076D01*
X-6296357Y1253380D02*
G01*
X-6296357Y1124094D01*
X-6296357Y1198008D02*
G01*
X-6287213Y1225694D01*
X-6268671Y1244236D01*
X-6250129Y1253380D01*
X-6222443Y1253380D01*
X-6161483Y1198008D02*
G01*
X-6050739Y1198008D01*
X-6050739Y1216550D01*
X-6059883Y1234838D01*
X-6069281Y1244236D01*
X-6087569Y1253380D01*
X-6115255Y1253380D01*
X-6133797Y1244236D01*
X-6152339Y1225694D01*
X-6161483Y1198008D01*
X-6161483Y1179466D01*
X-6152339Y1151780D01*
X-6133797Y1133238D01*
X-6115255Y1124094D01*
X-6087569Y1124094D01*
X-6069281Y1133238D01*
X-6050739Y1151780D01*
X-5989779Y1253380D02*
G01*
X-5934407Y1124094D01*
X-5878781Y1253380D02*
G01*
X-5934407Y1124094D01*
X-5675581Y1281066D02*
G01*
X-5657293Y1290210D01*
X-5629607Y1318150D01*
X-5629607Y1124094D01*
X-5559249Y1170322D02*
G01*
X-5568647Y1160924D01*
X-5559249Y1151780D01*
X-5550105Y1160924D01*
X-5559249Y1170322D01*
X-5433773Y1318150D02*
G01*
X-5461459Y1308752D01*
X-5480001Y1281066D01*
X-5489145Y1234838D01*
X-5489145Y1207152D01*
X-5480001Y1160924D01*
X-5461459Y1133238D01*
X-5433773Y1124094D01*
X-5415231Y1124094D01*
X-5387545Y1133238D01*
X-5369003Y1160924D01*
X-5359859Y1207152D01*
X-5359859Y1234838D01*
X-5369003Y1281066D01*
X-5387545Y1308752D01*
X-5415231Y1318150D01*
X-5433773Y1318150D01*
D11*
G01*
X-6582663Y3211829D03*
G01*
X-6582663Y3466084D03*
G01*
X-6582663Y3720592D03*
D12*
G01*
X-4318000Y952500D03*
G01*
X-4318000Y1206500D03*
G01*
X-4318000Y1460500D03*
G01*
X-4318000Y1714500D03*
G01*
X-4318000Y1968500D03*
G01*
X-4318000Y698500D03*
G01*
X-762000Y952500D03*
G01*
X-762000Y1206500D03*
G01*
X-762000Y1460500D03*
G01*
X-762000Y1714500D03*
D13*
G01*
X-767079Y5086095D03*
G01*
X-767079Y2546095D03*
G01*
X-1021079Y5086095D03*
G01*
X-1021079Y2546095D03*
G01*
X-1275079Y5086095D03*
G01*
X-1275079Y2546095D03*
G01*
X-1529079Y5086095D03*
G01*
X-1529079Y2546095D03*
G01*
X-1783079Y5086095D03*
G01*
X-1783079Y2546095D03*
G01*
X-2037079Y5086095D03*
G01*
X-2037079Y2546095D03*
G01*
X-2291079Y5086095D03*
G01*
X-2291079Y2546095D03*
G01*
X-2545079Y5086095D03*
G01*
X-2545079Y2546095D03*
G01*
X-2799079Y5086095D03*
G01*
X-2799079Y2546095D03*
G01*
X-3053079Y5086095D03*
G01*
X-3053079Y2546095D03*
G01*
X-3307079Y5086095D03*
G01*
X-3307079Y2546095D03*
G01*
X-3561079Y5086095D03*
G01*
X-3561079Y2546095D03*
G01*
X-3815079Y5086095D03*
G01*
X-3815079Y2546095D03*
G01*
X-4069079Y5086095D03*
G01*
X-4069079Y2546095D03*
G01*
X-4323079Y5086095D03*
G01*
X-4323079Y2546095D03*
G01*
X-4577079Y5086095D03*
G01*
X-4577079Y2546095D03*
G01*
X-4831079Y5086095D03*
G01*
X-4831079Y2546095D03*
G01*
X-5085079Y5086095D03*
G01*
X-5085079Y2546095D03*
G01*
X-5339079Y5086095D03*
G01*
X-5339079Y2546095D03*
G01*
X-5593079Y5086095D03*
G01*
X-5593079Y2546095D03*
G01*
X-5847079Y5086095D03*
G01*
X-5847079Y2546095D03*
G01*
X-6101079Y5086095D03*
G01*
X-6101079Y2546095D03*
D11*
G01*
X-476986Y1780794D03*
G01*
X-476986Y1462786D03*
G01*
X-6582587Y4642789D03*
G01*
X-6582587Y4388383D03*
G01*
X-6582587Y4134002D03*
G01*
X-6582587Y2289581D03*
G01*
X-6582587Y2543987D03*
G01*
X-6582587Y2798394D03*
M02*
