G04 Layer: BottomLayer*
G04 EasyEDA v6.5.46, 2024-09-06 20:46:00*
G04 ee909672bfd0416e87b19a6d4beb8481,6b50037bb1584808a520f39feb1544fe,10*
G04 Gerber Generator version 0.2*
G04 Scale: 100 percent, Rotated: No, Reflected: No *
G04 Dimensions in millimeters *
G04 leading zeros omitted , absolute positions ,4 integer and 5 decimal *
%FSLAX45Y45*%
%MOMM*%

%AMMACRO1*21,1,$1,$2,0,0,$3*%
%ADD10C,0.5000*%
%ADD11R,1.3770X1.1325*%
%ADD12MACRO1,1.377X1.1325X0.0000*%
%ADD13MACRO1,1.377X1.1325X-90.0000*%
%ADD14MACRO1,1.377X1.1325X90.0000*%
%ADD15R,1.5748X1.5748*%
%ADD16R,1.9000X1.6000*%
%ADD17R,1.6000X1.9000*%

%LPD*%
D10*
X-1308404Y1462786D02*
G01*
X-2798394Y1462796D01*
X-6582587Y4642789D02*
G01*
X-6582587Y4388383D01*
X-6582587Y4388383D01*
X-6582587Y4388383D02*
G01*
X-6582587Y4133974D01*
X-6582587Y4133974D01*
X-1529209Y2545996D02*
G01*
X-1526387Y2543175D01*
X-1526387Y2135200D01*
X-3715976Y1717194D02*
G01*
X-3711521Y1712739D01*
X-3711521Y1460500D01*
X-6582562Y3211804D02*
G01*
X-3773195Y3211804D01*
X-2799209Y4185790D01*
X-2799209Y5085996D01*
X-6582562Y3720592D02*
G01*
X-3962907Y3720592D01*
X-3307209Y4376290D01*
X-3307209Y5085996D01*
X-6582562Y3466211D02*
G01*
X-3873972Y3466211D01*
X-3053209Y4286976D01*
X-3053209Y5085996D01*
X-6101181Y2545994D02*
G01*
X-5847181Y2545994D01*
X-6582587Y4642789D02*
G01*
X-6582587Y4388383D01*
X-6582587Y4388383D01*
X-6582587Y4388383D02*
G01*
X-6582587Y4133974D01*
X-6582587Y4133974D01*
X-1529079Y2546095D02*
G01*
X-1529079Y2703065D01*
X-1526288Y2703065D01*
X-1399288Y2830319D01*
X-572515Y2830319D01*
X-476986Y2734790D01*
X-476986Y1780794D01*
X-4318000Y1460500D02*
G01*
X-3214115Y1460500D01*
X-3053334Y1621281D01*
X-3053334Y2546095D01*
X-4318000Y1714505D02*
G01*
X-4315310Y1717194D01*
X-3916001Y1717194D01*
X-767079Y2546095D02*
G01*
X-762000Y2541015D01*
X-762000Y1714500D01*
X-6582562Y2798399D02*
G01*
X-6582562Y2544003D01*
X-6582562Y2544003D02*
G01*
X-6582562Y2289594D01*
X-6582663Y2544063D02*
G01*
X-6101079Y2546095D01*
X-6582587Y4388383D02*
G01*
X-6105593Y4388383D01*
X-5847079Y4646896D01*
X-5847079Y5086095D01*
X-1021079Y5086095D02*
G01*
X-1016000Y5081015D01*
X-1016000Y4572000D01*
X-291845Y3847845D01*
X-286257Y3847845D01*
X-286257Y1653539D01*
X-479297Y1460500D01*
X-762000Y1460500D01*
X-1526286Y1935226D02*
G01*
X-1526286Y1844294D01*
X-1396492Y1714500D01*
X-762000Y1714500D01*
X-1021079Y5086095D02*
G01*
X-767079Y5086095D01*
X-4318000Y1206500D02*
G01*
X-3054604Y1206500D01*
X-2799334Y1462023D01*
X-2799334Y2546095D01*
X-5847079Y2546095D02*
G01*
X-5847079Y2094737D01*
X-5720842Y1968500D01*
X-4318000Y1968500D01*
X-762000Y1460500D02*
G01*
X-1108455Y1462786D01*
D11*
G01*
X-1526387Y2135200D03*
D12*
G01*
X-1526397Y1935190D03*
D13*
G01*
X-1108392Y1462796D03*
G01*
X-1308402Y1462796D03*
D14*
G01*
X-3915996Y1717197D03*
G01*
X-3715986Y1717197D03*
D15*
G01*
X-6582663Y3211829D03*
G01*
X-6582663Y3466084D03*
G01*
X-6582663Y3720592D03*
D16*
G01*
X-4318000Y952500D03*
G01*
X-4318000Y1206500D03*
G01*
X-4318000Y1460500D03*
G01*
X-4318000Y1714500D03*
G01*
X-4318000Y1968500D03*
G01*
X-4318000Y698500D03*
G01*
X-762000Y952500D03*
G01*
X-762000Y1206500D03*
G01*
X-762000Y1460500D03*
G01*
X-762000Y1714500D03*
D17*
G01*
X-767079Y5086095D03*
G01*
X-767079Y2546095D03*
G01*
X-1021079Y5086095D03*
G01*
X-1021079Y2546095D03*
G01*
X-1275079Y5086095D03*
G01*
X-1275079Y2546095D03*
G01*
X-1529079Y5086095D03*
G01*
X-1529079Y2546095D03*
G01*
X-1783079Y5086095D03*
G01*
X-1783079Y2546095D03*
G01*
X-2037079Y5086095D03*
G01*
X-2037079Y2546095D03*
G01*
X-2291079Y5086095D03*
G01*
X-2291079Y2546095D03*
G01*
X-2545079Y5086095D03*
G01*
X-2545079Y2546095D03*
G01*
X-2799079Y5086095D03*
G01*
X-2799079Y2546095D03*
G01*
X-3053079Y5086095D03*
G01*
X-3053079Y2546095D03*
G01*
X-3307079Y5086095D03*
G01*
X-3307079Y2546095D03*
G01*
X-3561079Y5086095D03*
G01*
X-3561079Y2546095D03*
G01*
X-3815079Y5086095D03*
G01*
X-3815079Y2546095D03*
G01*
X-4069079Y5086095D03*
G01*
X-4069079Y2546095D03*
G01*
X-4323079Y5086095D03*
G01*
X-4323079Y2546095D03*
G01*
X-4577079Y5086095D03*
G01*
X-4577079Y2546095D03*
G01*
X-4831079Y5086095D03*
G01*
X-4831079Y2546095D03*
G01*
X-5085079Y5086095D03*
G01*
X-5085079Y2546095D03*
G01*
X-5339079Y5086095D03*
G01*
X-5339079Y2546095D03*
G01*
X-5593079Y5086095D03*
G01*
X-5593079Y2546095D03*
G01*
X-5847079Y5086095D03*
G01*
X-5847079Y2546095D03*
G01*
X-6101079Y5086095D03*
G01*
X-6101079Y2546095D03*
D15*
G01*
X-476986Y1780794D03*
G01*
X-476986Y1462786D03*
G01*
X-6582587Y4642789D03*
G01*
X-6582587Y4388383D03*
G01*
X-6582587Y4134002D03*
G01*
X-6582587Y2289581D03*
G01*
X-6582587Y2543987D03*
G01*
X-6582587Y2798394D03*
M02*
